<?xml version="1.0" encoding="utf-8"?>
<!-- Generator: Adobe Illustrator 21.0.0, SVG Export Plug-In . SVG Version: 6.00 Build 0)  -->
<svg version="1.1" id="Layer_1" xmlns="http://www.w3.org/2000/svg" xmlns:xlink="http://www.w3.org/1999/xlink" x="0px" y="0px"
	 viewBox="0 0 228.6 204.3" style="enable-background:new 0 0 228.6 204.3;" xml:space="preserve">
<style type="text/css">
	.st0{fill:#7262B7;}
	.st1{fill:#664CA5;}
	.st2{clip-path:url(#SVGID_2_);}
	.st3{opacity:0.4;fill:#4D328E;enable-background:new    ;}
	.st4{fill:#DDDDED;}
	.st5{clip-path:url(#SVGID_4_);}
	.st6{fill:#C3C3D8;}
	.st7{opacity:0.5;fill:none;stroke:#F4D760;stroke-width:3.07;stroke-miterlimit:10;enable-background:new    ;}
	.st8{fill:#6954A8;}
	.st9{fill:#EDEDF9;}
	.st10{fill:#C7C7DD;}
	.st11{opacity:0.2;fill:#9E96CC;enable-background:new    ;}
	.st12{opacity:0.37;fill:#9E96CC;enable-background:new    ;}
	.st13{opacity:0.13;fill:#9E96CC;enable-background:new    ;}
	.st14{fill:#E95291;}
	.st15{clip-path:url(#SVGID_6_);}
	.st16{fill:#D64185;}
	.st17{fill:#52469B;}
	.st18{fill:#FFFFFF;}
	.st19{clip-path:url(#SVGID_8_);}
	.st20{opacity:0.9;fill:#CACAE0;enable-background:new    ;}
	.st21{fill:#9191BA;}
	.st22{fill:#4B3A8E;}
	.st23{opacity:0.5;fill:none;stroke:#F4D760;stroke-width:3.25;stroke-miterlimit:10;enable-background:new    ;}
	.st24{clip-path:url(#SVGID_10_);}
	.st25{fill:#F4D760;}
	.st26{fill:#CCB140;}
	.st27{fill:none;stroke:#8A7FC9;stroke-width:2.43;stroke-miterlimit:10;}
	.st28{opacity:0.18;fill:#EDEDF9;enable-background:new    ;}
	.st29{opacity:9.000000e-02;fill:#EDEDF9;enable-background:new    ;}
	.st30{clip-path:url(#SVGID_12_);}
	.st31{fill:#96D2E2;}
	.st32{fill:#79BCCC;}
	.st33{fill:#F58A1F;}
	.st34{fill:none;stroke:#2A2A77;stroke-width:2.28;stroke-linecap:round;stroke-miterlimit:10;}
	.st35{clip-path:url(#SVGID_14_);}
	.st36{fill:#E2720E;}
	.st37{opacity:0.12;fill:#5C3C99;enable-background:new    ;}
	.st38{fill:none;stroke:#BF5B08;stroke-width:2.11;stroke-miterlimit:10;}
	.st39{fill:#5C3C99;}
	.st40{opacity:0.2;fill:#CACAE0;enable-background:new    ;}
	.st41{opacity:0.33;fill:#FFFFFF;enable-background:new    ;}
	.st42{opacity:0.65;fill:url(#SVGID_15_);enable-background:new    ;}
	.st43{fill:#BABAD3;}
	.st44{clip-path:url(#SVGID_17_);}
	.st45{clip-path:url(#SVGID_19_);}
	.st46{opacity:8.000000e-02;enable-background:new    ;}
</style>
<title>ziggy_17</title>
<g id="Layer_2">
	<g id="Layer_1-2">
		<path class="st0" d="M241.5,43.2"/>
		<polygon class="st1" points="204.1,21.4 209.7,43.1 200.3,54.3 203.3,58.6 156.2,105.9 142.1,89.7 		"/>
		<g>
			<defs>
				<polygon id="SVGID_1_" points="204.1,21.4 209.7,43.1 202,52.3 205.7,56.5 156.5,105.9 142.1,89.7 				"/>
			</defs>
			<clipPath id="SVGID_2_">
				<use xlink:href="#SVGID_1_"  style="overflow:visible;"/>
			</clipPath>
			<g class="st2">
				<polygon class="st3" points="189,37.6 172.4,97.9 159.5,109 140.6,93.4 				"/>
			</g>
		</g>
		<polygon class="st0" points="140.2,88.2 205.6,13.8 206.8,22.1 143.1,94.1 		"/>
		<polygon class="st4" points="206.4,30.1 191.7,46.5 194.7,51.6 208.1,36.9 		"/>
		<path class="st1" d="M157.8,44.9c0,0,4.7-10.3,6.3-13.9l-10.6-18.5l-30.1,74l13.4,7.9l24-46.9L157.8,44.9z"/>
		<g>
			<defs>
				<path id="SVGID_3_" d="M157.8,44.9c0,0,4.7-10.3,6.3-13.9l-10.6-18.5l-30.1,74l13.4,7.9l24-46.9L157.8,44.9z"/>
			</defs>
			<clipPath id="SVGID_4_">
				<use xlink:href="#SVGID_3_"  style="overflow:visible;"/>
			</clipPath>
			<g class="st5">
				<polygon class="st3" points="142,32.3 143,87.5 136.6,98.4 119.6,85.9 				"/>
			</g>
		</g>
		<polygon class="st6" points="157.1,18.5 147.2,42 150.9,45.4 160.1,23.8 		"/>
		<polygon class="st0" points="151,2 119.7,87.7 125.1,90.4 155.2,10.1 		"/>
		<path class="st7" d="M30.9,151c-4.4-4.6-6.4-8.6-5-11c2.7-4.7,18-0.8,34,8.6s26.8,20.8,24.1,25.5c-1.5,2.5-6.6,2.6-13.5,0.6"/>
		<path class="st8" d="M64.8,177.9c0,0,22-36.8,11.3-53.5c-0.1-0.2-0.3-0.4-0.5-0.6c-0.9-1.1-2.3-1.8-3.7-1.9
			C52.3,120.8,30.9,158,30.9,158l-0.3,0.5c-0.1,0.1-0.2,0.2-0.3,0.4c-2.2,3.6,3.7,11.1,13.1,16.6s18.8,7,20.9,3.3
			c0.1-0.2,0.2-0.5,0.3-0.7L64.8,177.9L64.8,177.9z"/>
		
			<ellipse transform="matrix(0.5326 -0.8464 0.8464 0.5326 -140.1146 119.7162)" class="st9" cx="38.3" cy="186.7" rx="10.4" ry="4.4"/>
		
			<ellipse transform="matrix(0.1355 -0.9908 0.9908 0.1355 -141.2425 217.9226)" class="st9" cx="54.3" cy="189.9" rx="7.4" ry="3.5"/>
		
			<ellipse transform="matrix(0.7964 -0.6047 0.6047 0.7964 -100.8532 52.7679)" class="st9" cx="27.9" cy="176.2" rx="7.4" ry="3.5"/>
		<path class="st10" d="M33.9,171.7c-0.3-0.3-0.6-0.5-1-0.6c0.3,1.4-1.1,3.8-3.5,5.6c-2.8,2.1-5.9,2.8-6.9,1.5
			c-0.1-0.2-0.2-0.4-0.3-0.6c-0.6,1.2-0.7,2.4-0.2,3.1c1.2,1.5,4.8,0.8,8-1.7C33.3,176.5,35,173.2,33.9,171.7z"/>
		<path class="st10" d="M43.9,177.9c-0.3-0.2-0.6-0.3-1-0.3c1.2,1.4,0.3,5.5-2.3,9.6c-2.8,4.4-6.4,7.1-8,6c-0.5-0.4-0.8-1-0.8-1.7
			c-0.3,1.9,0.1,3.4,1.1,4c2.1,1.3,6.2-1.6,9.3-6.5S46,179.2,43.9,177.9z"/>
		<path class="st10" d="M55.3,182.6c-0.3,0-0.6,0-0.9,0.1c1.2,0.8,1.7,3.5,1.1,6.5c-0.7,3.4-2.6,5.8-4.2,5.4c-0.1,0-0.2-0.1-0.3-0.1
			c0.4,1.5,1.2,2.6,2.2,2.7c1.9,0.3,3.9-2.8,4.5-6.9S57.2,182.8,55.3,182.6z"/>
		<path class="st11" d="M63.1,127.6c-11.9,9.3-22.2,20.6-30.2,33.4c0.8,2,2.2,3.7,4,4.9C36.8,165.9,48.5,144.2,63.1,127.6z"/>
		
			<ellipse transform="matrix(0.7319 -0.6814 0.6814 0.7319 -87.3772 75.4772)" class="st12" cx="52.2" cy="148.8" rx="5.2" ry="5.2"/>
		<path class="st7" d="M70.5,174.7c-7.2-2.2-14.1-5.3-20.5-9.1c-7-4-13.4-8.8-19.1-14.5"/>
		
			<ellipse transform="matrix(1.116986e-02 -0.9999 0.9999 1.116986e-02 -87.8746 188.1967)" class="st13" cx="51.2" cy="138.5" rx="3.1" ry="3.2"/>
		<path class="st14" d="M85.6,135.6c0.3-3.3-0.4-6.6-2-9.5c-3.2-5.5-8.9-9.1-15.2-9.5c-6.3-0.3-12.4,2.3-16.6,7.1l7,5.9
			c-3,7.1,0.2,15.3,7.3,18.3c7.1,3,15.3-0.2,18.3-7.3c0.5-1.3,0.9-2.6,1-4C85.6,136.3,85.6,135.9,85.6,135.6z"/>
		<g>
			<defs>
				<path id="SVGID_5_" d="M85.6,135.6c0.3-3.3-0.4-6.6-2-9.5c-3.2-5.5-8.9-9.1-15.2-9.5c-6.3-0.3-12.4,2.3-16.6,7.1l7,5.9
					c-3,7.1,0.2,15.3,7.3,18.3c7.1,3,15.3-0.2,18.3-7.3c0.5-1.3,0.9-2.6,1-4C85.6,136.3,85.6,135.9,85.6,135.6z"/>
			</defs>
			<clipPath id="SVGID_6_">
				<use xlink:href="#SVGID_5_"  style="overflow:visible;"/>
			</clipPath>
			<g class="st15">
				<path class="st16" d="M85.3,125.1c-0.3,3.1-1.2,6.1-2.6,8.9c-1.4,2.8-3.7,5-6.5,6.5c-4.6,2.3-10.3,1.6-14.7-1.1
					c-2.1-1.3-4-3.2-4.6-5.6l0.1,7.3l2.9,6.1l8.1,3.8l7.4,0.8l5.3-1.6l3.9-3.6l3.5-10.7l-0.8-4.6L85.3,125.1z"/>
			</g>
		</g>
		
			<ellipse transform="matrix(0.1083 -0.9941 0.9941 0.1083 -74.0965 188.9583)" class="st17" cx="68.3" cy="135.8" rx="7.9" ry="7.6"/>
		
			<ellipse transform="matrix(0.9007 -0.4344 0.4344 0.9007 -52.2092 43.2239)" class="st18" cx="68.4" cy="135.8" rx="4.9" ry="4.9"/>
		<path class="st4" d="M70.4,138c-2.4,1.2-5.4,0.2-6.6-2.3c-0.1-0.2-0.2-0.4-0.2-0.6c-0.4,2.7,1.5,5.2,4.2,5.5
			c2.7,0.4,5.2-1.5,5.5-4.2c0.1-0.8,0-1.5-0.2-2.3C72.9,135.9,71.9,137.3,70.4,138z"/>
		<path class="st4" d="M134.3,155.6c8.3-0.9,15.7-5.6,19.9-12.8c13.6-25-6.1-56.2-6.1-56.2l-0.9-1.9c-1.8-0.9-2.9,0.3-5.6,0.2
			L119,95.1l-0.1-0.2l-4.6,2.1l-0.4,0.2l-0.7,0.5l-0.3,0.1l-0.4,0.2l-4.1,3l0.1,0.1l-20,14.4c-1.3,2.3-2.9,2.7-3,4.7l1.2,1.8
			C86.5,122.1,104.1,157.3,134.3,155.6z"/>
		<g>
			<defs>
				<path id="SVGID_7_" d="M134.3,155.6c8.3-0.9,15.7-5.6,19.9-12.8c13.6-25-6.1-56.2-6.1-56.2l-0.9-1.9c-1.8-0.9-2.9,0.3-5.6,0.2
					L119,95.1l-0.1-0.2l-4.6,2.1l-0.4,0.2l-0.7,0.5l-0.3,0.1l-0.4,0.2l-4.1,3l0.1,0.1l-20,14.4c-1.3,2.3-2.9,2.7-3,4.7l1.2,1.8
					C86.5,122.1,104.1,157.3,134.3,155.6z"/>
			</defs>
			<clipPath id="SVGID_8_">
				<use xlink:href="#SVGID_7_"  style="overflow:visible;"/>
			</clipPath>
			<g class="st19">
				<path class="st20" d="M135.3,98.5c8.3,7.7,17.8,23.6,16.5,34.9s-8.1,18.6-18,24.3l12.1-1.6l10.8-7l7.7-17l0.3-15.8l-4.5-15.4
					l-3.5-9.7l-7.7-6.7l-7.1,0.7L135.3,98.5z"/>
			</g>
		</g>
		<path class="st21" d="M85.3,120.3c-1.9-3.3,10.3-14,27.4-23.9s32.5-15.1,34.4-11.8s-8.8,15.8-25.9,25.6S87.2,123.7,85.3,120.3z"/>
		<path class="st22" d="M188.2,102.3c-0.5,1.7-1.2,3.3-2.1,4.8c-2.6-1.4-5.3-2.7-8.1-3.7c0.1,0,2.8-2.6,3.2-2.8
			c1.1-0.8,2.3-1.4,3.6-2C187.5,97.5,188.9,99.9,188.2,102.3z"/>
		<path class="st23" d="M196.9,144.5c-5.7,6.3-12.2,11.6-19.4,16"/>
		<path class="st23" d="M213.2,119.6c-2.4,7-8.2,16.1-16.4,24.9"/>
		<path class="st8" d="M211.8,124.3L211.8,124.3c-0.1,0-36.5-34.3-58.1-26.6c-0.3,0.1-0.5,0.2-0.8,0.4c-1.5,0.7-2.7,2.1-3.1,3.7
			c-6.2,22.2,30.7,56,30.7,56v0.1c1.9,0.8,3.9,1.2,5.9,1.1l12.8-9.8l0.2,0.2l2.6-2l0.2-0.2l0.3-0.5l0.2-0.1l0.2-0.2l1.8-2.8
			l-0.1-0.1l8.8-13.4C213.3,128.1,212.7,126.1,211.8,124.3z"/>
		<g>
			<defs>
				<path id="SVGID_9_" d="M211.8,124.3L211.8,124.3c-0.1,0-36.5-34.3-58.1-26.6c-0.3,0.1-0.5,0.2-0.8,0.4c-1.5,0.7-2.7,2.1-3.1,3.7
					c-6.2,22.2,30.7,56,30.7,56v0.1c1.9,0.8,3.9,1.2,5.9,1.1l12.8-9.8l0.2,0.2l2.6-2l0.2-0.2l0.3-0.5l0.2-0.1l0.2-0.2l1.8-2.8
					l-0.1-0.1l8.8-13.4C213.3,128.1,212.7,126.1,211.8,124.3z"/>
			</defs>
			<clipPath id="SVGID_10_">
				<use xlink:href="#SVGID_9_"  style="overflow:visible;"/>
			</clipPath>
			<g class="st24">
				<path class="st3" d="M189.2,99.2l-31.3-7l-7,2.8l-0.2,3l-2.4,0.5l-3.7,7.2l2.4,14.4l8.9,15.4l22.2,26.1l5-5
					c-10.9-9.3-20.3-20.1-28-32.2c-2.4-3.8-4.8-7.9-5.8-12.3c-0.6-3.2-0.4-6.5,0.4-9.7c0.9-2.9,4.4-4.4,7.3-4.3
					c10.8,0.3,20,7.3,28.4,14.1l18.8,15l7.1-0.1l5.4-0.4l1.1-8.9L189.2,99.2z"/>
			</g>
		</g>
		
			<ellipse transform="matrix(0.6814 -0.7319 0.7319 0.6814 -41.0838 189.3571)" class="st25" cx="196.9" cy="141.9" rx="23" ry="9"/>
		
			<ellipse transform="matrix(0.6814 -0.7319 0.7319 0.6814 -41.0838 189.3571)" class="st26" cx="196.9" cy="141.9" rx="16.8" ry="5.6"/>
		
			<ellipse transform="matrix(0.6824 -0.731 0.731 0.6824 -46.9784 202.3024)" class="st9" cx="209.3" cy="155.2" rx="5.5" ry="12.9"/>
		
			<ellipse transform="matrix(0.9229 -0.3849 0.3849 0.9229 -49.1699 87.7053)" class="st9" cx="194.5" cy="166.7" rx="4.8" ry="10.2"/>
		
			<ellipse transform="matrix(0.3137 -0.9495 0.9495 0.3137 18.0105 303.3197)" class="st9" cx="218.8" cy="139.2" rx="4.8" ry="10.2"/>
		<path class="st23" d="M177.4,160.5c-6.6,3.8-12.1,4.9-14.8,2.4c-5.1-4.7,2-20.6,15.9-35.4s29.1-23.1,34.2-18.4
			c2.1,1.9,2.1,5.7,0.5,10.5"/>
		<path class="st27" d="M196.9,144.5"/>
		<path class="st10" d="M198.9,164.8c-2.2-5.2-5.9-8.6-8.3-7.6c-0.6,0.3-1.1,0.8-1.4,1.4c2-0.5,5,2.3,6.7,6.4
			c1.8,4.4,1.6,8.6-0.4,9.4c-0.4,0.2-0.8,0.2-1.2,0.1c1.5,1.3,3,1.9,4.1,1.4C200.8,175,201,170,198.9,164.8z"/>
		<path class="st10" d="M220.3,134.7c-5.3-1.8-10.3-1.2-11.1,1.3c-0.4,1.1,0.2,2.4,1.3,3.7c0.9-1.4,4-1.7,7.3-0.6
			c3.6,1.2,6,3.5,5.4,5.1c-0.1,0.2-0.1,0.3-0.3,0.5c2.9,0,5-0.8,5.5-2.3C229.3,139.9,225.7,136.4,220.3,134.7z"/>
		<path class="st10" d="M213.1,151.2c-5.2-4.9-11.1-7-13.2-4.8c-0.8,0.9-0.9,2.4-0.4,4.1c1.7-1.7,6.4,0,10.5,3.9s6.2,8.5,4.6,10.3
			l0,0c1.8,0.4,3.3,0.3,4.2-0.6C220.8,161.8,218.3,156.1,213.1,151.2z"/>
		<path class="st11" d="M152.5,110c0,0,1.5,14.4,25.9,37.1c0.8-2.3,2-4.3,3.8-6C170.9,132.1,161,121.6,152.5,110z"/>
		<path class="st14" d="M187.7,99c-1.6-1.8-3.6-3.8-5.3-5.5c-3.7-3.8-8-7.4-13.2-8.5c-4.6-0.8-9.3,0.1-13.3,2.5
			c-6.2,3.4-10.7,9.2-12.6,16c-0.5,2-0.8,4-0.7,6c0,0.2,0,0.3,0,0.5c0,7.8,6.3,14.1,14.1,14.1c5.8,0,11.1-3.6,13.1-9.1
			C173.2,107.4,182.3,99,187.7,99z"/>
		
			<ellipse transform="matrix(1 -2.967042e-03 2.967042e-03 1 -0.3314 0.4675)" class="st17" cx="157.4" cy="111.9" rx="8.8" ry="8.8"/>
		
			<ellipse transform="matrix(1 -2.967042e-03 2.967042e-03 1 -0.3314 0.4675)" class="st18" cx="157.4" cy="111.9" rx="5.5" ry="5.5"/>
		
			<ellipse transform="matrix(0.9886 -0.1506 0.1506 0.9886 -13.2961 24.6412)" class="st28" cx="156.1" cy="100.1" rx="5.9" ry="5.9"/>
		
			<ellipse transform="matrix(0.5926 -0.8055 0.8055 0.5926 -16.4377 178.1131)" class="st29" cx="167.9" cy="105.3" rx="4.1" ry="4"/>
		<g>
			<defs>
				<path id="SVGID_11_" d="M187.7,99c-1.6-1.8-3.6-3.8-5.3-5.5c-3.7-3.8-8-7.4-13.2-8.5c-4.6-0.8-9.3,0.1-13.3,2.5
					c-6.2,3.4-10.7,9.2-12.6,16c-0.5,2-0.8,4-0.7,6c0,0.2,0,0.3,0,0.5c0,7.8,6.3,14.1,14.1,14.1c5.8,0,11.1-3.6,13.1-9.1
					C173.2,107.4,182.3,99,187.7,99z"/>
			</defs>
			<clipPath id="SVGID_12_">
				<use xlink:href="#SVGID_11_"  style="overflow:visible;"/>
			</clipPath>
			<g class="st30">
				<path class="st16" d="M151.9,90.3c2.7-1.6,5.5-3.3,8.6-3.5c1.9,0,3.7,0.4,5.4,1.2c2.4,1.1,4.8,3.2,6.9,4.7
					c3.8,2.9,8.7,7.7,12.3,10.7l12.7-4.6L191,87.4l-15.7-9.7l-14-0.3l-10.9,9.1L151.9,90.3z"/>
			</g>
		</g>
		<path class="st4" d="M158.3,115c-3,0-5.4-2.4-5.5-5.4c0-0.2,0-0.5,0-0.7c-1.6,2.5-0.9,5.9,1.7,7.5c2.5,1.6,5.9,0.9,7.5-1.7
			c0.4-0.7,0.7-1.4,0.8-2.2C161.8,114.1,160.1,115,158.3,115z"/>
		<polygon class="st31" points="74.9,17 48.3,31 36.8,52.2 35.3,70.2 38.6,82.3 46,94.7 58.2,104.6 75.9,111.3 107.3,105.4 
			128.2,83.6 126.9,57.8 112.1,27.2 		"/>
		<path class="st32" d="M49.7,75.8c0,4.5,0.7,9,1.9,13.4c3.7,11.4,12.7,19.1,24.2,22.6c1.1,0.3,2.3,0.5,3.5,0.6
			c0.6-0.1,1-0.7,1.7-0.8c7.7-0.9,19.2-4.8,25.8-10.8c0.6-0.5-3.4-6.6-3-7.3c0.4-0.7,0.7-1.5,0.9-2.3c1.2-3.9,1.8-7.9,2.1-11.9
			c0.1-3.8-0.4-7.6-1.6-11.2c-2.2-6.8-6.6-12.6-12.5-16.5c-6-3.9-13.1-5.5-20.2-4.5c-4.1,0.6-6.8,3.1-10.6,4.7
			c-2.8,1.1-4.7,1.7-6.4,4.3C52,61.2,49.4,69.9,49.7,75.8z"/>
		<path class="st33" d="M131.5,59.4c0-2.4-0.3-4.8-0.8-7.1c-2.1-9.3-7-18.1-14.9-23.8c-8.8-6.3-20.4-8-30.9-5.4S65.3,32.4,58.7,41
			c-10,13-15.4,32.2-7.6,47.5c2.7,5.1,6.8,9.4,11.7,12.5c5.9,3.7,12.6,5.7,19.5,5.8c12.1,0.4,24-2.7,33.1-10.6
			c4.6-4,7.5-11,10.3-16.3C129.2,73.5,131.5,66.5,131.5,59.4z"/>
		<path class="st34" d="M77.3,96.2c1.7,1.5,4,2.2,6.3,1.8c2.2-0.4,4.4-1.1,6.3-2.2"/>
		<g>
			<defs>
				<path id="SVGID_13_" d="M131.5,59.4c0-2.4-0.3-4.8-0.8-7.1c-2.1-9.3-7-18.1-14.9-23.8c-8.8-6.3-20.4-8-30.9-5.4
					S65.3,32.4,58.7,41c-10,13-15.4,32.2-7.6,47.5c2.7,5.1,6.8,9.4,11.7,12.5c5.9,3.7,12.6,5.7,19.5,5.8c12.1,0.4,24-2.7,33.1-10.6
					c4.6-4,7.5-11,10.3-16.3C129.2,73.5,131.5,66.5,131.5,59.4z"/>
			</defs>
			<clipPath id="SVGID_14_">
				<use xlink:href="#SVGID_13_"  style="overflow:visible;"/>
			</clipPath>
			<g class="st35">
				<path class="st36" d="M77.5,71.5c3.4,0.8,7,0.3,10.1-1.4c3.6-2.3,6.6-5.4,9.7-8.3c4.3-3.8,8.5-6,14.1-6.4
					c1.9-0.2,3.8,0.1,5.6,0.8c2.7,1.1,5.3,3.2,8.2,2.5c1.5-0.5,2.8-1.4,3.7-2.7c5.7-6.5,8.5-16,5.4-24c-1.9-4.8-5.6-8.7-9.6-12
					c-4-3.3-8-6.1-12.8-7.4c-6.2-1.7-12.9-0.7-19.2,0.8c-12.1,3-24,7.9-33.2,16.4S44.3,50.6,45.5,63c0.1,0.8-0.3,3.5,1.5,2.8
					c0.7-0.3,1.1-1,1.5-1.6c4.3-6.2,13.5-2.7,18.4,0.7c3.1,2.1,5.9,5.1,9.6,6.3C76.8,71.3,77.1,71.4,77.5,71.5z"/>
				<path class="st37" d="M126.7,25.2c0.7,16.3-24.5,33.5-46.2,35.5C56.2,63,38.8,43.6,38.1,27.3S56.9,1.2,81.2,0.1
					S126,8.9,126.7,25.2z"/>
			</g>
		</g>
		<path class="st38" d="M82.2,71.8c-1.5-9.5-4.6-32.9-0.2-41.7"/>
		<path class="st37" d="M71.7,75.4c1.6,9-4,17-12.4,17.4s-15.5-6.9-16.1-15.6C42.6,68.8,48,62,55.4,61.5S70.2,67,71.7,75.4z"/>
		<path class="st18" d="M69.8,73.8c1.5,8.6-3.9,16.4-12.1,16.7s-15-6.6-15.6-15.1c-0.6-8,4.8-14.5,11.9-15S68.4,65.7,69.8,73.8z"/>
		<path class="st39" d="M64.7,69.2c2.2,2,2.4,5.4,0.4,7.6c0,0,0,0,0,0c-2,2.2-5.5,2.4-7.7,0.4c-2.2-2-2.4-5.4-0.4-7.6c0,0,0,0,0,0
			C59,67.3,62.4,67.2,64.7,69.2z"/>
		<path class="st37" d="M93.4,71.7c-1.4,9.6,4.8,17.8,14,17.9s16.7-7.9,17.1-17.2c0.4-8.8-5.7-15.8-13.8-16S94.7,62.7,93.4,71.7z"/>
		<path class="st18" d="M95.1,69.9c-1.4,9.2,4.5,17.2,13.3,17.2s15.8-7.6,16.2-16.6c0.4-8.5-5.4-15.2-13.1-15.4S96.4,61.3,95.1,69.9
			z"/>
		<path class="st39" d="M101.1,65.2c-2.3,2.1-2.5,5.6-0.4,7.9c0.1,0.1,0.1,0.1,0.2,0.2c2.3,2.3,6,2.3,8.4,0.1
			c2.3-2.1,2.5-5.6,0.4-7.9c-0.1-0.1-0.1-0.1-0.2-0.2C107.2,63,103.5,63,101.1,65.2z"/>
		<path class="st40" d="M113.2,55.3c5.7,1.9,9.7,7.7,9.4,14.8c-0.4,9-7.6,16.6-16.2,16.6c-0.7,0-1.5-0.1-2.2-0.2
			c1.3,0.5,2.8,0.7,4.2,0.7c8.6,0.1,15.8-7.6,16.2-16.6C125,62.8,120,56.5,113.2,55.3z"/>
		<path class="st40" d="M59.8,89.9c-8.1,0.4-15-6.6-15.6-15.1C43.7,68.5,47,63,52,60.8c-6.1,1.5-10.4,7.5-9.9,14.7
			c0.6,8.5,7.5,15.4,15.6,15c1.5-0.1,3.1-0.4,4.5-1C61.4,89.7,60.6,89.9,59.8,89.9z"/>
		<path class="st4" d="M85.1,9.9c-2.7,0-5.5,0.2-8.2,0.7l-4.3,1.1C57,15.5,44.1,26.3,37.5,40.9l0,0c-0.3,0.6-0.5,1.2-0.8,1.8
			l-0.2,0.5c-0.2,0.5-0.4,1-0.6,1.5s-0.3,0.8-0.4,1.3s-0.2,0.6-0.3,0.9c-0.2,0.8-0.5,1.6-0.7,2.4v0.1c-0.2,0.8-0.4,1.6-0.5,2.3V52
			c-0.2,0.8-0.3,1.6-0.4,2.4v0.1c-1.2,7.8-0.5,15.8,1.8,23.4c6.9,21.7,27,36.4,49.8,36.4c0.9,0,1.8,0,2.7-0.1l-0.2,0.1
			c0,0,3.4-0.2,8.5-0.8c28.3-6,46.3-33.8,40.3-62.1C131.4,27.1,110,9.8,85.2,9.9L85.1,9.9z M79,109.2C56.4,109.2,38,91,38,68.4
			s18.2-40.9,40.7-41c22.6-0.1,40.9,18.2,41,40.7c0,0,0,0,0,0C119.8,90.7,101.5,109.1,79,109.2z"/>
		<path class="st20" d="M85.1,9.9c-1.7,0-3.4,0.1-5,0.3c28,0.1,50.7,22.8,50.6,50.8c-0.1,28-22.8,50.7-50.8,50.6
			c-8.1,0-16.1-2-23.3-5.7c8.5,5.5,18.4,8.5,28.5,8.4c0.9,0,1.8,0,2.7-0.1l-0.2,0.1c0,0,3.4-0.2,8.5-0.8c28.3-6,46.3-33.8,40.3-62.1
			C131.3,27.2,109.9,9.9,85.1,9.9L85.1,9.9z"/>
		<path class="st41" d="M125.9,151.2v0.1l0.4,0.3L125.9,151.2z"/>
		<path class="st41" d="M125.8,151.5l0.1-0.2c-10.4-7.3-17.6-18.3-20.2-30.7l-1.5,0.5c-4.1,1.4-8.3,2.2-12.6,2.4
			c4.6,10.1,12.6,18.4,22.5,23.4c5.2,2.6,7.5,3.9,11.9,4.6L125.8,151.5z"/>
		
			<linearGradient id="SVGID_15_" gradientUnits="userSpaceOnUse" x1="34.5163" y1="153.3991" x2="103.2663" y2="124.2391" gradientTransform="matrix(1 0 0 -1 0 206)">
			<stop  offset="0" style="stop-color:#FFFFFF;stop-opacity:0.7"/>
			<stop  offset="0.64" style="stop-color:#FFFFFF;stop-opacity:0"/>
		</linearGradient>
		<path class="st42" d="M79,109.3C56.4,109.3,38,91.1,38,68.5c0-8.6,2.6-16.9,7.6-23.9c9.5,8.8,22.8,12.7,35.5,11.5
			c10.9-1.1,21.3-5.7,30.5-12.2c13.5,18.1,9.9,43.7-8.2,57.2C96.3,106.4,87.8,109.2,79,109.3z"/>
		<path class="st4" d="M38,68.4c-0.1-22.6,18.2-40.9,40.8-41c4.9,0,9.8,0.9,14.4,2.6c-20.7-8.9-44.8,0.7-53.7,21.4
			s0.7,44.8,21.4,53.7c0.6,0.3,1.3,0.5,1.9,0.8C47.8,99.4,38,84.7,38,68.4z"/>
		<path class="st43" d="M38,68.4c-0.1-22.6,18.2-40.9,40.8-41c4.9,0,9.8,0.9,14.4,2.6C88,27.8,82.5,26.7,77,26.7
			c-22.6,0.1-41.4,16.6-41.3,39.2c0,17.5,11.7,34.2,27.1,40C47.8,99.5,38,84.7,38,68.4z"/>
		<path class="st4" d="M42,40.7C51.4,52.2,66.7,57.4,81.1,56s27.7-8.9,38.6-18.8c-0.3-4.9-2.3-9.5-5.8-13c-3.4-3.1-7.4-5.4-11.8-6.7
			C90.9,14,78.9,14.4,68,18.8C57.2,23,48.8,30.8,42,40.7z"/>
		<circle class="st41" cx="66.6" cy="35" r="15.1"/>
		<path class="st26" d="M94.4,43.5C95,53,89.5,60.8,82,60.8s-14-7.6-14.7-17.1c-0.7-9.5,4.9-17.3,12.3-17.3
			C87.1,26.3,93.7,33.9,94.4,43.5z"/>
		<path class="st25" d="M91.6,44.5c0.6,9.5-4.9,17.3-12.3,17.3c-7.4,0-14-7.6-14.7-17.1c-0.7-9.5,4.9-17.3,12.3-17.3
			S90.9,34.9,91.6,44.5z"/>
		<g>
			<defs>
				<path id="SVGID_16_" d="M91.6,44.5c0.6,9.5-4.9,17.3-12.3,17.3c-7.4,0-14-7.6-14.7-17.1c-0.7-9.5,4.9-17.3,12.3-17.3
					S90.9,34.9,91.6,44.5z"/>
			</defs>
			<clipPath id="SVGID_17_">
				<use xlink:href="#SVGID_16_"  style="overflow:visible;"/>
			</clipPath>
			<g class="st44">
				<circle class="st41" cx="71.8" cy="37.5" r="15"/>
				<circle class="st18" cx="71.9" cy="36.7" r="7.7"/>
			</g>
		</g>
		<circle class="st18" cx="81.7" cy="46" r="3.8"/>
		<path class="st26" d="M94.4,43.1C95,52.6,89.5,60.4,82,60.5c-7.5,0.1-14-7.6-14.7-17.1C66.7,33.8,72.3,26,79.7,26
			C87.1,26,93.7,33.6,94.4,43.1z"/>
		<path class="st25" d="M91.6,44.1c0.6,9.5-4.9,17.3-12.3,17.3c-7.5,0.1-14-7.6-14.7-17.1C63.9,34.8,69.5,27,76.9,27
			S90.9,34.6,91.6,44.1z"/>
		<g>
			<defs>
				<path id="SVGID_18_" d="M91.6,44.1c0.6,9.5-4.9,17.3-12.3,17.3c-7.5,0.1-14-7.6-14.7-17.1C63.9,34.8,69.5,27,76.9,27
					S90.9,34.6,91.6,44.1z"/>
			</defs>
			<clipPath id="SVGID_19_">
				<use xlink:href="#SVGID_18_"  style="overflow:visible;"/>
			</clipPath>
			<g class="st45">
				<circle class="st41" cx="71.8" cy="37.2" r="15"/>
				<circle class="st18" cx="71.9" cy="36.3" r="7.7"/>
			</g>
		</g>
		<circle class="st18" cx="81.7" cy="45.7" r="3.8"/>
		<ellipse class="st46" cx="112.8" cy="196.8" rx="50.5" ry="7.5"/>
	</g>
</g>
</svg>
