<svg xmlns="http://www.w3.org/2000/svg" xmlns:xlink="http://www.w3.org/1999/xlink" viewBox="0 0 166.83 193.08"><defs><style>.cls-1,.cls-17{fill:none;}.cls-2{fill:#96d2e2;}.cls-3{fill:#6155aa;}.cls-4{fill:#7262b7;}.cls-10,.cls-11,.cls-12,.cls-13,.cls-5{fill:#5b4493;}.cls-5{opacity:0.2;}.cls-6{fill:#7c71bc;}.cls-11,.cls-6{opacity:0.5;}.cls-7{fill:#7871bc;}.cls-8{fill:#aaa5db;opacity:0.78;}.cls-9{clip-path:url(#clip-path);}.cls-10{opacity:0.35;}.cls-12{opacity:0.25;}.cls-13{opacity:0.4;}.cls-14,.cls-21,.cls-22{fill:#fff;}.cls-15{fill:#2d70c1;}.cls-16{fill:#fdd959;opacity:0.8;}.cls-17{stroke:#3b2066;stroke-linecap:round;stroke-miterlimit:10;stroke-width:3px;}.cls-17,.cls-23{opacity:0.65;}.cls-18{clip-path:url(#clip-path-2);}.cls-19{fill:#8787af;opacity:0.13;}.cls-20{fill:#b0b0d1;}.cls-21{opacity:0.47;}.cls-22{opacity:0.62;}.cls-23{fill:url(#linear-gradient);}.cls-24{opacity:0.08;}</style><clipPath id="clip-path"><path class="cls-1" d="M4.31,131.1a35.05,35.05,0,0,0,13.71,10c4.06,1.72,10.65,4.87,14.65,2.07-4,1.48-5.16,6.7-4,10.41,1.22,4,4.12,5.31,7.13,8.18s7.19,5.87,11.1,6.73a16.26,16.26,0,0,0,6.65-.16A29.54,29.54,0,0,0,77.19,137a82.77,82.77,0,0,0,1.24,16.62c1,6.47,2.44,13.4,7.26,17.84,6.21,5.72,15.81,5.37,24.08,3.66,3.83-.79,7.75-1.87,10.74-4.39s4.77-6.86,3.25-10.46a15.14,15.14,0,0,0-2.92-4,118.77,118.77,0,0,1-14.49-20c5.27,6.84,12.94,11.4,20.7,15.19,4.81,2.35,10,4.52,15.35,3.93,7.13-.79,12.72-6.27,17.7-11.43a19.32,19.32,0,0,0,4.17-5.52c.92-2.13,1-4.8-.5-6.6a9.7,9.7,0,0,0-4.35-2.58l-29.68-11.14a36.56,36.56,0,0,1-7.88-3.84c-3.9-2.67-4.2-7.58-2.5-11.78,2.24-5.55,7.18-8.92,12-12s11.15-6.21,11.08-13.09a18.1,18.1,0,0,0-1.59-6.65,68.29,68.29,0,0,0-6.53-12,63.43,63.43,0,0,1-3.74-5.31,28.38,28.38,0,0,0-4.5-5.56,24.3,24.3,0,0,0-5.26-4A66,66,0,0,0,70,36.45C50.26,41.74,36.16,55.82,26.58,73.31,25.13,76,24.24,79.19,25.3,82c1,2.6,3.35,4.37,5.57,6,4.06,3,8.12,6.31,10.62,10.71s3.13,10.22.3,14.43c-2.4,3.57-6.74,5.32-11,6.19a41.22,41.22,0,0,1-17.31-.13c-3.65-.82-8-1.94-10.68.72a6.32,6.32,0,0,0-1.41,5.73A13.18,13.18,0,0,0,4.31,131.1Z"/></clipPath><clipPath id="clip-path-2"><path class="cls-1" d="M141.65,122.52l-10.31-4a.08.08,0,0,0-.07,0l-26.41,15.25-.05-.08-29,1.69-.87-.25-22.5-6.62-.13.1L35.19,118.15a42.86,42.86,0,0,1-12.06,2.09s13.33,6.91,18.56,15.49c-.55.38-1,.7-1.32.94a.13.13,0,0,0,.12.22c1.93-.69,8.08-.7,29.37,10.5a5.32,5.32,0,0,1,2.84,3.3,8.24,8.24,0,0,1-.1,3.14,7.19,7.19,0,0,1-1.25,3.31,22.79,22.79,0,0,0,5.8-11.8L78.44,154s0-4.81,3-5.81a24,24,0,0,1,3.17-.72c1.81-.34,3.62-.64,5.44-.92q3.29-.51,6.59-.92c2.2-.28,4.41-.53,6.62-.72,1.84-.16,3.69-.3,5.54-.33a8.32,8.32,0,0,1,2.91.32.19.19,0,0,0,.1,0c.15,0-.12-.38-.18-.47l-.34-.53-1.05-1.66-2.81-4.45L106.27,136a35.26,35.26,0,0,0,3.85,4.45c1.77,1.65,3.7,3.07,5.36,4.38a.08.08,0,0,0,.12-.09c-.33-.84-1.59-3.69-.47-4.89,5.26-5.67,16.68-12.75,26.68-17.28C141.88,122.55,141.71,122.54,141.65,122.52Z"/></clipPath><linearGradient id="linear-gradient" x1="30.15" y1="16.66" x2="116.96" y2="99.4" gradientUnits="userSpaceOnUse"><stop offset="0" stop-color="#fff" stop-opacity="0.7"/><stop offset="0.64" stop-color="#fff" stop-opacity="0"/></linearGradient></defs><title>ziggy_3</title><g id="Layer_2" data-name="Layer 2"><g id="Layer_1-2" data-name="Layer 1"><circle class="cls-2" cx="83.48" cy="67.49" r="67.49"/><path class="cls-3" d="M97.35,28c2.47-1.34,5.69-1.88,8-.26A7,7,0,0,1,107.84,34a20.52,20.52,0,0,1-2.1,6.67c-5-1.08-10.56-2.11-15.26-4.19C90.88,33,94.46,29.57,97.35,28Z"/><path class="cls-4" d="M4.31,131.1a35.05,35.05,0,0,0,13.71,10c4.06,1.72,10.65,4.87,14.65,2.07-4,1.48-5.16,6.7-4,10.41,1.22,4,4.12,5.31,7.13,8.18s7.19,5.87,11.1,6.73a16.26,16.26,0,0,0,6.65-.16A29.54,29.54,0,0,0,77.19,137a82.77,82.77,0,0,0,1.24,16.62c1,6.47,2.44,13.4,7.26,17.84,6.21,5.72,15.81,5.37,24.08,3.66,3.83-.79,7.75-1.87,10.74-4.39s4.77-6.86,3.25-10.46a15.14,15.14,0,0,0-2.92-4,118.77,118.77,0,0,1-14.49-20c5.27,6.84,12.94,11.4,20.7,15.19,4.81,2.35,10,4.52,15.35,3.93,7.13-.79,12.72-6.27,17.7-11.43a19.32,19.32,0,0,0,4.17-5.52c.92-2.13,1-4.8-.5-6.6a9.7,9.7,0,0,0-4.35-2.58l-29.68-11.14c-2-.76-4.68-1.27-6.3-2.71a15.62,15.62,0,0,1-4.29-5.67c-1.87-4.66.91-9.81,4.13-13.17s7.77-5.61,11.81-8.16c3.35-2.12,6.35-5.29,7.34-9.23.82-3.24-1.53-8.1-2.79-11.09a50.66,50.66,0,0,0-15.76-20.57A61.78,61.78,0,0,0,101,36.07a60.14,60.14,0,0,0-10.54-1.68c-17-1-34.94,5-47.73,16.37A62.37,62.37,0,0,0,26.61,73.49C25.46,76.27,24.18,79,25.3,82c1,2.6,3.35,4.37,5.57,6,4.06,3,8.12,6.31,10.62,10.71s3.13,10.22.3,14.43c-2.4,3.57-6.74,5.32-11,6.19a41.22,41.22,0,0,1-17.31-.13c-3.65-.82-8-1.94-10.68.72a6.32,6.32,0,0,0-1.41,5.73A13.18,13.18,0,0,0,4.31,131.1Z"/><path class="cls-5" d="M111.41,96.45c1.24-.42,2.7-.83,3.77-.07-.93,5.17-4.47,9.62-8.84,12.52s-9.53,4.42-14.7,5.36a65,65,0,0,1-27.31-.8c-4.07-1.06-8.15-2.55-11.34-5.29a14.21,14.21,0,0,1-4.41-6.64c-.57-1.94-1.35-5.27,1.67-4.36,2.12.64,4.2,1.38,6.35,1.95a85.27,85.27,0,0,0,13.27,2.35,97,97,0,0,0,27-1.24A105.85,105.85,0,0,0,111.41,96.45Z"/><path class="cls-6" d="M36.71,152.17A87.13,87.13,0,0,0,45.53,156c2.58,1,5.29,2,8,1.73,3.28-.27,6.18-2.18,8.88-4.07,2.93-2.05,5.89-4.22,7.89-7.19a1.44,1.44,0,0,0,.34-1.1c-.17-.68-1.1-.76-1.8-.68-9,1-17.93,3.05-26.93,2.36-2.4-.19-7-1.36-9.13.22C30.53,149,35.52,151.55,36.71,152.17Z"/><path class="cls-6" d="M88.07,159.8a14.9,14.9,0,0,0,8,6.5,19.51,19.51,0,0,0,6.67.52,36.24,36.24,0,0,0,13.58-3c1.71-.81,3.52-2.12,3.61-4a3.92,3.92,0,0,0-1.77-3.23,10,10,0,0,0-3.55-1.41c-4.72-1.14-9.62-1.56-14.19-3.21-4.18-1.51-8.11-4-12.55-4.33-3-.2-4,1.73-3.21,4.3A32.28,32.28,0,0,0,88.07,159.8Z"/><path class="cls-6" d="M118.41,140.5c1.49,1.19,4.8,2,5.83,2.35a50.44,50.44,0,0,0,10.32,2.66,26.08,26.08,0,0,0,10.67-.65,30.57,30.57,0,0,0,6.52-2.94c3.33-1.91,6.59-4.26,8.08-7.55.76-1.69-3.2-3-4.57-3.39a18.19,18.19,0,0,0-7.2-.32c-4.15.59-8.06,2.15-12.13,3.13-5.41,1.3-11.16,1.57-16.27,3.66a4.14,4.14,0,0,0-1.63,1C117.38,139.24,117.67,139.92,118.41,140.5Z"/><path class="cls-6" d="M10.15,129a31.39,31.39,0,0,0,5.92,3.44,30.64,30.64,0,0,0,9.67,3.3c5,.56,10-1.22,14.57-3.38a14.66,14.66,0,0,0,5.13-3.5,1.15,1.15,0,0,0,.36-.88c-.09-.53-.76-.69-1.3-.72-6-.37-12.18.37-18-1.11-4.3-1.09-8.19-3.31-12.32-4.85-2.5-.94-9.2-3.21-8.07,2A10.78,10.78,0,0,0,10.15,129Z"/><path class="cls-7" d="M59.44,47.24a4.88,4.88,0,0,0,0,5.33c1.26,1.58,3.6,1.8,5.57,1.37a11.48,11.48,0,0,0,7.87-6.42,5.32,5.32,0,0,0,.47-3.65c-.6-2-2.91-3-5-2.81C65.09,41.39,61.09,44.36,59.44,47.24Z"/><path class="cls-8" d="M56.83,154.19a5.24,5.24,0,0,0-3.94-.8,5.66,5.66,0,0,0-3.55,1.54,1.53,1.53,0,0,0-.49,1,1.64,1.64,0,0,0,.77,1.16,5.48,5.48,0,0,0,7.12-.47,1.91,1.91,0,0,0,.69-1.4A1.6,1.6,0,0,0,56.83,154.19Z"/><path class="cls-8" d="M98.76,166.4a3.31,3.31,0,0,0,1.56-.63,1.51,1.51,0,0,0,.55-1.51c-.27-.9-1.41-1.12-2.33-1.3a10.12,10.12,0,0,1-3.8-1.63c-1.16-.81-2.85-2.41-4.39-1.49-1.05.63-.73,1.9-.26,2.82C91.64,165.63,95.59,167,98.76,166.4Z"/><g class="cls-9"><path class="cls-10" d="M3.48,118.45c-2,1.47-2.52,4.48-1.67,6.86a14,14,0,0,0,4.69,5.83,40.84,40.84,0,0,0,18.91,8.66,10.26,10.26,0,0,0,3.15.15,11.34,11.34,0,0,0,3.11-1.08c4.07-1.9,8-4,12-6.1,1.68-.89,4.18-1.36,5.86-2.25q-10.93,7.55-21.28,15.92a4.28,4.28,0,0,1-1.79,1,9.93,9.93,0,0,1-2.44-.53,39.93,39.93,0,0,1-13.26-5.18,26.38,26.38,0,0,1-9.59-10.38A9.73,9.73,0,0,1,0,127.27,12.39,12.39,0,0,1,.55,124l.85-3.23C1.65,119.78,2.79,119.16,3.48,118.45Z"/><path class="cls-10" d="M29,150.55c.71,1.93,3.19,3.66,4.91,4.79,4.66,3.07,8.1,4.29,13.31,6.14a13.38,13.38,0,0,0,3.56.85,12.55,12.55,0,0,0,5.27-1c9.67-3.71,16.13-9.83,21.22-18.84-.82,3.31-.06,6.81-.5,10.19a18.52,18.52,0,0,1-4.05,8.93,42.62,42.62,0,0,1-7.19,6.81,30.63,30.63,0,0,1-9.29,5.5,27.46,27.46,0,0,1-10.11.91,29.59,29.59,0,0,1-10.46-2.24,28,28,0,0,1-8.23-6.11,18.4,18.4,0,0,1-4.2-5.9,12.1,12.1,0,0,1,.05-8.75A19.45,19.45,0,0,1,26,147.16c.73-1,2-2.57,3.35-2.42.07.9-.62,1.78-.75,2.71A6.54,6.54,0,0,0,29,150.55Z"/><path class="cls-10" d="M87.34,164.38a14.63,14.63,0,0,0,3.83,4,14.77,14.77,0,0,0,6.74,1.81,47.4,47.4,0,0,0,18.68-1.76c2.29-.74,4.64-1.83,5.9-3.88a7,7,0,0,0,.34-6.3c-.21-.52-.44-1.21,0-1.55a1.12,1.12,0,0,1,1.07,0A7.94,7.94,0,0,1,127,159c2.57,3.07,2.88,7.64,1.35,11.34a17.31,17.31,0,0,1-8.24,8.39,38.61,38.61,0,0,1-11.46,3.41c-6.46,1.08-13.22,1.52-19.44-.52s-11.83-7-13.1-13.39c-.69-3.47-.09-7,0-10.59,0-2.49-.17-5-.14-7.46,0-1.91-.09-5.61,1.33-7,1.59,3.5,2.38,7.42,4,11A63.91,63.91,0,0,0,87.34,164.38Z"/><path class="cls-10" d="M135.72,149.57a19.07,19.07,0,0,0,7,.62,21.47,21.47,0,0,0,7.27-3,45.57,45.57,0,0,0,8.79-6,15.48,15.48,0,0,0,5.09-9.12c.07-.58.4-1.37.95-1.17a.9.9,0,0,1,.41.43c2.12,3.63,1.93,8.3.24,12.15a25.71,25.71,0,0,1-8,9.57c-3.39,2.66-7.29,4.89-11.56,5.42a27,27,0,0,1-8.54-.61,45.59,45.59,0,0,1-7.75-2.14,62.53,62.53,0,0,1-9.78-5.22,30.47,30.47,0,0,1-5.3-3.79,30.47,30.47,0,0,1-3.73-4.65c-1.15-1.64-2.4-3.27-3.45-5a83.53,83.53,0,0,0,13.7,7.62q3.53,1.55,7.2,2.77C130.47,148.21,133.42,149.57,135.72,149.57Z"/><path class="cls-11" d="M30.47,156a37.81,37.81,0,0,0,18.12,9.64,10.52,10.52,0,0,0,2.1.32,15,15,0,0,0,3.11-.57A43.36,43.36,0,0,0,73.26,154.9a11.94,11.94,0,0,1-3,7A21.25,21.25,0,0,1,64,166.63a35.14,35.14,0,0,1-13.14,4c-4.8.46-9.91-.17-13.88-2.9a26.23,26.23,0,0,1-5.22-5.15,27.5,27.5,0,0,1-4-5.92c-.3-.66-1.79-4.41-.66-4.27.59.07,1.16,1.19,1.45,1.59A17.54,17.54,0,0,0,30.47,156Z"/><path class="cls-11" d="M8.66,136.08c4,3.09,8.89,4.57,13.73,5.9,2.14.59,4.38,1.16,6.55.71a12.29,12.29,0,0,0,2.55-.91c5.61-2.55,10.49-6.1,15.57-9.47,0,0-17.09,11.71-18.27,14.29-1.29,2.81-16-3.88-16-3.88Z"/><path class="cls-11" d="M77.56,149.34a44.28,44.28,0,0,0,4.31,13.09A31,31,0,0,0,85,167.23a14,14,0,0,0,3.39,3.55c3.45,2,7.67,2.5,11.53,3a54.28,54.28,0,0,0,10.7.59c5.69-.4,11.14-2.38,16.5-4.35-.6,2.55-3.83,3.71-6.26,4.69a66.43,66.43,0,0,1-21.65,4.53,40.11,40.11,0,0,1-10.91-.74,13.51,13.51,0,0,1-5.75-2.6,12.84,12.84,0,0,1-3.25-4.58c-2.4-5.28-2.66-11.24-2.87-17C76.37,152.57,76.31,150.5,77.56,149.34Z"/><path class="cls-12" d="M138.13,73.41c-.51,3.84-3,7.16-5.76,9.84s-6,4.91-8.69,7.7a29.19,29.19,0,0,0-5,7.08,14,14,0,0,0-1.74,6.24,6.9,6.9,0,0,0,2.7,5.68A73,73,0,0,1,131,101.41c5.4-3.28,11.63-6.27,14.24-12,1.83-4,1.47-8.77.35-13.07-1.17-4.48-3.27-10.63-6.72-13.92-2.41-2.3-2.39.64-1.9,2.48C137.72,67.67,138.52,70.49,138.13,73.41Z"/><path class="cls-12" d="M32.8,64a40.73,40.73,0,0,0-4.68,6.71,11.69,11.69,0,0,0-1.65,4.55,9.71,9.71,0,0,0,2.84,7.12,53.09,53.09,0,0,0,6,5.11c3.29,2.7,6.24,6,7.53,10.08s.64,8.91-2.43,11.86C37.74,112,33.64,112.7,30,112a24.42,24.42,0,0,1-9.9-5A19.21,19.21,0,0,1,14,100c-2-4.42-1.06-9.62.58-14.19a51.06,51.06,0,0,1,11.09-18"/><path class="cls-12" d="M94.91,33.93A12.13,12.13,0,0,0,90,31.82a50.78,50.78,0,0,0-10.83-1.06,70.69,70.69,0,0,0-18.83,1.78,33.45,33.45,0,0,0-16.3,9.2,5.41,5.41,0,0,0-1.27,1.9,6.06,6.06,0,0,0,.41,3.75c.43,1.29,1.1,3.72,2.46,4.38s3.15-1.65,4.39-2.62a69.77,69.77,0,0,1,9.63-6.39,71.5,71.5,0,0,1,22-7.77A68.85,68.85,0,0,1,94.91,33.93Z"/></g><ellipse class="cls-13" cx="83.07" cy="55.61" rx="10.7" ry="10.4" transform="translate(15.31 129.11) rotate(-81.13)"/><ellipse class="cls-14" cx="83.19" cy="53.27" rx="10.83" ry="9.62" transform="translate(17.73 127.24) rotate(-81.13)"/><ellipse class="cls-14" cx="84.35" cy="52.24" rx="9.43" ry="8.68" transform="translate(19.73 127.52) rotate(-81.13)"/><circle class="cls-15" cx="83.31" cy="53.47" r="3.65" transform="translate(-1.97 3.19) rotate(-2.17)"/><circle class="cls-16" cx="59.82" cy="79.85" r="2.67" transform="translate(-38.94 65.68) rotate(-45)"/><ellipse class="cls-16" cx="104.78" cy="80.1" rx="2.72" ry="2.75"/><path class="cls-16" d="M115.15,91.57A3.43,3.43,0,1,1,119,88.69,3.43,3.43,0,0,1,115.15,91.57Z"/><ellipse class="cls-16" cx="103.63" cy="89.75" rx="1.69" ry="1.71"/><circle class="cls-16" cx="45.64" cy="85.01" r="3.88"/><circle class="cls-16" cx="56.99" cy="88.11" r="1.46"/><path class="cls-13" d="M60.58,59.29c1.58,9.11-3.63,17.24-11.64,17.61s-14.8-7-15.48-15.95C32.81,52.55,38,45.67,45,45.14S59.1,50.73,60.58,59.29Z"/><path class="cls-14" d="M58.42,58.91C60,68,54.79,76.16,46.79,76.53S32,69.52,31.3,60.58c-.65-8.41,4.49-15.29,11.53-15.81S56.94,50.36,58.42,58.91Z"/><circle class="cls-15" cx="48.49" cy="61.46" r="5.62"/><path class="cls-13" d="M105.94,60.88c-2.4,8.93,2.06,17.5,10,18.59S131.31,73.83,132.8,65c1.41-8.31-3.09-15.63-10-16.79S108.2,52.49,105.94,60.88Z"/><path class="cls-14" d="M107.89,61.71c-1.58,9.11,3.63,17.24,11.64,17.61s14.8-7,15.48-15.95c.65-8.41-4.49-15.29-11.53-15.81S109.37,53.16,107.89,61.71Z"/><circle class="cls-15" cx="117.08" cy="64.76" r="5.62"/><path class="cls-17" d="M74.3,77.61a9.91,9.91,0,0,0,17.52.16"/><g class="cls-18"><path class="cls-19" d="M82.93,126.7a60.06,60.06,0,0,1-46.85-22.42l-11.21,7.9a73.84,73.84,0,0,0,112.34,4.42L127,107.47A60,60,0,0,1,82.93,126.7Z"/></g><path class="cls-20" d="M83.56,123.32A60.06,60.06,0,0,1,36.71,100.9l-11.21,7.9a73.84,73.84,0,0,0,112.34,4.42l-10.21-9.14A60,60,0,0,1,83.56,123.32Z"/><path class="cls-21" d="M130.34,111.16a69.67,69.67,0,0,1-46.86,18.11A68.86,68.86,0,0,1,33.2,107.81L29.91,110a71.18,71.18,0,0,0,53.61,23.75,72.14,72.14,0,0,0,50-19.93Z"/><path class="cls-20" d="M124.11,112.58c.84.28,5.73,7,5.73,7l-2.33,1.77-4.94-5.87Z"/><path class="cls-20" d="M119.59,117.66c.14.56,3.35,6.85,3.35,6.85l-2.66,1.72-3.54-7.08Z"/><path class="cls-20" d="M112.51,121.85c.14.21,3.14,6.59,3.14,6.59l-4.47,2.1-1.65-7.34Z"/><circle class="cls-22" cx="62.75" cy="31.51" r="14.47"/><circle class="cls-22" cx="37.07" cy="34.75" r="5.06"/><circle class="cls-23" cx="83.48" cy="67.49" r="59.96"/><ellipse class="cls-24" cx="86.53" cy="185.58" rx="50.5" ry="7.5"/></g></g></svg>