<?xml version="1.0" encoding="utf-8"?>
<!-- Generator: Adobe Illustrator 21.0.0, SVG Export Plug-In . SVG Version: 6.00 Build 0)  -->
<svg version="1.1" id="Layer_1" xmlns="http://www.w3.org/2000/svg" xmlns:xlink="http://www.w3.org/1999/xlink" x="0px" y="0px"
	 viewBox="0 0 241.3 225.8" style="enable-background:new 0 0 241.3 225.8;" xml:space="preserve">
<style type="text/css">
	.st0{opacity:8.000000e-02;enable-background:new    ;}
	.st1{opacity:0.8;fill:#F4D760;enable-background:new    ;}
	.st2{opacity:0.5;fill:#F4D760;enable-background:new    ;}
	.st3{opacity:0.3;fill:#F4D760;enable-background:new    ;}
	.st4{opacity:0.56;fill:none;stroke:#ED6BAC;stroke-width:2.62;stroke-miterlimit:10;enable-background:new    ;}
	.st5{fill:#6954A8;}
	.st6{clip-path:url(#SVGID_2_);}
	.st7{opacity:0.4;fill:#4D328E;enable-background:new    ;}
	.st8{fill:#F4D760;}
	.st9{fill:#EDEDF9;}
	.st10{fill:#CCB140;}
	.st11{fill:#C7C7DD;}
	.st12{opacity:0.2;fill:#9E96CC;enable-background:new    ;}
	.st13{opacity:0.37;fill:#9E96CC;enable-background:new    ;}
	.st14{opacity:0.13;fill:#9E96CC;enable-background:new    ;}
	.st15{clip-path:url(#SVGID_4_);}
	.st16{fill:none;stroke:#8A7FC9;stroke-width:2.44;stroke-miterlimit:10;}
	.st17{fill:#7D7DAA;}
	.st18{clip-path:url(#SVGID_6_);}
	.st19{opacity:0.51;}
	.st20{fill:#5B5B8C;}
	.st21{fill:#9191BA;}
	.st22{opacity:0.66;}
	.st23{clip-path:url(#SVGID_8_);}
	.st24{fill:#ED6BAC;}
	.st25{clip-path:url(#SVGID_10_);}
	.st26{fill:#D357A1;}
	.st27{fill:#96D2E2;}
	.st28{fill:#79BCCC;}
	.st29{fill:#8A7FC9;}
	.st30{clip-path:url(#SVGID_12_);}
	.st31{opacity:0.26;fill:#7262B7;enable-background:new    ;}
	.st32{fill:#7262B7;}
	.st33{clip-path:url(#SVGID_14_);}
	.st34{opacity:0.23;fill:#5B4493;enable-background:new    ;}
	.st35{opacity:0.5;fill:#5B4493;enable-background:new    ;}
	.st36{fill:#FFFFFF;}
	.st37{fill:#2D70C1;}
	.st38{fill:#DDDDED;}
	.st39{fill:none;stroke:#7262B7;stroke-width:1.53;stroke-miterlimit:10;}
	.st40{fill:none;stroke:#2A2A77;stroke-width:2.29;stroke-linecap:round;stroke-miterlimit:10;}
	.st41{fill:#F5F5FC;}
	.st42{clip-path:url(#SVGID_16_);}
	.st43{opacity:0.9;fill:#CACAE0;enable-background:new    ;}
	.st44{opacity:0.9;fill:#B6B6D1;enable-background:new    ;}
	.st45{fill:#7D6AB7;}
	.st46{fill:#664CA5;}
	.st47{fill:#9E96CC;}
	.st48{clip-path:url(#SVGID_18_);}
	.st49{fill:#DD5097;}
	.st50{fill:#CE4188;}
	.st51{opacity:0.15;fill:#FFFFFF;enable-background:new    ;}
	.st52{opacity:0.65;fill:url(#SVGID_19_);enable-background:new    ;}
	.st53{opacity:0.62;fill:#FFFFFF;enable-background:new    ;}
</style>
<title>ziggy_16</title>
<g id="Layer_2">
	<g id="Layer_1-2">
		<ellipse class="st0" cx="119.6" cy="218.3" rx="50.5" ry="7.5"/>
		
			<ellipse transform="matrix(0.9436 -0.3312 0.3312 0.9436 -43.9036 55.1212)" class="st1" cx="139.8" cy="156.4" rx="18.4" ry="6.1"/>
		
			<ellipse transform="matrix(0.9436 -0.3312 0.3312 0.9436 -49.0996 58.5648)" class="st2" cx="147.3" cy="173.4" rx="12.8" ry="4.3"/>
		<ellipse transform="matrix(0.9436 -0.3312 0.3312 0.9436 -52.9168 61.4634)" class="st3" cx="153.9" cy="186" rx="5.7" ry="1.9"/>
		<path class="st4" d="M94,189.5c-8.1-1.5-15.9-4-23.4-7.5c-9.3-4.1-17.2-9-22.5-13.4"/>
		<path class="st5" d="M88.4,193.7L88.4,193.7c-0.1-0.1,19.3-42.8,5.8-59.7c-0.2-0.2-0.4-0.4-0.6-0.6c-1.1-1.1-2.7-1.7-4.3-1.6
			C67.7,133,49,176.1,49,176.1h-0.1c-0.1,1.9,0.1,3.8,0.8,5.6l12.6,8.3l-0.1,0.2l2.6,1.7L65,192l0.5,0.1l0.2,0.1l0.2,0.1l3,0.8v-0.1
			l14.6,3.8C85.4,196.1,87,195.1,88.4,193.7z"/>
		<g>
			<defs>
				<path id="SVGID_1_" d="M88.4,193.7L88.4,193.7c-0.1-0.1,19.3-42.8,5.8-59.7c-0.2-0.2-0.4-0.4-0.6-0.6c-1.1-1.1-2.7-1.7-4.3-1.6
					C67.7,133,49,176.1,49,176.1h-0.1c-0.1,1.9,0.1,3.8,0.8,5.6l12.6,8.3l-0.1,0.2l2.6,1.7L65,192l0.5,0.1l0.2,0.1l0.2,0.1l3,0.8
					v-0.1l14.6,3.8C85.4,196.1,87,195.1,88.4,193.7z"/>
			</defs>
			<clipPath id="SVGID_2_">
				<use xlink:href="#SVGID_1_"  style="overflow:visible;"/>
			</clipPath>
			<g class="st6">
				<path class="st7" d="M81,133.4c3-1.2,6.6-2.4,9.3-0.6c1.8,1.2,2.6,3.3,3.1,5.4c1.1,5,0.4,10.2-0.6,15.2
					c-2.6,12.3-7.7,23.8-12.7,35.3l10.6,9.4l7.7-17.9l1.8-12.9l2.1-12.9l-0.1-10.2l-2-9.1l-5.1-5.5l-7.9-0.4L81,133.4z"/>
			</g>
		</g>
		
			<ellipse transform="matrix(0.4063 -0.9138 0.9138 0.4063 -129.3451 172.6814)" class="st8" cx="68.2" cy="185.9" rx="8.5" ry="21.6"/>
		
			<ellipse transform="matrix(0.4351 -0.9004 0.9004 0.4351 -151.7356 171.1399)" class="st9" cx="60.5" cy="206.5" rx="11.4" ry="4.9"/>
		
			<ellipse transform="matrix(2.460672e-02 -0.9997 0.9997 2.460672e-02 -131.6546 281.1345)" class="st9" cx="78.2" cy="208" rx="8.1" ry="3.8"/>
		
			<ellipse transform="matrix(0.7243 -0.6895 0.6895 0.7243 -122.1474 87.1561)" class="st9" cx="47.9" cy="196.3" rx="8.1" ry="3.8"/>
		<path class="st4" d="M48.1,168.6c-5.3-4.5-8-8.6-6.8-11.3c2.4-5.4,19.5-3.1,38.1,5.2s31.8,19.4,29.4,24.8
			c-1.3,2.9-6.9,3.6-14.6,2.3"/>
		
			<ellipse transform="matrix(0.4063 -0.9138 0.9138 0.4063 -129.3451 172.6814)" class="st10" cx="68.2" cy="185.9" rx="5.2" ry="15.9"/>
		<path class="st11" d="M53.8,190.7c-0.3-0.3-0.7-0.5-1.2-0.6c0.5,1.5-0.7,4.3-3.2,6.6c-2.8,2.6-6,3.7-7.3,2.4
			c-0.2-0.2-0.3-0.4-0.4-0.6c-0.5,1.4-0.5,2.7,0.2,3.4c1.5,1.5,5.3,0.2,8.5-2.9S55.2,192.2,53.8,190.7z"/>
		<path class="st11" d="M65.5,196.2c-0.4-0.2-0.7-0.2-1.1-0.2c1.5,1.4,1,6-1.3,10.7c-2.5,5.1-6.1,8.5-8,7.6c-0.6-0.4-1-1-1.1-1.8
			c-0.1,2.1,0.5,3.7,1.7,4.3c2.4,1.2,6.6-2.5,9.4-8.2C67.7,202.9,67.9,197.4,65.5,196.2z"/>
		<path class="st11" d="M78.4,199.9c-0.3,0-0.6,0.1-0.9,0.2c1.5,0.7,2.3,3.6,2,6.9c-0.4,3.7-2.1,6.6-3.9,6.4c-0.1,0-0.2,0-0.3-0.1
			c0.7,1.6,1.6,2.7,2.7,2.7c2.1,0.1,3.9-3.6,4-8S80.5,200,78.4,199.9z"/>
		<path class="st12" d="M80.3,139.1c0,0-11.9,7.4-23.5,31.7c2.3,0.1,4.5,0.5,6.6,1.4C63.3,172.2,66.3,159,80.3,139.1z"/>
		
			<ellipse transform="matrix(0.6516 -0.7586 0.7586 0.6516 -85.4256 109.1306)" class="st13" cx="76.1" cy="147.6" rx="5.7" ry="5.7"/>
		<ellipse transform="matrix(0.995 -0.1002 0.1002 0.995 -13.6249 8.8899)" class="st14" cx="81.7" cy="140.1" rx="3.5" ry="3.4"/>
		<path class="st4" d="M209.4,152.1c-5.7,6.3-12.3,11.7-19.5,16.1"/>
		<path class="st4" d="M225.9,127.1c-2.4,7-8.2,16.2-16.5,25"/>
		<path class="st5" d="M224.4,131.8L224.4,131.8c-0.1,0-36.6-34.5-58.4-26.7c-0.3,0.1-0.5,0.2-0.8,0.4c-1.5,0.7-2.7,2.1-3.1,3.8
			c-6.2,22.3,30.9,56.3,30.9,56.3v0.1c1.9,0.8,3.9,1.2,5.9,1.1l12.8-9.8l0.2,0.2l2.6-2l0.2-0.2l0.3-0.5l0.2-0.1l0.2-0.2l1.8-2.8
			l-0.1-0.1l8.8-13.5C225.9,135.6,225.4,133.6,224.4,131.8z"/>
		<g>
			<defs>
				<path id="SVGID_3_" d="M224.4,131.8L224.4,131.8c-0.1,0-36.6-34.5-58.4-26.7c-0.3,0.1-0.5,0.2-0.8,0.4c-1.5,0.7-2.7,2.1-3.1,3.8
					c-6.2,22.3,30.9,56.3,30.9,56.3v0.1c1.9,0.8,3.9,1.2,5.9,1.1l12.8-9.8l0.2,0.2l2.6-2l0.2-0.2l0.3-0.5l0.2-0.1l0.2-0.2l1.8-2.8
					l-0.1-0.1l8.8-13.5C225.9,135.6,225.4,133.6,224.4,131.8z"/>
			</defs>
			<clipPath id="SVGID_4_">
				<use xlink:href="#SVGID_3_"  style="overflow:visible;"/>
			</clipPath>
			<g class="st15">
				<path class="st7" d="M201.7,106.6l-31.5-7l-7,2.8l-0.2,3l-2.4,0.5l-3.7,7.2l2.4,14.4l9,15.5l22.3,26.2l5-5
					c-10.9-9.4-20.4-20.3-28.1-32.4c-2.5-3.9-4.8-7.9-5.8-12.4c-0.6-3.2-0.4-6.6,0.4-9.8c0.9-2.9,4.5-4.4,7.3-4.4
					c10.8,0.3,20.1,7.4,28.6,14.1l18.9,15.1l7.1-0.1l5.5-0.4l1.1-9L201.7,106.6z"/>
			</g>
		</g>
		
			<ellipse transform="matrix(0.6814 -0.7319 0.7319 0.6814 -42.6307 200.9652)" class="st8" cx="209.5" cy="149.4" rx="23.1" ry="9.1"/>
		
			<ellipse transform="matrix(0.6814 -0.7319 0.7319 0.6814 -42.6307 200.9652)" class="st10" cx="209.5" cy="149.4" rx="16.9" ry="5.6"/>
		<ellipse transform="matrix(0.6824 -0.731 0.731 0.6824 -48.5616 213.9592)" class="st9" cx="221.9" cy="162.9" rx="5.5" ry="13"/>
		
			<ellipse transform="matrix(0.9229 -0.3849 0.3849 0.9229 -51.1737 93.1264)" class="st9" cx="207" cy="174.4" rx="4.8" ry="10.2"/>
		
			<ellipse transform="matrix(0.3137 -0.9495 0.9495 0.3137 19.5167 320.5531)" class="st9" cx="231.5" cy="146.8" rx="4.8" ry="10.2"/>
		<path class="st4" d="M189.9,168.2c-6.7,3.8-12.2,4.9-14.9,2.4c-5.1-4.7,2.1-20.7,16-35.6s29.3-23.2,34.4-18.5
			c2.1,1.9,2.1,5.7,0.5,10.6"/>
		<path class="st16" d="M209.4,152.1"/>
		<path class="st11" d="M211.4,172.5c-2.2-5.2-5.9-8.6-8.3-7.6c-0.6,0.3-1.1,0.8-1.4,1.4c2-0.5,5,2.3,6.7,6.5
			c1.8,4.4,1.6,8.6-0.4,9.5c-0.4,0.2-0.8,0.2-1.3,0.1c1.5,1.3,3,1.9,4.2,1.4C213.4,182.8,213.6,177.7,211.4,172.5z"/>
		<path class="st11" d="M233,142.2c-5.4-1.8-10.4-1.2-11.2,1.3c-0.4,1.1,0.2,2.4,1.3,3.7c0.9-1.4,4-1.7,7.3-0.6
			c3.6,1.2,6,3.5,5.5,5.1c-0.1,0.2-0.1,0.3-0.3,0.5c2.9,0,5-0.8,5.6-2.4C242,147.5,238.4,144,233,142.2z"/>
		<path class="st11" d="M225.7,158.8c-5.2-4.9-11.2-7.1-13.3-4.8c-0.8,0.9-0.9,2.4-0.4,4.2c1.7-1.7,6.4,0,10.6,3.9s6.2,8.5,4.6,10.3
			l0,0c1.8,0.4,3.4,0.3,4.2-0.6C233.5,169.5,230.9,163.7,225.7,158.8z"/>
		<path class="st12" d="M164.8,117.4c0,0,1.5,14.4,26,37.3c0.8-2.3,2.1-4.3,3.8-6C183.3,139.6,173.3,129.1,164.8,117.4z"/>
		
			<ellipse transform="matrix(0.9302 -0.367 0.367 0.9302 -31.4717 73.1501)" class="st14" cx="176.6" cy="119.3" rx="4.5" ry="4.5"/>
		<ellipse transform="matrix(0.3983 -0.9173 0.9173 0.3983 -7.2777 223.891)" class="st13" cx="167" cy="117.5" rx="3.1" ry="3.1"/>
		<path class="st17" d="M153.8,112.1l-22.6,14.4l0,0l-1.3,0.4l-2.6,0.7v0.1l-21.2,6.9l10.1,10.9c1.5,2.1,9.4,1.7,18.4-1.1
			c8.6-2.6,15.2-6.4,15.8-9l0,0L153.8,112.1z"/>
		<g>
			<defs>
				<path id="SVGID_5_" d="M153.8,112.1l-22.6,14.4l0,0l-1.3,0.4l-2.6,0.7v0.1l-21.2,6.9l10.1,10.9c1.5,2.1,9.4,1.7,18.4-1.1
					c8.6-2.6,15.2-6.4,15.8-9l0,0L153.8,112.1z"/>
			</defs>
			<clipPath id="SVGID_6_">
				<use xlink:href="#SVGID_5_"  style="overflow:visible;"/>
			</clipPath>
			<g class="st18">
				<g class="st19">
					<polygon class="st20" points="120.6,148 114.8,138.3 117.3,138.1 122.4,147.5 					"/>
					<polygon class="st20" points="121.6,137.9 125.3,147.4 127.2,147.1 124,137.5 					"/>
					<polygon class="st20" points="147.6,140.2 146.6,129.5 144.4,130.8 145.7,140.7 					"/>
					<polygon class="st20" points="140.6,132.3 142.9,142.2 141.2,142.9 138.4,133.2 					"/>
					<polygon class="st20" points="132.4,145.2 130.4,145.9 127.4,136.7 129.5,136.1 					"/>
					<polygon class="st20" points="138.1,143.7 136,144.3 133,135.1 135.1,134.5 					"/>
				</g>
			</g>
		</g>
		<path class="st21" d="M158.3,92.4l-31.3,20v-0.1l-1.8,0.6l-3.6,1v0.1L92,123.6l14,15.1c2,2.9,13,2.3,25.5-1.5
			c11.9-3.6,21.1-9,21.9-12.5l0,0L158.3,92.4z"/>
		<g class="st22">
			<g>
				<defs>
					<path id="SVGID_7_" d="M158.3,92.4l-31.3,20v-0.1l-1.8,0.6l-3.6,1v0.1L92,123.6l14,15.1c2,2.9,13,2.3,25.5-1.5
						c11.9-3.6,21.1-9,21.9-12.5l0,0L158.3,92.4z"/>
				</defs>
				<clipPath id="SVGID_8_">
					<use xlink:href="#SVGID_7_"  style="overflow:visible;"/>
				</clipPath>
				<g class="st23">
					<path class="st17" d="M151.9,95.8c1.9,15.2-16.4,33.1-41.5,36.2s-46.3-12.3-48.1-27.5c-1.9-15.2,17-24.9,42.2-28
						S150.1,80.5,151.9,95.8z"/>
				</g>
			</g>
		</g>
		<path class="st24" d="M63.9,98.4l-25.7,1.2l5.7,11.8L26,117l24.9-2.3l-4.5-8.9l20.9,2.5c0.5,0.1,1.1-0.3,1.1-0.8c0,0,0,0,0-0.1
			C68.8,103.8,67,100.3,63.9,98.4L63.9,98.4z"/>
		<g>
			<defs>
				<path id="SVGID_9_" d="M63.9,98.4l-25.7,1.2l5.7,11.8L26,117l24.9-2.3l-4.5-8.9l20.9,2.5c0.5,0.1,1.1-0.3,1.1-0.8c0,0,0,0,0-0.1
					C68.8,103.8,67,100.3,63.9,98.4L63.9,98.4z"/>
			</defs>
			<clipPath id="SVGID_10_">
				<use xlink:href="#SVGID_9_"  style="overflow:visible;"/>
			</clipPath>
			<g class="st25">
				<polygon class="st26" points="59.5,103.6 43.4,103 49.8,117.8 56.9,117.1 52.6,109.2 60,106.8 				"/>
			</g>
		</g>
		<polygon class="st27" points="87,29.5 60.3,43.5 48.5,64.9 47,83 50.3,95.2 57.7,107.7 69.9,117.7 87.8,124.5 120.6,123.5 
			145.6,104.9 139.2,70.8 124.4,40 		"/>
		<path class="st28" d="M58.2,82.3c-0.1,4.8,0.4,9.5,1.7,14.2c3.6,12.1,12.9,20.5,24.9,24.5c1.2,0.4,2.4,0.6,3.6,0.7
			c0.6-0.1,1.1-0.7,1.8-0.8c8.2-0.7,20.3-4.5,27.5-10.6c0.7-0.6-3.4-7-2.9-7.7c0.4-0.7,0.8-1.5,1-2.4c1.3-4.1,2.2-8.2,2.6-12.5
			c0.3-4-0.2-8-1.3-11.9c-2.1-7.2-6.6-13.5-12.7-17.8c-6.2-4.3-13.7-6.2-21.1-5.4c-4.4,0.5-7.2,3.1-11.3,4.6c-2.9,1.1-5,1.6-6.9,4.3
			C61.1,67,58.2,76.1,58.2,82.3z"/>
		<path class="st29" d="M68,62.4c0.3-2.4,1-4.6,2.1-6.7c4.2-8.5,11-15.9,19.6-19.9s19-4.6,27.6-0.5l9,22.4L91.9,74.3L68,62.4z"/>
		<g>
			<defs>
				<path id="SVGID_11_" d="M68,62.4c0.3-2.4,1-4.6,2.1-6.7c4.2-8.5,11-15.9,19.6-19.9s19-4.6,27.6-0.5l9,22.4L91.9,74.3L68,62.4z"
					/>
			</defs>
			<clipPath id="SVGID_12_">
				<use xlink:href="#SVGID_11_"  style="overflow:visible;"/>
			</clipPath>
			<g class="st30">
				<path class="st31" d="M130,61.6c-3.7-5-9.6-8.9-15.3-11.5c-7.6-3.5-15.6-5.4-24-4.8S74,50,69.3,57l-1.7-12.2l16-18.1l20.4,1.5
					l21.7,12.2l7.6,13.5L130,61.6z"/>
			</g>
		</g>
		<path class="st32" d="M142.3,70.1c-0.4-7.2-4.3-14.4-10.9-17.5c-2.3-1-4.7-1.6-7.1-1.8c-8.9-0.9-17.8,1.6-25.1,6.9
			c0.9-0.8,1.1-1.1-2.1,1.6c-1.2,1-2.2,2.1-3.1,3.3L94,62.8L93.9,63c-1.4,1.9-2.4,4-2.9,6.3v0.1l0,0v0.1v-0.2
			C83.8,50.5,68.2,57,68.2,57l0.1-0.1c-1.5,0.8-2.9,1.9-4.1,3.1c-4.4,4.4-6.3,11.2-6.8,17.3c-0.4,6.8,0.9,13.5,3.9,19.6
			c2.6,5.3,6.5,9.7,11.4,13c5.8,3.9,12.5,6.1,19.5,6.5c12.1,0.8,24.2-2,33.6-9.7c4.7-3.8,7.8-10.8,10.9-16.1
			C140.2,84.4,142.7,77.3,142.3,70.1z"/>
		<g>
			<defs>
				<path id="SVGID_13_" d="M142.3,70.1c-0.4-7.2-4.3-14.4-10.9-17.5c-2.3-1-4.7-1.6-7.1-1.8c-8.9-0.9-17.8,1.6-25.1,6.9
					c0.9-0.8,1.1-1.1-2.1,1.6c-1.2,1-2.2,2.1-3.1,3.3L94,62.8L93.9,63c-1.4,1.9-2.4,4-2.9,6.3v0.1l0,0v0.1v-0.2
					C83.8,50.5,68.2,57,68.2,57l0.1-0.1c-1.5,0.8-2.9,1.9-4.1,3.1c-4.4,4.4-6.3,11.2-6.8,17.3c-0.4,6.8,0.9,13.5,3.9,19.6
					c2.6,5.3,6.5,9.7,11.4,13c5.8,3.9,12.5,6.1,19.5,6.5c12.1,0.8,24.2-2,33.6-9.7c4.7-3.8,7.8-10.8,10.9-16.1
					C140.2,84.4,142.7,77.3,142.3,70.1z"/>
			</defs>
			<clipPath id="SVGID_14_">
				<use xlink:href="#SVGID_13_"  style="overflow:visible;"/>
			</clipPath>
			<g class="st33">
				<path class="st34" d="M70.9,55.4c-8.4,8.8-11.8,21.3-8.8,33.2c1.1,4.6,3.4,8.9,6.6,12.4c6.8,7.2,17.2,9.6,27.1,10.3
					c4.9,0.2,9.9-0.4,14.7-1.7c7.9-2.1,14.9-6.7,19.9-13.1l-9.2,18.8l-17.8,5l-18.5-1.4l-17.2-5.7l-9.4-9.6l-3.8-9.9l-1.2-14.9
					L56,66.3l3.2-6.9l6.3-3.5L70.9,55.4z"/>
			</g>
		</g>
		<path class="st35" d="M81.6,78.8c1.3,9.1-4.5,17-13,17.1s-15.4-7.4-15.7-16.2c-0.3-8.3,5.4-15,12.8-15.3
			C73.1,64,80.3,70.3,81.6,78.8z"/>
		<path class="st36" d="M79.8,77.2c1.2,8.7-4.4,16.3-12.7,16.5S52.2,86.5,51.8,78c-0.3-8,5.2-14.5,12.5-14.8
			C71.6,62.9,78.6,68.9,79.8,77.2z"/>
		<path class="st37" d="M73.9,74.6c2.2,2.1,2.3,5.5,0.2,7.7c0,0,0,0,0,0c-2.1,2.2-5.6,2.3-7.8,0.2c-2.2-2.1-2.3-5.5-0.2-7.7
			c0,0,0,0,0,0C68.2,72.6,71.7,72.5,73.9,74.6z"/>
		<path class="st35" d="M103.5,75.7c-1.8,9.6,4.3,18.1,13.5,18.4s17-7.4,17.7-16.8c0.7-8.8-5.3-16-13.4-16.5S105.2,66.7,103.5,75.7z
			"/>
		<path class="st36" d="M105.3,74c-1.7,9.2,4.1,17.4,12.8,17.8s16.1-7.2,16.8-16.2c0.7-8.5-5-15.4-12.7-15.9S106.9,65.3,105.3,74z"
			/>
		<path class="st37" d="M110.2,72.1c-2.4,2-2.7,5.6-0.7,8c0.1,0.1,0.1,0.1,0.2,0.2c2.3,2.4,6,2.5,8.5,0.4c2.4-2,2.7-5.6,0.7-8
			c-0.1-0.1-0.1-0.1-0.2-0.2C116.4,70.1,112.7,70,110.2,72.1z"/>
		<path class="st38" d="M166.9,70.6c0-28.9-23.5-52.4-52.4-52.4c0,0,0,0,0,0c-1.5,0-3,0.1-4.5,0.2c-4.1,0.3-8.1,1.2-12,2.5
			l-13.3,3.4C56.6,31,39.3,59.3,46,87.4c5.7,23.6,26.7,40.2,51,40.1c0.9,0,1.8,0,2.7-0.1l-0.2,0.1c0,0,30-1.2,44.7-13.7l-0.3,0.1
			C158.3,104.2,167,88,166.9,70.6z M89.4,119.5c-22.7,0-41.1-18.4-41.1-41.1s18.4-41.1,41.1-41.1c22.7,0,41.1,18.4,41.1,41.1
			S112.2,119.5,89.4,119.5L89.4,119.5z"/>
		<path class="st39" d="M91,69.2c0,0-3.1-20.8,8-33"/>
		<polygon class="st32" points="152.1,33.7 156.3,33.6 155.9,34.7 153.9,35 		"/>
		<path class="st40" d="M85.2,98.2c0.7,1.6,2.1,2.8,3.8,3.4c1.4,0.3,2.9,0.2,4.3-0.3c2.7-0.9,5.1-2.3,7.2-4.2"/>
		<path class="st41" d="M89.6,32.7c-24.8,0-45,20.5-45,45.9s20.1,45.9,45,45.9s45-20.5,45-45.9S114.5,32.7,89.6,32.7z M89.6,119.9
			c-22.4,0-40.5-18.5-40.5-41.3s18.1-41.3,40.5-41.3s40.5,18.5,40.5,41.3S112,119.9,89.6,119.9z"/>
		<g>
			<defs>
				<path id="SVGID_15_" d="M166.9,70.6c0-28.9-23.5-52.4-52.4-52.4c0,0,0,0,0,0c-1.5,0-3,0.1-4.5,0.2c-4.1,0.3-8.1,1.2-12,2.5
					l-13.3,3.4C56.6,31,39.3,59.3,46,87.4c5.7,23.6,26.7,40.2,51,40.1c0.9,0,1.8,0,2.7-0.1l-0.2,0.1c0,0,30-1.2,44.7-13.7l-0.3,0.1
					C158.3,104.2,167,88,166.9,70.6z M89.4,119.5c-22.7,0-41.1-18.4-41.1-41.1s18.4-41.1,41.1-41.1c22.7,0,41.1,18.4,41.1,41.1
					S112.2,119.5,89.4,119.5L89.4,119.5z"/>
			</defs>
			<clipPath id="SVGID_16_">
				<use xlink:href="#SVGID_15_"  style="overflow:visible;"/>
			</clipPath>
			<g class="st42">
				<path class="st43" d="M181,61.9l-13.5-41.8l-33.1-16l-27.8,1.2l-20.4,18c28.8-5.1,56.4,14.1,61.5,42.9
					c5.1,28.8-14.1,56.4-42.9,61.5l0,0l6.2,5l16.3-1.3l23.2-9.9l12.7-11.5l20.6-22.2L181,61.9z"/>
				<path class="st44" d="M192.4,59.5l-13.5-43L145.8,0l-27.8,1.3L97.6,19.8c3.1-0.6,6.3-0.9,9.5-0.9c29.3,0,53,24.5,53,54.6
					c0,27-19,49.4-44,53.8l6.2,5.1l16.3-1.3l23.2-10.2l12.7-11.8l20.6-22.8L192.4,59.5z"/>
			</g>
		</g>
		<path class="st45" d="M173.8,58.8c0.9,13.5-7,24.1-17.6,23.4s-19.7-12.5-20.2-26c-0.5-13.2,7.4-23.2,17.7-22.5
			C163.8,34.4,172.9,45.5,173.8,58.8z"/>
		<path class="st46" d="M175.3,56.2c1.8,12.8-3.9,23.2-12.8,23.1s-17.2-10.7-18.7-23.5c-1.4-12.5,4.3-22.4,12.9-22.2
			S173.5,43.8,175.3,56.2z"/>
		<path class="st24" d="M155.5,52.1c0.2-0.2,0.4-0.5,0.6-0.6l1.6-1.2l11.8-8.3l11.2-7.9l1.7-1.2l3.6,16.5l23.1-10.9l-27.6,19.8
			l-2.5-12.6l-7.6,7.5l-10.7,10.6c-0.3,0.3-0.9,1.1-1.3,0.9c-0.2-0.1-0.4-0.2-0.5-0.4c-2.9-3-4.3-7.1-3.7-11.2
			C155.2,52.8,155.3,52.4,155.5,52.1z"/>
		<path class="st47" d="M138.6,67.9l5.4-1.9c-1.6-3.6-2.4-7.4-2.6-11.3c-0.4-9.9,4.1-18,10.8-21c-9.6,0.2-16.8,9.9-16.3,22.5
			C136,60.2,137,64.2,138.6,67.9z"/>
		<g>
			<defs>
				<path id="SVGID_17_" d="M155.5,52.1c0.2-0.2,0.4-0.5,0.6-0.6l1.6-1.2l11.8-8.3l11.2-7.9l1.7-1.2l3.6,16.5l23.1-10.9l-27.6,19.8
					l-2.5-12.6l-7.6,7.5l-10.7,10.6c-0.3,0.3-0.9,1.1-1.3,0.9c-0.2-0.1-0.4-0.2-0.5-0.4c-2.9-3-4.3-7.1-3.7-11.2
					C155.2,52.8,155.3,52.4,155.5,52.1z"/>
			</defs>
			<clipPath id="SVGID_18_">
				<use xlink:href="#SVGID_17_"  style="overflow:visible;"/>
			</clipPath>
			<g class="st48">
				<polygon class="st26" points="156.2,62.5 180,41.4 185.6,58.9 179.3,61.8 176.7,52 161.2,67.6 				"/>
			</g>
		</g>
		<circle class="st32" cx="92.2" cy="51.3" r="6.9"/>
		
			<ellipse transform="matrix(0.9115 -0.4112 0.4112 0.9115 -12.5844 42.0784)" class="st49" cx="91.5" cy="50.3" rx="6.8" ry="6.8"/>
		<path class="st50" d="M93.1,53.8c-2.9,1.3-6.3,0.4-8.2-2.1c0.7,3.7,4.3,6,8,5.3c3.7-0.7,6-4.3,5.3-8c-0.2-1-0.6-1.9-1.2-2.7
			C97.6,49.4,96,52.5,93.1,53.8z"/>
		
			<ellipse transform="matrix(0.9115 -0.4112 0.4112 0.9115 -11.6255 41.4208)" class="st51" cx="90.5" cy="47.7" rx="3.3" ry="3.3"/>
		
			<linearGradient id="SVGID_19_" gradientUnits="userSpaceOnUse" x1="54.6508" y1="177.571" x2="105.7608" y2="136.561" gradientTransform="matrix(1 0 0 -1 0 228)">
			<stop  offset="0" style="stop-color:#FFFFFF;stop-opacity:0.7"/>
			<stop  offset="0.64" style="stop-color:#FFFFFF;stop-opacity:0"/>
		</linearGradient>
		<ellipse class="st52" cx="89.7" cy="78.6" rx="40.3" ry="41.1"/>
		<path class="st53" d="M75.2,44.1c4.5-1.7,9.5,0.6,11.1,5.1c0,0.1,0,0.1,0.1,0.2C88,54,85.7,59,81.1,60.8
			c-4.5,1.7-9.5-0.6-11.1-5.1c0-0.1,0-0.1-0.1-0.2C68.3,50.9,70.6,45.8,75.2,44.1z"/>
		<path class="st53" d="M67.4,65c-1.3,2.1-4.1,2.7-6.2,1.4c0,0-0.1,0-0.1-0.1c-2-1.4-2.6-4.2-1.2-6.3c1.3-2.1,4.1-2.7,6.2-1.4
			c0,0,0.1,0,0.1,0.1C68.2,60.1,68.7,62.9,67.4,65z"/>
	</g>
</g>
</svg>
