<?xml version="1.0" encoding="utf-8"?>
<!-- Generator: Adobe Illustrator 21.0.0, SVG Export Plug-In . SVG Version: 6.00 Build 0)  -->
<svg version="1.1" id="Layer_1" xmlns="http://www.w3.org/2000/svg" xmlns:xlink="http://www.w3.org/1999/xlink" x="0px" y="0px"
	 viewBox="0 0 183 206.4" style="enable-background:new 0 0 183 206.4;" xml:space="preserve">
<style type="text/css">
	.st0{opacity:8.000000e-02;enable-background:new    ;}
	.st1{fill:#96D2E2;}
	.st2{fill:none;stroke:#674CA8;stroke-width:6.29;stroke-miterlimit:10;}
	.st3{fill:#674CA8;}
	.st4{fill:#B0B0D1;}
	.st5{fill:#8B8BB7;}
	.st6{fill:#E0C34B;}
	.st7{opacity:0.67;}
	.st8{clip-path:url(#SVGID_2_);}
	.st9{fill:#C9AC31;}
	.st10{opacity:0.12;fill:#5C3C99;enable-background:new    ;}
	.st11{fill:#DDDDED;}
	.st12{clip-path:url(#SVGID_4_);}
	.st13{fill:#B72E79;}
	.st14{fill:#E95291;}
	.st15{clip-path:url(#SVGID_6_);}
	.st16{opacity:0.59;fill:#ED5FA0;enable-background:new    ;}
	.st17{opacity:0.56;fill:#CE3E86;enable-background:new    ;}
	.st18{fill:#9191BA;}
	.st19{fill:none;stroke:#674CA8;stroke-width:6.29;stroke-linecap:round;stroke-miterlimit:10;}
	.st20{opacity:0.17;fill:#5C3C99;enable-background:new    ;}
	.st21{clip-path:url(#SVGID_8_);}
	.st22{fill:#CE3E86;}
	.st23{fill:#DB4589;}
	.st24{clip-path:url(#SVGID_10_);}
	.st25{clip-path:url(#SVGID_12_);}
	.st26{clip-path:url(#SVGID_14_);}
	.st27{opacity:0.2;fill:#5C3C99;enable-background:new    ;}
	.st28{clip-path:url(#SVGID_16_);}
	.st29{opacity:0.3;fill:#FFFFFF;enable-background:new    ;}
	.st30{clip-path:url(#SVGID_18_);}
	.st31{fill:#6E5AAF;}
	.st32{clip-path:url(#SVGID_20_);}
	.st33{clip-path:url(#SVGID_22_);}
	.st34{fill:#ED5FA0;}
	.st35{opacity:0.14;fill:#FFFFFF;enable-background:new    ;}
	.st36{opacity:0.29;fill:#FFFFFF;enable-background:new    ;}
	.st37{opacity:0.21;fill:#FFFFFF;enable-background:new    ;}
	.st38{fill:none;stroke:#6D6DA0;stroke-width:2.1;stroke-linecap:round;stroke-miterlimit:10;}
	.st39{opacity:0.22;fill:#B0B0D1;enable-background:new    ;}
	.st40{clip-path:url(#SVGID_24_);}
	.st41{opacity:0.37;fill:#FFFFFF;enable-background:new    ;}
	.st42{opacity:7.000000e-02;fill:#FFFFFF;enable-background:new    ;}
	.st43{opacity:0.26;fill:#FFFFFF;enable-background:new    ;}
	.st44{opacity:0.17;fill:#FFFFFF;enable-background:new    ;}
	.st45{clip-path:url(#SVGID_26_);}
	.st46{fill:#5C3C99;}
	.st47{clip-path:url(#SVGID_28_);}
	.st48{fill:#6850A5;}
	.st49{fill:#FFFFFF;}
	.st50{clip-path:url(#SVGID_30_);}
	.st51{clip-path:url(#SVGID_32_);}
	.st52{fill:none;stroke:#5C3C99;stroke-width:1.92;stroke-linecap:round;stroke-miterlimit:10;}
	.st53{opacity:9.000000e-02;fill:#FFFFFF;enable-background:new    ;}
	.st54{opacity:0.65;fill:url(#SVGID_33_);enable-background:new    ;}
</style>
<title>ziggy_8</title>
<g id="Layer_2">
	<g id="Layer_1-2">
		<ellipse class="st0" cx="89.9" cy="198.9" rx="50.5" ry="7.5"/>
		
			<ellipse transform="matrix(0.9999 -1.308960e-02 1.308960e-02 0.9999 -0.8669 0.6185)" class="st1" cx="46.8" cy="66.5" rx="46" ry="46"/>
		<line class="st2" x1="63.6" y1="148.8" x2="81.5" y2="128.7"/>
		<path class="st3" d="M54,161c0-0.3,0.1-0.6,0.1-0.8c0.1-0.8,0.2-1.6,0.4-2.4l10.9,3.2c0,2.7,0.4,5.5,0.9,8.1
			c0.7,2.9,1.5,5.7,2.6,8.5c1,2.8,2,5.6,3.1,8.3c0.7,1.7,1.4,3.4,2.1,5c0.3,0.7,1.4,2.7,0.2,3c-0.2,0.1-0.4,0.1-0.6,0
			c-1.3-0.4-2.5-1-3.6-1.8l-0.1-0.1c-1.2-0.9-2.3-1.9-3.3-3c-1.5-1.5-2.9-3.1-4.2-4.8c-0.3-0.4-0.7-0.8-1-1.3
			C54.3,173.2,53.7,165.1,54,161L54,161z"/>
		<path class="st4" d="M58.8,143.5c0.4,0,0.9,0,1.3,0c2.6,0,5.2,1,7.1,2.8c3.7,3.6,3.7,9.6,0.1,13.3c-0.8,0.8-1.8,1.5-2.9,2
			c-1.1,0.5-2.4,0.8-3.6,0.8c-1.5,0-3-0.2-4.5-0.4c-3.6-1-6.3-4.1-6.8-7.8c-0.7-5.1,2.9-9.9,8-10.6
			C57.9,143.5,58.4,143.4,58.8,143.5L58.8,143.5z"/>
		<ellipse transform="matrix(0.1884 -0.9821 0.9821 0.1884 -99.7161 186.1884)" class="st5" cx="62.8" cy="153.4" rx="7" ry="6.3"/>
		<path class="st6" d="M133.1,101.3l-67.4,10.8c-0.4,0.4-0.8,0.7-1.2,1.1c0.1,5.7,2.3,11.1,6.3,15.1c1.4,0.6,2.9,1.2,4.4,1.6
			c1.5,0.4,3.1,0.8,4.6,1c5.5,0.8,11,1.1,16.5,1l0,0c5.5,0.1,11-0.2,16.5-1c3.6-0.5,7-1.6,10.2-3.2c0.7-0.4,1.4-0.8,2-1.3
			C131,119.5,133.9,110.4,133.1,101.3z"/>
		<path class="st3" d="M135.8,171.6c0-0.3,0-0.5,0-0.8c0-0.8,0-1.5-0.1-2.3l-10.7,1.7c-0.4,2.6-1,5.2-1.9,7.6
			c-1,2.6-2.1,5.2-3.5,7.7c-1.3,2.5-2.6,5.1-4,7.5c-0.9,1.5-1.7,3-2.6,4.5c-0.3,0.6-1.6,2.4-0.6,2.9c0.2,0.1,0.4,0.1,0.6,0
			c1.3-0.2,2.5-0.6,3.6-1.2l0.1-0.1c1.2-0.7,2.4-1.5,3.5-2.4c1.6-1.2,3.1-2.6,4.5-4c0.3-0.3,0.7-0.7,1.1-1.1
			C134,183.2,135.6,175.5,135.8,171.6L135.8,171.6z"/>
		<g class="st7">
			<g>
				<defs>
					<path id="SVGID_1_" d="M133.1,101.3l-67.4,10.8c-0.4,0.4-0.8,0.7-1.2,1.1c0.1,5.7,2.3,11.1,6.3,15.1c1.4,0.6,2.9,1.2,4.4,1.6
						c1.5,0.4,3.1,0.8,4.6,1c5.5,0.8,11,1.1,16.5,1l0,0c5.5,0.1,11-0.2,16.5-1c3.6-0.5,7-1.6,10.2-3.2c0.7-0.4,1.4-0.8,2-1.3
						C131,119.5,133.9,110.4,133.1,101.3z"/>
				</defs>
				<clipPath id="SVGID_2_">
					<use xlink:href="#SVGID_1_"  style="overflow:visible;"/>
				</clipPath>
				<g class="st8">
					<polygon class="st9" points="81.1,133.6 78.8,133.7 77.2,114.1 79.5,114 					"/>
					<rect x="86.5" y="113.7" class="st9" width="2.3" height="19.6"/>
					<rect x="95.2" y="113.9" class="st9" width="2.3" height="19.6"/>
					<rect x="104" y="114" class="st9" width="2.3" height="19.7"/>
					<rect x="111.5" y="113.7" class="st9" width="2.3" height="19.6"/>
					<polygon class="st9" points="73.8,133.6 71.9,133.8 69.1,114.3 71,114.1 					"/>
				</g>
			</g>
		</g>
		<path class="st4" d="M53.8,118.9l14.4-10.7c0,0,3.3-7.8-1.5-8.9s-13.5-0.7-20.9,11.9L53.8,118.9z"/>
		<path class="st10" d="M53.8,118.9l14.4-10.7c0,0,3.3-7.8-1.5-8.9s-13.5-0.7-20.9,11.9L53.8,118.9z"/>
		<path class="st11" d="M44.2,135.9l6.1-7.6l4.9-6.1c1.8-2.3,3.4-3.7,2-6.8c-0.6-1.1-1.3-2.1-2.3-3c-2.8-2.7-6.4-4.6-10.3-3.5
			s-5.9,4.5-7.6,8c-2.1,4.2-3.7,8.7-3.7,13.4"/>
		<g>
			<defs>
				<path id="SVGID_3_" d="M44.2,135.9l6.1-7.6l4.9-6.1c1.8-2.3,3.4-3.7,2-6.8c-0.6-1.1-1.3-2.1-2.3-3c-2.8-2.7-6.4-4.6-10.3-3.5
					s-5.9,4.5-7.6,8c-2.1,4.2-3.7,8.7-3.7,13.4"/>
			</defs>
			<clipPath id="SVGID_4_">
				<use xlink:href="#SVGID_3_"  style="overflow:visible;"/>
			</clipPath>
			<g class="st12">
				<path class="st10" d="M41.6,117.6c1.3-2.1,3-4,5-5.5c2-1.5,4.6-2.1,7-1.6c-2.4-2.4-6-3.4-9.3-2.5c-3.3,0.9-6.1,3-8,5.8
					c-1.9,2.8-3.2,5.9-4,9.2c-0.2,0.5-0.2,1,0,1.5c0.3,0.3,0.6,0.6,1,0.7c0.8,0.3,2.1,1.2,3,1s1.3-1.6,1.6-2.3
					C39,121.7,40.2,119.6,41.6,117.6z"/>
			</g>
		</g>
		<path class="st13" d="M35.8,156.5c0.7,0.2,1.4,0.6,2,1.1c1.3,1.3,2.2,2.8,2.6,4.6c0.5,1.7,0.8,3.5,1.3,5.2c0.3,1,1.5,3.1,2.3,1.3
			c1.3-2.8,2-5.9,2.2-9c0.3-3.3,0.2-6.8-1.3-9.9s-4.5-5.5-7.8-5.4c-4.7,0.1-7,4.3-8.2,8.2c-0.7,2.1-1.6,4.7-1.2,6.9
			c0,0.2,0.1,0.3,0.2,0.5c0.3,0.4,1,0,1.3-0.3c1.1-1.1,2-2.6,3.5-3.2C33.8,156.2,34.9,156.2,35.8,156.5z"/>
		<path class="st14" d="M34.9,124.3C23.8,123.4,13.6,135.2,12,150c-0.5,3.9-0.2,7.9,0.7,11.8c1.7,7,5.8,12.4,11.1,14.6
			c2,0.8,4.2,1.2,6.4,1c0.8-0.1,1.4-0.8,1.3-1.6c0,0,0,0,0-0.1c-0.6-5.2-0.5-10.4,0.3-15.5c0.5-3.7,1.7-7.2,3.7-10.4
			c0.4-0.8,1.2-1.4,2.1-1.7c1.2-0.1,2.2,0.8,2.9,1.7c3.3,4.5,3.5,10.6,2.8,16.1c-0.1,1-0.2,1.9-0.4,2.9c-0.1,0.3,0.2,0.6,0.5,0.6
			c0.2,0,0.4,0,0.5-0.2c0.8-1,1.6-2.1,2.3-3.3c1-1.7,1.9-3.5,2.6-5.3c0.8-2.2,1.4-4.4,1.8-6.7C53.2,138.8,46.1,125.3,34.9,124.3z"/>
		<g>
			<defs>
				<path id="SVGID_5_" d="M34.9,124.3C23.8,123.4,13.6,135.2,12,150c-0.5,3.9-0.2,7.9,0.7,11.8c1.7,7,5.8,12.4,11.1,14.6
					c2,0.8,4.2,1.2,6.4,1c0.8-0.1,1.4-0.8,1.3-1.6c0,0,0,0,0-0.1c-0.6-5.2-0.5-10.4,0.3-15.5c0.5-3.7,1.7-7.2,3.7-10.4
					c0.4-0.8,1.2-1.4,2.1-1.7c1.2-0.1,2.2,0.8,2.9,1.7c3.3,4.5,3.5,10.6,2.8,16.1c-0.1,1-0.2,1.9-0.4,2.9c-0.1,0.3,0.2,0.6,0.5,0.6
					c0.2,0,0.4,0,0.5-0.2c0.8-1,1.6-2.1,2.3-3.3c1-1.7,1.9-3.5,2.6-5.3c0.8-2.2,1.4-4.4,1.8-6.7C53.2,138.8,46.1,125.3,34.9,124.3z"
					/>
			</defs>
			<clipPath id="SVGID_6_">
				<use xlink:href="#SVGID_5_"  style="overflow:visible;"/>
			</clipPath>
			<g class="st15">
				<circle class="st16" cx="34" cy="142.8" r="14"/>
				<path class="st17" d="M11.8,151.1c-0.9,7.1,3.3,14.4,9.5,17.6s13.9,2.5,19.9-1.1c7.5-4.8,12-13,11.9-21.9l3.6,19.7l-14.2,18.4
					l-16.2,2.7l-15.2-7.3l-2.5-13.7l0.2-10.8l3.4-8.6"/>
			</g>
		</g>
		<path class="st18" d="M133.5,97c0-0.1,0-0.1,0-0.2c0-0.3,0-0.6,0-0.8c0-0.4,0-0.1,0-0.1c-0.1-1.4-0.5-2.8-1.2-4
			c-1.8-3.5-5-6.1-8.2-8c-9.5-5.7-21.3-7.5-32.2-7.5l0,0c-10.9,0-22.7,1.8-32.2,7.5c-3.3,2-6.5,4.6-8.2,8c-0.6,1.2-1,2.6-1.2,4
			c0,0,0,0.1,0,0.1c0,0.3,0,0.6,0,0.8c0,0.1,0,0.1,0,0.2s0,0.1,0,0.1c0.1,2.5,0.7,5,2,7.1c1.6,2.9,4,5.4,6.8,7.2
			c3.9,2.4,8.1,4,12.6,4.8c6.7,1.1,13.4,1.6,20.2,1.5l0,0c6.8,0.1,13.5-0.4,20.2-1.5c4.5-0.8,8.7-2.4,12.6-4.8
			c2.8-1.8,5.2-4.3,6.8-7.2c1.3-2.2,1.9-4.6,2-7.1C133.4,97.1,133.5,97.1,133.5,97z"/>
		<line class="st2" x1="129.6" y1="156" x2="116.2" y2="129"/>
		<ellipse class="st18" cx="81.1" cy="60.8" rx="23.5" ry="23"/>
		<path class="st4" d="M130.9,153.1c-0.4,0-0.9,0-1.4,0c-2.6,0-5.2,1-7.1,2.8c-3.7,3.6-3.7,9.6-0.1,13.3c0.8,0.8,1.8,1.5,2.9,2
			c1.1,0.5,2.4,0.8,3.6,0.8c1.5,0,3-0.2,4.5-0.4c3.6-1,6.3-4.1,6.8-7.8c0.7-5.1-2.9-9.9-8-10.6C131.7,153.1,131.3,153.1,130.9,153.1
			L130.9,153.1z"/>
		<ellipse transform="matrix(0.9821 -0.1884 0.1884 0.9821 -28.4583 26.8237)" class="st5" cx="126.9" cy="163.1" rx="6.3" ry="7"/>
		<path class="st3" d="M162.8,143.2c-0.1-0.3-0.1-0.5-0.2-0.7c-0.2-0.7-0.4-1.4-0.7-2.1l-9.5,4.4c0.3,2.5,0.4,5.1,0.3,7.6
			c-0.2,2.7-0.6,5.4-1.2,8.1c-0.5,2.7-1.1,5.4-1.7,8c-0.4,1.6-0.8,3.3-1.2,4.9c-0.2,0.6-0.9,2.6,0.2,2.8c0.2,0,0.4,0,0.5-0.1
			c1.1-0.5,2.1-1.2,3-2.1l0.1-0.1c1-1,1.9-2.1,2.6-3.2c1.2-1.6,2.2-3.2,3.1-4.9c0.2-0.4,0.5-0.8,0.7-1.3
			C164.2,154.4,163.7,146.9,162.8,143.2L162.8,143.2z"/>
		<path class="st4" d="M156.4,128.8l1.1,0.4c2.2,0.7,4,2.1,5.1,4.1c2.1,3.9,0.6,8.8-3.3,10.9c-0.9,0.5-1.9,0.8-2.9,0.9
			c-1.1,0.2-2.2,0.1-3.2-0.3c-1.2-0.4-2.4-0.9-3.6-1.5c-2.7-1.7-4.1-4.9-3.6-8.1c0.7-4.4,4.9-7.4,9.3-6.6
			C155.7,128.6,156,128.7,156.4,128.8L156.4,128.8z"/>
		<ellipse transform="matrix(0.4699 -0.8827 0.8827 0.4699 -38.5435 211.8261)" class="st5" cx="157.1" cy="138" rx="6" ry="5.4"/>
		<line class="st19" x1="147.4" y1="133.8" x2="125.2" y2="121.8"/>
		<path class="st20" d="M115,85.9c-4-4.4-10.2-6.1-14.5-10.1c-6.3-5.8-7.6-15.2-11.8-22.7c-1.7-3.1-3.9-5.8-6.6-8.2
			c-1.9-1.8-4.1-3.1-6.5-4c-2.4-0.9-5.1-0.8-7.5,0.1c-1.6,0.5-2.8,1.8-3.1,3.5c-13.7-2.6-27,6.3-29.7,20.1s6.3,27,20.1,29.7
			c13.2,2.5,26.1-5.7,29.3-18.7c0.9,0.9,2,1.7,3.2,2.2c1.6,0.7,1.3,2.8,1.9,4.3c0.8,1.7,1.9,3.2,3.4,4.3c2.5,1.9,5.4,3.2,8.5,3.8
			c2.9,0.8,6,0.9,8.9,0.4c1.5-0.3,2.9-0.8,4.2-1.6C116.5,88.1,116.2,87.3,115,85.9z"/>
		<path class="st14" d="M80.7,47c-0.8-0.7-1.6-1.3-2.4-1.9c-1.5-1.2-3.1-2.2-4.9-2.8c-2.9-0.9-6-0.1-8.1,2c-0.4-1.3,0.5-2.7,1.4-3.8
			c4.7-6.3,10.5-11.8,17.1-16.1c6.6-4.4,14.3-6.8,22.2-6.9c-1,4.6-0.8,9.4,0.6,13.9c-3.9,2.7-7.7,5.6-11.4,8.7l-6,4.9
			c-1.1,1.1-2,2.3-2.8,3.6c-0.4,0.6,0.1,1.8-0.5,2.2c-0.8,0.5-2.4-1.2-3-1.8S81.4,47.6,80.7,47z"/>
		<g>
			<defs>
				<path id="SVGID_7_" d="M79.9,47.8c-1.4-2.6-3.8-4.6-6.6-5.5c-2.9-0.9-6-0.1-8.1,2c-0.4-1.3,0.5-2.7,1.4-3.8
					c4.7-6.3,10.5-11.8,17.1-16.1c6.6-4.4,14.3-6.8,22.2-6.9c-1,4.6-0.8,9.4,0.6,13.9c-3.9,2.7-7.7,5.6-11.4,8.7l-6.5,5.3
					c-2,1.7-4.5,3.2-6.3,5.2C81.3,49.8,80.5,48.8,79.9,47.8z"/>
			</defs>
			<clipPath id="SVGID_8_">
				<use xlink:href="#SVGID_7_"  style="overflow:visible;"/>
			</clipPath>
			<g class="st21">
				<path class="st22" d="M72.8,45.1c9.6-11.4,22-20,34.3-28.4c-0.7-1-1.8-1.7-3-1.9c-1.3-0.2-2.5-0.3-3.8-0.2
					c-6.6,0.2-13.2,1.7-19.3,4.2c-6.1,2.6-11.4,6.9-15,12.5c-2.2,3.5-3.5,7.8-2.1,11.7c0.3,1,1,1.9,1.9,2.4c1.1,0.4,2.4-0.1,3.5-0.5
					S72,44.2,72.8,45.1z"/>
				<path class="st23" d="M106.2,16.2c0.2,4.1-0.8,8.1-2.7,11.7c-1.2,1.8-2.6,3.5-4.2,5c-2.8,3.1-5.2,6.6-6.9,10.4
					c6-7.1,12.3-14.5,20.8-18.1c0.4-0.2,0.8-0.4,0.8-0.8c0-0.1,0-0.3-0.1-0.4c-0.8-1.8-2-3.5-3.6-4.7c-1.2-0.9-2.9-1.6-4-0.6"/>
			</g>
		</g>
		<path class="st14" d="M94.6,76.1c-2.1-0.1-5.4-4.3-6.2-5.6c-1.5-2.4-2.3-5.2-2.3-8c0.1-2,0.5-4.1,0.5-6.1
			c-0.1-1.5-0.4-3.1-1.1-4.5c-0.6-1.3-2.2-2.5-2.7-3.7c-0.8-1.9,4.3-5.7,5.7-6.9c3.1-2.7,6.5-5.2,9.9-7.4c5.2-3.4,10.6-6.6,16.6-8.3
			s12.6-1.7,18.1,1.1c0.6,0.3,1.2,0.7,1.3,1.3c0,0.5-0.2,0.9-0.5,1.3c-2.3,3.7-3.6,7.9-3.8,12.3c0.1,1.5-0.2,2.9-0.7,4.3
			c-0.9,1.3-2.1,2.4-3.6,3.1c-6.2,3.4-12,7.4-17.6,11.8c-2.7,2.2-5.2,4.7-7.5,7.3c-1.1,1.3-2.2,2.7-3.2,4.1
			c-0.5,0.7-1.8,3.6-2.6,3.8C94.9,76.1,94.8,76.1,94.6,76.1z"/>
		<g>
			<defs>
				<path id="SVGID_9_" d="M94.6,77.1c-3.2-1.1-5.9-3.5-7.3-6.7c-1.4-3.1-2.2-6.4-2.5-9.8c-0.5-3.8-0.8-7.9-3.4-10.7
					c-0.6-0.6,0.2-1,0.7-1.7C86.5,42.5,92.4,38,98.4,34c5.2-3.4,10.6-6.6,16.6-8.3s12.6-1.7,18.1,1.1c0.6,0.3,1.2,0.7,1.3,1.3
					c0,0.5-0.2,0.9-0.5,1.3c-2.3,3.7-3.6,7.9-3.8,12.3c0.1,1.5-0.2,2.9-0.7,4.3c-0.9,1.3-2.1,2.4-3.6,3.1c-6.2,3.4-12,7.4-17.6,11.8
					C102.8,65.3,98.1,70.8,94.6,77.1z"/>
			</defs>
			<clipPath id="SVGID_10_">
				<use xlink:href="#SVGID_9_"  style="overflow:visible;"/>
			</clipPath>
			<g class="st24">
				<path class="st22" d="M129,26.3c0.5,0.2,1.1,0.4,1.6,0.6s1.3,0.8,1.2,1.5c-0.1,0.3-0.2,0.6-0.4,0.9c-1.9,2.7-4.2,5.1-6.7,7.2
					c-4,3.1-9,4.5-13.3,7c-3.6,2.2-6.8,5-9.6,8.2c-3.5,3.7-6.3,7.9-8.3,12.5c-1,2.3-1.6,4.7-1.8,7.2c0,1,0,2,0.2,3
					c0.1,0.9,1,2.6,0.9,3.3c1-8.1,4.6-15.7,10.2-21.7c3.5-3.5,7.7-6.2,12.4-7.8c2.3-0.9,4.8-1.4,7.1-2.2c2.2-0.8,4.3-1.7,6.4-2.7
					c1.1-0.5,2.2-1.1,3.1-1.8c2.1-1.9,1.8-5.2,2.7-7.7c0.7-1.6,1.5-3.1,2.6-4.5c0.2-0.2,0.3-0.4,0.3-0.7c0-0.3-0.2-0.6-0.5-0.8
					c-2.2-1.9-4.8-3.2-7.6-3.9c-2.4-0.6-6.3-1.2-8.6,0c-0.3,0.2,1.6,0.8,1.7,0.8c0.8,0,1.6,0.1,2.5,0.3
					C126.3,25.4,127.7,25.8,129,26.3z"/>
			</g>
		</g>
		<path class="st14" d="M92.6,80.8c-0.6-1.2-1.1-2.4-1.3-3.7c-0.5-3.4,0.1-6.9,1.7-10c1.6-3.1,3.6-5.9,6.1-8.3
			c5.5-5.8,12.3-10.3,19.7-13.2c3.5-1.3,7.2-2.2,11-2.5c4.2-0.4,8-1.1,12.3-0.4c2.4,0.4,6.3,1.2,8.1,3c2.2,2.3-1.1,7.1-1.9,9.5
			c-1.4,3.9-2.5,7.9-3.6,11.8c-2.2,7.8-4.5,15.7-8.7,22.7c-0.8,1.5-2,2.8-3.5,3.7c-2.1,1-5.2,0.4-7.4-0.2
			c-5.4-1.8-10.8-3.2-16.4-4.2C102.7,87.8,95.6,86.2,92.6,80.8z"/>
		<g>
			<defs>
				<path id="SVGID_11_" d="M92.6,80.8c-0.6-1.2-1.1-2.4-1.3-3.7c-0.5-3.4,0.1-6.9,1.7-10c1.6-3.1,3.6-5.9,6.1-8.3
					c5.5-5.8,12.3-10.3,19.7-13.2c3.5-1.3,7.2-2.2,11-2.5c4.2-0.4,8-1.1,12.3-0.4c2.4,0.4,6.3,1.2,8.1,3c2.2,2.3-1.1,7.1-1.9,9.5
					c-1.4,3.9-2.5,7.9-3.6,11.8c-2.2,7.8-4.5,15.7-8.7,22.7c-0.8,1.5-2,2.8-3.5,3.7c-2.1,1-5.2,0.4-7.4-0.2
					c-5.4-1.8-10.8-3.2-16.4-4.2C102.7,87.8,95.6,86.2,92.6,80.8z"/>
			</defs>
			<clipPath id="SVGID_12_">
				<use xlink:href="#SVGID_11_"  style="overflow:visible;"/>
			</clipPath>
			<g class="st25">
				<path class="st22" d="M144.6,43.1c8.5,2,0.8,13.7-1.9,17.4s-5.9,7-8.3,10.8c-1.4,2-2.4,4.3-2.9,6.8c-0.6,3.6,0,7.8,0.7,11.4
					c0.2,1.1,1,6.6,2.7,6.5c0.6,0,1.9-3.4,2.3-3.9c0.8-1.2,1.6-2.4,2.4-3.6c6.1-9.7,7.2-21.7,11.1-32.4c1.1-2.9,2.4-6.1,1.4-9
					C151,43.9,147.7,42.2,144.6,43.1z"/>
				<path class="st16" d="M95.6,78.1c1.7,0.9,3.6,1.2,5.5,1.1c7.3-0.2,14.4-2.3,20.7-6.1c6.2-3.8,11.9-8.4,16.9-13.7
					c3.5-3.5,7-7.6,7.5-12.5c0.2-0.9,0-1.9-0.4-2.7c-0.7-0.9-1.8-1.4-2.9-1.6c-8.3-2-17.1-0.7-24.9,2.6c-6.1,2.7-11.7,6.3-16.7,10.8
					c-4.3,3.8-8.2,7.4-9.1,13.2C91.5,72.6,92.6,76.4,95.6,78.1z"/>
				<path class="st22" d="M98.4,85.8c5.4,2.2,11.3,2.7,17,1.3c-0.9,1.2-1.9,2.3-2.9,3.4c-0.4,0.4-0.8,0.7-1.3,1
					c-0.5,0.2-0.9,0.3-1.4,0.3c-3.8,0-7.5-1-10.8-3c-1-0.5-2-1.2-2.9-2c-0.4-0.4-2.1-2.1-0.8-2.4c0.5-0.2,1,0.4,1.4,0.7
					C97.3,85.2,97.9,85.5,98.4,85.8z"/>
			</g>
		</g>
		<path class="st14" d="M130.3,100.9c-0.2,0.8-0.2,1.7-0.2,2.5c0.1,0.8,0.5,1.6,1.3,2c1,0.5,2.2-0.1,3.1-0.6
			c5.4-3.3,9.2-8.7,11.6-14.6s3.6-12.1,4.7-18.3c0.6-2.7,0.8-5.4,0.8-8.2l-4.9,2.7c-2.2,1.1-4.3,2.5-6.3,4c-3.5,2.9-5.8,7-8,11
			c-0.8,1.4-1.6,2.9-2.2,4.4c-0.8,1.4-0.9,3.1-0.4,4.6C130.7,93.9,130.9,97.4,130.3,100.9z"/>
		<path class="st20" d="M81.8,116.7c6.4-0.2,12.7-1.9,18.4-4.9c5.5-3.2,10.6-7.2,15-11.8c1.5,1.2,2.4,4.1,3,5.9
			c0.5,1.4,0.8,2.8,1,4.2c0.2,1.4,0.3,2.9,0.1,4.3c-0.3,1.1-0.6,2.2-0.8,3.4c0.1,0.8-0.5,1.5-1.3,1.6c-0.1,0-0.1,0-0.2,0
			c-7.7,1.8-15.5,2.5-23.4,2.2c-7.6-0.2-15.7-0.9-22.9-3.3c-2-0.7-5.1-1.7-6.4-3.4c0.9-0.6,2.8,0.4,3.7,0.6c1.5,0.3,3,0.6,4.5,0.8
			C75.5,116.7,78.7,116.9,81.8,116.7z"/>
		<path class="st13" d="M82.7,164.3c1.2-0.8,2.8-1,4.2-0.5c1.2,0.7,2,2,2.2,3.4c0.5,2.5,0.2,5.1-0.7,7.5c-0.9,2.4-2,4.6-3.3,6.8
			c0.6,0.6,1.4,0.9,2.2,0.8c2.8-0.1,5-2.1,6.9-4.2c2.6-2.8,4.6-6,5.9-9.6c1.3-3.6,1.5-7.5,0.4-11.1c-0.3-1.2-0.9-2.3-1.7-3.3
			c-1.4-1.4-3.5-2.2-5.5-2c-2,0.2-3.9,0.9-5.6,2c-4.9,3.2-8.5,8.1-10.1,13.8c-0.2,0.5-0.4,1-0.4,1.6c0,0.1,0.1,0.3,0.2,0.4
			c0.3,0.2,2-2.5,2.3-2.9C80.4,165.9,81.5,165,82.7,164.3z"/>
		<path class="st4" d="M132.6,93.2c-0.5-2.8-2-5.2-4.2-7c-2.3-1.6-5.2-2.2-8-1.7c-1.6,0.4-3.1,1-4.6,1.9c-1.6,0.9-3,2.1-4.1,3.5
			l3.3,31l13.3,2.6C128.3,123.6,136.1,107.9,132.6,93.2z"/>
		<g>
			<defs>
				<path id="SVGID_13_" d="M132.6,93.2c-0.5-2.8-2-5.2-4.2-7c-2.3-1.6-5.2-2.2-8-1.7c-1.6,0.4-3.1,1-4.6,1.9
					c-1.6,0.9-3,2.1-4.1,3.5l3.3,31l13.3,2.6C128.3,123.6,136.1,107.9,132.6,93.2z"/>
			</defs>
			<clipPath id="SVGID_14_">
				<use xlink:href="#SVGID_13_"  style="overflow:visible;"/>
			</clipPath>
			<g class="st26">
				<path class="st27" d="M136,96.4l-2.3-10.3l-6.5-3.1l-6.9-1.6l-6.1,3.9l-3,4.8c1.6-1.3,3.3-2.3,5.2-3c1.9-0.7,3.9-0.9,5.9-0.5
					c3.5,0.8,6.2,3.9,7.4,7.3s1.2,7.1,0.9,10.7c-0.3,4.3-1,8.6-2,12.9c-0.7-0.5-1.4-0.9-2.2-1.2c-5.5-2.2-11.8-1.3-16.4,2.4l2.2,4.2
					l16.7,3l3.3-4.1c-0.2-0.6-0.5-1.1-0.8-1.6l4.3-10.3L136,96.4z"/>
			</g>
		</g>
		<path class="st11" d="M131.1,133c1.4-5.1,0.5-11-3.8-14c-4.5-3-10.4-2.9-14.8,0.2l-8.9,20.2l10.7,9.6
			C114.3,149,128.9,140.6,131.1,133z"/>
		<g>
			<defs>
				<path id="SVGID_15_" d="M131.1,133c1.4-5.1,0.5-11-3.8-14c-4.5-3-10.4-2.9-14.8,0.2l-8.9,20.2l10.7,9.6
					C114.3,149,128.9,140.6,131.1,133z"/>
			</defs>
			<clipPath id="SVGID_16_">
				<use xlink:href="#SVGID_15_"  style="overflow:visible;"/>
			</clipPath>
			<g class="st28">
				<path class="st27" d="M134.1,129.6c-1.6,3.2-3.9,6-6.8,8.3c-2.8,2.2-5.8,4.2-8.9,6c-1.3,0.9-2.8,1.5-4.4,1.8
					c0.5,1.1,1,2.2,1.6,3.3c0.2,0.3,0.4,0.5,0.6,0.7c0.7,0.4,1.6,0,2.3-0.5c2.7-1.9,5.2-4,7.5-6.4c2-1.8,3.8-3.8,5.4-6
					C132.9,134.6,133.8,132.1,134.1,129.6z"/>
				<path class="st27" d="M110.2,125.4c0.5-1,0.6-2.2,0.5-3.3c-4.6,4-7.7,9.4-8.8,15.4c-0.3,1.4,0.5,2.8,2,3.1
					c0.2,0.1,0.5,0.1,0.7,0.1c1.9,0,2-1.9,2.3-3.3C107.8,133.3,108.9,129.3,110.2,125.4z"/>
			</g>
		</g>
		<path class="st14" d="M109.8,139.6c-10.3-5-23.7,1.5-30,14.5c-1.8,3.6-2.8,7.5-3.1,11.5c-0.1,1.4-0.1,2.8,0,4.3
			c0,0.2,0.2,0.3,0.4,0.3c0.1,0,0.2-0.1,0.3-0.2c1.8-3.7,4-7.2,6.6-10.5c1.5-1.9,3.3-3.4,5.3-4.7c0.8-0.7,1.9-0.9,2.9-0.8
			c1.1,0.3,1.6,1.6,1.8,2.7c1,5.2-1.4,10.5-4.2,15c-2.1,3.4-4.7,6.5-7.5,9.3c-0.5,0.5-0.6,1.3-0.1,1.9c1.4,1.5,3.1,2.8,5,3.7
			c8.6,4.2,19.5,0.3,26.5-8.8c1.4-1.8,2.6-3.7,3.6-5.8C123.3,159.2,120.1,144.6,109.8,139.6z"/>
		<path class="st29" d="M129.6,130.6c-0.1-1.4-0.3-2.7-0.6-4.1c-0.2-0.8-0.4-1.6-0.6-2.4c-0.2-0.6-0.8-1.8-0.9-2.1
			c-2.3,7.6-6.5,14.4-12.2,19.9l1.1,1.7c0,0,1.5-0.9,1.9-1.1c3.8-2.4,7.2-5.4,9.9-9c0.4-0.4,0.7-0.9,1.1-1.4c0.2-0.3,0.3-0.6,0.4-1
			C129.6,131.1,129.6,130.9,129.6,130.6z"/>
		<g>
			<defs>
				<path id="SVGID_17_" d="M135.8,171.6c0-0.3,0-0.5,0-0.8c0-0.8,0-1.5-0.1-2.3l-10.7,1.7c-0.4,2.6-1,5.2-1.9,7.6
					c-1,2.6-2.1,5.2-3.5,7.7c-1.3,2.5-2.6,5.1-4,7.5c-0.9,1.5-1.7,3-2.6,4.5c-0.3,0.6-1.6,2.4-0.6,2.9c0.2,0.1,0.4,0.1,0.6,0
					c1.3-0.2,2.5-0.6,3.6-1.2l0.1-0.1c1.2-0.7,2.4-1.5,3.5-2.4c1.6-1.2,3.1-2.6,4.5-4c0.3-0.3,0.7-0.7,1.1-1.1
					C134,183.2,135.6,175.5,135.8,171.6L135.8,171.6z"/>
			</defs>
			<clipPath id="SVGID_18_">
				<use xlink:href="#SVGID_17_"  style="overflow:visible;"/>
			</clipPath>
			<g class="st30">
				<path class="st31" d="M134.8,178.8c0.2-0.9,0.1-1.8-0.1-2.7c-0.3-0.9-1-1.6-1.9-1.8c-0.8-0.1-1.7,0.1-2.3,0.7
					c-0.6,0.6-1.1,1.3-1.5,2l-6.7,10.7c-0.8,1.2-1.5,2.5-2.2,3.8c-0.5,0.8-0.6,1.8-0.2,2.6c0.3,0.4,0.8,0.7,1.3,0.8
					c1.4,0.4,2.9,0.3,4.3-0.4l8-9.2L134.8,178.8z"/>
				<path class="st6" d="M117.6,196c1.6,0.5,3.3,0.6,4.9,0.1c-0.7,2.1-2.2,3.9-4.3,4.8c-2.1,1-4.4,1.1-6.6,0.3
					c-0.6-0.1-1.1-0.5-1.4-1.1c-0.1-0.3-0.2-0.7-0.1-1c0.2-2.4,1.3-4.6,3.2-6.1c0.2-0.2,1.1-1,1.5-0.8s0.3,1.1,0.4,1.4
					C115.6,194.8,116.5,195.6,117.6,196z"/>
			</g>
		</g>
		<g>
			<defs>
				<path id="SVGID_19_" d="M162.8,143.2c-0.1-0.3-0.1-0.5-0.2-0.7c-0.2-0.7-0.4-1.4-0.7-2.1l-9.5,4.4c0.3,2.5,0.4,5.1,0.3,7.6
					c-0.2,2.7-0.6,5.4-1.2,8.1c-0.5,2.7-1.1,5.4-1.7,8c-0.4,1.6-0.8,3.3-1.2,4.9c-0.2,0.6-0.9,2.6,0.2,2.8c0.2,0,0.4,0,0.5-0.1
					c1.1-0.5,2.1-1.2,3-2.1l0.1-0.1c1-1,1.9-2.1,2.6-3.2c1.2-1.6,2.2-3.2,3.1-4.9c0.2-0.4,0.5-0.8,0.7-1.3
					C164.2,154.4,163.7,146.9,162.8,143.2L162.8,143.2z"/>
			</defs>
			<clipPath id="SVGID_20_">
				<use xlink:href="#SVGID_19_"  style="overflow:visible;"/>
			</clipPath>
			<g class="st32">
				<path class="st31" d="M163.2,152c0.1-1.2-0.4-2.4-1.2-3.3c-0.9-0.7-2.1-0.8-3-0.2c-0.7,0.5-1.1,1.2-1.3,1.9
					c-0.2,0.8-0.4,1.6-0.5,2.4c-0.5,2.9-1.6,5.7-2.2,8.6c-0.2,0.8-0.3,1.5-0.2,2.3c0.1,0.8,0.4,1.5,1,2c0.7,0.5,1.7,0.6,2.5,0.3
					c0.8-0.3,1.5-0.9,2.1-1.6c1.1-1.4,1.6-3.1,1.5-4.9"/>
				<path class="st6" d="M156.2,170.2c-0.2,0.3-0.4,0.5-0.8,0.5c-1.2,0.3-2.5,0.1-3.6-0.4c-1.1-0.3-1.9-1.2-2.3-2.2l-2.6,2.8
					l0.2,6.4l3.6-0.4l3.6-2.4l1.7-3L156.2,170.2z"/>
			</g>
		</g>
		<g>
			<defs>
				<path id="SVGID_21_" d="M130.3,100.9c-0.2,0.8-0.2,1.7-0.2,2.5c0.1,0.8,0.5,1.6,1.3,2c1,0.5,2.2-0.1,3.1-0.6
					c5.4-3.3,9.2-8.7,11.6-14.6s3.6-12.1,4.7-18.3c0.6-2.7,0.8-5.4,0.8-8.2l-4.9,2.7c-2.2,1.1-4.3,2.5-6.3,4c-3.5,2.9-5.8,7-8,11
					c-0.8,1.4-1.6,2.9-2.2,4.4c-0.8,1.4-0.9,3.1-0.4,4.6C130.7,93.9,130.9,97.4,130.3,100.9z"/>
			</defs>
			<clipPath id="SVGID_22_">
				<use xlink:href="#SVGID_21_"  style="overflow:visible;"/>
			</clipPath>
			<g class="st33">
				<path class="st34" d="M135.9,82.1c-0.6,1.8-0.8,3.6-0.6,5.5c0,0.6,0.2,1.2,0.6,1.7c0.6,0.6,1.6,0.7,2.4,0.4
					c0.8-0.4,1.4-0.9,2-1.5c5.3-5.2,9.1-11.7,11.1-18.8c0.4-1.3,1.2-3.5,0.5-4.8c-0.7-1.2-2.2-1.6-3.5-1c-1.3,0.7-2.2,2.3-3.1,3.3
					c-1.3,1.3-2.6,2.7-3.8,4.2C138.9,74.3,137,78,135.9,82.1z"/>
			</g>
		</g>
		<path class="st35" d="M104.5,64.5c-0.4,0.1-0.8,0.2-1.3,0.1c-0.8,0-1.6-0.5-2-1.2c-0.8-1.6,0.3-2.8,1.3-3.8
			c3.1-3.1,6.7-5.6,10.7-7.6c2.4-1.2,4.6-2.5,7.4-2.2c0.7,0.1,1.5,0.3,1.6,1.1c0,0.8-0.4,1.6-0.9,2.2c-2.3,3-5.3,4.8-8.4,6.8
			c-2.3,1.6-4.7,3-7.2,4.1C105.3,64.2,104.9,64.4,104.5,64.5z"/>
		<circle class="st36" cx="122.4" cy="54.2" r="2.9"/>
		<circle class="st37" cx="130.1" cy="56.7" r="2"/>
		<path class="st16" d="M89.8,42.1c-0.5,0.4-0.9,0.9-1.3,1.4c-0.4,0.3-0.6,0.8-0.5,1.3c0.1,0.4,0.5,0.8,0.9,0.8
			c0.4,0.1,0.9,0,1.3-0.1c3.4-0.8,6.8-1.8,10.1-3.2l20.5-7.7c1.7-0.6,3.2-1.4,3.9-3.2c0.8-1.5,0.2-3.4-1.3-4.2
			c-0.1,0-0.2-0.1-0.2-0.1c-4.2-1.8-9.3,0.6-13,2.5c-5.5,2.7-10.8,5.7-15.9,9.1C92.6,39.8,91.1,40.9,89.8,42.1z"/>
		<path class="st16" d="M102,21.5L85.9,34.4l7.2,0.1c2.9-2.9,6.4-7.2,9.1-10.4C102.1,23.3,102,22.4,102,21.5z"/>
		<line class="st38" x1="123.2" y1="166" x2="130.6" y2="160.1"/>
		<line class="st38" x1="154.4" y1="141.3" x2="160.1" y2="135.1"/>
		<line class="st38" x1="60.3" y1="149.1" x2="65.7" y2="157.3"/>
		<path class="st39" d="M91,95.3c-0.4,0-0.9,0.4-1.5,0.8c-2.3,1.2-4.7,2.2-7,3.1c-4.8,2-9.8,3.6-14.9,4.7c-1.8,0.4-3.7,0.7-5.5,0.9
			c-1,0.1-4.1,0.1-3.9,1.5s3,3,4.1,3.6c7.1,3.9,15.7,3.9,22.9,0c2.7-1.3,4.8-3.5,6.1-6.2c0.5-1.4,0.8-2.8,0.9-4.3
			c0.2-1.2,0.1-2.3-0.4-3.4C91.5,95.5,91.3,95.3,91,95.3z"/>
		<path class="st22" d="M75.6,42.7c5.4,2.1,10.6,6.7,11,12.9c0,0.1,0,0.3,0,0.4c0,1.3-0.1,2.6-0.3,3.9c-0.1,1.4-0.2,2.8-0.2,4.2
			c-0.7-1.8-1-3.8-0.9-5.7c-0.1-2.6-0.9-5.1-2.3-7.3c-1.4-2.2-3.2-4-5.3-5.5c-1.5-1.1-3.1-1.9-4.8-2.5c-0.9-0.3-1.7-0.5-2.6-0.7
			c-0.5-0.1-1.9-0.5-2.3-0.1c1-1.1,3.1-0.9,4.4-0.7C73.3,41.9,74.5,42.2,75.6,42.7z"/>
		<g>
			<defs>
				<path id="SVGID_23_" d="M109.8,139.6c-10.3-5-23.7,1.5-30,14.5c-1.8,3.6-2.8,7.5-3.1,11.5c-0.1,1.4-0.1,2.8,0,4.3
					c0,0.2,0.2,0.3,0.4,0.3c0.1,0,0.2-0.1,0.3-0.2c1.8-3.7,4-7.2,6.6-10.5c1.5-1.9,3.3-3.4,5.3-4.7c0.8-0.7,1.9-0.9,2.9-0.8
					c1.1,0.3,1.6,1.6,1.8,2.7c1,5.2-1.4,10.5-4.2,15c-2.1,3.4-4.7,6.5-7.5,9.3c-0.5,0.5-0.6,1.3-0.1,1.9c1.4,1.5,3.1,2.8,5,3.7
					c8.6,4.2,19.5,0.3,26.5-8.8c1.4-1.8,2.6-3.7,3.6-5.8C123.3,159.2,120.1,144.6,109.8,139.6z"/>
			</defs>
			<clipPath id="SVGID_24_">
				<use xlink:href="#SVGID_23_"  style="overflow:visible;"/>
			</clipPath>
			<g class="st40">
				<circle class="st16" cx="103.2" cy="155" r="12.6"/>
				<path class="st17" d="M87.1,142.7c-4.4,2.7-7.1,7.8-7.4,12.9c-0.2,5.2,1.1,10.3,3.9,14.7c1.2,2,2.7,3.8,4.5,5.3
					c2.1,1.6,4.5,2.7,7.1,3.2c7.3,1.6,15.2-0.3,21.6-4.4s11.2-10.1,14.9-16.6l-4.3,21.8l-20.6,13.5l-16.4-0.5l-10.6-7.3l-7-8.4
					l-0.8-12.2l2.9-10.5l3.4-7L87.1,142.7z"/>
			</g>
		</g>
		<circle class="st41" cx="36.1" cy="136.8" r="3.1"/>
		<circle class="st42" cx="107.5" cy="156.7" r="5.1"/>
		
			<ellipse transform="matrix(0.7071 -0.7071 0.7071 0.7071 -76.887 115.0517)" class="st43" cx="100.4" cy="150.3" rx="2.3" ry="2.3"/>
		<circle class="st44" cx="29.5" cy="134.4" r="1.7"/>
		<g>
			<defs>
				<path id="SVGID_25_" d="M54,161c0-0.3,0.1-0.6,0.1-0.8c0.1-0.8,0.2-1.6,0.4-2.4l10.9,3.2c0,2.7,0.4,5.5,0.9,8.1
					c0.7,2.9,1.5,5.7,2.6,8.5c1,2.8,2,5.6,3.1,8.3c0.7,1.7,1.4,3.4,2.1,5c0.3,0.7,1.4,2.7,0.2,3c-0.2,0.1-0.4,0.1-0.6,0
					c-1.3-0.4-2.5-1-3.6-1.8l-0.1-0.1c-1.2-0.9-2.3-1.9-3.3-3c-1.5-1.5-2.9-3.1-4.2-4.8c-0.3-0.4-0.7-0.8-1-1.3
					C54.3,173.2,53.7,165.1,54,161L54,161z"/>
			</defs>
			<clipPath id="SVGID_26_">
				<use xlink:href="#SVGID_25_"  style="overflow:visible;"/>
			</clipPath>
			<g class="st45">
				<path class="st31" d="M61.9,172.7c1.4,3.6,3.1,7,5.2,10.2c0.7,1.1,1.6,2.1,2.6,2.8c0.4,0.3,0.9,0.4,1.4,0.4
					c0.9-0.1,1.5-1,1.7-1.8c0.3-1.6,0.1-3.3-0.6-4.8c-0.7-1.5-1.5-2.9-2.4-4.2c-1-1.6-1.8-3.2-2.4-5c-0.4-1.2-0.5-2.5-0.9-3.7
					c-0.8-2.5-4.3-3.2-5.4-0.4C60.2,168.2,61.1,170.7,61.9,172.7z"/>
				<path class="st6" d="M73,187c-0.1,0.5-0.3,0.9-0.7,1.2c-1.3,1.4-3.2,2-5.1,1.7l1.3,2l2.9,1.8l2.8,1.2l2-0.2l-0.1-2.3l-1.6-2.6
					L73,187z"/>
			</g>
		</g>
		<path class="st22" d="M130.2,64.1c4,2.3,5.4,7.5,3,11.5c-0.1,0.1-0.2,0.3-0.2,0.4c-2.8,4-8.2,5.2-12.4,2.7c-4-2.3-5.4-7.5-3-11.5
			c0.1-0.1,0.2-0.3,0.3-0.4C120.6,62.8,126,61.6,130.2,64.1z"/>
		<path class="st46" d="M133.8,68.1c1,4.5-1.8,9-6.4,10c0,0,0,0,0,0c-4.5,1.1-9.1-1.6-10.2-6.1c-1-4.5,1.8-9,6.4-10c0,0,0,0,0,0
			C128,60.9,132.6,63.6,133.8,68.1z"/>
		<g>
			<defs>
				<path id="SVGID_27_" d="M128.9,62.4c4.2,1.5,6.3,6.1,4.8,10.2c-0.1,0.2-0.1,0.3-0.2,0.5c-2,4.2-7,6.2-11.3,4.4
					c-4.2-1.5-6.3-6.1-4.8-10.2c0.1-0.2,0.1-0.3,0.2-0.5C119.6,62.6,124.6,60.6,128.9,62.4z"/>
			</defs>
			<clipPath id="SVGID_28_">
				<use xlink:href="#SVGID_27_"  style="overflow:visible;"/>
			</clipPath>
			<g class="st47">
				<path class="st48" d="M133.5,66.5c0.9,3.8-1.5,7.6-5.3,8.5c0,0-0.1,0-0.1,0c-3.8,0.9-7.7-1.4-8.6-5.2c-0.9-3.8,1.5-7.6,5.3-8.5
					c0,0,0,0,0,0C128.6,60.4,132.5,62.7,133.5,66.5z"/>
			</g>
		</g>
		<path class="st29" d="M132.4,66.6c0.4,1.8-0.6,3.5-2.4,4c0,0,0,0-0.1,0c-1.8,0.4-3.6-0.7-4-2.5c0,0,0,0,0,0
			c-0.4-1.8,0.6-3.5,2.4-4c0,0,0,0,0.1,0C130.2,63.7,132,64.8,132.4,66.6C132.4,66.6,132.4,66.6,132.4,66.6z"/>
		<ellipse transform="matrix(0.9948 -0.1019 0.1019 0.9948 -6.6609 5.2759)" class="st4" cx="48.3" cy="67.8" rx="35.3" ry="35.3"/>
		<path class="st10" d="M46,71.9c-1.3,7.9,3.3,14.9,10.3,15.1s12.9-6.2,13.5-14c0.5-7.3-4-13.2-10.1-13.6S47.3,64.4,46,71.9z"/>
		<path class="st49" d="M48.2,70.6c-1.3,7.9,3.2,14.9,10.2,15.1s12.9-6.2,13.5-14c0.5-7.3-4-13.2-10.1-13.6S49.4,63.2,48.2,70.6z"/>
		
			<ellipse transform="matrix(1.588189e-02 -0.9999 0.9999 1.588189e-02 -3.6386 127.7921)" class="st46" cx="63.1" cy="65.7" rx="4.4" ry="4.4"/>
		<g>
			<defs>
				<path id="SVGID_29_" d="M34,59.3c1.8-3.5,1.8-7.6,1.1-11.5s-2.2-7.5-3.3-11.3c-1.9-6.3-2.3-13.1-1.1-19.6
					c1.2-6.6,4.7-12.5,9.9-16.7C40.8,0.1,41,0,41.2,0c0.7,0,0.8,1,0.7,1.7c-1.7,8-3.1,16.1-2.4,24.2c0.4,4,1.2,8.6,4.2,11.6
					c1,1,2.5,1.7,3.8,0.9c0.5-0.3,0.9-0.9,1.5-0.8c-0.5,1.8-1.2,3.5-2.1,5.1c-1.4,2.6-2.9,5.1-4.6,7.5c-1.4,2.1-2.9,4.1-4.3,6.1
					c-0.6,1-1.4,1.8-2.4,2.5C35.2,59.1,34.6,59.3,34,59.3z"/>
			</defs>
			<clipPath id="SVGID_30_">
				<use xlink:href="#SVGID_29_"  style="overflow:visible;"/>
			</clipPath>
			<g class="st50">
				<path class="st10" d="M-15.7,17.9c-1.5,4.4-2.3,9.1-2.3,13.8c-0.1,4.7,1.5,9.3,4.4,13c1.1,1.4,2.5,2.4,4.1,3.1
					c0.8,0.3,1.6,0.4,2.4,0.3c1.5-0.3,2.6-1.5,3.5-2.8c0.2-0.3,0.4-0.6,0.2-0.9s-0.7-0.3-1.1-0.3c-1.4,0-2.4-1.5-2.9-2.8
					c-2.4-6.2-1.4-13.1-0.3-19.6c0.5-2.2,0.7-4.5,0.5-6.8c-0.3-1.8-0.9-3.6-1.8-5.2c-0.7-1.4-1.5-2.8-2.8-1.1
					C-13.7,11.3-14.7,14.8-15.7,17.9z"/>
			</g>
		</g>
		<g>
			<defs>
				
					<ellipse id="SVGID_31_" transform="matrix(0.9948 -0.1019 0.1019 0.9948 -6.6609 5.2759)" cx="48.3" cy="67.8" rx="35.3" ry="35.3"/>
			</defs>
			<clipPath id="SVGID_32_">
				<use xlink:href="#SVGID_31_"  style="overflow:visible;"/>
			</clipPath>
			<g class="st51">
				<path class="st10" d="M59.9,32.7c0.8-1.4-2.8-3.3-3.9-3.7c-3.9-1.5-9.6-1.4-13.7-1.1c-5,0.3-9.8,1.7-14.2,4.1
					C20.5,36.2,14.5,42.8,11,50.8c-1.3,2.7-2.1,5.6-2.6,8.6c-0.4,3.3,0.3,6.5,3.8,7.6c3.2,1,4.5-0.6,5.5-3.3
					C19.9,57.3,23.9,52,30,49c5.9-2.9,11.3-3.8,15.9-8.8c1.8-2.1,3.9-3.9,6.3-5.3c1-0.6,2.1-1,3.2-1.4c0.8-0.2,3.7-0.1,4.2-0.5
					C59.7,32.9,59.8,32.8,59.9,32.7z"/>
			</g>
		</g>
		<path class="st10" d="M33,72.4c1.5,7.6-2.6,14.5-9,14.9s-12-5.7-12.7-13.1c-0.7-7,3.4-12.8,9-13.4S31.7,65.3,33,72.4z"/>
		<path class="st49" d="M31,71.5c1.4,7.6-2.5,14.5-8.7,14.8S10.6,80.6,9.9,73.2c-0.7-7,3.2-12.8,8.7-13.3S29.6,64.4,31,71.5z"/>
		
			<ellipse transform="matrix(1.588189e-02 -0.9999 0.9999 1.588189e-02 -45.5866 91.8486)" class="st46" cx="23.9" cy="69.1" rx="4.5" ry="4.4"/>
		<path class="st4" d="M34,59.3c1.8-3.5,1.8-7.6,1.1-11.5s-2.2-7.5-3.3-11.3c-1.9-6.3-2.3-13.1-1.1-19.6c1.2-6.6,4.7-12.5,9.9-16.7
			C40.8,0.1,41,0,41.2,0c0.7,0,0.8,1,0.7,1.7c-1.7,8-3.1,16.1-2.4,24.2c0.4,4,1.2,8.6,4.2,11.6c1,1,2.5,1.7,3.8,0.9
			c0.5-0.3,0.9-0.9,1.5-0.8c-0.5,1.8-1.2,3.5-2.1,5.1c-1.4,2.6-2.9,5.1-4.6,7.5c-1.4,2.1-2.9,4.1-4.3,6.1c-0.6,1-1.4,1.8-2.4,2.5
			C35.2,59.1,34.6,59.3,34,59.3z"/>
		<path class="st52" d="M47.3,91c-1,1.7-3.5,2.9-6.5,2.8s-5.6-1.6-6.3-3.5"/>
		<path class="st53" d="M67.4,47.6c0.2,1,0.2,2,0,3c-0.5,2.1-1.9,3.7-3.9,4.5c-1.3,0.4-2.7,0.5-4,0.2c-1.2-0.2-2.3-0.6-3.2-1.3
			c-1.9-1.2-3.1-3.3-3.3-5.5c-0.3-3.7,2.4-7,6.1-7.3c0.4,0,0.7,0,1.1,0c2.5,0.2,4.8,1.6,6.1,3.7C66.8,45.7,67.2,46.6,67.4,47.6z"/>
		<ellipse transform="matrix(0.7797 -0.6262 0.6262 0.7797 -16.9869 56.6606)" class="st35" cx="72" cy="52.5" rx="2.5" ry="2.6"/>
		
			<linearGradient id="SVGID_33_" gradientUnits="userSpaceOnUse" x1="88.2035" y1="165.8258" x2="19.4493" y2="115.7946" gradientTransform="matrix(1 3.000000e-02 3.000000e-02 -1 -12.54 206.76)">
			<stop  offset="0" style="stop-color:#FFFFFF;stop-opacity:0.7"/>
			<stop  offset="0.64" style="stop-color:#FFFFFF;stop-opacity:0"/>
		</linearGradient>
		<path class="st54" d="M89,58.7c-4.2-23.1-26.4-38.4-49.5-34.1c0,0,0,0.1,0,0.1c0.5,1.7-1.1,3.7-3.7,4.5s-5,0-5.5-1.7
			c0,0,0-0.1,0-0.1C8.8,36.7-1.2,61.7,8.1,83.2s34.3,31.5,55.9,22.2C82.2,97.6,92.6,78.2,89,58.7z"/>
	</g>
</g>
</svg>
