<svg xmlns="http://www.w3.org/2000/svg" xmlns:xlink="http://www.w3.org/1999/xlink" viewBox="0 0 156.21 211.67"><defs><style>.cls-1,.cls-23{fill:none;}.cls-2{opacity:0.08;}.cls-3{fill:#a3d8e5;}.cls-10,.cls-4{fill:#b0b0d1;}.cls-5{clip-path:url(#clip-path);}.cls-17,.cls-20,.cls-6{fill:#5c3c99;}.cls-39,.cls-6{opacity:0.1;}.cls-7{clip-path:url(#clip-path-2);}.cls-8{fill:#d5d5e0;}.cls-9{clip-path:url(#clip-path-3);}.cls-10{opacity:0.61;}.cls-11{fill:#c43b87;}.cls-12{fill:#f58a1f;}.cls-13{fill:#d1640b;}.cls-14{opacity:0.58;}.cls-15{clip-path:url(#clip-path-4);}.cls-16{fill:#e27614;}.cls-17{opacity:0.12;}.cls-18,.cls-25,.cls-31,.cls-36,.cls-37,.cls-39,.cls-40,.cls-41,.cls-43{fill:#fff;}.cls-19,.cls-33{fill:#db4589;}.cls-21{fill:#d66b13;opacity:0.91;}.cls-22{fill:#c15c0a;}.cls-23{stroke:#5c3c99;stroke-linecap:round;stroke-miterlimit:10;stroke-width:1.91px;}.cls-24{fill:#f79237;}.cls-25{opacity:0.15;}.cls-26{clip-path:url(#clip-path-5);}.cls-27{fill:#ce4188;}.cls-28{clip-path:url(#clip-path-6);}.cls-29{clip-path:url(#clip-path-7);}.cls-30{fill:#6850a5;}.cls-31{opacity:0.3;}.cls-32{clip-path:url(#clip-path-8);}.cls-33,.cls-43{opacity:0.62;}.cls-34{fill:#9595bf;}.cls-35{clip-path:url(#clip-path-10);}.cls-36{opacity:0.11;}.cls-37{opacity:0.25;}.cls-38{fill:#edeceb;opacity:0.6;}.cls-40{opacity:0.4;}.cls-41{opacity:0.23;}.cls-42{opacity:0.65;fill:url(#linear-gradient);}</style><clipPath id="clip-path"><path class="cls-1" d="M34.12,137.7c-2.52.37-5.14.22-7.55,1.07a15.27,15.27,0,0,0-4.27,2.51c-6.93,5.42-11.83,13.78-12.06,22.62S15,181.79,23,185.38a31.44,31.44,0,0,0,6.81,2,76.65,76.65,0,0,0,7.6,1.1c3.19.3,6.58.46,9.24,2.27a26.76,26.76,0,0,0-.83-17.26,26.49,26.49,0,0,0-11.27-13,26.08,26.08,0,0,1-3.45-2.1c-2.58-2.08-3.75-6.11-1.93-8.88a8.53,8.53,0,0,1,3.25-2.69c3.78-2,8.1-2.68,12.16-4s8.16-3.66,9.9-7.6c-.43,1-4.37.48-5.15.32a9.91,9.91,0,0,1-2.46-.87c-.62-.32-1.63-1.46-2.24-1.56-1.11-.19-3.59,2.25-4.75,2.83A18.88,18.88,0,0,1,34.12,137.7Z"/></clipPath><clipPath id="clip-path-2"><path class="cls-1" d="M94.66,164a20.74,20.74,0,0,1-1,3.27c-1.7,4.44-5.83,6.28-10.28,6.84-3.91.49-7.95.18-11.74,1.27a18.77,18.77,0,0,0-10.46,8.13,25.26,25.26,0,0,0-3.65,12.94c2.56-3.28,7.51-3.46,11.45-2.19s7.49,3.66,11.51,4.64c5.94,1.45,12.42-.43,17.19-4.28a27.34,27.34,0,0,0,7.25-9.31c5.89-12,5.53-27.46-2.18-38.59-3.88-5.61-9.08-10.57-13.89-15.42-.6-.64-11.22,1-10.43,1.56A74.17,74.17,0,0,1,86,138.56a36,36,0,0,1,4.87,6.15,31.28,31.28,0,0,1,3.84,10.63A21.62,21.62,0,0,1,94.66,164Z"/></clipPath><clipPath id="clip-path-3"><path class="cls-1" d="M25.15,102.35A26.27,26.27,0,0,1,22,120.66a7.33,7.33,0,0,0-1,2.21c-.47,2.32,1.62,4.31,3.6,5.6,6.92,4.5,15,6.85,23.22,7.81s16.45.6,24.66,0a109,109,0,0,0,11-1.2,61.86,61.86,0,0,0,13.24-3.87c5.39-2.26,10.93-5.88,12.34-11.59-2.35-2.54-5.44-4.22-8.38-6-7.92-4.88-15.15-11-23.77-14.54-9.87-4-20.78-4.21-31.42-4.36a105.88,105.88,0,0,0-14.55.46c-1.54.19-5,.19-6.18,1.25S24.85,100.87,25.15,102.35Z"/></clipPath><clipPath id="clip-path-4"><path class="cls-1" d="M14.17,97.78c.87-2.27,2.26-4.32,3.14-6.59,1.56-4,1.42-8.48,1.75-12.79,1-13.07,6.7-25.53,14.87-35.73C46.07,27.52,68.06,10.61,88.51,12.22c5.74.45,11.21,2.64,16.39,5.18a118.32,118.32,0,0,1,15.89,9.4c5.28,3.71,9,8.37,13.07,13.33a78.31,78.31,0,0,1,7.84,10.69c9.71,16.88,11.93,42.79-1.77,58.23a36,36,0,0,1-7.37,6.34c-1.32.86-6.74,4.58-8.32,3.9,1.75.76,1.89,3.46.64,4.91-3.89,4.53-13.46,1.58-18-.17a93.69,93.69,0,0,1-13.37-6.92c-10.83-6.32-21.93-12.45-34-15.67s-25.42-3.3-36.67,2.22c-1.89.93-3.83,2-5.93,1.94C12.37,105.4,13,100.77,14.17,97.78Z"/></clipPath><clipPath id="clip-path-5"><path class="cls-1" d="M73.32,8.88a5.29,5.29,0,0,1,2-1.76c1.72-.74,3.68.37,5,1.7a14.07,14.07,0,0,1,3.6,6.32,4.09,4.09,0,0,1,.14,2,4.32,4.32,0,0,1-.68,1.38,24.18,24.18,0,0,1-12.19,9.33c-2.4.82-4.55,1.32-4.35-1.89a30.83,30.83,0,0,1,1.83-8.51A31.47,31.47,0,0,1,73.32,8.88Z"/></clipPath><clipPath id="clip-path-6"><path class="cls-1" d="M39.81,33.64A14.36,14.36,0,0,1,42,29.19a5.84,5.84,0,0,1,4.18-2.37c1.92-.08,3.66,1.08,5.12,2.35A28,28,0,0,1,56.33,35a6.2,6.2,0,0,1,1.31,3.74,6.24,6.24,0,0,1-1.35,3A31.33,31.33,0,0,1,40.87,53.17a4.64,4.64,0,0,1-2.24.33c-2.8-.49-1.4-6.85-1.2-8.81A52.89,52.89,0,0,1,39.81,33.64Z"/></clipPath><clipPath id="clip-path-7"><ellipse class="cls-1" cx="127.92" cy="84.43" rx="9.4" ry="9.56"/></clipPath><clipPath id="clip-path-8"><path class="cls-1" d="M102.24,8.68a3.66,3.66,0,0,1,2.06-1.14,3.23,3.23,0,0,1,2.11.77c2.53,1.87,3.77,5,4.81,8,.75,2.15,1.46,4.42,1.09,6.67a.41.41,0,0,1-.15.3.42.42,0,0,1-.39,0L99.2,17.29c-2.38-1.13-2-1.73-.72-3.93A20.18,20.18,0,0,1,102.24,8.68Z"/></clipPath><clipPath id="clip-path-10"><path class="cls-1" d="M94.41,163.91a12.47,12.47,0,0,1-1.11,4.54c-1.79,3.54-6,5.16-9.87,5.66s-7.95.18-11.74,1.27a18.77,18.77,0,0,0-10.46,8.13,25.26,25.26,0,0,0-3.65,12.94c2.56-3.28,7.51-3.46,11.45-2.19s7.49,3.66,11.51,4.64c5.94,1.45,12.42-.43,17.19-4.28a29.65,29.65,0,0,0,9.55-15.43,54.29,54.29,0,0,0,2.21-18.32,26.7,26.7,0,0,0-3.87-11.29,29.16,29.16,0,0,0-4-4.84L88.91,131.3c-.51-.54-5.18,1.48-5.89,1.76-2.18.88-3.56,1.06-1.87,2.91,2.43,2.66,5.39,4.44,7.56,7.49A31.07,31.07,0,0,1,94.41,163.91Z"/></clipPath><linearGradient id="linear-gradient" x1="140.8" y1="113.68" x2="44.28" y2="59.83" gradientUnits="userSpaceOnUse"><stop offset="0" stop-color="#fff" stop-opacity="0.7"/><stop offset="0.82" stop-color="#fff" stop-opacity="0"/></linearGradient></defs><title>ziggy_6</title><g id="Layer_2" data-name="Layer 2"><g id="Layer_1-2" data-name="Layer 1"><ellipse class="cls-2" cx="82.34" cy="204.17" rx="50.5" ry="7.5"/><ellipse class="cls-3" cx="78.11" cy="78.74" rx="78.11" ry="78.74"/><path class="cls-4" d="M34.12,137.7c-2.52.37-5.14.22-7.55,1.07a15.27,15.27,0,0,0-4.27,2.51c-6.93,5.42-11.83,13.78-12.06,22.62S15,181.79,23,185.38a31.44,31.44,0,0,0,6.81,2,76.65,76.65,0,0,0,7.6,1.1c3.19.3,6.58.46,9.24,2.27a26.76,26.76,0,0,0-.83-17.26,26.49,26.49,0,0,0-11.27-13,26.08,26.08,0,0,1-3.45-2.1c-2.58-2.08-3.75-6.11-1.93-8.88a8.53,8.53,0,0,1,3.25-2.69c3.78-2,8.1-2.68,12.16-4s8.16-3.66,9.9-7.6c-.43,1-4.37.48-5.15.32a9.91,9.91,0,0,1-2.46-.87c-.62-.32-1.63-1.46-2.24-1.56-1.11-.19-3.59,2.25-4.75,2.83A18.88,18.88,0,0,1,34.12,137.7Z"/><path class="cls-4" d="M94.66,164a20.74,20.74,0,0,1-1,3.27c-1.7,4.44-5.83,6.28-10.28,6.84-3.91.49-7.95.18-11.74,1.27a18.77,18.77,0,0,0-10.46,8.13,25.26,25.26,0,0,0-3.65,12.94c2.56-3.28,7.51-3.46,11.45-2.19s7.49,3.66,11.51,4.64c5.94,1.45,12.42-.43,17.19-4.28a27.34,27.34,0,0,0,7.25-9.31c5.89-12,5.53-27.46-2.18-38.59-3.88-5.61-9.08-10.57-13.89-15.42-.6-.64-11.22,1-10.43,1.56A74.17,74.17,0,0,1,86,138.56a36,36,0,0,1,4.87,6.15,31.28,31.28,0,0,1,3.84,10.63A21.62,21.62,0,0,1,94.66,164Z"/><g class="cls-5"><path class="cls-6" d="M30.25,157.31a8.59,8.59,0,0,1-1.47-9.87c1.41-2.63,4.11-4.29,6.82-5.48s5.6-2.06,8.08-3.7S48.25,134,48.21,131l9.28,2.52-1.8,7.27-11.31,8.74L34.47,153Z"/></g><g class="cls-7"><path class="cls-6" d="M83,174a19.18,19.18,0,0,0,5.61-1.1c5.19-2,8.66-7.35,9.4-12.9s-.91-11.21-3.61-16.11-6.4-9.14-10.07-13.34l-10.78,7.81L86.7,153.64l-.52,15Z"/></g><path class="cls-8" d="M25.15,102.35A26.27,26.27,0,0,1,22,120.66a7.33,7.33,0,0,0-1,2.21c-.47,2.32,1.62,4.31,3.6,5.6,6.92,4.5,15,6.85,23.22,7.81s16.45.6,24.66,0a109,109,0,0,0,11-1.2,61.86,61.86,0,0,0,13.24-3.87c5.39-2.26,10.93-5.88,12.34-11.59-2.35-2.54-5.44-4.22-8.38-6-7.92-4.88-15.15-11-23.77-14.54-9.87-4-20.78-4.21-31.42-4.36a105.88,105.88,0,0,0-14.55.46c-1.54.19-5,.19-6.18,1.25S24.85,100.87,25.15,102.35Z"/><g class="cls-9"><path class="cls-10" d="M25.62,120.2c-.33.64-.65,1.27-.94,1.9a6,6,0,0,0-.61,1.85c-.15,1.52,1.3,2.42,2.45,3.1,12.78,7.55,29.59,9.74,42.4,10.34.6,0,1.32.08,1.62.61a1.39,1.39,0,0,1,.13.77c-.14,2.29-2.48,3.76-4.65,4.49-5.2,1.75-10.89,1.44-16.27.39-10.32-2-20-6.61-28.76-12.43-2-1.31-4.07-3-4.33-5.31A8.53,8.53,0,0,1,18,121.18a18.88,18.88,0,0,1,3.37-5.07,9.26,9.26,0,0,1,2.85-1.85,3.34,3.34,0,0,1,2.23-.13c1.36.36,1.42.58,1.07,1.73A27.08,27.08,0,0,1,25.62,120.2Z"/></g><path class="cls-10" d="M107.08,123.79l.25-.36c.13-.19.25-.38.37-.58l.23-.42q.25-.46.46-.94c.07-.17.15-.34.22-.51h0c0-.08.07-.16.1-.24-1-1.23-2.58-1.82-4.06-2.39-9-3.47-16.61-9.77-24.52-15.34a89,89,0,0,0-9.65-6c-8.07-2-16.62-2.17-25-2.29-2.44,0-4.88-.07-7.32,0L37.3,95q-5.39,1.75-10.63,4a21.48,21.48,0,0,0-2.18,1c.23.93.53,1.81.65,2.41a25.52,25.52,0,0,1,.47,4.18c1.32-.52,2.66-1,4-1.37a46,46,0,0,1,17.89-1.54,86.75,86.75,0,0,1,8.63,1.56,103.88,103.88,0,0,1,16,4.43c9.53,3.73,18.15,10.12,27.58,13.72a34.15,34.15,0,0,1-5.77,5.39,48,48,0,0,1-12.69,6.51l-1,.35c1.09-.14,2.17-.29,3.25-.48a61.87,61.87,0,0,0,13.24-3.87,26.35,26.35,0,0,0,9.22-6h0c.24-.26.46-.53.67-.8l0-.05C106.8,124.18,106.94,124,107.08,123.79Z"/><path class="cls-11" d="M102.24,8.68a3.66,3.66,0,0,1,2.06-1.14,3.23,3.23,0,0,1,2.11.77c2.53,1.87,3.77,5,4.81,8,.75,2.15,1.46,4.42,1.09,6.67a.41.41,0,0,1-.15.3.42.42,0,0,1-.39,0L99.2,17.29c-2.38-1.13-2-1.73-.72-3.93A20.18,20.18,0,0,1,102.24,8.68Z"/><path class="cls-12" d="M14.17,97.78c.87-2.27,2.26-4.32,3.14-6.59,1.56-4,1.42-8.48,1.75-12.79,1-13.07,6.7-25.53,14.87-35.73C46.07,27.52,68.06,10.61,88.51,12.22c5.74.45,11.21,2.64,16.39,5.18a118.32,118.32,0,0,1,15.89,9.4c5.28,3.71,9,8.37,13.07,13.33a78.31,78.31,0,0,1,7.84,10.69c9.71,16.88,11.93,42.79-1.77,58.23a36,36,0,0,1-7.37,6.34c-1.32.86-6.74,4.58-8.32,3.9,1.75.76,1.89,3.46.64,4.91-3.89,4.53-13.46,1.58-18-.17a93.69,93.69,0,0,1-13.37-6.92c-10.83-6.32-21.93-12.45-34-15.67s-25.42-3.3-36.67,2.22c-1.89.93-3.83,2-5.93,1.94C12.37,105.4,13,100.77,14.17,97.78Z"/><path class="cls-13" d="M121.59,118.47a1.3,1.3,0,0,0-.33-.07Z"/><path class="cls-13" d="M124.81,119.35a24.2,24.2,0,0,0-3.22-.89,1.89,1.89,0,0,1,1.12,1.87,3.37,3.37,0,0,1-1.33,2.26c-2.76,2.3-6.83,1.73-10.28.76a66.31,66.31,0,0,1-12.51-5c-6.79-3.52-12.93-8.2-19.63-11.9C60,96.06,36.12,94.1,16.77,103.7a3.65,3.65,0,0,1-2.8.5,3.46,3.46,0,0,0,2.93,1.4c2.1.09,4-1,5.93-1.94,11.25-5.52,24.57-5.44,36.67-2.22s23.2,9.36,34,15.67A93.67,93.67,0,0,0,106.89,124c4.54,1.74,14.11,4.7,18,.17,1.25-1.46,1.11-4.15-.64-4.91A1.31,1.31,0,0,0,124.81,119.35Z"/><g class="cls-14"><g class="cls-15"><path class="cls-16" d="M27.13,85.22a13.15,13.15,0,0,0,2.39,6c2.81,3.49,5.79,2.05,9.35,1.27a59.48,59.48,0,0,1,37.67,4.21c8,3.75,15.09,9.25,23.13,12.91,1,.47,4.25,2.2,5.24,1.65,1.81-1,.9-3.75,0-5.62A25.87,25.87,0,0,1,103,88.48c2.32-9.81,10.16-17.32,18.46-23,3.76-2.55,5.6-4.28,10.09-4.93,1.31-.19,2.1-1.73,3.29-1.15.93.45,1.45-.27,2.22.42,8.74,7.83,12.21,20.84,11,32.73-1.21,11.48-6.77,23.25-13.13,32.85a17.3,17.3,0,0,1-5,5.46c-3.4,2.09-7.7,1.79-11.61,1C98.36,128,81.57,114.19,61.85,109.38a65.13,65.13,0,0,0-33,.59c-4.41,1.25-8.8,3-13.38,2.87S6,110.15,4.89,105.66c-1.2-5,2.62-9.6,5.06-14.11,3.21-5.94,4.19-12.81,5.77-19.39q.18-.76.38-1.52c1.24-4.73,3.29-9.19,5.07-13.71A70.35,70.35,0,0,1,46.29,25.08c4-2.74,8.52-5.15,13.31-4.77A113.42,113.42,0,0,0,45.35,32.12q-2.75,2.7-5.28,5.62c-1.24,1.43-2.86,2.49-4,3.95-3,3.72-4.92,8.85-6.45,13.32a61.8,61.8,0,0,0-2.67,29C27,84.44,27.06,84.83,27.13,85.22Z"/></g></g><ellipse class="cls-17" cx="24.5" cy="109.6" rx="8.48" ry="9.8"/><ellipse class="cls-17" cx="78.74" cy="114.76" rx="10.11" ry="10.94"/><ellipse class="cls-17" cx="50.36" cy="104.58" rx="13.81" ry="15.95"/><ellipse class="cls-18" cx="50.17" cy="103.18" rx="13.34" ry="15.42"/><ellipse class="cls-18" cx="23.67" cy="108.66" rx="8.48" ry="9.8"/><ellipse class="cls-18" cx="78.84" cy="113.4" rx="10.11" ry="10.94"/><path class="cls-16" d="M71.56,14.51a16.39,16.39,0,0,0-8.76,8.31c-.58,1.26-1,2.79-.31,4a4,4,0,0,0,3.35,1.7c3.62.22,7-1.82,10-3.78"/><path class="cls-16" d="M39.42,36.73a28.26,28.26,0,0,0-5.21,6.09C32.8,45.05,31.7,48,33,50.27a5.62,5.62,0,0,0,2.28,2.11c3.67,2,8.36-.57,11.69-3.09a23.94,23.94,0,0,0,7.54-8.48Z"/><path class="cls-19" d="M39.81,33.64A14.36,14.36,0,0,1,42,29.19a5.84,5.84,0,0,1,4.18-2.37c1.92-.08,3.66,1.08,5.12,2.35A28,28,0,0,1,56.33,35a6.2,6.2,0,0,1,1.31,3.74,6.24,6.24,0,0,1-1.35,3A31.33,31.33,0,0,1,40.87,53.17a4.64,4.64,0,0,1-2.24.33c-2.8-.49-1.4-6.85-1.2-8.81A52.89,52.89,0,0,1,39.81,33.64Z"/><path class="cls-19" d="M73.32,8.88a5.29,5.29,0,0,1,2-1.76c1.72-.74,3.68.37,5,1.7a14.07,14.07,0,0,1,3.6,6.32,4.09,4.09,0,0,1,.14,2,4.32,4.32,0,0,1-.68,1.38,24.18,24.18,0,0,1-12.19,9.33c-2.4.82-4.55,1.32-4.35-1.89a30.83,30.83,0,0,1,1.83-8.51A31.47,31.47,0,0,1,73.32,8.88Z"/><path class="cls-20" d="M54.78,103.4a5.5,5.5,0,1,1-4.38-6.47A5.5,5.5,0,0,1,54.78,103.4Z"/><path class="cls-20" d="M28.33,107.21a3.42,3.42,0,1,1-2.73-4A3.42,3.42,0,0,1,28.33,107.21Z"/><path class="cls-20" d="M80.86,112.36A3.69,3.69,0,1,1,77.92,108,3.69,3.69,0,0,1,80.86,112.36Z"/><path class="cls-21" d="M141.88,106.62a30.33,30.33,0,0,1-16.63,4.78,16.18,16.18,0,0,1-9.19-3.2,20.31,20.31,0,0,1-3.14-2.53c-2.78-2.81-4.36-6.62-5.35-10.46a23.66,23.66,0,0,1,5.21-21.89,42.94,42.94,0,0,1,6.48-6.08c1.15-.89,2.32-1.74,3.52-2.56,1-.7,2.87-1.48,3.53-2.48a3.59,3.59,0,0,0-2.22.57,37.42,37.42,0,0,0-4.24,2.57,48,48,0,0,0-13.73,14.17,24.86,24.86,0,0,0-3.7,11.87,24.49,24.49,0,0,0,.88,6.28c.84,3.48,1.95,7,4.17,9.81a28.64,28.64,0,0,0,5.67,5l4.1,3c2.37,1.74,4.9,3.54,7.68,4.28a2.17,2.17,0,0,0-.67-.47c1.58.68,7-3,8.32-3.9a36,36,0,0,0,7.37-6.34C140.62,108.26,141.26,107.45,141.88,106.62Z"/><path class="cls-22" d="M119.44,116.85a32.75,32.75,0,0,1-10-6.3,24.78,24.78,0,0,1-5.85-8c-1.45-3.65-2.48-7-2-11a29.09,29.09,0,0,1,3.78-11.18,54.22,54.22,0,0,1,11.08-13A48.39,48.39,0,0,1,120.59,64a27.09,27.09,0,0,1,14.09-5.31c1,0,1.62-.13,2.21.72a16.8,16.8,0,0,1,1.64,3.2,34.58,34.58,0,0,1,2.17,14.28c-.06,2.06-.22,4.12-.45,6.17a10.87,10.87,0,0,1-1.57,5.31c-1.88,2.59-5,4-8.21,4.74a45.16,45.16,0,0,0,4.7-3.72,15.76,15.76,0,0,0,3.26-3.57c1.06-1.76,1.19-4.09,1.25-6.15.06-2.43.14-4.51.11-7.3a17.59,17.59,0,0,0-1.6-6.81,8.66,8.66,0,0,0-1.26-2.49c-.69-.68-2.13-.71-3-.73a22.24,22.24,0,0,0-9.68,2.17,43,43,0,0,0-14.7,10.83c-3.79,4.4-6.48,9.92-6.13,15.86a39.82,39.82,0,0,0,1.16,5.69,22.56,22.56,0,0,0,2.05,5.84,36.89,36.89,0,0,0,6.9,9.34,15.45,15.45,0,0,0,2.13,1.89,15.92,15.92,0,0,1,1.44,1.09A25.29,25.29,0,0,0,119.44,116.85Z"/><path class="cls-23" d="M44.13,124.4A6.12,6.12,0,0,0,54,126.58"/><path class="cls-24" d="M71.25,42.91A85.1,85.1,0,0,1,103.66,28c4.5-1.06,7.92-1.42,12.17.66,6,2.94,10.87,7.91,14.75,13.3a61.8,61.8,0,0,1,5.16,8c1.42,2.85-2.19,2.81-4.22,3.19-7.1,1.32-13.53,5.61-19,10.17a43.48,43.48,0,0,0-12,16c-1.29,3-2.55,6.27-4.77,8.72-2.81,3.11-5.55,1.62-8.43-.76-9.48-7.85-21.48-13.26-33.74-12.6a2.67,2.67,0,0,1-1.5-.2c-.86-.5-.86-1.75-.69-2.74,1.11-6.51,4.37-12.48,8.43-17.66A64.29,64.29,0,0,1,71.25,42.91Z"/><path class="cls-25" d="M49.85,28.54a3.73,3.73,0,0,0-2.72-.71c-.56.12-1.12.34-1.21,1A4.92,4.92,0,0,0,46.24,31a21.65,21.65,0,0,0,1.54,3.61,3.21,3.21,0,0,0,.85,1.11,2.93,2.93,0,0,0,1.84.42,4.21,4.21,0,0,0,2.21-.56c1.61-1,1-2.74.15-4A9.88,9.88,0,0,0,49.85,28.54Z"/><g class="cls-26"><path class="cls-27" d="M76.85,7.83A5.18,5.18,0,0,0,75.42,9.9a56.05,56.05,0,0,0-2.31,5.83,15.25,15.25,0,0,0-1,5.8,2.11,2.11,0,0,0,.63,1.57,2.22,2.22,0,0,0,2.08,0,19.18,19.18,0,0,0,9.39-7.21c.28-.4.81-.86,1.16-.51a.75.75,0,0,1,.17.35c.47,1.76-.44,3.57-1.47,5.07a23.92,23.92,0,0,1-14.21,9.95c-1.41.31-3,.42-4.12-.54a4.59,4.59,0,0,1-1.12-3.64,23.82,23.82,0,0,1,1.17-6.26c1.54-5,4.12-9.87,8.35-12.9A7.73,7.73,0,0,1,77,6.06c.51-.11,2.64,0,2.36,1C79.16,7.63,77.37,7.45,76.85,7.83Z"/></g><g class="cls-28"><path class="cls-27" d="M46.55,27.45a3.8,3.8,0,0,0-1.92,1.72,14,14,0,0,0-1.51,3.72,33.49,33.49,0,0,0-.91,13.31,1.88,1.88,0,0,0,.63,1.39,1.86,1.86,0,0,0,1.78-.18A29.69,29.69,0,0,0,56.44,37c.32-.49.74-1.05,1.32-1a1.2,1.2,0,0,1,.82.56c.86,1.22.42,2.92-.19,4.28a31,31,0,0,1-6.89,9.41,29.57,29.57,0,0,1-10.66,7,6,6,0,0,1-3.5.38,4.45,4.45,0,0,1-2.57-2.11,9.2,9.2,0,0,1-1-3.24A29,29,0,0,1,35,39.47,30,30,0,0,1,38.28,32a15.66,15.66,0,0,1,5.84-5.6,5.57,5.57,0,0,1,3.59-.75c1,.2,2.51,1.29,2.23,2.47C48.81,27.74,47.79,27,46.55,27.45Z"/></g><path class="cls-22" d="M136.88,83.27a9.83,9.83,0,1,1-11.39-7.94A9.87,9.87,0,0,1,136.88,83.27Z"/><ellipse class="cls-20" cx="127.78" cy="84.3" rx="9.56" ry="9.4" transform="translate(-25.15 91.25) rotate(-36.01)"/><g class="cls-29"><ellipse class="cls-30" cx="130.23" cy="84.46" rx="8.07" ry="7.93" transform="translate(-24.77 92.72) rotate(-36.01)"/></g><ellipse class="cls-31" cx="132.25" cy="86.89" rx="3.8" ry="3.64" transform="translate(-25.81 94.37) rotate(-36.01)"/><path class="cls-25" d="M79.06,9.13a1,1,0,0,0-.39-.23.67.67,0,0,0-.67.31,1.78,1.78,0,0,0-.24.74,10.39,10.39,0,0,0,.11,3.8,1.49,1.49,0,0,0,.2.55,1.34,1.34,0,0,0,.62.43c1.21.49,4.14,1.24,3.7-1C82,12,80.37,10.24,79.06,9.13Z"/><g class="cls-32"><path class="cls-33" d="M105.74,7.48a1.41,1.41,0,0,0-1.21.76,4.84,4.84,0,0,0-.81,3.09A6.77,6.77,0,0,0,107,16.15a4.56,4.56,0,0,0,2.18.86,2.87,2.87,0,0,0,1.47-.3,1.87,1.87,0,0,0,.75-.64,2.61,2.61,0,0,0,.2-1.74,18.14,18.14,0,0,0-.66-3Z"/></g><g class="cls-5"><path class="cls-34" d="M10.46,156.91c-6.15,11.86,8.3,22.69,18.19,25.19a16.36,16.36,0,0,0,6.88.46c4.94-.9,7.17-4.75,7.08-9.56A15.49,15.49,0,0,0,38,162.21c6.68,1.84,11.71,8.18,12.71,15.1s-1.74,14.1-6.56,19.12c-1.39-4.67-6.74-6.89-11.56-7.35s-9.85.17-14.37-1.57a17.09,17.09,0,0,1-9.79-11,24.42,24.42,0,0,1,.6-15"/></g><g class="cls-35"><path class="cls-34" d="M74.81,172.86A17.29,17.29,0,0,0,67.07,179a7.71,7.71,0,0,0-1.42,3.12,7.24,7.24,0,0,0,1.56,5.22c3.4,4.72,9.59,6.56,15.37,6.65a25,25,0,0,0,7.75-1,27.45,27.45,0,0,0,8.19-4.4,39,39,0,0,0,10.31-11.23,30,30,0,0,0,4.31-14.6l2.79,12.58-7.18,19.41-15.4,11.33L79,205.87l-13.21-8.81-7.7,3.88L54,196.43l2-13.22,5.93-8.29Z"/></g><path class="cls-36" d="M126.26,45.77a9.8,9.8,0,0,1,1.62.07,3.91,3.91,0,0,1,1.65.53c2.14,1.4-.12,3.31-1.59,3.85a55.51,55.51,0,0,0-10.67,4.84,61.41,61.41,0,0,0-9.92,8c-.93.9-2.61,2.9-4,2.5a3.11,3.11,0,0,1-1.9-3.29,8.44,8.44,0,0,1,1.39-3.52c2.08-3.47,4.68-5.52,8-7.64a34.19,34.19,0,0,1,11.78-4.88A24.29,24.29,0,0,1,126.26,45.77Z"/><path class="cls-37" d="M95.53,71.26a3.32,3.32,0,0,1,0-4.67,3.26,3.26,0,0,1,4.63,0,3.32,3.32,0,0,1,0,4.67A3.26,3.26,0,0,1,95.53,71.26Z"/><path class="cls-38" d="M25.84,116.78c-4.63,0-8.38-4.34-8.38-9.69a10.29,10.29,0,0,1,3.15-7.56,9.87,9.87,0,0,0-5.42,9.13c0,5.41,3.8,9.8,8.48,9.8a7.87,7.87,0,0,0,5.76-2.62A7.42,7.42,0,0,1,25.84,116.78Z"/><path class="cls-38" d="M52.24,117c-7.37,0-13.34-6.9-13.34-15.42a16.37,16.37,0,0,1,5-12,15.87,15.87,0,0,0-7.07,13.61c0,8.52,6,15.42,13.34,15.42a12.22,12.22,0,0,0,8.34-3.39A11.88,11.88,0,0,1,52.24,117Z"/><path class="cls-38" d="M79.57,123.2c-5.58,0-10.11-4.9-10.11-10.94a11.55,11.55,0,0,1,1.49-5.7,11.46,11.46,0,0,0-2.22,6.83c0,6,4.53,10.94,10.11,10.94a10,10,0,0,0,8.62-5.24A9.82,9.82,0,0,1,79.57,123.2Z"/><path class="cls-39" d="M39.61,176.63a7.5,7.5,0,0,1-4,2.16c-6.39,1.41-14.36-4.61-14-12.28a7.26,7.26,0,0,1,1.16-3.73,3.44,3.44,0,0,1,2.37-1.62,9.13,9.13,0,0,1,3.22,0c6,1,11.94,5,12.49,11.59A4.93,4.93,0,0,1,39.61,176.63Z"/><path class="cls-39" d="M67.93,183.4a7.59,7.59,0,0,0,2.29,3.91c4.75,4.53,14.66,3.53,18.25-3.26a7.27,7.27,0,0,0,.91-3.8,3.48,3.48,0,0,0-1.2-2.61A9.19,9.19,0,0,0,85.42,176c-5.65-2.32-12.81-1.89-16.63,3.43A4.94,4.94,0,0,0,67.93,183.4Z"/><path class="cls-40" d="M36.47,167.8a2,2,0,0,0-1.63.25,1.9,1.9,0,0,0-.62,1.48,4.47,4.47,0,0,0,2.57,4.07,3.07,3.07,0,0,0,1.64.32,1.45,1.45,0,0,0,1.26-1.39,5,5,0,0,0-.78-3C38.45,168.85,37.41,167.8,36.47,167.8Z"/><path class="cls-40" d="M79.81,180.06a2.55,2.55,0,0,0-.24-2.29,3.08,3.08,0,0,0-2.22-1A7,7,0,0,0,70.86,180a3.94,3.94,0,0,0-.63,2.25,2.17,2.17,0,0,0,2,1.9,8.39,8.39,0,0,0,4.68-.79C78,182.71,79.72,181.37,79.81,180.06Z"/><path class="cls-41" d="M30.72,165.85a1.3,1.3,0,0,0-1.12.18,1.44,1.44,0,0,0-.42,1.08,3.3,3.3,0,0,0,1.78,3,2,2,0,0,0,1.13.23,1,1,0,0,0,.87-1,3.88,3.88,0,0,0-.54-2.2C32.09,166.63,31.37,165.85,30.72,165.85Z"/><path class="cls-42" d="M86.67,8c-39.32-4.9-75,22.78-79.76,61.83a71.42,71.42,0,0,0,30.33,67.21,6.13,6.13,0,0,1,5.32.72c2,1.16,3.25,2.92,3.29,4.42a72.34,72.34,0,0,0,47.06,6.3,5.18,5.18,0,0,1,4-3.89A5.26,5.26,0,0,1,102.2,146a70.86,70.86,0,0,0,47.1-58.36C154,48.57,126,12.94,86.67,8Z"/><circle class="cls-43" cx="107.44" cy="93.72" r="14.08" transform="translate(-35.12 95.46) rotate(-41.8)"/><circle class="cls-43" cx="123.08" cy="115.33" r="5.59" transform="translate(-43.03 86.02) rotate(-33.13)"/></g></g></svg>