<svg xmlns="http://www.w3.org/2000/svg" xmlns:xlink="http://www.w3.org/1999/xlink" viewBox="0 0 167.15 211.66"><defs><style>.cls-1,.cls-30,.cls-46,.cls-7{fill:none;}.cls-2{opacity:0.08;}.cls-3{fill:#f58a1f;}.cls-4{clip-path:url(#clip-path);}.cls-5{fill:#ea7c18;}.cls-6{opacity:0.71;}.cls-46,.cls-7{stroke:#dd6e12;}.cls-30,.cls-46,.cls-7{stroke-linecap:round;stroke-miterlimit:10;}.cls-7{stroke-width:2.18px;}.cls-8{fill:#dddded;}.cls-25,.cls-29,.cls-34,.cls-40,.cls-47,.cls-9{fill:#fff;}.cls-9{opacity:0.11;}.cls-10{clip-path:url(#clip-path-2);}.cls-11{fill:#ededf9;}.cls-12{clip-path:url(#clip-path-3);}.cls-13{clip-path:url(#clip-path-4);}.cls-14{fill:#c7c6db;}.cls-15{clip-path:url(#clip-path-5);}.cls-16{fill:#a7a7c1;}.cls-17{fill:#7262b7;}.cls-18{clip-path:url(#clip-path-6);}.cls-19,.cls-23,.cls-24{fill:#5b4493;}.cls-19{opacity:0.3;}.cls-20{clip-path:url(#clip-path-7);}.cls-21{fill:#96d2e2;}.cls-22{clip-path:url(#clip-path-8);}.cls-23{opacity:0.23;}.cls-24{opacity:0.5;}.cls-26{fill:#2d70c1;}.cls-27{fill:#db4589;}.cls-28{fill:#ce4188;}.cls-29{opacity:0.15;}.cls-30{stroke:#2a2a77;stroke-width:2.94px;}.cls-31{clip-path:url(#clip-path-9);}.cls-32{fill:#cdcde0;opacity:0.48;}.cls-33{fill:#c5c5d8;}.cls-34{opacity:0.06;}.cls-35{fill:#e95291;}.cls-36{clip-path:url(#clip-path-10);}.cls-37{fill:#ed6bac;}.cls-38{clip-path:url(#clip-path-11);}.cls-39{opacity:0.65;fill:url(#linear-gradient);}.cls-40{opacity:0.62;}.cls-41{clip-path:url(#clip-path-12);}.cls-42{fill:#dcdcef;}.cls-43{clip-path:url(#clip-path-13);}.cls-44{clip-path:url(#clip-path-14);}.cls-45{clip-path:url(#clip-path-15);}.cls-46{stroke-width:2.12px;}.cls-47{opacity:0.07;}</style><clipPath id="clip-path"><path class="cls-1" d="M37.2,154.79a28.76,28.76,0,0,0,2.94,12.15c1.45,3.24,2.3,6.22-1.33,8.37a14.24,14.24,0,0,1-10.88,1.08A30.68,30.68,0,0,1,18,171.2c-2.2-1.61-4.64-3.69-5-6.57a40.37,40.37,0,0,1,.51-9.12c.73-6.1,2.34-12.19,5.67-17.41a42.87,42.87,0,0,1,5.59-6.86,72.11,72.11,0,0,1,13.4-10.78c2.05,3.13,4.13,6.23,6.36,9.24.54.73,1.16,1.42,1.66,2.18.66,1,.57.87-.18,1.76-1,1.17-2,2.3-2.87,3.56A32.14,32.14,0,0,0,37.2,154.79Z"/></clipPath><clipPath id="clip-path-2"><path class="cls-1" d="M38.78,171.62a3.72,3.72,0,0,0-3,2.17,4.63,4.63,0,0,0-.26,1.12,9.43,9.43,0,0,0,0,2.32c.06.53.14,1.06.21,1.57a20.22,20.22,0,0,0,1,4.5c.71,1.85,1.85,3.82,3.92,4.26a3.14,3.14,0,0,0,3.75-2.89c0-7.63-2.56-11.07-2.56-11.07C41.17,172.61,40.11,171.52,38.78,171.62Z"/></clipPath><clipPath id="clip-path-3"><path class="cls-1" d="M13,167.81l-.05.12a20.39,20.39,0,0,0-1.84,7.43,10.6,10.6,0,0,0,1.23,6.19,3.25,3.25,0,0,0,2.43,1.74,2.94,2.94,0,0,0,1.9-.73A8.54,8.54,0,0,0,19,179.11a39.45,39.45,0,0,0,2-6.94c.45-2,.77-4.28-.14-6.17a3.58,3.58,0,0,0-.72-1,3.41,3.41,0,0,0-2.79-.82A6,6,0,0,0,13,167.81Z"/></clipPath><clipPath id="clip-path-4"><path class="cls-1" d="M23.83,176.57v.13a20.39,20.39,0,0,0,1.3,7.54,10.6,10.6,0,0,0,3.62,5.18,3.25,3.25,0,0,0,2.93.61,2.94,2.94,0,0,0,1.44-1.43,8.54,8.54,0,0,0,.73-4.09,39.45,39.45,0,0,0-.92-7.17c-.41-2.06-1-4.23-2.61-5.6a3.58,3.58,0,0,0-1.08-.67,3.41,3.41,0,0,0-2.88.37A6,6,0,0,0,23.83,176.57Z"/></clipPath><clipPath id="clip-path-5"><path class="cls-1" d="M118.73,153.21c4.14-6.27,6.27-13.48,9.12-20.35a81.06,81.06,0,0,1,12.32-20.93,20.77,20.77,0,0,1,6.56-5.68c2.65-1.3,6-1.6,8.5-.12s3.72,4.58,3.65,7.47-1.18,5.66-2.28,8.36c4-4.12,6.67-9.56,6.37-15.08s-4.05-11-9.63-12.51c-5.15-1.43-10.74.51-15.42,3.11-12,6.7-20.85,17.81-26.56,29.87-1.88,4-3.56,8.2-6.92,11.16-3.07,2.7-7.27,4.07-10.19,6.92A12,12,0,0,0,91,157.14C95.5,172.55,113.05,161.8,118.73,153.21Z"/></clipPath><clipPath id="clip-path-6"><path class="cls-1" d="M76.07,150.62l-7.1-.83-3.25,40.88a17.86,17.86,0,0,0-2,.57,25.87,25.87,0,0,0-8,4.33,17.09,17.09,0,0,0-3.43,3.8c-.63,1-1.14,2.28-.46,3.21s2.11.84,3.25.6a40.18,40.18,0,0,0,16.81-8.1.48.48,0,0,0,.18-.24h0a132.22,132.22,0,0,1,7.43-35.3Z"/></clipPath><clipPath id="clip-path-7"><path class="cls-1" d="M103.16,197.61a.22.22,0,0,0,0,0v0c-.37-6.19-.67-16.18-.49-23.16.33-12.29,1.61-19.3,3.3-29.08-4,.94-8.7,1.87-12.72,2.81l2.62,45.53c-.38.1-.76.26-1.12.39a25.87,25.87,0,0,0-8,4.33,17.09,17.09,0,0,0-3.43,3.8c-.63,1-1.14,2.28-.46,3.21s2.11.84,3.25.6a40.18,40.18,0,0,0,16.81-8.1.58.58,0,0,0,.17-.2h0Z"/></clipPath><clipPath id="clip-path-8"><path class="cls-1" d="M125.42,65.7c-5.67-17.4-13.9-30.45-27.32-40.15C97.36,25,95.61,24,95,25.19a3.16,3.16,0,0,0,.09,2.15,16,16,0,0,0,.83,2.16c.16.37.29.71.4,1,.73,1.71,3.76,9.79-.67,17.4-6.54,11.23-12.47,3.49-12.47,3.49h0a10.73,10.73,0,0,1-2-3.22c-1.55-4-1.19-8.43-1-12.48.23-6.47.52-12.92.92-19.35.08-1.22.68-4.86-.82-5.49C78.2,10,77.6,12.11,77.32,13c-.47,1.54-.65,3.33-1,4.91-.7,3.16-1.24,6.37-1.81,9.57C73.39,33.84,72.15,40.24,69.45,46l-.16.35c-1.09,2.27-2.8,4.66-5.45,4.73a6.75,6.75,0,0,1-2.75-.67h0l0,0a9.84,9.84,0,0,1-1-.51l-.13-.11c-6.18-3.8-5.52-10.64-4.27-15a13.21,13.21,0,0,1,.69-2.17c.09-.21.19-.41.28-.62.32-.78.56-1.24.56-1.24h0c.67-1.38,1.39-2.72,2.13-4a14.93,14.93,0,0,0,1-2.08,3.11,3.11,0,0,0,.25-2.18c-.57-1.33-2.5-.57-3.32-.14C42,30.33,28.61,44.62,19.12,61.18a35.74,35.74,0,0,0-4.5,18.2c.22,7.39,3.47,14.94,9.08,18.65a25.8,25.8,0,0,0,8.62,11.29,44,44,0,0,0,13.31,6.85c9.63,2.87,20,3.76,30.09,3.51,7.37-.18,13.31-2,20.27-4.44l-.13-.17c6.85-2.78,12.41-6.72,16-11.37h.06a14,14,0,0,1,1.67-1.4c1.65-1.16,3.5-1.78,5.2-2.8,5.22-3.13,8.55-10.12,9.21-17A35.29,35.29,0,0,0,125.42,65.7Z"/></clipPath><clipPath id="clip-path-9"><path class="cls-1" d="M130.67,89.39q-.17-1.88-.46-3.75t-.73-3.73q-.44-1.87-1-3.69c-.39-1.23.4-1.74-.09-2.94-.06-.14,4.65-1.12,2.49-1.24l-3.73,6.22L119.41,94.2l-9.56,8.34-11.73,9.11L85.33,118,71.67,119.7l-13.49,1.58-15.94-1.75-11.43-3.24a85.81,85.81,0,0,0,20.54,34.24v0c3.29,2.63,7.73,3.53,11.9,4.18,4,.63,8.07,1.05,12.12,1.33a87.27,87.27,0,0,0,13.75,0q2.43-.22,4.84-.64t4.82-1.05q2.4-.62,4.74-1.44t4.6-1.8q2.24-1,4.39-2.15a3.13,3.13,0,0,0,1.07-1.2l.57-.91.72-1.19.85-1.45q.49-.85,1-1.7t1.05-1.93q.57-1.07,1.12-2.15t1.18-2.36q.62-1.27,1.21-2.55t1.22-2.73q.62-1.44,1.21-2.89t1.18-3q.59-1.58,1.13-3.18t1.06-3.3q.52-1.69,1-3.4t.86-3.5q.4-1.78.74-3.58t.59-3.64q.25-1.84.42-3.69t.23-3.73q.06-1.87,0-3.75T130.67,89.39Z"/></clipPath><clipPath id="clip-path-10"><circle class="cls-1" cx="56.43" cy="133.15" r="5.25"/></clipPath><clipPath id="clip-path-11"><circle class="cls-1" cx="84.55" cy="133.92" r="5.25"/></clipPath><linearGradient id="linear-gradient" x1="20.71" y1="33.57" x2="110.25" y2="86.29" gradientUnits="userSpaceOnUse"><stop offset="0" stop-color="#fff" stop-opacity="0.7"/><stop offset="0.64" stop-color="#fff" stop-opacity="0"/></linearGradient><clipPath id="clip-path-12"><path class="cls-1" d="M144.6,174.08c-3.72,3.33-7.65,7-8.69,12-.35,1.67-.13,3.79,1.35,4.5a3.83,3.83,0,0,0,3.27-.44,22.79,22.79,0,0,0,10.68-11.42c.6-1.4,1-3.19,0-4.33a3.17,3.17,0,0,0-1.5-.9,6.82,6.82,0,0,0-7.57,2.83"/></clipPath><clipPath id="clip-path-13"><path class="cls-1" d="M136.21,171.33c.49-2.13-.7-4.69-3.13-4.49a6.34,6.34,0,0,0-3.37,1.65c-3.09,2.56-5.83,6.36-6.29,10.43a3.61,3.61,0,0,0,.57,2.77,2.76,2.76,0,0,0,2.4.82c2.16-.25,3.4-1.83,4.77-3.38a36.43,36.43,0,0,0,4.06-5.59A8,8,0,0,0,136.21,171.33Z"/></clipPath><clipPath id="clip-path-14"><path class="cls-1" d="M162.45,176.62a15.51,15.51,0,0,1-2.14,5.59,21,21,0,0,1-2.09,3.09,5.6,5.6,0,0,1-1.85,1.55,2.58,2.58,0,0,1-2.34,0,2.66,2.66,0,0,1-1.18-2.29,6.94,6.94,0,0,1,.63-2.61,39.56,39.56,0,0,1,4.85-8.77c.66-.91,2.25-2.71,3.25-1.27A7,7,0,0,1,162.45,176.62Z"/></clipPath><clipPath id="clip-path-15"><path class="cls-1" d="M155.58,134.65a49.54,49.54,0,0,1,7.57,27,53.88,53.88,0,0,1-.5,7.11c-.36,2.64-.68,3.45-2.95,5a22.11,22.11,0,0,1-28.29-2.79c-1.64-1.67-3.38-4.07-3.14-6.53.26-2.67,1.68-5.54,2.21-8.22A24,24,0,0,0,131,149c-.36-3.41-1.89-6.58-3.51-9.61a128.76,128.76,0,0,0-12.6-19.17c-.93-1.17-2.21-2.16-2.65-3.64s.42-3,1-4.22a19.14,19.14,0,0,1,7.06-8c1.79-1.08,4.09-1.75,6-.79,8.25,4.27,13.29,12.26,19.57,19.11A90.78,90.78,0,0,1,155.58,134.65Z"/></clipPath></defs><title>ziggy_12</title><g id="Layer_2" data-name="Layer 2"><g id="Layer_1-2" data-name="Layer 1"><ellipse class="cls-2" cx="82.95" cy="204.16" rx="50.5" ry="7.5"/><path class="cls-3" d="M37.2,154.79a28.76,28.76,0,0,0,2.94,12.15c1.45,3.24,2.3,6.22-1.33,8.37a14.24,14.24,0,0,1-10.88,1.08A30.68,30.68,0,0,1,18,171.2c-2.2-1.61-4.64-3.69-5-6.57a40.37,40.37,0,0,1,.51-9.12c.73-6.1,2.34-12.19,5.67-17.41a42.87,42.87,0,0,1,5.59-6.86,72.11,72.11,0,0,1,13.4-10.78c2.05,3.13,4.13,6.23,6.36,9.24.54.73,1.16,1.42,1.66,2.18.66,1,.57.87-.18,1.76-1,1.17-2,2.3-2.87,3.56A32.14,32.14,0,0,0,37.2,154.79Z"/><g class="cls-4"><path class="cls-5" d="M40.07,129.43a44.72,44.72,0,0,0-8.4,14.12,29.14,29.14,0,0,0-1.07,16.26,40.63,40.63,0,0,0,5.48,11.86,15.06,15.06,0,0,1,2.34,4.89,7.17,7.17,0,0,1-2.1,6.51,14.16,14.16,0,0,0,7.93-3.9,11.48,11.48,0,0,0,3-4.46,9.27,9.27,0,0,0,.27-5.1c-.84-3.61-3.76-6.41-4.93-9.92a20.88,20.88,0,0,1-.76-6.52c0-3.24,0-6.56,1.21-9.58a39.49,39.49,0,0,1,3.26-5.89,1.2,1.2,0,0,0,.22-.61,1.22,1.22,0,0,0-.39-.73C44,134,42.17,131.83,40.07,129.43Z"/><g class="cls-6"><path class="cls-7" d="M11.82,162.09a23.34,23.34,0,0,1,29,2.83"/><path class="cls-7" d="M13,150.29a26.5,26.5,0,0,1,17.78-1.45c3.42.93,6.87,2.79,8.35,6"/><path class="cls-7" d="M16.78,137.93a24.62,24.62,0,0,1,13.59.5A18.87,18.87,0,0,1,40.78,147"/><path class="cls-7" d="M26.86,127.14a17.69,17.69,0,0,1,15.37,12.09"/></g></g><path class="cls-8" d="M13,167.81l-.05.12a20.39,20.39,0,0,0-1.84,7.43,10.6,10.6,0,0,0,1.23,6.19,3.25,3.25,0,0,0,2.43,1.74,2.94,2.94,0,0,0,1.9-.73A8.54,8.54,0,0,0,19,179.11a39.45,39.45,0,0,0,2-6.94c.45-2,.77-4.28-.14-6.17a3.58,3.58,0,0,0-.72-1,3.41,3.41,0,0,0-2.79-.82A6,6,0,0,0,13,167.81Z"/><path class="cls-8" d="M23.83,176.57v.13a20.39,20.39,0,0,0,1.3,7.54,10.6,10.6,0,0,0,3.62,5.18,3.25,3.25,0,0,0,2.93.61,2.94,2.94,0,0,0,1.44-1.43,8.54,8.54,0,0,0,.73-4.09,39.45,39.45,0,0,0-.92-7.17c-.41-2.06-1-4.23-2.61-5.6a3.58,3.58,0,0,0-1.08-.67,3.41,3.41,0,0,0-2.88.37A6,6,0,0,0,23.83,176.57Z"/><path class="cls-9" d="M25.39,136.93a18.06,18.06,0,0,1,2.89-4c.66-.68,2.46-2.56,3.52-2.14a1.5,1.5,0,0,1,.86,1.11,3.18,3.18,0,0,1-.1,1.44c-.59,2.29-2.06,4.15-2.83,6.36s-1.13,4.55-1.72,6.82a6.92,6.92,0,0,1-1,2.39,2.79,2.79,0,0,1-3.61.86c-2.27-1.12-1.15-4.16-.68-6A29,29,0,0,1,25.39,136.93Z"/><path class="cls-8" d="M38.78,171.62a3.72,3.72,0,0,0-3,2.17,4.63,4.63,0,0,0-.26,1.12,9.43,9.43,0,0,0,0,2.32c.06.53.14,1.06.21,1.57a20.22,20.22,0,0,0,1,4.5c.71,1.85,1.85,3.82,3.92,4.26a3.14,3.14,0,0,0,3.75-2.89c0-7.63-2.56-11.07-2.56-11.07C41.17,172.61,40.11,171.52,38.78,171.62Z"/><g class="cls-10"><path class="cls-11" d="M44.66,177.54a9.15,9.15,0,0,1,.19,4.81,2.09,2.09,0,0,1-.85,1.43,1.7,1.7,0,0,1-.86.18A4.08,4.08,0,0,1,40,182.14a9.81,9.81,0,0,1-1.39-3.44,9.42,9.42,0,0,1-.31-4,3.89,3.89,0,0,1,2.39-3c.48-.16.81.48,1.14.86a18.3,18.3,0,0,1,1.8,2.35A11.53,11.53,0,0,1,44.66,177.54Z"/></g><g class="cls-12"><path class="cls-11" d="M19.14,180.37c2.06-2.68,2.63-6.28,2.56-9.59,0-1.69,0-4.83-2.09-5.35a3.06,3.06,0,0,0-2.81,1.24,12.51,12.51,0,0,0-2.7,6.92,11.52,11.52,0,0,0,.06,3.83,5.47,5.47,0,0,0,1.93,3.24,2.21,2.21,0,0,0,2.39.36A2.56,2.56,0,0,0,19.14,180.37Z"/></g><g class="cls-13"><path class="cls-11" d="M29.91,172.79a3,3,0,0,0-2.28,2.15,11,11,0,0,0-.38,4.68,14.53,14.53,0,0,0,.71,3.77,8.78,8.78,0,0,0,3.27,4.23,2.36,2.36,0,0,0,2.47.42,2,2,0,0,0,.67-.79,6.47,6.47,0,0,0,.56-2.65,18.76,18.76,0,0,0-.91-7.23C33.44,175.71,32.12,172.62,29.91,172.79Z"/></g><path class="cls-14" d="M118.73,153.21c4.14-6.27,6.27-13.48,9.12-20.35a81.06,81.06,0,0,1,12.32-20.93,20.77,20.77,0,0,1,6.56-5.68c2.65-1.3,6-1.6,8.5-.12s3.72,4.58,3.65,7.47-1.18,5.66-2.28,8.36c4-4.12,6.67-9.56,6.37-15.08s-4.05-11-9.63-12.51c-5.15-1.43-10.74.51-15.42,3.11-12,6.7-20.85,17.81-26.56,29.87-1.88,4-3.56,8.2-6.92,11.16-3.07,2.7-7.27,4.07-10.19,6.92A12,12,0,0,0,91,157.14C95.5,172.55,113.05,161.8,118.73,153.21Z"/><g class="cls-15"><path class="cls-16" d="M108.54,132.76c8.64-6.31,13.42-16.42,21.82-22.91a54.32,54.32,0,0,1,9.31-6.22,18.23,18.23,0,0,1,10.87-1.92,12,12,0,0,1,9.27,7.87,12.38,12.38,0,0,1,.33,5.87,20.66,20.66,0,0,1-3.69,9c0-2.58-2.61-4.59-5.18-4.67s-5,1.29-7,2.91c-7.23,5.79-11,14.71-15,23s-9.11,16.94-17.52,20.82a15.54,15.54,0,0,1-7,1.58,1.75,1.75,0,0,1-1.14-.33,1.91,1.91,0,0,1-.43-1.4q-.25-8.17-1.19-16.29-.48-4.13-1.13-8.24c-.28-1.79-1.61-4.54.41-5.45C103.8,135.24,106.21,134.46,108.54,132.76Z"/></g><path class="cls-17" d="M76.07,150.62l-7.1-.83-3.25,40.88a17.86,17.86,0,0,0-2,.57,25.87,25.87,0,0,0-8,4.33,17.09,17.09,0,0,0-3.43,3.8c-.63,1-1.14,2.28-.46,3.21s2.11.84,3.25.6a40.18,40.18,0,0,0,16.81-8.1.48.48,0,0,0,.18-.24h0a132.22,132.22,0,0,1,7.43-35.3Z"/><g class="cls-18"><path class="cls-19" d="M71,161.8a7.59,7.59,0,0,1,1.08,4.5c.13,8-1.11,15.9-2.35,23.77A9.81,9.81,0,0,1,68.61,194a9.74,9.74,0,0,1-3.77,3q-6,3.24-12.05,6.32c1.06,2,3.87,1.88,6,1.4A57.1,57.1,0,0,0,72,200a6.43,6.43,0,0,0,2.36-1.7,6.65,6.65,0,0,0,.92-2,157.64,157.64,0,0,0,6.09-26.17,43.54,43.54,0,0,0,.59-8.46c-.2-3.94-1.75-8.3-5.39-9.83a7.19,7.19,0,0,0-7.44,1.36c-1.29,1.18-3,4-2.45,5.82S69.87,160.24,71,161.8Z"/></g><path class="cls-11" d="M71.43,151.84s1.74,7.06,5.08,11.62a1.79,1.79,0,0,0,1.37.71l17,.79-.09-14.4Z"/><path class="cls-17" d="M103.16,197.61a.22.22,0,0,0,0,0v0c-.37-6.19-.67-16.18-.49-23.16.33-12.29,1.61-19.3,3.3-29.08-4,.94-8.7,1.87-12.72,2.81l2.62,45.53c-.38.1-.76.26-1.12.39a25.87,25.87,0,0,0-8,4.33,17.09,17.09,0,0,0-3.43,3.8c-.63,1-1.14,2.28-.46,3.21s2.11.84,3.25.6a40.18,40.18,0,0,0,16.81-8.1.58.58,0,0,0,.17-.2h0Z"/><g class="cls-20"><path class="cls-19" d="M92.34,161.41c1.08-.8,1.58-2.59,2.92-2.58a2.08,2.08,0,0,1,1.34.64c1.48,1.37,1.89,3.51,2.17,5.5a137.86,137.86,0,0,1,1.2,16.17c.06,2.71.05,5.42,0,8.13,0,2.08.35,5.09-1.12,6.79a9.25,9.25,0,0,1-2.5,1.83c-6.17,3.51-12.51,6.71-18.9,9.8.73,1.73,2.83,2,4.71,2a26.7,26.7,0,0,0,13.44-2.81,21.36,21.36,0,0,0,9.55-9.75c1.94-4.16,2.32-8.87,2.26-13.46a75.59,75.59,0,0,0-1-11.58,59.41,59.41,0,0,1-1.05-7.34c-.15-3.45.54-6.88.49-10.33,0-1.95-.42-4.1-2-5.28-1.89-1.44-4.69-.76-6.63.61A13.17,13.17,0,0,0,92.34,161.41Z"/></g><path class="cls-21" d="M130.37,48.81a61.7,61.7,0,0,0-1.16-7.63,51.35,51.35,0,0,0-2.5-8.17c-7.9-22.15-24.05-29.55-35.6-31.93A39,39,0,0,0,81.77,0h0A33.51,33.51,0,0,0,78,.11l0,0A82.15,82.15,0,0,0,30.67,19.59C17.86,30.42,6.83,45,2.12,61.29a51,51,0,0,0-2,17.88h0s-.8,12.63,10,23.64c.58.63,1.18,1.25,1.82,1.86a17.63,17.63,0,0,0,2.39,1.86c7.06,5.41,17.6,9.94,33.36,11.63h0a107.36,107.36,0,0,0,12.48.6C80,118.59,98.66,112.16,113,98c11.68-11.53,17.78-28,17.57-44.37A38.56,38.56,0,0,0,130.37,48.81Z"/><path class="cls-17" d="M125.42,65.7c-5.67-17.4-13.9-30.45-27.32-40.15C97.36,25,95.61,24,95,25.19a3.16,3.16,0,0,0,.09,2.15,16,16,0,0,0,.83,2.16c.16.37.29.71.4,1,.73,1.71,3.76,9.79-.67,17.4-6.54,11.23-12.47,3.49-12.47,3.49h0a10.73,10.73,0,0,1-2-3.22c-1.55-4-1.19-8.43-1-12.48.23-6.47.52-12.92.92-19.35.08-1.22.68-4.86-.82-5.49C78.2,10,77.6,12.11,77.32,13c-.47,1.54-.65,3.33-1,4.91-.7,3.16-1.24,6.37-1.81,9.57C73.39,33.84,72.15,40.24,69.45,46l-.16.35c-1.09,2.27-2.8,4.66-5.45,4.73a6.75,6.75,0,0,1-2.75-.67h0l0,0a9.84,9.84,0,0,1-1-.51l-.13-.11c-6.18-3.8-5.52-10.64-4.27-15a13.21,13.21,0,0,1,.69-2.17c.09-.21.19-.41.28-.62.32-.78.56-1.24.56-1.24h0c.67-1.38,1.39-2.72,2.13-4a14.93,14.93,0,0,0,1-2.08,3.11,3.11,0,0,0,.25-2.18c-.57-1.33-2.5-.57-3.32-.14C42,30.33,28.61,44.62,19.12,61.18a35.74,35.74,0,0,0-4.5,18.2c.22,7.39,3.47,14.94,9.08,18.65a25.8,25.8,0,0,0,8.62,11.29,44,44,0,0,0,13.31,6.85c9.63,2.87,20,3.76,30.09,3.51,7.37-.18,13.31-2,20.27-4.44l-.13-.17c6.85-2.78,12.41-6.72,16-11.37h.06a14,14,0,0,1,1.67-1.4c1.65-1.16,3.5-1.78,5.2-2.8,5.22-3.13,8.55-10.12,9.21-17A35.29,35.29,0,0,0,125.42,65.7Z"/><g class="cls-22"><path class="cls-23" d="M33.5,108.16a40.69,40.69,0,0,0,11.11,3.6c25.45,5.1,47.94-.07,65.45-15.63A54.94,54.94,0,0,0,122.17,80a31.77,31.77,0,0,0,3.16-18.67,25.91,25.91,0,0,1,7.55,20.86c-.74,7.2-4.56,13.84-9.64,19s-11.37,8.95-17.84,12.19a78.23,78.23,0,0,1-17.91,6.76,78,78,0,0,1-20.61,1.37,103.16,103.16,0,0,1-28.41-5,23.85,23.85,0,0,1-8-4.13,27.91,27.91,0,0,1-5.25-6.88c-1.41-2.3-2.74-7.48.77-3.4A26.06,26.06,0,0,0,33.5,108.16Z"/></g><path class="cls-24" d="M50.28,81.28c0,10.12-7.62,17.82-16.84,16.61S17.94,87.37,19,77.62c1-9.17,8.21-15.54,16.36-14.69S50.3,71.77,50.28,81.28Z"/><path class="cls-25" d="M47.12,79.77c0,9.75-7.39,17.16-16.35,16S15.72,85.61,16.69,76.22c.92-8.84,8-15,15.88-14.15S47.14,70.61,47.12,79.77Z"/><circle class="cls-26" cx="36.43" cy="79.77" r="6.04" transform="translate(-41.38 39.32) rotate(-37.99)"/><path class="cls-24" d="M88.78,80.77c-2.7,10.05,3,19.7,12.71,20.92s18.66-6.37,20.25-16.32c1.5-9.36-4.19-17.59-12.73-18.89S91.32,71.32,88.78,80.77Z"/><path class="cls-25" d="M92.41,80.1c-2.61,9.69,2.91,19,12.37,20.18s18.11-6.12,19.65-15.7c1.45-9-4.09-17-12.39-18.22S94.86,71,92.41,80.1Z"/><path class="cls-26" d="M98.86,78.89a6.1,6.1,0,0,0-1.22,8.7,6.5,6.5,0,0,0,8.94,1.2,6.1,6.1,0,0,0,1.22-8.7A6.5,6.5,0,0,0,98.86,78.89Z"/><circle class="cls-24" cx="74.06" cy="64.1" r="7.91"/><circle class="cls-24" cx="71.53" cy="81.39" r="4.14" transform="matrix(0.87, -0.5, 0.5, 0.87, -31.11, 46.67)"/><circle class="cls-27" cx="74.19" cy="62.91" r="7.87" transform="translate(-16.06 26.62) rotate(-18.39)"/><path class="cls-28" d="M75.61,67.18a7.87,7.87,0,0,1-9.24-3.45,7.87,7.87,0,1,0,14.58-4.85A7.87,7.87,0,0,1,75.61,67.18Z"/><circle class="cls-29" cx="73.27" cy="59.81" r="3.88" transform="translate(-15.13 26.17) rotate(-18.39)"/><circle class="cls-27" cx="71.58" cy="80.27" r="4.23" transform="translate(-17.21 19.58) rotate(-13.92)"/><path class="cls-28" d="M72.17,82.62a4.23,4.23,0,0,1-4.81-2.24,4.23,4.23,0,1,0,8-2A4.23,4.23,0,0,1,72.17,82.62Z"/><circle class="cls-29" cx="71.22" cy="78.57" r="2.09" transform="translate(-16.81 19.45) rotate(-13.92)"/><path class="cls-30" d="M57.36,103.11A9.4,9.4,0,0,0,73,105.61"/><path class="cls-8" d="M127.13,80.75l-7.84,14.44-9.43,7.35-11.73,9.11L85.33,118,71.67,119.7l-13.49,1.58-15.94-1.75-11.43-3.24a85.81,85.81,0,0,0,20.54,34.24v0c3.29,2.63,7.73,3.53,11.9,4.18,4,.63,8.07,1.05,12.12,1.33a87.27,87.27,0,0,0,13.75,0q2.43-.22,4.84-.64t4.82-1.05q2.4-.62,4.74-1.44t4.6-1.8q2.24-1,4.39-2.15a3.13,3.13,0,0,0,1.07-1.2l.57-.91.72-1.19.85-1.45q.49-.85,1-1.7t1.05-1.93q.57-1.07,1.12-2.15t1.18-2.36q.62-1.27,1.21-2.55t1.22-2.73q.62-1.44,1.21-2.89t1.18-3q.59-1.58,1.13-3.18t1.06-3.3q.52-1.69,1-3.4t.86-3.5q.4-1.78.74-3.58t.59-3.64q.25-1.84.42-3.69t.23-3.73q.06-1.87,0-3.75t-.21-3.76q-.17-1.88-.46-3.75t-.73-3.73q-.44-1.87-1-3.69"/><g class="cls-31"><path class="cls-32" d="M99.25,115.05c3.42-1.26,4.09.92,4.95,3.88a25.72,25.72,0,0,1,.83,9.25,42.67,42.67,0,0,1-3.56,13.11c-1.37,3.21-3.14,6.48-6.18,8.2-9.17,5.21-20.3,3-30.06,5.87-.71.21-1.51.55-1.69,1.27a1.92,1.92,0,0,0,.22,1.23c1,2.24,3.16,3.79,5.32,5,6.13,3.41,13.22,4.83,20.23,5.08,10.6.38,21.47-1.91,30.36-7.7,9.2-6,15.78-15.41,20.11-25.5a82.28,82.28,0,0,0,6.63-32.55c0-7.64-1.25-15.61-5.71-21.81-1.77-2.46-4.27-4.7-7.3-4.94s-6,1.71-8.44,3.75C116.84,86,110.47,94.74,102,101.07c-7,5.19-15.07,8.52-23.17,11.5-7.71,2.84-17.78,5-24.37,10,2.28,1.44,8,.22,10.66,0q5.87-.46,11.68-1.46A127.39,127.39,0,0,0,99.25,115.05Z"/><path class="cls-33" d="M120.28,113c-1.74,8-4.63,15.71-7.54,23.37a21.8,21.8,0,0,1-3.52,6.77,19.81,19.81,0,0,1-7.25,4.91,75.16,75.16,0,0,1-11.76,3.36,115.53,115.53,0,0,1-38.47,2.44c5.73,3.54,12.89,3.33,19.61,3.86,12,.94,24.47,4.54,35.84.51A11.53,11.53,0,0,0,111.3,156a13.45,13.45,0,0,0,1.72-2.09c11.53-16.29,17.76-35.79,21.5-55.39a39.07,39.07,0,0,0,1-10A21.36,21.36,0,0,0,129,74.67l-5.63,9.56c-1.82,3.09-2.44,4.25-1.93,7.71C122.45,99,121.67,106.07,120.28,113Z"/><path class="cls-33" d="M42.1,122.8c9.31.81,18.65,1.62,28,1.27s18.73-1.88,27.31-5.58c7.22-3.12,12-7,18.15-11.93a62.68,62.68,0,0,0,9.08-8.9l-1.72-6.23-8.74,9.26-13.35,11.37-18.64,8L62.4,122.14Z"/></g><path class="cls-11" d="M133.61,60.36a15.22,15.22,0,0,0-3-5.3C130.44,71,124.37,86.77,113,98c-14.38,14.2-33,20.63-52.9,20.79a107.38,107.38,0,0,1-12.48-.6h0c-11.28-1.21-19.87-3.88-26.44-7.28a10.07,10.07,0,0,0,1.57,3.88A13.89,13.89,0,0,0,30,120,94.38,94.38,0,0,0,47,123.33l3.42.35,1.1.06,2.11.09h0c1.81.08,3.65.13,5.48.13h1c22.46-.18,42.05-7.91,56.66-22.34a64.78,64.78,0,0,0,17.34-31.55h0C134.45,66.87,134.61,63.35,133.61,60.36Z"/><path class="cls-34" d="M46.32,42.28a2.43,2.43,0,0,1,1.81-.88c.94.11,1.4,1.15,1.75,2a25,25,0,0,0,5.21,8.15A22.61,22.61,0,0,0,58.33,54a4.13,4.13,0,0,1,2,3A3.54,3.54,0,0,1,59,59.59a7.53,7.53,0,0,1-3.74,1.68A13.82,13.82,0,0,1,46.56,60c-3.8-1.87-8.06-6-5.82-10.43A27.21,27.21,0,0,1,46.32,42.28Z"/><path class="cls-34" d="M100.11,45.1a1.2,1.2,0,0,1,.19-.61.88.88,0,0,1,1.2,0,3.06,3.06,0,0,1,.72,2.6,15.51,15.51,0,0,1-1.66,6.66,8,8,0,0,1-5.27,4.14c-1.26.25-2.6-.73-1.72-2,.57-.84,2-1.36,2.68-2.19A16.66,16.66,0,0,0,100.11,45.1Z"/><circle class="cls-35" cx="56.43" cy="133.15" r="6.3"/><path class="cls-25" d="M56.43,127.91a5.25,5.25,0,1,1-5.25,5.25,5.25,5.25,0,0,1,5.25-5.25m0-2.1a7.35,7.35,0,1,0,7.35,7.35,7.36,7.36,0,0,0-7.35-7.35Z"/><g class="cls-36"><circle class="cls-37" cx="56.31" cy="128.72" r="5.25"/></g><circle class="cls-35" cx="84.55" cy="133.92" r="6.3"/><path class="cls-25" d="M84.55,128.67a5.25,5.25,0,1,1-5.25,5.25,5.25,5.25,0,0,1,5.25-5.25m0-2.1a7.35,7.35,0,1,0,7.35,7.35,7.36,7.36,0,0,0-7.35-7.35Z"/><g class="cls-38"><circle class="cls-37" cx="84.44" cy="129.48" r="5.25"/></g><path class="cls-39" d="M124.88,49.7a56.49,56.49,0,0,0-1.06-7,47,47,0,0,0-2.29-7.48C114.29,15,99.5,8.18,88.93,6a35.69,35.69,0,0,0-8.55-1h0a30.68,30.68,0,0,0-3.45.09l0,0A75.22,75.22,0,0,0,33.6,23C21.86,32.86,11.77,46.25,7.46,61.13A46.73,46.73,0,0,0,5.63,77.5h0s-.73,11.56,9.16,21.64c.53.58,1.08,1.15,1.67,1.7a16.14,16.14,0,0,0,2.19,1.7c6.46,5,16.12,9.1,30.55,10.65h0a98.29,98.29,0,0,0,11.43.55c18.22-.15,35.27-6,48.44-19,10.69-10.56,16.28-25.62,16.09-40.62A35.31,35.31,0,0,0,124.88,49.7Z"/><circle class="cls-40" cx="46.01" cy="34.56" r="14.16" transform="translate(-10.87 25.82) rotate(-28.18)"/><circle class="cls-40" cx="25.91" cy="49.86" r="6.28" transform="translate(-30.24 51.8) rotate(-64.52)"/><path class="cls-11" d="M144.6,174.08c-3.72,3.33-7.65,7-8.69,12-.35,1.67-.13,3.79,1.35,4.5a3.83,3.83,0,0,0,3.27-.44,22.79,22.79,0,0,0,10.68-11.42c.6-1.4,1-3.19,0-4.33a3.17,3.17,0,0,0-1.5-.9,6.82,6.82,0,0,0-7.57,2.83"/><g class="cls-41"><path class="cls-42" d="M143.81,176.46a44.29,44.29,0,0,0-3.34,5.26,11.07,11.07,0,0,0-1.18,2.86,3.72,3.72,0,0,0,.29,2.67,3.53,3.53,0,0,0,3,1.54,10.43,10.43,0,0,0,3.42-.69l-5.82,4.77-4.74-1.95L134,186.86l1.95-5.33,2.71-3.64,3.64-2.37Z"/></g><path class="cls-11" d="M136.21,171.33c.49-2.13-.7-4.69-3.13-4.49a6.34,6.34,0,0,0-3.37,1.65c-3.09,2.56-5.83,6.36-6.29,10.43a3.61,3.61,0,0,0,.57,2.77,2.76,2.76,0,0,0,2.4.82c2.16-.25,3.4-1.83,4.77-3.38a36.43,36.43,0,0,0,4.06-5.59A8,8,0,0,0,136.21,171.33Z"/><g class="cls-43"><path class="cls-42" d="M134.42,179.59a7.69,7.69,0,0,1-2.67.89,3.83,3.83,0,0,1-2.69-.64,4.24,4.24,0,0,1-1.5-3.17c-.18-2.8,1.38-5.42,3.24-7.53l-2.47-2.08-5.7,6-.56,7.73,2.43,2.93,4.57-.06,2.59-1.75Z"/></g><path class="cls-11" d="M162.45,176.62a15.51,15.51,0,0,1-2.14,5.59,21,21,0,0,1-2.09,3.09,5.6,5.6,0,0,1-1.85,1.55,2.58,2.58,0,0,1-2.34,0,2.66,2.66,0,0,1-1.18-2.29,6.94,6.94,0,0,1,.63-2.61,39.56,39.56,0,0,1,4.85-8.77c.66-.91,2.25-2.71,3.25-1.27A7,7,0,0,1,162.45,176.62Z"/><g class="cls-44"><path class="cls-42" d="M161.48,181.89a9.14,9.14,0,0,1-1.8,1.46,2.54,2.54,0,0,1-2.33.42,2.5,2.5,0,0,1-1.15-2.05,13.22,13.22,0,0,1,1.73-7.43l-2.71.22L152,182.12v5.47l4.63,1,3-2.2Z"/></g><path class="cls-3" d="M155.58,134.65a49.54,49.54,0,0,1,7.57,27,53.88,53.88,0,0,1-.5,7.11c-.36,2.64-.68,3.45-2.95,5a22.11,22.11,0,0,1-28.29-2.79c-1.64-1.67-3.38-4.07-3.14-6.53.26-2.67,1.68-5.54,2.21-8.22A24,24,0,0,0,131,149c-.36-3.41-1.89-6.58-3.51-9.61a128.76,128.76,0,0,0-12.6-19.17c-.93-1.17-2.21-2.16-2.65-3.64s.42-3,1-4.22a19.14,19.14,0,0,1,7.06-8c1.79-1.08,4.09-1.75,6-.79,8.25,4.27,13.29,12.26,19.57,19.11A90.78,90.78,0,0,1,155.58,134.65Z"/><g class="cls-45"><path class="cls-5" d="M120.56,108.22c-4.84,3.95-3.57,9.28-.37,13.84a68.43,68.43,0,0,0,5.25,6.13A74.38,74.38,0,0,1,131.8,137c2,3,3.85,6.18,4.49,9.71,1.11,6.19-1.75,12.62-.49,18.79s6.08,9.59,11.24,12.59c-.66-.38-3.3.86-4,1.07a23,23,0,0,1-4.91.93,19.32,19.32,0,0,1-9.83-1.77c-5.22-2.54-9-8.1-8.79-13.89.2-4.58,2.75-8.74,3.39-13.27.72-5.07-1-10.23-3.65-14.63s-6.12-8.2-9.33-12.2c-1.3-1.62-2.61-3.42-2.7-5.5a10.32,10.32,0,0,1,1.33-4.66c1.59-3.4,3.29-6.94,6.28-9.21,3.28-2.49,8.48-4.62,12.37-2.28a4,4,0,0,1,1.94,2.62,9.82,9.82,0,0,0-6.79,1.66A20.18,20.18,0,0,0,120.56,108.22Z"/><path class="cls-5" d="M161.1,158.37a34.77,34.77,0,0,1-1.53,11,16.72,16.72,0,0,1-6.53,8.82,12,12,0,0,0,10-4.2,17.78,17.78,0,0,0,4-10.29,35.41,35.41,0,0,0-1.16-11.14,49.42,49.42,0,0,0-3-9c-.73-1.59-2.6-6.51-4.66-6.61a34.76,34.76,0,0,0,1.16,4.78q.59,2.74,1,5.53A76.64,76.64,0,0,1,161.1,158.37Z"/><g class="cls-6"><path class="cls-46" d="M115.47,124.34a23.62,23.62,0,0,1,14.61-13.46c2.41-.8,5.27-1.18,7.38.13"/><path class="cls-46" d="M121.64,132.45a30.34,30.34,0,0,1,9.66-10.75,19.29,19.29,0,0,1,7-3.13,11.24,11.24,0,0,1,7.52,1"/><path class="cls-46" d="M126.9,139.72c4-3.44,8.11-6.93,13-8.93s10.79-2.28,15.22.59"/><path class="cls-46" d="M130,148.23c5.51-2.6,11.24-5.12,17.32-5.49s12.67,1.79,16.06,6.86"/><path class="cls-46" d="M129.66,155.68c6.68-.66,13.46-1.32,20.06-.14a36.86,36.86,0,0,1,15.07,6.38"/><path class="cls-46" d="M127.83,160.28a30.66,30.66,0,0,0,17.1,10,33.87,33.87,0,0,0,19.77-2"/></g></g><path class="cls-9" d="M132,120.43c-2.08-2.24-4.31-4.33-6.59-6.35-1.33-1.17-3.62-2.87-5-.61-1.91,3.12,1.41,7.33,3.32,9.59a117.37,117.37,0,0,0,9.24,9.75c1.42,1.34,4.56,3.46,6.09,1,1.4-2.23-1-5.75-2.2-7.5A56.92,56.92,0,0,0,132,120.43Z"/><path class="cls-47" d="M138.64,167.54a7.77,7.77,0,0,0,5.7,4.79,6.45,6.45,0,0,0,6.61-3.06,7.05,7.05,0,0,0,.63-4.72,8.65,8.65,0,0,0-6.3-6.61C139.32,156.51,136.7,162.69,138.64,167.54Z"/></g></g></svg>