<svg xmlns="http://www.w3.org/2000/svg" xmlns:xlink="http://www.w3.org/1999/xlink" viewBox="0 0 206.24 209.99"><defs><style>.cls-1,.cls-36{fill:none;}.cls-2{fill:#7262b7;}.cls-3{fill:#b0b0d1;}.cls-4{clip-path:url(#clip-path);}.cls-5{fill:#9d9dc1;}.cls-6{fill:#4f4299;}.cls-7{fill:#6954a8;}.cls-8{clip-path:url(#clip-path-2);}.cls-9{clip-path:url(#clip-path-3);}.cls-10{fill:#37277c;opacity:0.17;}.cls-11{fill:#f58a1f;}.cls-12{clip-path:url(#clip-path-4);}.cls-13{fill:#ea7c18;}.cls-14{fill:#ededf9;}.cls-15{fill:#c7c7dd;}.cls-16{fill:#dd7110;}.cls-17,.cls-18,.cls-19{fill:#9e96cc;}.cls-17{opacity:0.15;}.cls-18{opacity:0.37;}.cls-19,.cls-47{opacity:0.13;}.cls-20{fill:#ff9b40;}.cls-20,.cls-37{opacity:0.7;}.cls-21,.cls-30,.cls-38,.cls-43,.cls-46,.cls-47,.cls-50{fill:#fff;}.cls-21{opacity:0.28;}.cls-22{clip-path:url(#clip-path-5);}.cls-23{clip-path:url(#clip-path-6);}.cls-24{clip-path:url(#clip-path-7);}.cls-25{clip-path:url(#clip-path-8);}.cls-26{clip-path:url(#clip-path-9);}.cls-27{clip-path:url(#clip-path-10);}.cls-28{fill:#9191ba;}.cls-29{fill:#dddded;}.cls-30{opacity:0.22;}.cls-31{fill:#bfbfdd;}.cls-32,.cls-40{opacity:0.9;}.cls-33,.cls-40{fill:#cacae0;}.cls-34{fill:#96d2e2;}.cls-35{fill:#64b546;}.cls-36{stroke:#2a2a77;stroke-linecap:round;stroke-miterlimit:10;stroke-width:1.66px;}.cls-37{fill:#549934;}.cls-39{fill:#5c3c99;}.cls-41{fill:#b4b4d3;}.cls-42{clip-path:url(#clip-path-11);}.cls-43{opacity:0.33;}.cls-44{opacity:0.65;fill:url(#linear-gradient);}.cls-45{fill:#babad3;}.cls-46{opacity:0.35;}.cls-48,.cls-51,.cls-52{fill:#f4d760;}.cls-49{fill:#ccb140;opacity:0.51;}.cls-50{opacity:0.43;}.cls-51{opacity:0.8;}.cls-52{opacity:0.5;}.cls-53{opacity:0.08;}</style><clipPath id="clip-path"><polygon class="cls-1" points="12.44 78.99 82.32 108.86 77.24 112.18 40.84 103.37 39.85 97.88 18.44 90.74 12.44 78.99"/></clipPath><clipPath id="clip-path-2"><path class="cls-1" d="M66.46,118.24S43.63,116.43,13.53,147a2.85,2.85,0,0,0-.55,2c-.05,6,4.66,32.44,29.39,35.51a3.74,3.74,0,0,0,3.6-1.65c4.21-6.44,17.73-28.52,20.72-50.78Z"/></clipPath><clipPath id="clip-path-3"><path class="cls-1" d="M66.46,118.24c-.28,0-.57,0-.86,0a30.06,30.06,0,0,0-4,.32,49.14,49.14,0,0,0-7,1.54,67.22,67.22,0,0,0-9.51,3.63,88.72,88.72,0,0,0-11.65,6.61A118.08,118.08,0,0,0,20,140.8q-1.82,1.63-3.57,3.33a9.71,9.71,0,0,0-2.63,3.29c-1,2.45-.59,5.2-.06,7.71a48.51,48.51,0,0,0,2.59,8.5,39.75,39.75,0,0,0,5.13,9.09,30.84,30.84,0,0,0,8.42,7.66,31.34,31.34,0,0,0,12.45,4.22,3.74,3.74,0,0,0,3.6-1.65c4.21-6.44,17.73-28.52,20.72-50.78Z"/></clipPath><clipPath id="clip-path-4"><path class="cls-1" d="M68,117.13c-7.62-.91-36.77-3.8-57.91,2.44a1,1,0,0,0-.06,1.82l35.47,13.41L44.36,147l20.36.79a2.53,2.53,0,0,0,2.54-1.83c1.3-4.57,4.27-16.53,3-26.65A2.49,2.49,0,0,0,68,117.13Z"/></clipPath><clipPath id="clip-path-5"><path class="cls-1" d="M52.21,117c-.15,8-.52,19.47-.52,19.47l7.43.13c2.64-15.92,3.65-30.41,3.65-30.41a21.72,21.72,0,0,0-10.94-1.76"/></clipPath><clipPath id="clip-path-6"><polygon class="cls-1" points="193.8 78.99 123.93 108.86 129.01 112.18 165.4 103.37 166.39 97.88 187.8 90.74 193.8 78.99"/></clipPath><clipPath id="clip-path-7"><path class="cls-1" d="M139.78,118.24s22.83-1.82,52.93,28.79a2.85,2.85,0,0,1,.55,2c.05,6-4.66,32.44-29.39,35.51a3.74,3.74,0,0,1-3.6-1.65c-4.21-6.44-17.73-28.52-20.72-50.78Z"/></clipPath><clipPath id="clip-path-8"><path class="cls-1" d="M139.78,118.24c.28,0,.57,0,.86,0a30.06,30.06,0,0,1,4,.32,49.14,49.14,0,0,1,7,1.54,67.22,67.22,0,0,1,9.51,3.63,88.72,88.72,0,0,1,11.65,6.61A118.08,118.08,0,0,1,186.2,140.8q1.82,1.63,3.57,3.33a9.71,9.71,0,0,1,2.63,3.29c1,2.45.59,5.2.06,7.71a48.51,48.51,0,0,1-2.59,8.5,39.75,39.75,0,0,1-5.13,9.09,30.84,30.84,0,0,1-8.42,7.66,31.34,31.34,0,0,1-12.45,4.22,3.74,3.74,0,0,1-3.6-1.65c-4.21-6.44-17.73-28.52-20.72-50.78Z"/></clipPath><clipPath id="clip-path-9"><path class="cls-1" d="M138.2,117.13c7.62-.91,36.77-3.8,57.91,2.44a1,1,0,0,1,.06,1.82L160.7,134.81,161.89,147l-20.36.79a2.53,2.53,0,0,1-2.54-1.83c-1.3-4.57-4.27-16.53-3-26.65A2.49,2.49,0,0,1,138.2,117.13Z"/></clipPath><clipPath id="clip-path-10"><path class="cls-1" d="M154,117c.15,8,.52,19.47.52,19.47l-7.43.13c-2.64-15.92-3.65-30.41-3.65-30.41a21.72,21.72,0,0,1,10.94-1.76"/></clipPath><clipPath id="clip-path-11"><path class="cls-1" d="M114.35,105.92a48.36,48.36,0,1,0-21.69,0"/></clipPath><linearGradient id="linear-gradient" x1="65.01" y1="57.65" x2="124.57" y2="82.9" gradientUnits="userSpaceOnUse"><stop offset="0" stop-color="#fff" stop-opacity="0.7"/><stop offset="0.64" stop-color="#fff" stop-opacity="0"/></linearGradient></defs><title>ziggy_18</title><g id="Layer_2" data-name="Layer 2"><g id="Layer_1-2" data-name="Layer 1"><path class="cls-2" d="M29.41,85.85"/><polygon class="cls-3" points="12.44 78.99 81.21 108.63 76.13 111.95 40.84 103.37 38.7 97.52 18.44 90.74 12.44 78.99"/><g class="cls-4"><polygon class="cls-5" points="11.74 80.69 38.81 91.45 42.16 97.49 79.42 109.82 81.65 108.32 38.97 88.03 13.45 77.34 11.99 78.16 11.74 80.69"/></g><polyline class="cls-2" points="84.36 108.66 35.91 80.46 28.23 81.13 28.56 85.89 36.37 89 39.82 94.58 82.86 109.81"/><polygon class="cls-6" points="33.38 83.75 29.75 82.52 30.11 86.56 36.51 89.27 33.38 83.75"/><path class="cls-7" d="M66.46,118.24c-.28,0-.57,0-.86,0a30.06,30.06,0,0,0-4,.32,49.14,49.14,0,0,0-7,1.54,67.22,67.22,0,0,0-9.51,3.63,88.72,88.72,0,0,0-11.65,6.61A118.08,118.08,0,0,0,20,140.8q-1.82,1.63-3.57,3.33a9.71,9.71,0,0,0-2.63,3.29c-1,2.45-.59,5.2-.06,7.71a48.51,48.51,0,0,0,2.59,8.5,39.75,39.75,0,0,0,5.13,9.09,30.84,30.84,0,0,0,8.42,7.66,31.34,31.34,0,0,0,12.45,4.22,3.74,3.74,0,0,0,3.6-1.65c4.21-6.44,17.73-28.52,20.72-50.78Z"/><g class="cls-8"><path class="cls-3" d="M69.16,117s-16.07,38.33-37.62,65.57l13.4,6.06,14.84-22.53,8.45-22.7,4.27-22.51Z"/><g class="cls-9"><path class="cls-10" d="M42.14,132c-.31,5.93-1.48,17.24-1.48,17.24L55,153.59s-4.46,13.71-19.8,34.81l11.58,2,13.38-23,8.32-17.13L67,137.71l-24.8-6.2"/></g></g><polygon class="cls-2" points="44.74 108.89 44.87 116.5 44.9 116.94 52.21 116.98 51.82 104.44 44.74 108.89"/><polygon class="cls-6" points="46.29 116.93 46.21 110.13 52.49 106.77 52.21 116.98 46.29 116.93"/><path class="cls-11" d="M68,117.13c-7.62-.91-36.77-3.8-57.91,2.44a1,1,0,0,0-.06,1.82l35.47,13.41L44.36,147l20.36.79a2.53,2.53,0,0,0,2.54-1.83c1.3-4.57,4.27-16.53,3-26.65A2.49,2.49,0,0,0,68,117.13Z"/><g class="cls-12"><path class="cls-13" d="M49.91,118.32A12.9,12.9,0,0,1,51.8,124a27,27,0,0,1,.07,6.42c2.12-4.52,2.42-9.68,2.1-14.66a.88.88,0,0,0-.14-.5.87.87,0,0,0-.51-.25c-2.08-.48-6-1-7.91.2.43.56,1.74.69,2.38,1.09A7.22,7.22,0,0,1,49.91,118.32Z"/><path class="cls-13" d="M65.68,114.51c2.05,11.67-.55,23.61-3.13,35.17l5.53-.33,5.55-15.66L73,120.52l-2.18-4.46Z"/></g><path class="cls-14" d="M16.9,187.42c-4.32,3.71-9.13,5.25-10.75,3.44s.58-6.3,4.9-10,9.13-5.25,10.75-3.44S21.22,183.71,16.9,187.42Z"/><path class="cls-14" d="M31.45,193.05c-1.69,3.66-4.47,6-6.21,5.21s-1.79-4.38-.1-8,4.47-6,6.21-5.21S33.13,189.39,31.45,193.05Z"/><path class="cls-14" d="M8.26,174.49c-3.83,1.4-7.47,1.11-8.15-.65s1.88-4.33,5.71-5.74,7.47-1.11,8.15.65S12.08,173.09,8.26,174.49Z"/><path class="cls-15" d="M14,168.76a1.89,1.89,0,0,0-.79-.9c-.09,1.45-2.12,3.25-5,4.3-3.27,1.2-6.39,1-7-.56a1.44,1.44,0,0,1-.09-.62c-.94,1-1.37,2-1,2.87.67,1.76,4.32,2.05,8.15.65S14.64,170.52,14,168.76Z"/><path class="cls-15" d="M21.8,177.41a2.11,2.11,0,0,0-.88-.57c.76,1.68-1.3,5.26-4.9,8.36-3.89,3.34-8.11,4.86-9.42,3.39a2.06,2.06,0,0,1-.31-1.83c-.8,1.73-.92,3.22-.14,4.1,1.61,1.82,6.43.28,10.75-3.44S23.41,179.23,21.8,177.41Z"/><path class="cls-15" d="M31.35,185a1.81,1.81,0,0,0-.86-.14c1,1.07.66,3.77-.82,6.41-1.65,2.94-4.13,4.71-5.53,3.94a1.4,1.4,0,0,1-.22-.15c0,1.57.41,2.77,1.33,3.18,1.74.78,4.52-1.55,6.21-5.21S33.09,185.79,31.35,185Z"/><path class="cls-2" d="M52.21,117c-.15,8-.52,19.47-.52,19.47l7.43.13c2.64-15.92,3.65-30.41,3.65-30.41a21.72,21.72,0,0,0-10.94-1.76"/><polygon class="cls-16" points="44.36 146.98 43.22 145.44 44.25 134.34 45.54 134.81 44.36 146.98"/><path class="cls-17" d="M36.53,137.22l-5.77-2.45s-5.66,5.14-6.8,6.1c-2.53,2.13-5,4.27-7.47,6.52-.28.26-.64.46-.66.87a28.66,28.66,0,0,0,2.49,12.62Z"/><circle class="cls-18" cx="22.63" cy="151.21" r="4.54" transform="translate(-108.82 73.13) rotate(-50.78)"/><ellipse class="cls-19" cx="32.62" cy="151.28" rx="2.75" ry="2.72" transform="translate(-18.67 5.27) rotate(-7.19)"/><path class="cls-20" d="M46.88,117.64a4.68,4.68,0,0,1,.79,1,8.11,8.11,0,0,1,1,2.3c.17.69.36,1.78-.16,2.35-1,1.12-2.7,1.21-4.2,1.21a155.3,155.3,0,0,1-15.95-.87l-7.52-.77c-1-.11-2.24-.3-3.32-.44a7.38,7.38,0,0,1-3-.9.88.88,0,0,1-.45-.84.92.92,0,0,1,.55-.53c1.84-.88,4.2-1,6.19-1.37,2.9-.53,6-.7,8.89-1A125,125,0,0,1,43.17,117c1.16,0,2.68-.25,3.64.56Z"/><ellipse class="cls-21" cx="32.83" cy="122.75" rx="2.87" ry="2.83" transform="translate(-66.3 43.26) rotate(-36.3)"/><g class="cls-22"><path class="cls-10" d="M60.33,103.63s.67,9.44-3.24,33.59l3.1.49,3.67-25,.08-6.53Z"/></g><path class="cls-2" d="M176.83,85.85"/><polygon class="cls-3" points="193.8 78.99 124.42 108.75 129.5 112.07 165.4 103.37 167.54 97.52 187.8 90.74 193.8 78.99"/><g class="cls-23"><polygon class="cls-5" points="194.5 80.69 167.43 91.45 164.09 97.49 126.29 109.99 123.92 108.43 167.27 88.03 192.79 77.34 194.26 78.16 194.5 80.69"/></g><polyline class="cls-2" points="121.88 108.66 170.33 80.46 178.01 81.13 177.68 85.89 169.88 89 166.43 94.58 123.38 109.81"/><polygon class="cls-6" points="172.87 83.75 176.49 82.52 176.13 86.56 169.73 89.27 172.87 83.75"/><path class="cls-7" d="M139.78,118.24c.28,0,.57,0,.86,0a30.06,30.06,0,0,1,4,.32,49.14,49.14,0,0,1,7,1.54,67.22,67.22,0,0,1,9.51,3.63,88.72,88.72,0,0,1,11.65,6.61A118.08,118.08,0,0,1,186.2,140.8q1.82,1.63,3.57,3.33a9.71,9.71,0,0,1,2.63,3.29c1,2.45.59,5.2.06,7.71a48.51,48.51,0,0,1-2.59,8.5,39.75,39.75,0,0,1-5.13,9.09,30.84,30.84,0,0,1-8.42,7.66,31.34,31.34,0,0,1-12.45,4.22,3.74,3.74,0,0,1-3.6-1.65c-4.21-6.44-17.73-28.52-20.72-50.78Z"/><g class="cls-24"><path class="cls-3" d="M137.09,117s16.07,38.33,37.62,65.57l-13.4,6.06-14.84-22.53L138,143.42l-4.27-22.51Z"/><g class="cls-25"><path class="cls-10" d="M164.1,132c.31,5.93,1.48,17.24,1.48,17.24l-14.36,4.35s4.46,13.71,19.8,34.81l-11.58,2-13.38-23-8.32-17.13,1.47-12.56,24.8-6.2"/></g></g><polygon class="cls-2" points="161.5 108.89 161.37 116.5 161.34 116.94 154.03 116.98 154.42 104.44 161.5 108.89"/><polygon class="cls-6" points="159.95 116.93 160.03 110.13 153.75 106.77 154.03 116.98 159.95 116.93"/><path class="cls-11" d="M138.2,117.13c7.62-.91,36.77-3.8,57.91,2.44a1,1,0,0,1,.06,1.82L160.7,134.81,161.89,147l-20.36.79a2.53,2.53,0,0,1-2.54-1.83c-1.3-4.57-4.27-16.53-3-26.65A2.49,2.49,0,0,1,138.2,117.13Z"/><g class="cls-26"><path class="cls-13" d="M156.33,118.32a12.9,12.9,0,0,0-1.89,5.65,27,27,0,0,0-.07,6.42c-2.12-4.52-2.42-9.68-2.1-14.66a.88.88,0,0,1,.14-.5.87.87,0,0,1,.51-.25c2.08-.48,6-1,7.91.2-.43.56-1.74.69-2.38,1.09A7.22,7.22,0,0,0,156.33,118.32Z"/><path class="cls-13" d="M140.57,114.51c-2.05,11.67.55,23.61,3.13,35.17l-5.53-.33-5.55-15.66.65-13.16,2.18-4.46Z"/></g><path class="cls-14" d="M189.35,187.42c4.32,3.71,9.13,5.25,10.75,3.44s-.58-6.3-4.9-10-9.13-5.25-10.75-3.44S185,183.71,189.35,187.42Z"/><path class="cls-14" d="M174.8,193.05c1.69,3.66,4.47,6,6.21,5.21s1.79-4.38.1-8-4.47-6-6.21-5.21S173.11,189.39,174.8,193.05Z"/><path class="cls-14" d="M198,174.49c3.83,1.4,7.47,1.11,8.15-.65s-1.88-4.33-5.71-5.74-7.47-1.11-8.15.65S194.16,173.09,198,174.49Z"/><path class="cls-15" d="M192.28,168.76a1.89,1.89,0,0,1,.79-.9c.09,1.45,2.12,3.25,5,4.3,3.27,1.2,6.39,1,7-.56a1.44,1.44,0,0,0,.09-.62c.94,1,1.37,2,1,2.87-.67,1.76-4.32,2.05-8.15.65S191.6,170.52,192.28,168.76Z"/><path class="cls-15" d="M184.44,177.41a2.11,2.11,0,0,1,.88-.57c-.76,1.68,1.3,5.26,4.9,8.36,3.89,3.34,8.11,4.86,9.42,3.39a2.06,2.06,0,0,0,.31-1.83c.8,1.73.92,3.22.14,4.1-1.61,1.82-6.43.28-10.75-3.44S182.83,179.23,184.44,177.41Z"/><path class="cls-15" d="M174.9,185a1.81,1.81,0,0,1,.86-.14c-1,1.07-.66,3.77.82,6.41,1.65,2.94,4.13,4.71,5.53,3.94a1.4,1.4,0,0,0,.22-.15c0,1.57-.41,2.77-1.33,3.18-1.74.78-4.52-1.55-6.21-5.21S173.15,185.79,174.9,185Z"/><path class="cls-2" d="M154,117c.15,8,.52,19.47.52,19.47l-7.43.13c-2.64-15.92-3.65-30.41-3.65-30.41a21.72,21.72,0,0,1,10.94-1.76"/><polygon class="cls-16" points="161.89 146.98 163.03 145.44 161.99 134.34 160.71 134.81 161.89 146.98"/><path class="cls-17" d="M169.72,137.22l5.77-2.45s5.66,5.14,6.8,6.1c2.53,2.13,5,4.27,7.47,6.52.28.26.64.46.66.87a28.66,28.66,0,0,1-2.49,12.62Z"/><circle class="cls-18" cx="183.61" cy="151.21" r="4.54" transform="translate(-54.25 150.17) rotate(-39.22)"/><ellipse class="cls-19" cx="173.62" cy="151.28" rx="2.72" ry="2.75" transform="translate(1.81 304.62) rotate(-82.81)"/><path class="cls-20" d="M159.36,117.64a4.68,4.68,0,0,0-.79,1,8.11,8.11,0,0,0-1,2.3c-.17.69-.36,1.78.16,2.35,1,1.12,2.7,1.21,4.2,1.21a155.3,155.3,0,0,0,15.95-.87l7.52-.77c1-.11,2.24-.3,3.32-.44a7.38,7.38,0,0,0,3-.9.88.88,0,0,0,.45-.84.92.92,0,0,0-.55-.53c-1.84-.88-4.2-1-6.19-1.37-2.9-.53-6-.7-8.89-1a125,125,0,0,0-13.42-.75c-1.16,0-2.68-.25-3.64.56Z"/><ellipse class="cls-21" cx="173.41" cy="122.75" rx="2.83" ry="2.87" transform="translate(-28.18 189.85) rotate(-53.7)"/><g class="cls-27"><path class="cls-10" d="M145.91,103.63s-.67,9.44,3.24,33.59l-3.1.49-3.67-25-.08-6.53Z"/></g><path class="cls-28" d="M132.6,122.81c.33-1.54-1-3-1.87-4-3-3.75-10.36-12-27.24-12.5h-.33c-16.89.48-25.3,8.69-28.42,12.43a5,5,0,0,0-1.11,4.14"/><path class="cls-29" d="M103.49,112.69h-.33c-16.89.33-25.51,4.79-28.63,7.34a2.73,2.73,0,0,0-.9,2.94c6.5,20.72,20.1,28.68,26.31,31.32h0a7.07,7.07,0,0,0,5.69.27c5.87-2.35,20.23-10.13,27-31.62a2.73,2.73,0,0,0-.86-2.9C128.74,117.47,120.37,113,103.49,112.69Z"/><path class="cls-30" d="M91.3,115.61a21.68,21.68,0,0,1,6.24-.58,2.91,2.91,0,0,1,2.09.83,3.39,3.39,0,0,1,.55,1.12,24,24,0,0,1,.41,14,5.2,5.2,0,0,1-.88,1.94,4.41,4.41,0,0,1-2.49,1.32c-3.61.84-7.47-.13-10.81-1.92-2.41-1.29-12-6.83-9.46-10,1.41-1.79,3.68-2.79,5.66-3.74A41.25,41.25,0,0,1,91.3,115.61Z"/><path class="cls-31" d="M103.29,110.76h-.14c-7.49.2-11.31,2.25-12.69,3.82a2.1,2.1,0,0,0-.4,1.81C92.94,129.12,99,134,101.72,135.64h0a2.45,2.45,0,0,0,1.4.46,2.39,2.39,0,0,0,1.12-.29c2.6-1.45,9-6.23,11.95-19.45a2.11,2.11,0,0,0-.38-1.79C114.48,113,110.77,111,103.29,110.76Z"/><g class="cls-32"><path class="cls-33" d="M103.12,146.11c-10.15,0-19-4.32-24-10.81C86,147,95.17,152.24,100,154.28h0a7.07,7.07,0,0,0,5.69.27c4.56-1.83,14.24-6.93,21.49-19.2C122.13,141.81,113.25,146.11,103.12,146.11Z"/></g><path class="cls-30" d="M97,129.8a23.1,23.1,0,0,1-1.49-2.58c-1.77-3.4-3.52-6.9-4.08-10.7a.82.82,0,0,1,.56-1.11q.83-.36,1.68-.65a3.69,3.69,0,0,1,1.69-.27,2.72,2.72,0,0,1,1.93,1.59,8,8,0,0,1,.6,2.52l.89,7.12c.26,2.1.56,4.18.8,6.28a1.62,1.62,0,0,1,0,.48c-.55,0-1.1-.76-1.41-1.12S97.37,130.33,97,129.8Z"/><circle class="cls-34" cx="103.51" cy="71.85" r="35.75"/><circle class="cls-35" cx="103.51" cy="64.94" r="37.78"/><path class="cls-36" d="M99,92.79A5.56,5.56,0,0,0,104,95.46a6.27,6.27,0,0,0,2.86-.66A5.33,5.33,0,0,0,108,94"/><path class="cls-37" d="M92.86,72.19c3.11,8.08.05,16.47-6.92,18.22S71.61,86.58,69.32,78.49c-2.15-7.6,1.07-14.82,7.16-16.54S89.94,64.6,92.86,72.19Z"/><path class="cls-38" d="M91,71.45c3,7.79,0,15.88-6.75,17.58S70.3,85.36,68.09,77.58c-2.07-7.32,1.07-14.29,7-16S88.14,64.13,91,71.45Z"/><circle class="cls-39" cx="85.32" cy="76.23" r="4.45" transform="translate(-29.06 78.91) rotate(-43.12)"/><path class="cls-37" d="M114.15,72.19c-3.11,8.08-.05,16.47,6.92,18.22s14.33-3.83,16.62-11.91c2.15-7.6-1.07-14.82-7.16-16.54S117.07,64.6,114.15,72.19Z"/><path class="cls-38" d="M116.05,71.45c-3,7.79,0,15.88,6.75,17.58s13.91-3.66,16.11-11.45c2.07-7.32-1.07-14.29-7-16S118.87,64.13,116.05,71.45Z"/><circle class="cls-39" cx="121.69" cy="76.23" r="4.45" transform="translate(-17.13 112.94) rotate(-46.88)"/><path class="cls-29" d="M103.51,10.44a48.35,48.35,0,0,0-10.84,95.48,35.75,35.75,0,1,1,21.69,0,48.35,48.35,0,0,0-10.84-95.48Z"/><path class="cls-40" d="M103.51,15c26.77,0,42.71,17.94,48.15,39.46a48.35,48.35,0,0,0-96.3,0C60.79,32.92,76.77,15,103.51,15Z"/><path class="cls-41" d="M103.51,32.78a37.77,37.77,0,1,0,37.77,37.77A37.77,37.77,0,0,0,103.51,32.78Zm0,73.52c-19.74,0-35.75-14.7-35.75-34.44a35.75,35.75,0,1,1,71.49,0C139.25,91.59,123.25,106.29,103.51,106.29Z"/><g class="cls-42"><polygon class="cls-10" points="146.85 3.26 142.12 41.93 103.1 64.52 64.13 41.93 59.39 3.26 44.38 48.46 103.12 76.69 161.86 48.46 146.85 3.26"/></g><polygon class="cls-29" points="84.85 29.48 68.97 47.53 102.47 65.38 140.54 46.23 132.27 30.78 109.65 24.04 84.85 29.48"/><circle class="cls-43" cx="89.31" cy="36.75" r="13.37"/><path class="cls-44" d="M103.37,106.81a35.38,35.38,0,0,1-35.6-35.33c0-7.76,3.22-16,7.42-21.83,8.23,7.7,19,12,30,10.86,9.53-.95,18.56-4.94,26.51-10.61a35.58,35.58,0,0,1-28.36,56.91Z"/><polygon class="cls-11" points="146.85 0 142.12 39.98 103.1 63.22 64.13 39.98 59.39 0 44.38 47.16 103.12 73.42 161.86 47.16 146.85 0"/><path class="cls-45" d="M105.3,64.26h-3.59L100.4,9a9.31,9.31,0,0,1,6.2,0Z"/><polygon class="cls-20" points="58.58 6.69 47.16 46.34 102.14 70.98 54.28 44.27 58.58 6.69"/><circle class="cls-46" cx="52.87" cy="42.31" r="3.73"/><circle class="cls-47" cx="58.11" cy="48.38" r="2.09"/><polygon class="cls-20" points="147.18 5.87 144.24 41.12 116.34 58.09 148.97 44.71 147.18 5.87"/><circle class="cls-48" cx="103.12" cy="59.72" r="7.67"/><circle class="cls-48" cx="103.12" cy="59.72" r="7.67"/><path class="cls-49" d="M109.45,55.27a7.73,7.73,0,0,1-13.79,6.45,7.73,7.73,0,1,0,13.79-6.45Z"/><circle class="cls-50" cx="100.92" cy="57.03" r="3.02"/><ellipse class="cls-51" cx="103.12" cy="162.39" rx="8.88" ry="2.54"/><ellipse class="cls-52" cx="103.12" cy="169.39" rx="4.45" ry="1.41"/><ellipse class="cls-53" cx="103.12" cy="202.49" rx="50.5" ry="7.5"/></g></g></svg>