<?xml version="1.0" encoding="utf-8"?>
<!-- Generator: Adobe Illustrator 21.0.0, SVG Export Plug-In . SVG Version: 6.00 Build 0)  -->
<svg version="1.1" id="Layer_1" xmlns="http://www.w3.org/2000/svg" xmlns:xlink="http://www.w3.org/1999/xlink" x="0px" y="0px"
	 viewBox="0 0 186.7 226" style="enable-background:new 0 0 186.7 226;" xml:space="preserve">
<style type="text/css">
	.st0{opacity:8.000000e-02;enable-background:new    ;}
	.st1{fill:#F58A1F;}
	.st2{clip-path:url(#SVGID_2_);}
	.st3{fill:#EA7C18;}
	.st4{fill:#96D2E2;}
	.st5{fill:none;stroke:#9090BF;stroke-width:9.92;stroke-linecap:round;stroke-miterlimit:10;}
	.st6{fill:#549934;}
	.st7{fill:#DDDDED;}
	.st8{clip-path:url(#SVGID_4_);}
	.st9{fill:#C7C7E2;}
	.st10{fill:#B0B0D1;}
	.st11{fill:#EDEDF9;}
	.st12{clip-path:url(#SVGID_6_);}
	.st13{fill:#664CA5;}
	.st14{fill:#64B546;}
	.st15{fill:#5C3C99;}
	.st16{fill:none;stroke:#2A2A77;stroke-width:2.46;stroke-linecap:round;stroke-miterlimit:10;}
	.st17{clip-path:url(#SVGID_8_);}
	.st18{opacity:0.5;fill:#4D328E;enable-background:new    ;}
	.st19{opacity:0.87;fill:#7ABC5B;enable-background:new    ;}
	.st20{clip-path:url(#SVGID_10_);}
	.st21{opacity:0.7;fill:#549934;enable-background:new    ;}
	.st22{fill:#FFFFFF;}
	.st23{opacity:0.52;}
	.st24{clip-path:url(#SVGID_12_);}
	.st25{clip-path:url(#SVGID_14_);}
	.st26{fill:none;stroke:#6F6FA8;stroke-width:1.49;stroke-linecap:round;stroke-miterlimit:10;}
	.st27{fill:none;stroke:#6F6FA8;stroke-width:1.42;stroke-linecap:round;stroke-miterlimit:10;}
	.st28{fill:#F5F5FC;}
	.st29{clip-path:url(#SVGID_16_);}
	.st30{opacity:0.48;fill:#CDCDE0;enable-background:new    ;}
	.st31{fill:#7D6AB7;}
	.st32{fill:#9E96CC;}
	.st33{fill:none;}
	.st34{clip-path:url(#SVGID_18_);}
	.st35{clip-path:url(#SVGID_20_);}
	.st36{opacity:0.3;fill:#DDDDED;enable-background:new    ;}
	.st37{clip-path:url(#SVGID_22_);}
	.st38{opacity:0.5;fill:#64B546;enable-background:new    ;}
	.st39{fill:#FF9B40;}
	.st40{opacity:0.5;fill:#FFFFFF;enable-background:new    ;}
	.st41{opacity:0.65;fill:url(#SVGID_23_);enable-background:new    ;}
	.st42{opacity:0.62;fill:#FFFFFF;enable-background:new    ;}
	.st43{opacity:0.7;fill:#FF9B40;enable-background:new    ;}
</style>
<title>ziggy_14</title>
<ellipse class="st0" cx="89.7" cy="217" rx="50.5" ry="7.5"/>
<g id="Layer_2">
	<g id="Layer_1-2">
		<path class="st1" d="M48.2,191.7c-0.3-0.9-0.3-0.7-0.6-1.6s-1.5-0.7-2.2-0.5c-2.2,0.6-2.9,0-3.7-2c-2.7-6.4-3.9-13.4-3.4-20.3
			c0.6-9,4.3-17.5,4.5-26.5c0.2-2.7-0.7-5.4-2.3-7.5c-1.4-1.5-3.1-2.6-5.1-3.1c-0.8-0.2-1.6-0.4-2.5-0.5c-2-0.4-4-0.3-6,0.2
			c-2,0.5-3.7,1.9-4.6,3.7c-0.9,1.8-0.9,4.1-1.1,6.1c-0.1,2.4-0.7,4.7-1.8,6.8c-1.3,2.4-3,4.5-4.4,6.8c-2.7,4.2-4.7,8.9-5.8,13.8
			c-0.5,2.3-0.9,4.6-1.1,6.9c-0.1,2.4-0.3,4.3-2.2,6c-0.6,0.5-1.2,1-1.6,1.7c-0.2,1.1-0.3,2.3-0.1,3.4c0.1,1.5,0.2,2.9,0.3,4.4
			c0.2,2.5,0,5.4,0.7,7.8c0.5,1.8,2.9,2.6,4.5,2.4c1.3-0.1,2.5-0.8,3.4-1.8c0.7-0.9,1.2-2,1.4-3.2c0.3-1,0.4-2.1,0.4-3.2
			c0.8,2.5,1.7,4.9,2.7,7.2c1.1,2.6,2.6,5.4,5.2,6.6c2.8,1.3,6.1,0.4,9.1-0.7c5.8-2.1,11.3-5.1,16.2-8.8c0.4-0.3,0.3-1.9,0.4-2.4
			C48.5,192.9,48.5,192.2,48.2,191.7z"/>
		<g>
			<defs>
				<path id="SVGID_1_" d="M48.1,191.6c-0.3-0.9-0.2-0.5-0.5-1.5s-1.5-0.7-2.2-0.5c-2.2,0.6-2.9,0-3.7-2c-2.7-6.4-3.9-13.4-3.4-20.3
					c0.6-9,4.3-17.5,4.5-26.5c0.2-2.7-0.7-5.4-2.3-7.5c-1.4-1.5-3.1-2.6-5.1-3.1c-0.8-0.2-1.6-0.4-2.5-0.5c-2-0.4-4-0.3-6,0.2
					c-2,0.5-3.7,1.9-4.6,3.7c-0.9,1.8-0.9,4.1-1.1,6.1c-0.1,2.4-0.7,4.7-1.8,6.8c-1.3,2.4-3,4.5-4.4,6.8c-2.7,4.2-4.7,8.9-5.8,13.8
					c-0.5,2.3-0.9,4.6-1.1,6.9c-0.1,2.4-0.3,4.3-2.2,6c-0.6,0.5-1.2,1-1.6,1.7c-0.2,1.1-0.3,2.3-0.1,3.4c0.1,1.5,0.2,2.9,0.3,4.4
					c0.2,2.5,0,5.4,0.7,7.8c0.5,1.8,2.9,2.6,4.5,2.4c1.3-0.1,2.5-0.8,3.4-1.8c0.7-0.9,1.2-2,1.4-3.2c0.3-1,0.4-2.1,0.4-3.2
					c0.8,2.5,1.7,4.9,2.7,7.2c1.1,2.6,2.6,5.4,5.2,6.6c2.8,1.3,6.1,0.4,9.1-0.7c5.8-2.1,11.3-5.1,16.2-8.8c0.4-0.3,0.6-2.2,0.7-2.6
					C48.7,192.3,48.3,192.2,48.1,191.6z"/>
			</defs>
			<clipPath id="SVGID_2_">
				<use xlink:href="#SVGID_1_"  style="overflow:visible;"/>
			</clipPath>
			<g class="st2">
				<path class="st3" d="M19.2,194.1c0.7,2.4,1.6,4.7,2.8,6.8c1.2,2.2,3.1,3.9,5.3,4.8c1.1,0.5,2.3,0.9,3.5,1.2
					c-0.3,1-1,1.8-1.8,2.2c-0.9,0.4-1.8,0.7-2.8,0.7c-4.7,0-8.9-3.1-10.3-7.6c-0.4-1.3-0.6-3.4-1.4-4.4c0.7-3.7,0.8-7.5,0.3-11.2
					c0.3,0,2.5-0.5,2.8-0.6"/>
				<path class="st3" d="M46.5,188.7l-16.5,8c0,0-6.2-2.8-6.3-3.4S46.5,188.7,46.5,188.7z"/>
				<path class="st3" d="M14.2,155.7c1.6-2.1,3.5-3.8,5.3-5.8c1.9-1.9,3.2-4.2,3.9-6.7c0.8-3.5-0.3-7.5,1.4-10.6
					c1.3-2.4,3.9-3.7,6.6-3.4c-1.3-1-2.9-1.5-4.5-1.4c-1.6,0-3.2,0.8-4.2,2c-1,1.5-1.7,3.1-1.9,4.9c-0.7,3.6-1.7,7.2-3.1,10.6
					c-1.7,3.9-4.2,7.3-6.2,11c-1.6,3-3.8,7.9-2.7,11.4C10.6,163.6,11.4,159.4,14.2,155.7z"/>
			</g>
		</g>
		<path class="st3" d="M31.9,133c-0.7,0.8-1.3,1.7-1.8,2.6c-0.5,0.8-0.8,1.7-0.9,2.7c-0.2,1.6,0.4,3.2,1.4,4.4
			c1.3,1.5,3.1,2.5,5.1,2.5c2,0,3.9-1,4.9-2.7c1-1.7,0.9-3.9-0.2-5.6c-0.4-0.5-0.9-1-1.5-1.4c-1.3-1.1-2.9-1.9-4.6-2.2
			c-1.8-0.3-3.5,0.6-4.4,2.1"/>
		<polygon class="st4" points="94.5,24.4 52.4,33.5 35.5,48 28.1,60.2 26.2,74.5 28.5,90.7 36,101.7 47.2,112.9 64.1,119.6 
			100.5,107.9 114.6,87.6 117.9,62.6 108.5,38.7 		"/>
		<path class="st5" d="M35.7,136.8c3.1-8.5,9.1-15.6,16.9-20"/>
		<path class="st6" d="M119.1,148.4c6.2-3.2,11.8-7.6,16.4-12.9c9.2-10.1,16.5-22.9,28.7-28.9c3.1-1.6,6.5-2.5,10-2.4
			c3.6,0.1,6.9,1.8,9,4.7c3.4,4.9,1.8,11.6-0.3,17.2c-0.2,0.7-0.8,1.5-1.5,1.3c-0.1-2.2-0.4-4.3-0.9-6.4c-0.5-2.1-1.2-4.3-2.9-5.7
			c-2.7-2.3-6.9-1.5-9.9,0.2c-5.7,3.3-9.2,9.5-11.6,15.8c-2.4,6.2-3.9,12.9-7,18.8c-2,3.7-4.4,7.2-7.1,10.4
			c-4.3,5.3-9,10.4-14.7,14.2s-12.2,4.5-18.9,4c-0.8-0.1-1.9-1.4-2.6-1.9c-0.7-0.5-1.4-1.1-1.9-1.9c-3.1-3.7-5.2-8.2-6.2-12.9
			c-0.7-3.8-1.3-9.5,3.7-10.2c2.8-0.4,5.7,0.1,8.6-0.5C113.2,150.8,116.2,149.8,119.1,148.4z"/>
		<path class="st7" d="M109.9,163.1l12.7,53.8c0,0-23.4,3.8-26.6-2.8c0,0-6.6-12.4-8.1-41.6L109.9,163.1z"/>
		<g>
			<defs>
				<path id="SVGID_3_" d="M109.9,163.1l12.7,53.8c0,0-23.4,3.8-26.6-2.8c0,0-6.6-12.4-8.1-41.6L109.9,163.1z"/>
			</defs>
			<clipPath id="SVGID_4_">
				<use xlink:href="#SVGID_3_"  style="overflow:visible;"/>
			</clipPath>
			<g class="st8">
				<path class="st9" d="M103.5,218.3c-1.4-0.3-2.7-1-3.8-2c-0.8-0.9-1.3-2-1.6-3.2c-4.5-13.8-5.7-28.6-3.4-42.9l-8.4,5.1l1.8,22.4
					l5,17.6l6.8,2.9L103.5,218.3z"/>
				<path class="st10" d="M118.4,191.7c-1.6-2.7-4.3-4.5-7.4-5.1c-2.8-0.4-5.7-0.1-8.4,0.8c-4.7,1.5-9,4-12.7,7.2
					c1.3,1.4,3.1,2.3,5,2.5c5.7,1.1,11.6,0.8,17.2-0.9C114.8,195.6,117,193.9,118.4,191.7z"/>
				<path class="st11" d="M90.5,195.3c3.4-1.8,7-3.3,10.7-4.3c3.9-1.2,8-1.5,12.1-1.1c1.8,0.2,3.6,0.8,5.2,1.8l0,0
					c-1.6-2.7-4.3-4.5-7.4-5.1c-2.8-0.4-5.7-0.1-8.4,0.8c-4.7,1.5-9,4-12.7,7.2C90.1,194.9,90.3,195.1,90.5,195.3z"/>
			</g>
		</g>
		<path class="st7" d="M63.5,167l-7.6,43c0,0-0.6,3.9,21.3,4.7c7.8,0.3,6.9-5.2,6.9-5.2s1.7-15.9-4.7-37.3L63.5,167z"/>
		<g>
			<defs>
				<path id="SVGID_5_" d="M63.5,167l-7.6,43c0,0-0.6,3.9,21.3,4.7c7.8,0.3,6.9-5.2,6.9-5.2s1.7-15.9-4.7-37.3L63.5,167z"/>
			</defs>
			<clipPath id="SVGID_6_">
				<use xlink:href="#SVGID_5_"  style="overflow:visible;"/>
			</clipPath>
			<g class="st12">
				<path class="st9" d="M81.8,208.1c0.1,1.1,0,2.3-0.2,3.4c-0.7,1.7-1.9,3.2-3.6,4c1.8,1,3.9,0.5,5.9,0c1.5-0.2,2.7-1.5,2.8-3
					c1.2-6.1,1.4-12.4,0.6-18.5c-0.8-6.1-1.9-12.3-3.3-18.3c-0.1-0.4-0.2-0.8-0.4-1.1c-0.4-0.5-1-0.8-1.7-0.8
					c-1-0.2-2.8-0.7-3.8-0.4s-0.3,1.6,0,2.6c0.7,2.5,1.3,5.1,1.7,7.7c0.9,5.1,1.4,10.3,1.7,15.5C81.5,202.1,81.6,205.1,81.8,208.1z"
					/>
				<path class="st10" d="M56.4,190.4c1.6-2.7,4.3-4.5,7.4-5.1c2.8-0.4,5.7-0.1,8.4,0.8c4.7,1.5,9,4,12.7,7.2
					c-1.3,1.4-3.1,2.3-5,2.5c-5.7,1.1-11.6,0.8-17.2-0.9C60.1,194.4,57.8,192.7,56.4,190.4z"/>
				<path class="st11" d="M84.6,193.3c-3.4-1.8-7.3-2.5-11-3.6c-3.9-1.2-8-1.5-12.1-1.1c-1.8,0.2-3.6,0.8-5.2,1.8l0,0
					c1.6-2.7,4.3-4.5,7.4-5.1c2.8-0.4,5.7-0.1,8.4,0.8c4.7,1.5,9,4,12.7,7.2C84.7,193.7,84.9,193.1,84.6,193.3z"/>
			</g>
		</g>
		<path class="st13" d="M59.9,161.3c-0.2,2.3-0.4,4.7,0.7,6.7s3.4,3.1,5.4,4.1c6.9,3.2,13.9,6.4,21.4,7.1c3.1-3.6,7-6.4,11.5-8
			c4.5-1.6,8.7-2.3,13.2-0.7l22.8-63.2l-34.8,5.6l-35.1,34.3L59.9,161.3z"/>
		<path class="st14" d="M46.4,58.1c2.3-2.9,5.2-5.3,8.5-7c3.5-2,7.2-3.6,11.1-4.8c4.2-1.3,8.7-2.2,12.8-4c5.2-2.2,10-6,15.6-6.3
			c3.4,0,6.8,1,9.7,2.8c10.7,6,17.2,18,19.2,30.3c0.9,4.7,0.8,9.6-0.3,14.2c-1.4,4.8-3.8,9.2-7.2,12.9c-7.6,8.8-18.2,18.7-29.5,21
			c-8.8,1.8-16.9,1.9-25.5-1.3c-7.8-2.9-14.7-7.8-19.8-14.3c-1.6-1.8-2.7-3.9-3.3-6.3c-0.8-3.8,0.5-8.6,2.7-11.7
			c1.4-2.1,3.1-3.4,3.6-6.1c0.3-2.5,0.4-5.1,0.1-7.6C43.8,65.9,43.8,61.6,46.4,58.1z"/>
		<path class="st15" d="M69.8,79.6c-0.4-1.5,0.4-3,1.9-3.4c1.4-0.4,2.9,0.5,3.3,1.9c0,0,0,0,0,0c0.4,1.5-0.4,3-1.9,3.4
			C71.6,82,70.2,81.1,69.8,79.6C69.8,79.7,69.8,79.6,69.8,79.6z"/>
		<path class="st16" d="M62.6,100.7c-0.1,0.8,0.3,1.6,1,2c0.6,0.4,1.4,0.7,2.1,0.8c3.9,0.7,6.9-0.5,9.8-3.1"/>
		<path class="st6" d="M158.1,41c-2.6-1.6-5.6-2.5-8.7-2.7c-0.9-0.1-1.9-0.1-2.8-0.1c1.8-0.6,3.6-1.4,5.4-2.2
			c2.7-1.3,5.4-2.9,7.1-5.4s2.1-6.1,0.3-8.6c-2.1-2.8-6.1-3-9.5-2.3c-4.7,1-9.1,3.3-12.7,6.6c2.4-4.7,4.4-9.6,5.8-14.7
			c0.8-3,1.5-6.3,0-9c-0.2-0.5-0.6-0.9-1-1.2c-0.8-0.3-1.7-0.2-2.4,0.3c-5.1,2.5-8.3,7.9-10.2,13.3c-2.2,6.4-3,13.2-2.3,20l4.1,1.1
			c0.4-0.6,0.8-1.1,1.2-1.7l3.6,5.7c-1.1,0.4-2.2,0.9-3.3,1.5l1.1,9c1.3,0.5,2.7,0.9,4.1,1.2l0.9,4.9c1.7,3.6,4.4,6.6,7.6,8.9
			c2,1.3,4.2,2.1,6.6,2.3c1.6,0.2,5.4,0.4,5.5-2.1c-0.1-1.5-0.7-3-1.8-4.1c-1.2-1.3-2.5-2.5-4-3.4c-3.3-2.2-6.7-4.1-10.3-5.7
			c3.4,0.4,6.8,0.5,10.1,0.1c2.6-0.3,5.3-0.9,7.3-2.7c0.9-0.8,1.6-1.8,1.9-3C162,44.7,160.2,42.3,158.1,41z"/>
		<path class="st5" d="M143.5,135.9"/>
		<path class="st5" d="M134.4,105.7"/>
		<g>
			<defs>
				<path id="SVGID_7_" d="M59.9,161.3c-0.2,2.3-0.4,4.7,0.7,6.7s3.4,3.1,5.4,4.1c6.9,3.2,13.9,6.4,21.4,7.1c3.1-3.6,7-6.4,11.5-8
					c4.5-1.6,9.4-1.7,14-0.2l23.1-63.5l-36,5.4l-35,34.3L59.9,161.3z"/>
			</defs>
			<clipPath id="SVGID_8_">
				<use xlink:href="#SVGID_7_"  style="overflow:visible;"/>
			</clipPath>
			<g class="st17">
				<path class="st18" d="M94.9,164l11.2-5.6l12.9-38.5c2,1.9,4.5,3,7.2,3.2c2.8,0.2,6.5-1,8.2-3.3c0.2-0.3,0.9-10.1,0.9-10.1
					l-11.8-6.1l-12.1,4.7l-11,19.5L94.9,164z"/>
			</g>
		</g>
		<path class="st19" d="M51.9,56.5c-0.5,0.4-0.9,1-1,1.7c0.1,0.8,0.5,1.6,1.1,2.1c1.1,1.1,2.3,2.1,3.6,3.1c2.2,1.9,4.9,3.1,7.8,3.7
			c2.9,0.5,5.9-0.7,7.6-3.1c1.6-2.4,1.4-5.6,0.4-8.2c-0.5-1.7-1.5-3.1-2.9-4.2C63,47.7,55.8,52.7,51.9,56.5z"/>
		<path class="st15" d="M69.1,66.5c-0.8-3.1,1-6.4,4.1-7.2c3.1-0.8,6.3,1,7.1,4.1c0,0,0,0,0,0.1c0.8,3.1-1,6.4-4.1,7.2
			C73.1,71.5,69.9,69.7,69.1,66.5C69.1,66.5,69.1,66.5,69.1,66.5z"/>
		<g>
			<defs>
				<path id="SVGID_9_" d="M46.4,58.1c2.3-2.9,5.2-5.3,8.5-7c3.5-2,7.2-3.6,11.1-4.8c4.2-1.3,8.7-2.2,12.8-4c5.2-2.2,10-6,15.6-6.3
					c3.4,0,6.8,1,9.7,2.8c10.7,6,17.2,18,19.2,30.3c0.9,4.7,0.8,9.6-0.3,14.2c-1.4,4.8-3.8,9.2-7.2,12.9c-7.6,8.8-18.2,18.7-29.5,21
					c-8.8,1.8-16.9,1.9-25.5-1.3c-7.8-2.9-14.7-7.8-19.8-14.3c-1.6-1.8-2.7-3.9-3.3-6.3c-0.8-3.8,0.5-8.6,2.7-11.7
					c1.4-2.1,3.1-3.4,3.6-6.1c0.3-2.5,0.4-5.1,0.1-7.6C43.8,65.9,43.8,61.6,46.4,58.1z"/>
			</defs>
			<clipPath id="SVGID_10_">
				<use xlink:href="#SVGID_9_"  style="overflow:visible;"/>
			</clipPath>
			<g class="st20">
				<path class="st21" d="M49.2,107.6c7.4,4.3,16.4,4.7,24.8,3.1c6.4-1,12.6-3.4,18-7.1c5.5-3.7,9.5-9.3,11.4-15.6
					c1.9-7.1,0.6-14.8-3-21.2c-3.7-6.3-9-11.5-15.4-15c-5.8-3.3-12.5-5.5-19.2-4.9c-4.3,0.4-8.4,1.9-12.5,3.5
					c7.3-8,16.7-14.5,27.2-16.6s22.4,0.8,29.6,8.9c3.5,4.1,6,9,7.4,14.2c4.5,15.8,1.5,32.8-8,46.2c-7.5,10.4-19.3,17.9-32,18.4
					c-6,0.1-12-0.9-17.7-2.9c-5.2-1.6-10-4-14.4-7.1c-4.4-3.2-7.8-7.7-9.8-12.8c-0.9-2.3-1.1-4.8-0.7-7.3c0.4-1.7,2.6-5.9,3.3-2.5
					c0.5,2.5,0.3,4.9,1.2,7.4C41.4,101,44.8,105,49.2,107.6z"/>
			</g>
		</g>
		<path class="st21" d="M63.1,79.8c0,8.7-6.5,15.4-14.3,14.3S35.7,85,36.5,76.6c0.8-7.9,7-13.4,13.9-12.7S63.1,71.6,63.1,79.8z"/>
		<path class="st22" d="M61.6,78c0,8.4-6.3,14.8-13.9,13.8S35,83,35.9,74.9c0.8-7.6,6.8-12.9,13.5-12.2S61.7,70.1,61.6,78z"/>
		<path class="st15" d="M56.6,74.8c1.7,2.3,1.4,5.5-0.9,7.3c-2.2,1.7-5.4,1.4-7.1-0.8c0,0-0.1-0.1-0.1-0.1c-1.7-2.3-1.4-5.5,0.9-7.3
			c2.2-1.7,5.4-1.4,7.1,0.8C56.6,74.7,56.6,74.7,56.6,74.8z"/>
		<path class="st21" d="M83.7,79.9c-2.9,8.8,1.5,17.7,10,19.3s16.6-4.6,18.5-13.4c1.8-8.2-2.7-15.9-10.1-17.5S86.4,71.7,83.7,79.9z"
			/>
		<path class="st22" d="M85.6,78.6C82.8,87,87,95.6,95,97.1s15.8-4.5,17.6-13c1.8-7.9-2.5-15.3-9.5-16.8S88.2,70.6,85.6,78.6z"/>
		<path class="st15" d="M90.3,77.4c-2.5,1.7-3.2,5.1-1.6,7.6c0,0,0,0,0,0.1c1.7,2.5,5.2,3.2,7.7,1.6c2.5-1.7,3.3-5.1,1.6-7.6
			c0,0,0,0,0-0.1C96.3,76.4,92.9,75.8,90.3,77.4z"/>
		<g class="st23">
			<g>
				<defs>
					<path id="SVGID_11_" d="M119.1,148.4c6.2-3.2,11.8-7.6,16.4-12.9c9.2-10.1,16.5-22.9,28.7-28.9c3.1-1.6,6.5-2.5,10-2.4
						c3.6,0.1,6.9,1.8,9,4.7c3.4,4.9,1.8,11.6-0.3,17.2c-0.2,0.7-0.8,1.5-1.5,1.3c-0.1-2.2-0.4-4.3-0.9-6.4
						c-0.5-2.1-1.2-4.3-2.9-5.7c-2.7-2.3-6.9-1.5-9.9,0.2c-5.7,3.3-9.2,9.5-11.6,15.8c-2.4,6.2-3.9,12.9-7,18.8
						c-2,3.7-4.4,7.2-7.1,10.4c-4.3,5.3-9,10.4-14.7,14.2s-12.4,3.2-19.2,2.6c-0.8,0-1.7-0.2-2.4-0.6c-0.7-0.4-1.3-1-1.8-1.7
						c-3.1-3.7-5.2-8.2-6.2-12.9c-0.7-3.8-1.3-9.5,3.7-10.2c2.8-0.4,5.7,0.1,8.6-0.5C113.2,150.8,116.2,149.8,119.1,148.4z"/>
				</defs>
				<clipPath id="SVGID_12_">
					<use xlink:href="#SVGID_11_"  style="overflow:visible;"/>
				</clipPath>
				<g class="st24">
					<path class="st14" d="M193.5,113.5c-1,1.7-2.3,3.3-3.9,4.5c-1.6,1.2-3.7,1.5-5.6,0.7c-2.2-1-3.2-3.7-4.9-5.4
						c-1.8-1.6-4.1-2.5-6.5-2.4c-2.4,0.1-4.7,0.7-6.8,1.9c-3,1.5-5.7,3.7-7.9,6.3c-2.4,2.8-3.8,6.1-5.5,9.4c-1.4,2.8-1.9,6-4.3,8.2
						c-2,1.9-5.3,2.6-7.6,1c-0.9-0.7-1.6-1.7-2.1-2.8c-1.8-3.9-1.4-8.5,0.1-12.5c2-5,5.6-8.5,8.7-12.7c5.6-7.6,16.3-8.9,25.6-9.5
						c4.1-0.3,8.5,0.1,11.7,2.7c3.1,2.4,4.6,6.3,5.7,10.1c0,0.3,0.2,0.5,0.4,0.7c0.4,0.2,0.9-0.2,1.2-0.5S193.7,113.1,193.5,113.5z"
						/>
				</g>
			</g>
		</g>
		<path class="st9" d="M123.4,217.8c0.3,0,0.5-0.3,0.5-0.5c0,0,0-0.1,0-0.1c-0.6-1.6-1.5-3.1-2.8-4.2c-1.4-1.2-3.1-1.9-4.9-2
			c-2.4-0.1-4.8,0.6-6.9,1.9c-2.2,1.2-4,2.6-4.8,5C110.7,218.1,117.1,218.1,123.4,217.8z"/>
		<path class="st9" d="M54.3,211.9c-0.3-0.1-0.5-0.3-0.4-0.6c0,0,0-0.1,0-0.1c0.8-1.6,2-2.9,3.5-3.8c1.6-0.9,3.5-1.4,5.3-1.3
			c2.5,0.3,5,1.2,7,2.8c2.1,1.5,3.9,3.1,4.5,5.6C67.6,214.1,60.9,213.2,54.3,211.9z"/>
		<g>
			<defs>
				<path id="SVGID_13_" d="M35.7,141.7c-2.8,0-5-2.3-4.9-5.1c0-0.5,0.1-1.1,0.3-1.6c3.5-9.6,10.3-17.6,19.2-22.6
					c2.2-1.6,5.4-1.2,7,1.1c1.6,2.2,1.2,5.4-1.1,7c-0.3,0.3-0.7,0.5-1.1,0.6c-6.8,3.8-12,10-14.7,17.3
					C39.6,140.4,37.7,141.7,35.7,141.7z"/>
			</defs>
			<clipPath id="SVGID_14_">
				<use xlink:href="#SVGID_13_"  style="overflow:visible;"/>
			</clipPath>
			<g class="st25">
				<path class="st26" d="M42.2,136.5c-1.7,1.1-4,0.9-6,0.1c-1.1-0.4-2-1-2.8-1.8c-0.8-0.8-1.3-1.9-1.5-3"/>
				<path class="st26" d="M45.1,131.6c-1.7,1.1-4,0.9-6,0.1c-1.1-0.4-2.1-1-2.9-1.8c-0.8-0.8-1.3-1.9-1.5-3"/>
				<path class="st26" d="M47.4,126.9c-1.8,1-4.1,0.6-6-0.4c-1-0.5-1.9-1.2-2.7-2.1c-0.8-0.9-1.2-2-1.2-3.1"/>
				<path class="st27" d="M50.4,122.4c-1.7,0.8-3.8,0.2-5.6-0.9c-1-0.6-1.8-1.3-2.5-2.2c-0.7-0.9-1.1-2-1.2-3.1"/>
				<path class="st27" d="M52.8,118.3c-1.6,0.6-3.6-0.2-5.2-1.5c-0.9-0.7-1.7-1.5-2.3-2.5c-0.6-0.9-1-2-1-3.2"/>
			</g>
		</g>
		<polygon class="st7" points="55.1,164.6 43,109.8 58.6,119.6 		"/>
		<path class="st7" d="M142.4,60.2c-1.6-10.8-4.7-21.6-10.1-31.1c-2.4-4.3-5-9.2-9.8-10.6c-5.6-1.5-11.4-2.1-17.2-2
			c-12.3,0.1-24.6,1.3-36.3,5c-11,3.3-21.1,9.1-29.5,16.9C19.9,55.6,17.9,85.4,35,105c4.4,5.1,9.9,9.1,16,11.9l4.1,47.6l41,0.7
			l17.1-50.4c6-1.6,11.9-3.6,17.6-6c4.3-1.8,6.1-5.8,7.7-10c2.9-7.5,4.6-15.4,5-23.4C143.6,70.3,143.3,65.2,142.4,60.2z M68,115.8
			c-3.5,0-6.9-0.5-10.2-1.4c-18.2-4.6-30.8-21-30.7-39.8c0-22.6,18-40.9,40.1-40.9c15.6,0.1,29.7,9.2,36.2,23.3
			c2.8,5.7,4.3,12,4.3,18.3C107.7,97.7,89.9,115.8,68,115.8z"/>
		<path class="st28" d="M67.4,30.2c-24.2,0-43.9,20-43.9,44.8s19.7,44.8,43.9,44.8s43.9-20,43.9-44.8S91.7,30.2,67.4,30.2z
			 M67.4,115.3c-21.8,0-39.5-18-39.5-40.3s17.7-40.3,39.5-40.3s39.5,18,39.5,40.3S89.2,115.3,67.4,115.3z"/>
		<g>
			<defs>
				<path id="SVGID_15_" d="M142.4,60.2c-1.6-10.8-4.7-21.6-10.1-31.1c-2.4-4.3-5-9.2-9.8-10.6c-5.6-1.5-11.4-2.1-17.2-2
					c-12.3,0.1-24.6,1.3-36.3,5c-11,3.3-21.1,9.1-29.5,16.9C19.9,55.6,17.9,85.4,35,105c4.4,5.1,9.9,9.1,16,11.9l4.1,47.6l41,0.7
					l17.1-50.4c6-1.6,11.9-3.6,17.6-6c4.3-1.8,6.1-5.8,7.7-10c2.9-7.5,4.6-15.4,5-23.4C143.6,70.3,143.3,65.2,142.4,60.2z M68,115.8
					c-3.5,0-6.9-0.5-10.2-1.4c-18.2-4.6-30.8-21-30.7-39.8c0-22.6,18-40.9,40.1-40.9c15.6,0.1,29.7,9.2,36.2,23.3
					c2.8,5.7,4.3,12,4.3,18.3C107.7,97.7,89.9,115.8,68,115.8z"/>
			</defs>
			<clipPath id="SVGID_16_">
				<use xlink:href="#SVGID_15_"  style="overflow:visible;"/>
			</clipPath>
			<g class="st29">
				<path class="st30" d="M36.5,25.9C53,19.1,71.9,17.7,88.6,24c13.2,5.1,24.2,14.5,31.4,26.7c7.1,12.3,9.9,26.7,8,40.8l21,0.7
					l7.5-32l-16.1-37.6l-22-16L80,7L36.5,25.9z"/>
				<path class="st11" d="M96.4,14.8c7.8-1.4,15.9,0.4,22.5,4.9c6.5,4.5,11.4,12,11.4,20.8c-5.1,3.6-9.8,5.5-15.4,7.7
					C108,37.9,98.5,30.2,88,26.4c-10.5-3.8-22.1-3.7-32.5,0.4c2.1-3.5,5.7-5.5,9.3-7.2c4.4-2.1,9-3.7,13.7-5.1
					c2.9-0.9,6-1.4,9.1-1.6C90.6,13,93.6,13.6,96.4,14.8z"/>
			</g>
		</g>
		<path class="st31" d="M143.9,106.7c-4,9.3-13.3,14.3-20.6,11s-10-13.6-6-22.9s13.3-14.3,20.6-11S147.9,97.4,143.9,106.7z"/>
		<path class="st32" d="M131.8,103.9L142.2,87c-1.1-1.4-2.6-2.5-4.2-3.2c-6.1-2.7-13.4,0.1-18,6.5L131.8,103.9z"/>
		<path class="st10" d="M86.4,160.4l-28.6-0.3c-0.8,0-1.4-0.5-1.5-1.3l-8.5-38c-0.1-0.3,0.1-0.6,0.5-0.7c0.1,0,0.2,0,0.4,0
			c5.9,2.7,12.4,4.1,18.9,4.1c8.2,0,17.8-2,24.3-7.2c0.4-0.3,0.9-0.2,1.2,0.1c0.2,0.2,0.2,0.5,0.2,0.7l-5.3,41.2
			C87.7,159.9,87.1,160.4,86.4,160.4z"/>
		<path class="st13" d="M144.2,106.8c-3.6,8.4-11.9,12.8-18.6,9.9s-9-12.2-5.4-20.6s11.9-12.8,18.6-9.9S147.8,98.4,144.2,106.8z"/>
		<path class="st5" d="M134.4,105.7c2.4,5,8.1,17.6,9.1,30.2"/>
		<path class="st1" d="M139.5,132.6c-2,0.5-3.7,1.6-5.1,3.1c-1.7,2.1-2.5,4.8-2.3,7.5c0.1,4.4,1.4,9,2.1,13.3
			c1.3,8.5,1.8,18.2-3.4,24.9c-1.7,2.2-3.5,1.8-4.5,4.4c-1.1,3-0.1,6.4,1,9.4c0.9,2.4,1.8,4.8,2.9,7.2c0.4,1.3,1.6,2.2,3,2.3
			c1,0.1,2.1-0.3,2.9-1c1.4-1.5,2.2-3.5,2.2-5.6c0.1-1.9-0.1-3.9,0.1-5.8c0.6-0.2,2.1-0.8,2.7-0.4s0.9,2.6,1,3.3
			c0.5,2.8,1.6,4.6,0.2,7.2c-0.8,1.5-4.7,5.2-3.6,7.1c0.6,0.8,1.4,1.4,2.3,1.6c4,1.8,8.1,3.4,12.3,4.6c1.3,0.5,2.7,0.6,4.1,0.5
			c2.4-0.4,4.3-2.2,6-3.9c1.3-1.3,1.8-1.5,2.5-3.2c0.4-0.9,0.6-1.7,0.7-2.7c0.9-6.8,1.6-14.9,1.9-21.8c0.1-3.2-0.5-4.1-1-7.2
			c-0.4-2.3-1-4.6-1.9-6.8c-3.6-9.2-11.2-18.4-12.1-28.4c-0.2-2.2,0-4.5-1-6.5c-1-1.8-2.6-3.1-4.6-3.7c-2-0.5-4-0.6-6-0.2
			C141.1,132.2,140.3,132.4,139.5,132.6z"/>
		<path class="st15" d="M80.4,53.9c-0.4-1.5,0.4-3,1.9-3.4c1.4-0.4,2.9,0.5,3.3,1.9c0,0,0,0,0,0c0.4,1.5-0.4,3-1.9,3.4
			C82.3,56.2,80.8,55.3,80.4,53.9C80.4,53.9,80.4,53.9,80.4,53.9z"/>
		<polygon class="st9" points="96.1,165.2 98.7,164.6 115.8,114.1 113.2,114.8 		"/>
		<path class="st33" d="M139.5,132.6c-2,0.5-3.7,1.6-5.1,3.1c-1.7,2.1-2.5,4.8-2.3,7.5c0.1,4.4,1.4,9,2.1,13.3
			c1.3,8.5,1.8,18.2-3.4,24.9c-1.7,2.2-3.5,1.8-4.5,4.4c-1.1,3-0.1,6.4,1,9.4c0.9,2.4,1.8,4.8,2.9,7.2c0.4,1.3,1.6,2.2,3,2.3
			c1,0.1,2.1-0.3,2.9-1c1.4-1.5,2.2-3.5,2.2-5.6c0.1-1.9-0.1-3.9,0.1-5.8c0.6-0.2,2.1-0.8,2.7-0.4s0.9,2.6,1,3.3
			c0.5,2.8,0.9,6.6-0.5,9.2c-0.8,1.5-4,3.3-2.9,5.2c0.6,0.8,1.4,1.4,2.3,1.6c4.3,2,8.8,3.6,13.4,4.9c1,0.3,2.1,0.3,3.2,0.2
			c2.3-0.4,3.9-1.7,5.5-3.4c1.2-1,2.1-2.3,2.8-3.7c0.4-0.9,0.6-1.8,0.8-2.8c0.9-6.7,1.6-14.9,1.9-21.8c0.1-3.2-0.5-4.1-1-7.2
			c-0.4-2.3-1-4.6-1.9-6.8c-3.6-9.2-11.2-18.4-12.1-28.4c-0.2-2.2,0-4.5-1-6.5c-1-1.8-2.6-3.1-4.6-3.7c-2-0.5-4-0.6-6-0.2
			C141.1,132.2,140.3,132.4,139.5,132.6z"/>
		<g>
			<defs>
				<path id="SVGID_17_" d="M139.5,132.6c-2,0.5-3.7,1.6-5.1,3.1c-1.7,2.1-2.5,4.8-2.3,7.5c0.1,4.4,1.4,9,2.1,13.3
					c1.3,8.5,1.8,18.2-3.4,24.9c-1.7,2.2-3.5,1.8-4.5,4.4c-1.1,3-0.1,6.4,1,9.4c0.9,2.4,1.8,4.8,2.9,7.2c0.4,1.3,1.6,2.2,3,2.3
					c1,0.1,2.1-0.3,2.9-1c1.4-1.5,2.2-3.5,2.2-5.6c0.1-1.9-0.1-3.9,0.1-5.8c0.6-0.2,2.1-0.8,2.7-0.4s0.9,2.6,1,3.3
					c0.5,2.8,1.6,4.6,0.2,7.2c-0.8,1.5-4.7,5.2-3.6,7.1c0.6,0.8,1.4,1.4,2.3,1.6c4,1.8,8.1,3.4,12.3,4.6c1.3,0.5,2.7,0.6,4.1,0.5
					c2.4-0.4,4.3-2.2,6-3.9c1.3-1.3,1.8-1.5,2.5-3.2c0.4-0.9,0.6-1.7,0.7-2.7c0.9-6.8,1.6-14.9,1.9-21.8c0.1-3.2-0.5-4.1-1-7.2
					c-0.4-2.3-1-4.6-1.9-6.8c-3.6-9.2-11.2-18.4-12.1-28.4c-0.2-2.2,0-4.5-1-6.5c-1-1.8-2.6-3.1-4.6-3.7c-2-0.5-4-0.6-6-0.2
					C141.1,132.2,140.3,132.4,139.5,132.6z"/>
			</defs>
			<clipPath id="SVGID_18_">
				<use xlink:href="#SVGID_17_"  style="overflow:visible;"/>
			</clipPath>
			<g class="st34">
				<path class="st3" d="M134.7,138c-0.5,2.4-0.4,4.9,0.1,7.3c1,5.3,3.1,10.3,4.1,15.6c0.5,2.4,0.4,4.2,0.9,6.6
					c0.5,2.8,0.2,5.8-0.8,8.4c-1.2,2.8-3.9,5.4-6.1,7.4s-4.2,1-6.9,1.5c-0.6,0.1-1.6,2.5-2.2,2.3c-0.6-0.2-1-0.6-1.1-1.2
					c0-0.4,0.2-0.9,0.4-1.2c0.8-1.5,1.7-3.1,2.6-4.6c0.8-1.1,1.6-2.3,2.3-3.4c3.1-6.3,2.9-13.8,1.2-20.7c-0.7-3-1.8-6-1.9-9.1
					c0-3.4,0.6-6.7,1.9-9.8c0.4-2.2,2.3-3.8,4.5-3.8c1.1-0.2,3.1-0.9,3.9,0C136.4,134.4,134.7,136.2,134.7,138z"/>
				<path class="st3" d="M140.9,200.6c5.8,2.8,11.8,5.2,17.9,7.1c3,1,6,2,9.1,2.8c-0.7,0.9-1.4,1.6-2.3,2.3c-1.3,1-2.7,1.8-4.2,2.4
					c-3.1,1.3-6.6,2.6-10.1,2c-1.9-0.5-3.8-1.3-5.6-2.2c-2.9-1.3-5.9-2.2-8.4-4c-0.3-0.2-0.6-0.5-0.8-0.9c-0.2-0.7-0.1-1.5,0.4-2.2
					C138.2,205.4,139.5,203,140.9,200.6z"/>
			</g>
		</g>
		<g>
			<defs>
				<path id="SVGID_19_" d="M143.5,140.9c-2.6,0-4.7-2-4.9-4.6c-0.9-11-5.8-22.5-8.6-28.3c-1.2-2.5-0.2-5.4,2.2-6.7
					c2.4-1.2,5.3-0.2,6.5,2.2c0,0,0,0.1,0,0.1c3.2,6.5,8.6,19.3,9.6,32c0.2,2.7-1.8,5.1-4.5,5.4L143.5,140.9z"/>
			</defs>
			<clipPath id="SVGID_20_">
				<use xlink:href="#SVGID_19_"  style="overflow:visible;"/>
			</clipPath>
			<g class="st35">
				<path class="st26" d="M130.6,110.9c0.2-2,1.9-3.7,3.8-4.7c1-0.6,2.1-0.9,3.2-1c1.1-0.1,2.3,0.2,3.2,0.8"/>
				<path class="st26" d="M132.4,116.2c0.2-2,1.9-3.7,3.8-4.7c1-0.6,2.1-0.9,3.2-1c1.1-0.1,2.3,0.2,3.2,0.8"/>
				<path class="st26" d="M134.5,121c0.4-2,2.2-3.5,4.2-4.3c1-0.5,2.2-0.7,3.3-0.7c1.2,0,2.3,0.4,3.2,1.1"/>
				<path class="st27" d="M136,126.2c0.5-1.8,2.3-3.1,4.3-3.7c1.1-0.4,2.2-0.5,3.3-0.5c1.1,0,2.2,0.4,3.1,1.1"/>
				<path class="st27" d="M137.6,130.7c0.6-1.6,2.5-2.6,4.5-3c1.1-0.2,2.2-0.3,3.3-0.1c1.1,0.1,2.1,0.6,3,1.3"/>
			</g>
		</g>
		<path class="st36" d="M55.4,148.1l-5-24.5c5.1,2.3,13.9,3.6,19.4,3.2L55.4,148.1z"/>
		<g>
			<defs>
				<path id="SVGID_21_" d="M158.1,41c-2.6-1.6-5.6-2.5-8.7-2.7c-0.9-0.1-1.9-0.1-2.8-0.1c1.8-0.6,3.6-1.4,5.4-2.2
					c2.7-1.3,5.4-2.9,7.1-5.4s2.1-6.1,0.3-8.6c-2.1-2.8-6.1-3-9.5-2.3c-4.7,1-9.1,3.3-12.7,6.6c2.4-4.7,4.4-9.6,5.8-14.7
					c0.8-3,1.5-6.3,0-9c-0.2-0.5-0.6-0.9-1-1.2c-0.8-0.3-1.7-0.2-2.4,0.3c-5.1,2.5-8.3,7.9-10.2,13.3c-2.2,6.4-3,13.2-2.3,20
					l4.1,1.1c0.4-0.6,0.8-1.1,1.2-1.7l3.6,5.7c-1.1,0.4-2.2,0.9-3.3,1.5l1.1,9c1.3,0.5,2.7,0.9,4.1,1.2l0.9,4.9
					c1.7,3.6,4.4,6.6,7.6,8.9c2,1.3,4.2,2.1,6.6,2.3c1.6,0.2,5.4,0.4,5.5-2.1c-0.1-1.5-0.7-3-1.8-4.1c-1.2-1.3-2.5-2.5-4-3.4
					c-3.3-2.2-6.7-4.1-10.3-5.7c3.4,0.4,6.8,0.5,10.1,0.1c2.6-0.3,5.3-0.9,7.3-2.7c0.9-0.8,1.6-1.8,1.9-3
					C162,44.7,160.2,42.3,158.1,41z"/>
			</defs>
			<clipPath id="SVGID_22_">
				<use xlink:href="#SVGID_21_"  style="overflow:visible;"/>
			</clipPath>
			<g class="st37">
				<path class="st38" d="M131.5,9.1c-1.1,2-1.8,4.3-2.1,6.5c-0.3,2.3,0.4,4.6,1.8,6.5c0.4,0.5,1,1,1.6,1.2c1.6,0.7,3.4,0,4.8-0.9
					c2.2-1.5,4-3.5,5.2-5.8c1.2-2.3,2.1-4.8,2.7-7.4c0.3-1.2,0.5-2.4,0.7-3.6c0.2-0.9,0.1-1.8-0.1-2.7c-0.6-1.7-2.2-2.8-4-2.9
					c-2.1,0-4.1,0.7-5.9,1.9C134.1,3.7,132.6,6.6,131.5,9.1z"/>
				<path class="st38" d="M153,17.2c-1.2-0.1-2.4,0.1-3.5,0.6c-3,1.1-5.7,3-7.9,5.4c-1.1,1-1.8,2.4-2,3.9c0,1.7,0.7,3.2,2.1,4.2
					c1.3,0.9,2.9,1.5,4.5,1.6c4.5,0.5,9-1,13-3.2c1.3-0.6,2.4-1.5,3.4-2.5c1-1.1,1.6-2.4,1.6-3.9c0-2.6-2.4-4.8-5-5.4
					s-5.2,0-7.7,0.6"/>
				<path class="st38" d="M147.2,38.8c-1.3,0.7-2.2,2-2.6,3.5c-0.2,2,0.6,3.9,2.2,5.1c2.2,1.8,4.9,2.8,7.8,2.8
					c2.1,0.1,4.2,0,6.2-0.4c2.4-0.5,4.9-1.6,5.8-3.9s-0.5-5.2-2.6-6.6s-5-1.5-7.6-1.6C153.3,37.6,150,37.1,147.2,38.8z"/>
				<path class="st38" d="M152.2,56.5c-1-0.4-2.1-0.7-3.2-0.7c-2-0.2-3.8,1.3-3.9,3.3c0,0.5,0,1.1,0.2,1.6c0.4,1.3,1.1,2.4,2.1,3.3
					c1.7,1.6,3.7,2.8,6,3.3c1.1,0.3,2.3,0.4,3.4,0.1c1.1-0.3,2-1.2,2.3-2.2c0.2-0.7,0.1-1.3-0.1-2c-0.4-1.6-1.5-3.1-2.9-4
					c-0.6-0.4-1-1-1.6-1.4C153.9,57.2,153.1,56.8,152.2,56.5z"/>
			</g>
		</g>
		<path class="st22" d="M144.2,57.3c1.6,6.6-2.4,13.3-9.1,15c-6.6,1.6-13.2-2.5-14.7-9.1c0,0,0-0.1,0-0.1c-1.6-6.6,2.4-13.3,9.1-15
			c6.6-1.6,13.2,2.5,14.7,9.1C144.1,57.2,144.2,57.3,144.2,57.3z"/>
		<path class="st1" d="M141.2,58c1.2,5-1.8,10-6.8,11.3c-4.9,1.2-9.9-1.9-11.1-6.8c0,0,0-0.1,0-0.1c-1.2-5,1.8-10,6.8-11.3
			c4.9-1.2,9.9,1.9,11.1,6.8C141.2,57.9,141.2,58,141.2,58z"/>
		<path class="st39" d="M137.8,58.9c0.7,3.1-1.1,6.1-4.2,6.9c-3,0.7-6-1.2-6.8-4.2c0,0,0,0,0-0.1c-0.7-3.1,1.1-6.1,4.2-6.9
			C134,53.9,137,55.8,137.8,58.9C137.7,58.8,137.7,58.9,137.8,58.9z"/>
		<path class="st40" d="M132.6,56.8c0.4,1.7-0.6,3.5-2.4,3.9c-1.7,0.4-3.4-0.7-3.9-2.4c0,0,0,0,0,0c-0.4-1.7,0.6-3.5,2.4-3.9
			C130.5,54,132.2,55.1,132.6,56.8C132.6,56.8,132.6,56.8,132.6,56.8z"/>
		
			<linearGradient id="SVGID_23_" gradientUnits="userSpaceOnUse" x1="33.0701" y1="172.5202" x2="95.1551" y2="122.6962" gradientTransform="matrix(1 0 0 -1 0 220)">
			<stop  offset="0" style="stop-color:#FFFFFF;stop-opacity:0.7"/>
			<stop  offset="0.64" style="stop-color:#FFFFFF;stop-opacity:0"/>
		</linearGradient>
		<ellipse class="st41" cx="67.4" cy="75" rx="39.5" ry="40.3"/>
		<path class="st42" d="M53.1,42c4.8-2.5,10.8-0.6,13.3,4.2c0,0.1,0.1,0.1,0.1,0.2c2.5,4.9,0.6,11-4.3,13.6
			c-4.8,2.5-10.8,0.6-13.3-4.2c0-0.1-0.1-0.1-0.1-0.2C46.3,50.7,48.2,44.6,53.1,42z"/>
		<path class="st42" d="M46.3,63.5c-1,2.2-3.7,3.1-5.8,2c0,0-0.1,0-0.1,0c-2.2-1.1-3.1-3.8-2-6c1-2.2,3.7-3.1,5.8-2c0,0,0.1,0,0.1,0
			C46.5,58.6,47.4,61.3,46.3,63.5z"/>
		<path class="st3" d="M163.8,172.9c-1-2.3-2.2-4.6-3.4-6.8c-0.6-1.3-1.3-3.3-2.5-3.5c-0.2,0.4-0.4,0.9-0.6,1.4
			c-0.8,2.5-1.1,5.1-1,7.7c0.3,4.5,2.9,6.3,4.1,10.6c2.1,7.6,1.4,15.7,0.7,23.6c1,0.4,1.8,0.6,2.8,0.9c0.8-8.1,1.6-16.3,1.8-24.5
			C165.8,178.3,165.2,176.6,163.8,172.9z"/>
		<path class="st43" d="M135.6,140c0-1,0.1-1.9,0.5-2.8c0.6-1.2,1.6-2.1,2.9-2.6c1.2-0.5,2.5-0.7,3.9-0.7c0.5,0,1.1,0,1.3,0.5
			c0.1,0.3,0.1,0.5,0,0.8c-0.5,2.4-2.2,4.4-3,6.7c-1.1,3.4,0.2,8-2,10.9c-1.4-0.6-2.3-4.5-2.6-5.9
			C135.9,144.6,135.6,142.3,135.6,140z"/>
	</g>
</g>
</svg>
