<svg xmlns="http://www.w3.org/2000/svg" xmlns:xlink="http://www.w3.org/1999/xlink" viewBox="0 0 141.82 180.61"><defs><style>.cls-1,.cls-12{fill:none;}.cls-2{fill:#96d2e2;}.cls-3{fill:#fbb900;}.cls-4{fill:#db9c00;opacity:0.6;}.cls-5{opacity:0.1;}.cls-6{clip-path:url(#clip-path);}.cls-7{fill:#8e3f20;}.cls-8{fill:#f58a1f;}.cls-9{fill:#ee4323;}.cls-10{fill:#e55d1a;opacity:0.44;}.cls-11{clip-path:url(#clip-path-2);}.cls-12{stroke:#6d4716;stroke-linecap:round;stroke-miterlimit:10;stroke-width:2.73px;}.cls-13{fill:#e2701a;}.cls-14,.cls-17{fill:#fff;}.cls-15{fill:#5c3c99;}.cls-16{fill:#fff98a;opacity:0.18;}.cls-17{opacity:0.62;}.cls-18{opacity:0.65;fill:url(#linear-gradient);}.cls-19{opacity:0.08;}</style><clipPath id="clip-path"><path class="cls-1" d="M33.42,137.93a15.46,15.46,0,0,0-15.3,5.63c-1,1.37-1.87,3.15-1.33,4.79a5.25,5.25,0,0,0,3.13,2.89,18.69,18.69,0,0,0,10.21.8,36.82,36.82,0,0,0,13-4.69,16.37,16.37,0,0,0-2.31,4.46,5.53,5.53,0,0,0,.68,4.82,6.48,6.48,0,0,0,2.71,1.88A15.57,15.57,0,0,0,59,156.91,30.61,30.61,0,0,0,64,152l2.83-3.2a10,10,0,0,0,2.54,10.55,10.34,10.34,0,0,0,17.49-7c-.54,2.9,2.55,6.17,5.23,7.42a23.5,23.5,0,0,0,8.69,2.56c2.41.27,6.51-.29,8.47-1.72,3.24-2.37,3.1-7.41,1.24-11a12.22,12.22,0,0,0,11.19,4.27,7.11,7.11,0,0,0,4.72-2.57c1.59-2.21,1.06-5.45-.65-7.57a13.28,13.28,0,0,0-7-4c-2.62-.73-5.35-1.09-7.92-2-3.36-1.17-6.36-3.22-9.68-4.5-7.11-2.76-15-1.86-22.6-.93C63.46,134.22,48.35,141.23,33.42,137.93Z"/></clipPath><clipPath id="clip-path-2"><path class="cls-1" d="M113.57,131.74a65.84,65.84,0,0,0,8.13-32c0-23.76-12.05-44.21-29.39-53.49l.83-6a11,11,0,0,0,.1-3.67,3.74,3.74,0,0,0-2.12-2.83c-1.51-.58-3.22.28-4.34,1.45a8.36,8.36,0,0,0-2.28,5.7c-1-7.8,0-15.72-.38-23.58-.13-2.46-.63-5.29-2.77-6.5a4.88,4.88,0,0,0-4.14-.14,9.06,9.06,0,0,0-3.38,2.56A27,27,0,0,0,69,22.6c-1.74,5.2-3,10.78-1.86,16.15-1-2.63-2.14-5.35-4.23-7.24s-5.48-2.67-7.74-1a7.42,7.42,0,0,0-1.84,2.21,15.85,15.85,0,0,0-1.94,11.9,6.71,6.71,0,0,0,.33,1c-18,9-30.55,29.82-30.55,54.11a65.31,65.31,0,0,0,9.94,35.08,26.13,26.13,0,0,0-2.6,2.69c-1.11,1.32-2.12,3-1.79,4.66a4.39,4.39,0,0,0,2.92,3.07,10.71,10.71,0,0,0,4.38.39,40.74,40.74,0,0,0,12.87-3c-2.14,2.16-1.37,6.09.92,8.09s5.55,2.46,8.59,2.34a28.91,28.91,0,0,0,20.15-9.49,4.87,4.87,0,0,0,1.36,3.46A12.52,12.52,0,0,0,100,140.23c2,3.72,6.22,5.7,10.38,6.32,2.91.44,6.23.2,8.28-1.92s2.16-5.58.76-8.13A11,11,0,0,0,113.57,131.74Z"/></clipPath><linearGradient id="linear-gradient" x1="43.12" y1="18.61" x2="98.36" y2="120.08" gradientUnits="userSpaceOnUse"><stop offset="0" stop-color="#fff" stop-opacity="0.7"/><stop offset="0.64" stop-color="#fff" stop-opacity="0"/></linearGradient></defs><title>ziggy_2</title><g id="Layer_2" data-name="Layer 2"><g id="Layer_1-2" data-name="Layer 1"><circle class="cls-2" cx="70.91" cy="70.91" r="70.91"/><path class="cls-3" d="M33.42,137.93a15.46,15.46,0,0,0-15.3,5.63c-1,1.37-1.87,3.15-1.33,4.79a5.25,5.25,0,0,0,3.13,2.89,18.69,18.69,0,0,0,10.21.8,36.82,36.82,0,0,0,13-4.69,16.37,16.37,0,0,0-2.31,4.46,5.53,5.53,0,0,0,.68,4.82,6.48,6.48,0,0,0,2.71,1.88A15.57,15.57,0,0,0,59,156.91,30.61,30.61,0,0,0,64,152l2.83-3.2a10,10,0,0,0,2.54,10.55,10.34,10.34,0,0,0,17.49-7c-.54,2.9,2.55,6.17,5.23,7.42a23.5,23.5,0,0,0,8.69,2.56c2.41.27,6.51-.29,8.47-1.72,3.24-2.37,3.1-7.41,1.24-11a12.22,12.22,0,0,0,11.19,4.27,7.11,7.11,0,0,0,4.72-2.57c1.59-2.21,1.06-5.45-.65-7.57a13.28,13.28,0,0,0-7-4c-2.62-.73-5.35-1.09-7.92-2-3.36-1.17-6.36-3.22-9.68-4.5-7.11-2.76-15-1.86-22.6-.93C63.46,134.22,48.35,141.23,33.42,137.93Z"/><path class="cls-4" d="M63.63,149.42c-1.07,0-1.88.9-2.57,1.71a23.1,23.1,0,0,1-7.65,6,17.52,17.52,0,0,1-4.49,1.42c-.8.14-2.86-.12-3.81.25A15.6,15.6,0,0,0,59,156.91,30.61,30.61,0,0,0,64,152l1.27-1.43A2.08,2.08,0,0,0,63.63,149.42Z"/><path class="cls-4" d="M102.38,161.86a16.3,16.3,0,0,1-10.1-3.93c-2.69-2.52-4.18-6.44-3-9.94a16.6,16.6,0,0,1-3.28-.11,38.3,38.3,0,0,1-.31,6.48,14.14,14.14,0,0,1-1.46,4.48,10.58,10.58,0,0,0,2.65-5.8c0,2.72,2.81,5.59,5.28,6.75a23.5,23.5,0,0,0,8.69,2.56,16.38,16.38,0,0,0,6.89-.91A17.23,17.23,0,0,1,102.38,161.86Z"/><path class="cls-4" d="M67.77,157.3a14.61,14.61,0,0,1-.63-3.21,11,11,0,0,1,1.5-6.62,4.41,4.41,0,0,0-2,1.63l.25-.28A9.88,9.88,0,0,0,67.77,157.3Z"/><path class="cls-4" d="M121.72,153.92c3.73-.75,3.53-1.54,4.6-2.46a11.86,11.86,0,0,1-2.08,1,9.65,9.65,0,0,1-3.42.58,11.91,11.91,0,0,1-3.65-.65,14.52,14.52,0,0,1-3.44-1.85c-2.42-1.7-4-3.12-4.23-6.08l-2.81.54a11.13,11.13,0,0,1,2.78,3.09c.4.57.79,1.15,1.17,1.74A11.86,11.86,0,0,0,121.72,153.92Z"/><path class="cls-4" d="M46.76,141.53a.82.82,0,0,0-.58.33A33.27,33.27,0,0,1,22,151.51a11.07,11.07,0,0,1-1.74-.15,19,19,0,0,0,9.91.69,36.82,36.82,0,0,0,13-4.66,37,37,0,0,1,3.52-4.4,1.72,1.72,0,0,0,.52-.75A.56.56,0,0,0,46.76,141.53Z"/><g class="cls-5"><g class="cls-6"><path class="cls-7" d="M29.11,136.75c-1.66,1.72-3.44,3.75-3.24,6.13a5.38,5.38,0,0,0,3,4.1,11.11,11.11,0,0,0,5.17,1,24.49,24.49,0,0,0,10-2.22,1.31,1.31,0,0,0,.57-.41,4.39,4.39,0,0,0,.58,4.17,9.15,9.15,0,0,0,3.47,2.92,20.69,20.69,0,0,0,14.68,1.41,33.3,33.3,0,0,0,13.13-7.17A9.33,9.33,0,0,0,81.21,152a15.08,15.08,0,0,0,13.32.12,11.36,11.36,0,0,0,3.5-2.58,11.63,11.63,0,0,0,2.69-6.84,6.09,6.09,0,0,0,2.63,3.51,14.72,14.72,0,0,0,9.18,2.81,8.71,8.71,0,0,0,6.43-2.89,8.51,8.51,0,0,0,1.67-4.82,25.37,25.37,0,0,0-.39-5.16l-17-8-16.11,9.21-30.86-4.69-25.49-.85Z"/></g></g><path class="cls-8" d="M113.57,131.74a65.84,65.84,0,0,0,8.13-32c0-23.76-12.05-44.21-29.39-53.49l.83-6a11,11,0,0,0,.1-3.67,3.74,3.74,0,0,0-2.12-2.83c-1.51-.58-3.22.28-4.34,1.45a8.36,8.36,0,0,0-2.28,5.7c-1-7.8,0-15.72-.38-23.58-.13-2.46-.63-5.29-2.77-6.5a4.88,4.88,0,0,0-4.14-.14,9.06,9.06,0,0,0-3.38,2.56A27,27,0,0,0,69,22.6c-1.74,5.2-3,10.78-1.86,16.15-1-2.63-2.14-5.35-4.23-7.24s-5.48-2.67-7.74-1a7.42,7.42,0,0,0-1.84,2.21,15.85,15.85,0,0,0-1.94,11.9,6.71,6.71,0,0,0,.33,1c-18,9-30.55,29.82-30.55,54.11a65.31,65.31,0,0,0,9.94,35.08,26.13,26.13,0,0,0-2.6,2.69c-1.11,1.32-2.12,3-1.79,4.66a4.39,4.39,0,0,0,2.92,3.07,10.71,10.71,0,0,0,4.38.39,40.74,40.74,0,0,0,12.87-3c-2.14,2.16-1.37,6.09.92,8.09s5.55,2.46,8.59,2.34a28.91,28.91,0,0,0,20.15-9.49,4.87,4.87,0,0,0,1.36,3.46A12.52,12.52,0,0,0,100,140.23c2,3.72,6.22,5.7,10.38,6.32,2.91.44,6.23.2,8.28-1.92s2.16-5.58.76-8.13A11,11,0,0,0,113.57,131.74Z"/><ellipse class="cls-9" cx="102.32" cy="68.23" rx="3.39" ry="3.91" transform="translate(-15.42 103.76) rotate(-50.49)"/><ellipse class="cls-9" cx="91.78" cy="58.31" rx="4.66" ry="5.29" transform="translate(-7 103.77) rotate(-57.14)"/><ellipse class="cls-9" cx="90.04" cy="73.42" rx="2.48" ry="2.57" transform="translate(-5.48 139.56) rotate(-73.89)"/><path class="cls-10" d="M119.41,136.5a11,11,0,0,0-5.83-4.76,64.06,64.06,0,0,0,6.58-17.67,44,44,0,0,1-18.69,16.49c-12.6,5.91-27.09,6.48-40.93,5-10.42-1.08-21.23-3.47-29.17-10.3a33.65,33.65,0,0,1-9-12.76,63.62,63.62,0,0,0,8.72,22.24,26.13,26.13,0,0,0-2.6,2.69c-1.11,1.32-2.12,3-1.79,4.66a4.39,4.39,0,0,0,2.92,3.07,10.71,10.71,0,0,0,4.38.39,40.74,40.74,0,0,0,12.87-3c-2.14,2.16-1.37,6.09.92,8.09s5.55,2.46,8.59,2.34a28.91,28.91,0,0,0,20.15-9.49,4.87,4.87,0,0,0,1.36,3.46A12.52,12.52,0,0,0,100,140.23c2,3.72,6.22,5.7,10.38,6.32,2.91.44,6.23.2,8.28-1.92S120.8,139.06,119.41,136.5Z"/><path class="cls-8" d="M49.84,141.58a5.61,5.61,0,0,0,.44,5.29c1.36,1.82,4.56,2.73,7.32,2.6a34.06,34.06,0,0,0,9-2A30,30,0,0,0,78.42,140c1.28-1.31,2.33-2.95,2-4.47a4.09,4.09,0,0,0-2.79-2.65,14.8,14.8,0,0,0-4.49-.68,34.82,34.82,0,0,0-14.46,2.17c-4.55,1.88-8.47,5.37-9.39,9.34"/><path class="cls-8" d="M41.11,129.45a26.8,26.8,0,0,0-10,5.77c-1.64,1.56-2.93,3.67-1.59,5.36a6.19,6.19,0,0,0,3.65,1.8,20.82,20.82,0,0,0,6.78-.13,52.06,52.06,0,0,0,12.7-3.48c2.28-1,4.51-2.21,5.44-4,1.22-2.31-.47-5.16-3.68-6.22A14.71,14.71,0,0,0,50,128a25.58,25.58,0,0,0-11.95,2.69"/><path class="cls-8" d="M92.09,130.89a22.22,22.22,0,0,0-9.2,2.78A13.35,13.35,0,0,0,79,136.75a5.9,5.9,0,0,0-1.34,2.68,5.27,5.27,0,0,0,1.17,4.11,8.12,8.12,0,0,0,3.4,2.35,13.08,13.08,0,0,0,12-1.35A10.09,10.09,0,0,0,98,140.19a7,7,0,0,0-.1-5.84,6,6,0,0,0-3.39-2.77,9.88,9.88,0,0,0-4.29-.33Z"/><path class="cls-8" d="M96.53,135.77c.84,2.19,3.19,3.88,5.78,5a26,26,0,0,0,10.39,2.14c2.16,0,4.55-.35,5.84-1.67a3.58,3.58,0,0,0,1-2.07,6.27,6.27,0,0,0-2.34-5.26,17.43,17.43,0,0,0-6-3.31,19.74,19.74,0,0,0-11.2-.71A4.37,4.37,0,0,0,96.53,135.77Z"/><path class="cls-12" d="M66.36,107c.52,2.44,3.26,3.72,5.74,4,3,.34,6.49-.51,8.06-3.12"/><circle class="cls-13" cx="41.5" cy="96.65" r="15.26"/><circle class="cls-14" cx="41.4" cy="95.24" r="14.04"/><circle class="cls-15" cx="44.6" cy="95.31" r="5.89"/><circle class="cls-13" cx="103.98" cy="95.12" r="15.26"/><circle class="cls-14" cx="104.25" cy="93.88" r="14.04"/><circle class="cls-15" cx="101.04" cy="93.94" r="5.89"/><path class="cls-16" d="M78.86,14.62a6.66,6.66,0,0,0-2.65,2.66,7.36,7.36,0,0,0-.92,3.95,3.4,3.4,0,0,0,1.21,2.66,4.63,4.63,0,0,0,4,.7,3.24,3.24,0,0,0,1.71-1.44,6.36,6.36,0,0,0,.3-6.59,3.2,3.2,0,0,0-3.15-1.84,3.58,3.58,0,0,0-2.68,1.72"/><path class="cls-16" d="M62.33,33a2,2,0,0,0-2.46-.13A2.8,2.8,0,0,0,59,35.33a5,5,0,0,0,.84,2.58A3.48,3.48,0,0,0,61,39.09a1.92,1.92,0,0,0,1.63.15,2.28,2.28,0,0,0,1.19-1.44A4.43,4.43,0,0,0,62.33,33Z"/><path class="cls-16" d="M38,59.86a12.2,12.2,0,0,0-2.81,7.65A6.43,6.43,0,0,0,39,73.44a10.78,10.78,0,0,0,7.39,0A18.71,18.71,0,0,0,58.43,61.32c.66-2.14,1.07-4.55.2-6.61C54.37,44.57,40.5,56.39,38,59.86Z"/><path class="cls-10" d="M56.86,32a6,6,0,0,1,4.51-1.52,5.87,5.87,0,0,0-6.24.05,7.42,7.42,0,0,0-1.84,2.21,15.85,15.85,0,0,0-1.94,11.9,6.71,6.71,0,0,0,.33,1,52.6,52.6,0,0,0-20.55,19c1.13-1.07,2.13-3.07,3-4.12A53.7,53.7,0,0,1,48.58,48.25c.5-.29,6.14-3.23,6.22-3.06a13.49,13.49,0,0,1-.37-8.34A9.43,9.43,0,0,1,56.86,32Z"/><path class="cls-10" d="M78.53,10.87a9.13,9.13,0,0,1,1-.58,5.42,5.42,0,0,0-2.3.36,9.06,9.06,0,0,0-3.38,2.56A27,27,0,0,0,69,22.6c-1.74,5.2-3,10.78-1.86,16.15l0-.09A22.77,22.77,0,0,0,68.57,42a1.1,1.1,0,0,0,.55.57c.66.21,1-.74,1-1.43.16-5.46-.24-11,.64-16.36S74,14,78.53,10.87Z"/><path class="cls-10" d="M88.83,35.32a13,13,0,0,1,1.72-1.75,4.57,4.57,0,0,0-3.78,1.6,8.36,8.36,0,0,0-2.28,5.7c-.21-1.67-.32-3.34-.38-5a40,40,0,0,0,0,4.47,8.88,8.88,0,0,0,.47,2.86,3.4,3.4,0,0,0,1.94,2,.58.58,0,0,0,.43,0,.59.59,0,0,0,.26-.33,8,8,0,0,0,.17-3.43,12.58,12.58,0,0,1,.38-3.77A7,7,0,0,1,88.83,35.32Z"/><circle class="cls-17" cx="45.82" cy="35.15" r="15.38"/><circle class="cls-17" cx="23.31" cy="49.2" r="5.38"/><circle class="cls-18" cx="71.59" cy="70.91" r="63.68"/><ellipse class="cls-19" cx="70.91" cy="173.11" rx="50.5" ry="7.5"/></g></g></svg>