<?xml version="1.0" encoding="utf-8"?>
<!-- Generator: Adobe Illustrator 21.0.0, SVG Export Plug-In . SVG Version: 6.00 Build 0)  -->
<svg version="1.1" id="Layer_1" xmlns="http://www.w3.org/2000/svg" xmlns:xlink="http://www.w3.org/1999/xlink" x="0px" y="0px"
	 viewBox="0 0 133.8 192.4" style="enable-background:new 0 0 133.8 192.4;" xml:space="preserve">
<style type="text/css">
	.st0{opacity:8.000000e-02;enable-background:new    ;}
	.st1{fill:#C7C6DB;}
	.st2{clip-path:url(#SVGID_2_);}
	.st3{opacity:0.48;fill:#AEAECC;enable-background:new    ;}
	.st4{fill:#96D2E2;}
	.st5{fill:#0E5A72;stroke:#FFFFFF;stroke-width:5.41;}
	.st6{opacity:0.65;fill:#D0D0EA;enable-background:new    ;}
	.st7{fill:#8066D3;}
	.st8{clip-path:url(#SVGID_4_);}
	.st9{fill:#FBB900;}
	.st10{opacity:7.000000e-02;enable-background:new    ;}
	.st11{opacity:0.15;enable-background:new    ;}
	.st12{opacity:9.000000e-02;fill:#FFFFFF;enable-background:new    ;}
	.st13{fill:#FFFFFF;}
	.st14{fill:#75759B;}
	.st15{fill:#9A9AB7;}
	.st16{fill:#8585AA;}
	.st17{fill:#22E1FB;}
	.st18{fill:#09C0CE;}
	.st19{opacity:0.62;fill:#FFFFFF;enable-background:new    ;}
	.st20{opacity:0.65;fill:url(#SVGID_5_);enable-background:new    ;}
	.st21{opacity:0.55;fill:#AEAECC;enable-background:new    ;}
	.st22{opacity:0.4;}
	.st23{clip-path:url(#SVGID_7_);}
</style>
<title>ziggy_1</title>
<g id="Layer_2">
	<g id="Layer_1-2">
		<ellipse class="st0" cx="66.3" cy="184.9" rx="50.5" ry="7.5"/>
		<path class="st1" d="M126.8,140.2l-58.1-2.5v-0.2l-2.4,0.1l-2.4-0.1v0.2l-58.1,2.5c0,0-2.4,12.6,9.2,24.9c1.1,1.2,2.5,2.1,4,2.8
			c4.8,3.3,24.4,5.8,47.8,5.8c24.2,0,44.2-2.6,48.2-6.1c0.2-0.1,0.5-0.3,0.7-0.5C129.5,154.1,126.8,140.2,126.8,140.2z"/>
		<g>
			<defs>
				<path id="SVGID_1_" d="M126.8,140.2l-58.1-2.5v-0.2l-2.4,0.1l-2.4-0.1v0.2l-58.1,2.5c0,0-2.4,12.6,9.2,24.9
					c1.1,1.2,2.5,2.1,4,2.8c4.8,3.3,24.4,5.8,47.8,5.8c24.2,0,44.2-2.6,48.2-6.1c0.2-0.1,0.5-0.3,0.7-0.5
					C129.5,154.1,126.8,140.2,126.8,140.2z"/>
			</defs>
			<clipPath id="SVGID_2_">
				<use xlink:href="#SVGID_1_"  style="overflow:visible;"/>
			</clipPath>
			<g class="st2">
				<path class="st3" d="M26.9,154.6c29.1,8,59.8,8,88.9,0c0.6-0.3,1.3-0.2,1.9,0.1c0.5,0.5,0.4,1.3,0.2,2
					c-1.9,5.8-7.4,9.7-13.1,11.8s-11.8,2.7-17.7,4.2c-0.9,0.2-1.8,0.6-2.4,1.2c-0.7,0.9-1,2.2-0.8,3.3c0.5,3.5,2.6,6.5,5.7,8
					c2.1,0.9,4.4,1.4,6.7,1.3c14.9,0.3,28.8-7.5,36.3-20.3c2.9-4.7,4.3-10.1,4.2-15.6c-0.2-3.1-1.3-6.6-4.2-7.9
					c-3.3-1.5-7,0.4-10.2,2c-11.7,5.6-25.1,6.3-38.1,6.7c-13.3,0.4-26.6,0.5-40,0.1c-12.2-0.4-25.8-0.8-37.2-5.6
					C12.9,150.2,19.9,152.6,26.9,154.6z"/>
			</g>
		</g>
		<path class="st4" d="M60.2,13.8h12.3c28.5,0,51.6,23.1,51.6,51.6v78c0,1.3-1.1,2.4-2.4,2.4c0,0,0,0,0,0H11c-1.3,0-2.4-1.1-2.4-2.4
			l0,0v-78C8.6,36.9,31.7,13.8,60.2,13.8C60.1,13.8,60.1,13.8,60.2,13.8z"/>
		<ellipse class="st5" cx="66.3" cy="141.4" rx="60.6" ry="10.7"/>
		<path class="st6" d="M124.1,135.1c-3.9-1.9-9.4-3.1-14.4-3.9c-11.6-2-27-3.2-43.3-3.2s-31.7,1.1-43.3,3.2
			c-5.1,0.9-10.7,2.1-14.6,4v6.2h0.1c0,0.1,0,0.2,0,0.3c1.6-3,22.2-8.2,57.9-8.2c34.8,0,55.3,5,57.8,8L124.1,135.1z"/>
		<path class="st7" d="M67.6,145.4c-4.6-0.1-9.1-0.9-13.5-2.4c-6.2-1.8-11.8-5.1-16.5-9.5c-3.1-3-5.6-6.6-7.4-10.4
			c-1.1-2.3-1.9-4.7-2.6-7.2C24.6,105,26.5,93,33,80.3c1.1-2.2,2.4-4.3,3.7-6.5c2.1-3.1,4.4-6.1,6.9-8.8c0.7-0.8,1.4-1.6,2-2.3
			c2.8-3.3,5.9-6.5,9.1-9.5c0.8-0.8,1.8-1.5,2.7-2.2c2.9-1.9,6.3-2.9,9.7-2.9c4.6,0.1,9.1,1.7,12.7,4.6c3.2,2.5,5.9,5.5,8.2,8.9
			c3,4.2,5.8,8.9,7.9,12.7l0.7,1.2c1.9,3.2,3.7,6.4,5.3,9.8c4.6,10,5.6,21.3,2.9,31.9c-1.7,6.4-5,12.2-9.7,16.9
			c-3.3,3.4-7.2,6.1-11.6,8c-1.7,0.8-3.5,1.4-5.3,1.9C74.8,144.9,71.2,145.4,67.6,145.4z"/>
		<g>
			<defs>
				<path id="SVGID_3_" d="M67.6,145.4c-4.6-0.1-9.1-0.9-13.5-2.4c-6.2-1.8-11.8-5.1-16.5-9.5c-3.1-3-5.6-6.6-7.4-10.4
					c-1.1-2.3-1.9-4.7-2.6-7.2C24.6,105,26.5,93,33,80.3c1.1-2.2,2.4-4.3,3.7-6.5c2.1-3.1,4.4-6.1,6.9-8.8c0.7-0.8,1.4-1.6,2-2.3
					c2.8-3.3,5.9-6.5,9.1-9.5c0.8-0.8,1.8-1.5,2.7-2.2c2.9-1.9,6.3-2.9,9.7-2.9c4.6,0.1,9.1,1.7,12.7,4.6c3.2,2.5,5.9,5.5,8.2,8.9
					c3,4.2,5.8,8.9,7.9,12.7l0.7,1.2c1.9,3.2,3.7,6.4,5.3,9.8c4.6,10,5.6,21.3,2.9,31.9c-1.7,6.4-5,12.2-9.7,16.9
					c-3.3,3.4-7.2,6.1-11.6,8c-1.7,0.8-3.5,1.4-5.3,1.9C74.8,144.9,71.2,145.4,67.6,145.4z"/>
			</defs>
			<clipPath id="SVGID_4_">
				<use xlink:href="#SVGID_3_"  style="overflow:visible;"/>
			</clipPath>
			<g class="st8">
				
					<ellipse transform="matrix(0.9831 -0.1829 0.1829 0.9831 -21.5708 9.199)" class="st9" cx="39.1" cy="121.5" rx="13.5" ry="15.4"/>
				
					<ellipse transform="matrix(0.8357 -0.5492 0.5492 0.8357 -31.1705 63.1117)" class="st9" cx="89.9" cy="83.7" rx="13.5" ry="15.8"/>
				
					<ellipse transform="matrix(0.8366 -0.5478 0.5478 0.8366 -56.2228 74.3501)" class="st9" cx="96.5" cy="131.4" rx="13.6" ry="13.8"/>
			</g>
		</g>
		<path class="st10" d="M102,85.2c-1.6-3.3-3.3-6.6-5.2-9.8L96,74.2c-1.1-1.8-2.3-3.9-3.6-6c0.2,1.6,1.4,5,1.6,6.6
			c1.7,13.2-0.6,24.1-8,34.5s-22.6,17.5-35.1,17c-8.3-0.3-16.2-3.8-22.9-9.1c0.6,2,1.3,3.9,2.2,5.8c1.8,3.9,4.3,7.4,7.4,10.5
			c4.7,4.4,10.3,7.6,16.5,9.5c4.3,1.5,8.9,2.3,13.5,2.4c3.6,0,7.2-0.5,10.7-1.4c1.8-0.5,3.6-1.1,5.3-1.9c4.3-1.9,8.2-4.6,11.6-8
			c4.6-4.7,7.9-10.6,9.7-16.9C107.6,106.5,106.6,95.2,102,85.2z"/>
		<path class="st11" d="M103,87.8c-0.5,6.2-1.8,12.3-4.1,18.1c-5.3,13.3-16.2,24.6-29.9,28.4c-5.6,1.4-11.4,1.9-17.1,1.4
			c-5.6-0.3-11.1-1.7-16.2-4.1c0.6,0.7,1.2,1.4,1.9,2c4.7,4.4,10.3,7.7,16.5,9.5c4.3,1.5,8.9,2.3,13.5,2.4c3.6,0,7.2-0.5,10.7-1.4
			c1.8-0.5,3.6-1.1,5.3-1.9c4.3-1.9,8.2-4.6,11.6-8c4.6-4.7,7.9-10.6,9.7-16.9C107.3,107.4,106.7,97.1,103,87.8z"/>
		<path class="st12" d="M53.4,55.1c-8.3,8.2-14.8,16.5-16.1,26.3c-0.6,4.8-0.3,10.3,4.1,13.4c2.4,1.5,5.2,2.1,8,1.7
			c8.6-1.3,16.1-6.2,20.8-13.5c3.8-6.1,5.8-13.1,5.7-20.3c0.1-2.7-0.4-5.5-1.4-8c-1.1-2.6-3.2-4.6-5.8-5.6
			c-5.1-1.7-10.6,1.7-14.4,5.3L53.4,55.1z"/>
		<path class="st13" d="M62.7,67.7c-1.9,3.3-5.6,4.6-8.4,3s-3.6-5.6-1.7-8.9s5.6-4.6,8.4-3S64.6,64.4,62.7,67.7z"/>
		<path class="st14" d="M85.5,16.8h-39l4,23.7h0.1c0,0,0,0.1,0,0.1c0,1.5,6.9,2.7,15.4,2.7s15.4-1.2,15.4-2.7c0,0,0-0.1,0-0.1h0.1
			L85.5,16.8z"/>
		<circle class="st13" cx="93.5" cy="45.2" r="3"/>
		<circle class="st13" cx="37.1" cy="59.3" r="1.9"/>
		<circle class="st13" cx="24.4" cy="72" r="1.9"/>
		<circle class="st13" cx="103.6" cy="67.1" r="1.9"/>
		<circle class="st13" cx="33" cy="47" r="3.3"/>
		<path class="st1" d="M8.7,141.3"/>
		<path class="st15" d="M97,182.1H39.4l2.3-20.6c0.2-1.4,1.4-2.5,2.9-2.5h47.3c1.5,0,2.7,1,2.9,2.5L97,182.1z"/>
		<path class="st16" d="M39.4,182.1l2.4,3.3c0.8,1,2,1.6,3.2,1.6h46.6c1.3,0,2.5-0.6,3.3-1.7l2.2-3.2L39.4,182.1z"/>
		<polygon class="st17" points="91.6,178.5 43.8,178.5 45.7,162.6 90.7,162.6 		"/>
		<polygon class="st18" points="45.4,165.5 45.7,162.6 90.7,162.6 90.8,165.5 		"/>
		<polygon class="st13" points="58.4,177.1 55.7,177.1 56.6,163.9 59.2,163.9 		"/>
		<polygon class="st13" points="64.1,177.1 61.3,177.1 61.8,167.8 64.4,167.8 		"/>
		<polygon class="st13" points="75.2,177.1 72.5,177.1 72.4,171.4 75,171.4 		"/>
		<polygon class="st13" points="80.7,177.2 77.9,177.2 77.7,167.1 80.4,167.1 		"/>
		<rect x="67.1" y="164" class="st13" width="2.6" height="13.2"/>
		<circle class="st19" cx="41.4" cy="56.9" r="15.5"/>
		<circle class="st19" cx="31.9" cy="80.3" r="5.4"/>
		
			<linearGradient id="SVGID_5_" gradientUnits="userSpaceOnUse" x1="19.4528" y1="152.6003" x2="102.3227" y2="50.3203" gradientTransform="matrix(1 0 0 -1 0 194)">
			<stop  offset="0" style="stop-color:#FFFFFF;stop-opacity:0.7"/>
			<stop  offset="0.64" style="stop-color:#FFFFFF;stop-opacity:0"/>
		</linearGradient>
		<path class="st20" d="M61.5,22h9.5c24.8,0,44.8,20.1,44.8,44.8v79.8c0,1.2-0.9,2.1-2.1,2.1h-95c-1.2,0-2.1-0.9-2.1-2.1V66.8
			C16.7,42.1,36.8,22,61.5,22z"/>
		<path class="st1" d="M106.9,23.1l-0.2-0.3c-0.3-0.6-0.7-1.1-1.1-1.6C89-0.5,57.9-4.7,36.1,11.8c-3.8,2.9-7.1,6.3-9.9,10.1h0.2
			c-0.4,0.5-0.7,1.2-0.7,1.9c0,5.5,18.2,10,40.6,10s40.6-4.5,40.6-10c0-0.2,0-0.5-0.1-0.7L106.9,23.1z"/>
		<path class="st21" d="M106.9,23.1l-0.2-0.3c-0.3-0.6-0.7-1.1-1.1-1.6c-2.9-3.8-6.3-7.1-10.1-9.9c-0.4,1.1-0.9,2.1-1.5,3
			c-2.6,3.9-6.1,7.1-10.2,9.2c-13.4,7.5-29.9,7.7-45,4.3c-2.8-0.5-5.5-1.4-8.1-2.7c-1.7-0.9-3.2-2.1-4.4-3.5l-0.1,0.2h0.2
			c-0.4,0.5-0.7,1.2-0.7,1.9c0,5.5,18.2,10,40.6,10s40.6-4.5,40.6-10c0-0.2,0-0.5-0.1-0.7L106.9,23.1z"/>
		<g class="st22">
			<g>
				<defs>
					<path id="SVGID_6_" d="M106.9,23.1l-0.2-0.3c-0.3-0.6-0.7-1.1-1.1-1.6C89-0.5,57.9-4.7,36.1,11.8c-3.8,2.9-7.1,6.3-9.9,10.1
						h0.2c-0.4,0.5-0.7,1.2-0.7,1.9c0,5.5,18.2,10,40.6,10s40.6-4.5,40.6-10c0-0.2,0-0.5-0.1-0.7L106.9,23.1z"/>
				</defs>
				<clipPath id="SVGID_7_">
					<use xlink:href="#SVGID_6_"  style="overflow:visible;"/>
				</clipPath>
				<g class="st23">
					<path class="st13" d="M67.9,4.4c3.3,5.2-1.6,12.9-10.9,17.2s-19.5,3.6-22.8-1.6S35.8,7.2,45.1,2.8S64.6-0.8,67.9,4.4z"/>
				</g>
			</g>
		</g>
	</g>
</g>
</svg>
