<?xml version="1.0" encoding="utf-8"?>
<!-- Generator: Adobe Illustrator 21.0.0, SVG Export Plug-In . SVG Version: 6.00 Build 0)  -->
<svg version="1.1" id="Layer_1" xmlns="http://www.w3.org/2000/svg" xmlns:xlink="http://www.w3.org/1999/xlink" x="0px" y="0px"
	 viewBox="0 0 148.7 204.6" style="enable-background:new 0 0 148.7 204.6;" xml:space="preserve">
<style type="text/css">
	.st0{opacity:8.000000e-02;enable-background:new    ;}
	.st1{fill:#72BCC4;}
	.st2{fill:#96D2E2;}
	.st3{fill:#9090BF;}
	.st4{clip-path:url(#SVGID_2_);}
	.st5{opacity:0.28;fill:#57579B;enable-background:new    ;}
	.st6{opacity:0.35;fill:#57579B;enable-background:new    ;}
	.st7{clip-path:url(#SVGID_4_);}
	.st8{clip-path:url(#SVGID_6_);}
	.st9{opacity:0.2;fill:#EDEDF9;enable-background:new    ;}
	.st10{fill:#4C992B;}
	.st11{clip-path:url(#SVGID_8_);}
	.st12{fill:#B0B0CC;}
	.st13{fill:#64B546;}
	.st14{opacity:0.35;}
	.st15{clip-path:url(#SVGID_10_);}
	.st16{fill:#57579B;}
	.st17{opacity:0.28;}
	.st18{clip-path:url(#SVGID_12_);}
	.st19{clip-path:url(#SVGID_14_);}
	.st20{fill:none;}
	.st21{clip-path:url(#SVGID_16_);}
	.st22{fill:#C7C6DB;}
	.st23{clip-path:url(#SVGID_18_);}
	.st24{opacity:0.45;fill:#9090BF;enable-background:new    ;}
	.st25{fill:#8181B5;}
	.st26{clip-path:url(#SVGID_20_);}
	.st27{opacity:0.83;fill:#5CA83D;enable-background:new    ;}
	.st28{opacity:0.77;fill:#549934;enable-background:new    ;}
	.st29{fill:#FFFFFF;}
	.st30{fill:#5C3C99;}
	.st31{fill:none;stroke:#2A2A77;stroke-width:2.62;stroke-linecap:round;stroke-miterlimit:10;}
	.st32{fill:#6E49A9;}
	.st33{fill:#7054E2;}
	.st34{opacity:0.87;fill:#7ABC5B;enable-background:new    ;}
	.st35{opacity:0.7;fill:#7ABC5B;enable-background:new    ;}
	.st36{clip-path:url(#SVGID_22_);}
	.st37{fill:#EDEDF9;}
	.st38{opacity:0.13;fill:#57579B;enable-background:new    ;}
	.st39{clip-path:url(#SVGID_24_);}
	.st40{clip-path:url(#SVGID_26_);}
	.st41{opacity:0.15;fill:none;stroke:#57579B;stroke-width:2.04;stroke-miterlimit:10;enable-background:new    ;}
	.st42{opacity:0.18;fill:#9090BF;enable-background:new    ;}
	.st43{opacity:0.22;fill:#EDEDF9;enable-background:new    ;}
	.st44{opacity:0.36;fill:#FFFFFF;enable-background:new    ;}
	.st45{opacity:0.65;fill:url(#SVGID_27_);enable-background:new    ;}
	.st46{opacity:0.62;fill:#FFFFFF;enable-background:new    ;}
</style>
<title>ziggy_10</title>
<g>
	<g>
		<ellipse class="st0" cx="73.4" cy="196.6" rx="50.5" ry="7.5"/>
		<ellipse class="st1" cx="67.1" cy="58.4" rx="55.2" ry="51.9"/>
		<path class="st2" d="M121.3,35.3c-2.7-13-9.4-25.5-20.5-34c-1.2-0.9-2.9-1.8-4.2-0.9S96,3.2,96.7,4.6c0.8,1.7,1.4,3.5,1.7,5.3
			c0.6,2.3,0.9,4.6,0.9,6.9c0,16.3-14.3,29.5-32,29.5s-32-13.2-32-29.5c0-1.7,0.2-3.4,0.5-5.1c0.3-2.5,0.9-4.9,2-7.2
			c0.7-1.4,1.4-3.3,0.1-4.2s-3,0-4.2,0.9c-11,8.4-17.8,21-20.5,34c-1.4,7.2-1.9,14.5-1.3,21.8c0,0.5,0,0.9,0,1.3
			c0,28.7,24.7,51.9,55.2,51.9c29.7,0,53.9-22,55.1-49.6C123.3,52.2,122.9,43.6,121.3,35.3z"/>
		<path class="st3" d="M103.3,114.8c6,1.5,12.2,1,17.9-1.2c1.6-0.6,3.1-1.6,4.2-3c1.7-2.3,1.6-5.4,0.9-8.2c-0.6-2.3-1.7-4.4-2.4-6.7
			c-0.8-2.3-0.9-4.7-0.2-7c0.8-2.2,3.1-4,5.5-3.6c2.1,0.3,3.7,2.2,4.6,4.1c1.8,3.6,2,7.7,1.8,11.7c-0.2,4.6-1.2,9.3-3.6,13.2
			c-1.8,2.9-4.4,5.3-5.8,8.5c-1,2.2-1.3,4.7-1.9,7.1s-1.7,4.8-3.8,6.1s-4.5,1.3-6.8,1.2c-3.5-0.2-7.1-0.9-10-3
			c-2.4-1.7-4.1-4.2-6.2-6.4c-2.9-3-6.5-5.3-10.4-6.6c-0.5-0.1-0.9-0.3-1.2-0.7c-0.3-0.6-0.3-1.4,0-2c0.8-3.1,0.9-6.4,0.4-9.5
			c-0.4-2.6,1.6-0.8,2.7-0.1c1.5,0.9,3.1,1.8,4.6,2.6C96.7,112.8,100,114,103.3,114.8z"/>
		<g>
			<defs>
				<path id="SVGID_1_" d="M103.3,114.8c6,1.5,12.2,1,17.9-1.2c1.6-0.6,3.1-1.6,4.2-3c1.7-2.3,1.6-5.4,0.9-8.2
					c-0.6-2.3-1.7-4.4-2.4-6.7c-0.8-2.3-0.9-4.7-0.2-7c0.8-2.2,3.1-4,5.5-3.6c2.1,0.3,3.7,2.2,4.6,4.1c1.8,3.6,2,7.7,1.8,11.7
					c-0.2,4.6-1.2,9.3-3.6,13.2c-1.8,2.9-4.4,5.3-5.8,8.5c-1,2.2-1.3,4.7-1.9,7.1s-1.7,4.8-3.8,6.1s-4.5,1.3-6.8,1.2
					c-3.5-0.2-7.1-0.9-10-3c-2.4-1.7-4.1-4.2-6.2-6.4c-2.9-3-6.5-5.3-10.4-6.6c-0.5-0.1-0.9-0.3-1.2-0.7c-0.3-0.6-0.3-1.4,0-2
					c0.8-3.1,0.9-6.4,0.4-9.5c-0.4-2.6,1.6-0.8,2.7-0.1c1.5,0.9,3.1,1.8,4.6,2.6C96.7,112.8,100,114,103.3,114.8z"/>
			</defs>
			<clipPath id="SVGID_2_">
				<use xlink:href="#SVGID_1_"  style="overflow:visible;"/>
			</clipPath>
			<g class="st4">
				<path class="st5" d="M114.5,116.3c-7,2.1-17.6,0.1-24.2-3c-0.2,0-0.3-0.2-0.3-0.4c0,0,0-0.1,0-0.1l0.8-2.2
					c0.1-0.3,0.2-0.6,0.5-0.6s3.3,1.3,3.5,1.4c2.3,0.6,4.7,0.9,7.1,1.1c2.3,0.2,4.7,0.6,7,0.8c2.8,0.2,5.7-0.1,8.6-0.2
					c0.8,0,3.2-0.5,3.8,0.2c0.4,0.5-0.3,0.6-0.7,0.8c-0.6,0.3-1.2,0.6-1.8,0.8C117.4,115.3,116,115.9,114.5,116.3z"/>
				<path class="st6" d="M124.7,94.3c-0.2-1.9,0.2-3.9,1.1-5.6c0.6-1.2,1.6-2.2,2.9-2.8c1.3-0.6,2.7-0.4,3.8,0.5
					c-0.7-1.3-1.7-2.3-3-2.9c-1.3-0.6-2.8-0.6-4.1,0.1c-0.8,0.5-1.6,1.2-2.1,2c-2.8,4-2.8,9.3,0,13.2c0.2,0.3,0.5,0.6,0.8,0.9
					c0.6,0.3,1.2,0.4,1.8,0.2c0.6-0.3,0-0.9-0.2-1.5C125.2,97.1,124.9,95.7,124.7,94.3z"/>
			</g>
		</g>
		<path class="st3" d="M123.9,115.9c-0.2-2.6-0.7-5.1-1.4-7.5c-0.6-1.6-0.9-3.2-0.9-4.9c0-1.7,1-3.3,2.6-4c1.4-0.4,2.9-0.1,4,0.9
			c1.1,1,1.9,2.2,2.5,3.5c2.1,4.1,2.8,8.8,2.1,13.4c-0.8,4.6-3.6,8.6-7.7,10.9c-0.3,0.1-0.6,0.3-0.8,0.1c-0.1-0.1-0.2-0.2-0.2-0.4
			c-0.8-2-1.9-3.7-1.1-5.8C123.7,120.1,124.1,118,123.9,115.9z"/>
		<g>
			<defs>
				<path id="SVGID_3_" d="M123.9,115.9c-0.2-2.6-0.7-5.1-1.4-7.5c-0.6-1.6-0.9-3.2-0.9-4.9c0-1.7,1-3.3,2.6-4
					c1.4-0.4,2.9-0.1,4,0.9c1.1,1,1.9,2.2,2.5,3.5c2.1,4.1,2.8,8.8,2.1,13.4c-0.8,4.6-3.6,8.6-7.7,10.9c-0.3,0.1-0.6,0.3-0.8,0.1
					c-0.1-0.1-0.2-0.2-0.2-0.4c-0.8-2-1.9-3.7-1.1-5.8C123.7,120.1,124.1,118,123.9,115.9z"/>
			</defs>
			<clipPath id="SVGID_4_">
				<use xlink:href="#SVGID_3_"  style="overflow:visible;"/>
			</clipPath>
			<g class="st7">
				<path class="st6" d="M125.1,114.6c0-1.3-0.1-2.6-0.3-3.8l-0.6-4.2c-0.2-0.9-0.2-1.9-0.2-2.8c0.1-1,0.5-1.9,1.2-2.5
					c0.8-0.7,1.8-0.9,2.8-0.6c1,0.3,1.8,1,2.2,1.9c0.1-1.9-1-3.6-2.7-4.4c-1.7-0.7-3.7-0.4-5.1,0.8c-1,1-1.7,2.2-1.9,3.6
					c-0.3,1.5-0.3,3.1,0,4.6c0.5,1.8,1.2,3.5,2.1,5.2c0.4,0.8,0.8,1.7,1.2,2.6c0.2,0.5,0.4,2.2,0.8,2.5
					C124.9,116.6,125.1,115.6,125.1,114.6z"/>
			</g>
		</g>
		<path class="st3" d="M121.3,118.1c0.8-1.3,2.2-2.7,3.7-2.3c1.4,0.3,2.1,1.8,2.4,3.1c0.7,2.6,0.7,5.3,0.2,7.9
			c-0.7,3.5-2.7,6.6-5.6,8.6c-3,2-6.8,2.2-10,0.6c0.6,0.3,3.9-3.1,4.3-3.5c1.2-1.2,2.1-2.2,2.2-3.9
			C118.3,124.9,119.3,121.3,121.3,118.1z"/>
		<g>
			<defs>
				<path id="SVGID_5_" d="M121.3,118.1c0.8-1.3,2.2-2.7,3.7-2.3c1.4,0.3,2.1,1.8,2.4,3.1c0.7,2.6,0.7,5.3,0.2,7.9
					c-0.7,3.5-2.7,6.6-5.6,8.6c-3,2-6.8,2.2-10,0.6c0.6,0.3,3.9-3.1,4.3-3.5c1.2-1.2,2.1-2.2,2.2-3.9
					C118.3,124.9,119.3,121.3,121.3,118.1z"/>
			</defs>
			<clipPath id="SVGID_6_">
				<use xlink:href="#SVGID_5_"  style="overflow:visible;"/>
			</clipPath>
			<g class="st8">
				<path class="st6" d="M120.2,126.1c0.6-2.2,1.1-4.6,2.5-6.5c0.6-1,1.7-1.6,2.8-1.7c0.9,0.1,1.6,0.6,1.9,1.4
					c0.3,0.6,0.4,1.2,0.6,1.8c0.1,0.3,0.2,0.7,0.4,0.9c0.2,0.2,0.1-1.1,0.1-1.2c-0.1-0.6-0.2-1.2-0.3-1.9c-0.1-1.3-0.7-2.5-1.7-3.4
					c-1.3-0.9-3-0.9-4.3-0.2c-1.3,0.8-2.4,1.9-3.2,3.2c-1,1.4-1.7,2.9-2.1,4.6c-0.1,1.5-0.2,3.1-0.2,4.7c-0.1,1.2-0.3,2.4-0.8,3.5
					c-0.5,1.4,0.7,0.7,1.3,0.1C118.8,130,119.8,128.1,120.2,126.1z"/>
			</g>
		</g>
		<path class="st9" d="M103.7,131.4c1.7,1.7,3.7,3,5.9,3.8c1.9,0.7,4,0.6,5.9-0.2c0.1-0.1,0.2-0.2,0.1-0.4c0-0.1-0.1-0.1-0.2-0.1
			c-1-0.1-2-0.5-2.8-1.1c-1.1-0.8-2.1-1.7-3-2.7c-1.4-1.4-3-2.8-4.6-4c-1-0.7-6.2-3.9-6.6-1c-0.2,0.9,1.3,1.9,1.9,2.4
			C101.4,129.2,102.5,130.3,103.7,131.4z"/>
		<path class="st10" d="M1.6,179.4c-0.5,0.6,0.3,1.4,1,1.8c4.9,2.2,10.4,2.6,15.7,2.7c12.6,0.2,25.2-1.4,37.4-4.7
			c-1.9-2.7-5.4-10.6-8.9-11.5c-2-0.5-4.5,1.2-6.3,1.9c-2.5,1-5,1.9-7.5,2.7C22.9,175.7,12.3,178,1.6,179.4z"/>
		<g>
			<defs>
				<path id="SVGID_7_" d="M1.6,179.4c-0.5,0.6,0.3,1.4,1,1.8c4.9,2.2,10.4,2.6,15.7,2.7c12.6,0.2,25.2-1.4,37.4-4.7
					c-1.9-2.7-5.4-10.6-8.9-11.5c-2-0.5-4.5,1.2-6.3,1.9c-2.5,1-5,1.9-7.5,2.7C22.9,175.7,12.3,178,1.6,179.4z"/>
			</defs>
			<clipPath id="SVGID_8_">
				<use xlink:href="#SVGID_7_"  style="overflow:visible;"/>
			</clipPath>
			<g class="st11">
				<path class="st12" d="M45.9,177.4c-0.3,0-0.5,0-0.8,0c-0.8,0.1-1.6,0.3-2.3,0.6c-11,3.8-22.7,5-34.3,3.6
					c-1.9-0.2-3.8-0.6-5.6-1.2c-0.8-0.4-1.6-0.7-2.4-1c-0.9-0.1-0.6,0.8-0.2,1.2s0.7,0.9,1.1,1.3l1.7,1.9l25.3,3.4l15.2-1.6l5.2-1.1
					L48,181C47.6,179.3,47.6,177.6,45.9,177.4z"/>
			</g>
		</g>
		<path class="st13" d="M140.4,146.7c-2.4-4.8-6.5-6.8-11.8-6.7c-6.7,0.1-13.1,2.7-19.1,5.6c-4.1,2-8.1,4.2-12.3,6.1
			c-1.9,0.9-4,1.6-5.9,2.4c-1.7,0.7-2.5-0.2-3.7-1.6c-0.9-1.1-1.7-2.3-2.3-3.6c-1-2.4-1.6-5-1.8-7.6c-0.4-4.1-0.4-8.1,0-12.2
			c-8.5,1-17.1,1.3-25.6,0.8c-5.3,6.1-8.5,13.7-11.3,21.3c-2.4,6.6-4.4,13.4-4.4,20.4s2.4,14.2,7.7,18.9c6.1,5.3,14.8,5.8,22.9,5.9
			c8.3,0.2,16.7-0.1,24.9-0.8c7.6-0.6,15-1,22.2-3.4s14-6.5,18.5-12.6C145.2,170.3,145.6,157,140.4,146.7z"/>
		<path class="st3" d="M45.9,106.2c-3.3,4.5-7.1,8.6-11.2,12.4c-2.2,2-5.8,4.4-8.8,3.9c-1.8-0.4-3.3-1.5-4.4-3
			c-3.2-4.1-4-9.4-4.2-14.5c-0.2-5,0.3-10.2-1.9-14.8c-0.5-1.3-1.4-2.3-2.7-2.7c-1.1-0.2-2.2,0-3.2,0.6c-1.9,1.3-3.2,3.5-3.4,5.8
			c-0.6,4.3,1.1,8.3,2,12.4c0.6,3.6,0.6,7.2,0,10.7c-0.6,4.5-1.5,8.9-1.3,13.4c0,2.1,0.5,4.1,1.4,6c1.6,2.9,4.8,4.8,8.2,5.6
			c6.1,1.2,12.4-0.2,17.4-4c5.4-4.1,8.4-10.3,12.1-15.8c2.7-3.8,5.6-7.5,8.8-11"/>
		<path class="st3" d="M10.4,112.1c-0.1-0.7-0.2-1.4-0.3-2.1c-0.1-1.8,0.2-3.7,0.2-5.5c0-1-0.1-2-0.4-2.9c-0.3-0.9-1-1.7-1.9-2.2
			c-1.3-0.5-2.7-0.2-3.8,0.6c-3.9,2.7-4.3,8.3-3.7,12.7c0.2,2.3,0.8,4.5,1.8,6.5c1,2.2,2.5,4.2,4.4,5.8c0.9,0.9,2,1.4,3.3,1.4
			c0.9-0.2,1.8-0.6,2.4-1.3c1.4-1.3,3.1-2.6,2.3-4.7c-0.5-1-1.1-2-1.9-2.8C11.6,115.8,10.8,114,10.4,112.1z"/>
		<path class="st3" d="M10.8,120.6c-0.8-0.4-1.8-0.5-2.7-0.3c-5,1.4-4.2,8.9-2.5,12.4c1.3,2.7,3.1,5,5.4,6.9c1.8,1.5,4,2.4,6.3,2.6
			c1,0.1,1.7,0.3,2.6-0.5c0.7-0.8,1.2-1.7,1.4-2.7c0.7-2.9,0.5-6.3-1.7-8.3c-0.6-0.6-1.4-1.1-2-1.7c-1.1-1.1-1.9-2.3-2.6-3.7
			c-0.7-1.4-1.5-2.6-2.6-3.7C11.9,121.1,11.4,120.8,10.8,120.6z"/>
		<g class="st14">
			<g>
				<defs>
					<path id="SVGID_9_" d="M10.8,120.6c-0.8-0.4-1.8-0.5-2.7-0.3c-5,1.4-4.2,8.9-2.5,12.4c1.3,2.7,3.1,5,5.4,6.9
						c1.8,1.5,4,2.4,6.3,2.6c1,0.1,1.7,0.3,2.6-0.5c0.7-0.8,1.2-1.7,1.4-2.7c0.7-2.9,0.5-6.3-1.7-8.3c-0.6-0.6-1.4-1.1-2-1.7
						c-1.1-1.1-1.9-2.3-2.6-3.7c-0.7-1.4-1.5-2.6-2.6-3.7C11.9,121.1,11.4,120.8,10.8,120.6z"/>
				</defs>
				<clipPath id="SVGID_10_">
					<use xlink:href="#SVGID_9_"  style="overflow:visible;"/>
				</clipPath>
				<g class="st15">
					<path class="st16" d="M5,124.6c0.3-0.5,0.8-1,1.3-1.4c1-0.7,2.2-0.9,3.4-0.5c0.4,0.2,0.8,0.4,1.2,0.7c0.7,0.6,1.3,1.2,1.9,2
						c0.9,1.3,1.9,2.5,3.1,3.6c1.2,1.1,2.8,1.7,4.4,1.6l-2.4-4.3c-1.1-2.4-2.7-4.5-4.6-6.3c-2-1.7-5-2.5-7.3-1.3c-2,1-3.1,3-3.8,5.1
						c-0.4,1-0.5,2.1-0.4,3.2c0.2,1.1,0.7,2,1.3,2.9c0.1,0.2,0.3,0.4,0.5,0.4s0.3-0.5,0.3-0.8c-0.2-1.2-0.1-2.4,0.3-3.5
						C4.5,125.5,4.7,125,5,124.6z"/>
				</g>
			</g>
		</g>
		<g class="st17">
			<g>
				<defs>
					<path id="SVGID_11_" d="M46.3,105.7c-3.7,4.8-7.9,9.2-12.4,13.1c-2.2,2-5,4.2-8,3.7c-1.8-0.4-3.3-1.5-4.4-3
						c-3.2-4.1-4-9.4-4.2-14.5c-0.2-5,0.3-10.2-1.9-14.8c-0.5-1.3-1.4-2.3-2.7-2.7c-1.1-0.3-2.3,0-3.2,0.6c-1.9,1.3-3.2,3.5-3.4,5.8
						c-0.6,4.3,1.1,8.3,2,12.4c0.6,3.6,0.6,7.2,0,10.7c-0.6,4.5-1.5,8.9-1.3,13.4c0,2.1,0.5,4.1,1.4,6c1.6,2.9,4.8,4.8,8.2,5.6
						c6.1,1.2,12.4-0.2,17.4-4c5.4-4.1,8.4-10.3,12.1-15.8c2.7-3.8,5.6-7.5,8.8-11"/>
				</defs>
				<clipPath id="SVGID_12_">
					<use xlink:href="#SVGID_11_"  style="overflow:visible;"/>
				</clipPath>
				<g class="st18">
					<path class="st16" d="M8.3,90.3C8.5,90.1,8.7,90,9,89.9c0.3-0.1,0.7-0.3,1-0.3c0.5-0.1,0.9,0,1.4,0.1c1.7,0.6,3,1.9,3.5,3.5
						c0.6,1.6,0.8,3.4,0.9,5.1c0.1,1.4,0.2,2.8,0.4,4.2c0.4,3.7,1,7.6,3.1,10.7c-0.9-4.8,0.6-9.8,0.4-14.7c-0.1-3.3-1-6.5-2.6-9.3
						c-0.6-1.2-1.5-2.3-2.6-3.1c-1.8-1-3.9-1.1-5.8-0.2c-1.8,0.9-3.2,2.4-4.1,4.3C4.1,91,3.9,92,3.9,92.9c0,0.7,0.3,1.4,0.8,1.9
						c0.9,0.7,0.9-0.7,1.1-1.3C6.2,92.2,7.1,91,8.3,90.3z"/>
					<path class="st16" d="M20.6,118.7c1.3,2,3,4,5.5,4.6c1.6,0.3,3.2,0.2,4.8-0.2c2.3-0.6,4.5-1.7,6.4-3.3c1.9-1.7,3.6-3.7,5-5.8
						c0.4-0.5,3-4.5,3.2-5.1c0.5-1.3-2.6,0.8-4.1,0.8c-0.6,0.1-1.2,0.4-1.7,0.9c-2.5,2.5-5.4,4.5-8.6,6c-1.1,0.5-2.3,0.8-3.5,0.9
						c-2.2,0.1-4.3-0.4-6.3-1.4c-0.7-0.3-1.3-0.6-1.9-1.1c-0.7-0.7-1.2-1.6-1.5-2.6C18.5,114.6,19.3,116.8,20.6,118.7z"/>
				</g>
			</g>
		</g>
		<g>
			<defs>
				<path id="SVGID_13_" d="M10.4,112.1c-0.1-0.7-0.2-1.4-0.3-2.1c-0.1-1.8,0.2-3.7,0.2-5.5c0-1-0.1-2-0.4-2.9
					c-0.3-0.9-1-1.7-1.9-2.2c-1.3-0.5-2.7-0.2-3.8,0.6c-3.9,2.7-4.3,8.3-3.7,12.7c0.2,2.3,0.8,4.5,1.8,6.5c1,2.2,2.5,4.2,4.4,5.8
					c0.9,0.9,2,1.4,3.3,1.4c0.9-0.2,1.8-0.6,2.4-1.3c1.4-1.3,3.1-2.6,2.3-4.7c-0.5-1-1.1-2-1.9-2.8C11.6,115.8,10.8,114,10.4,112.1z
					"/>
			</defs>
			<clipPath id="SVGID_14_">
				<use xlink:href="#SVGID_13_"  style="overflow:visible;"/>
			</clipPath>
			<g class="st19">
				<path class="st6" d="M2.9,102.3c0.9-0.8,2.2-1.2,3.4-1c1.3,0.5,2.2,1.7,2.3,3.1c0.1,1.4,0.1,2.7,0,4.1c0,1.8,0.4,3.6,1.2,5.2
					c1.1,2,2.4,3.7,4,5.3c-0.9-1.5-1.4-3.1-1.5-4.9c0-1.7,0.2-3.4,0.5-5.1c0.3-1.9,0.2-3.8-0.3-5.7c-0.5-1.9-1.7-3.5-3.3-4.5
					c-1.7-1-3.8-1-5.5-0.1c-0.9,0.6-1.6,1.4-2.2,2.3c-0.3,0.5-1.9,2.7-1.2,3.2C0.7,104.6,2.5,102.6,2.9,102.3z"/>
			</g>
		</g>
		<path class="st20" d="M83.5,129c-0.4,4.1-0.4,8.1,0,12.2c0.2,2.6,0.8,5.2,1.8,7.6c1.1,2.4,3.5,6,6.3,5.2c5.1-1.6,9.5-5.5,14-8.3
			c4.7-3,9.8-5.4,15.1-7.1c3.6-1,7.9-1.8,11.5-0.4s6.3,4.8,8.1,8.4c5.2,10.4,4.8,23.6-2.1,33c-4.5,6.1-11.3,10.2-18.5,12.6
			s-14.8,3.2-22.3,3.8c-8.2,0.6-16.5,1-24.8,0.8c-8.1-0.2-16.8-1.1-22.8-6.4c-5.3-4.6-7.7-11.9-7.7-18.9s2-13.8,4.4-20.4
			c2.7-7.6,6-15.2,11.3-21.3C66.4,130.3,75,130,83.5,129z"/>
		<g>
			<defs>
				<path id="SVGID_15_" d="M140.4,146.7c-2.4-4.8-6.5-6.8-11.8-6.7c-6.7,0.1-13.1,2.7-19.1,5.6c-4.1,2-8.1,4.2-12.3,6.1
					c-1.9,0.9-4,1.6-5.9,2.4c-1.7,0.7-2.5-0.2-3.7-1.6c-0.9-1.1-1.7-2.3-2.3-3.6c-1-2.4-1.6-5-1.8-7.6c-0.4-4.1-0.4-8.1,0-12.2
					c-8.5,1-17.1,1.3-25.6,0.8c-5.3,6.1-8.5,13.7-11.3,21.3c-2.4,6.6-4.4,13.4-4.4,20.4s2.4,14.2,7.7,18.9
					c6.1,5.3,14.8,5.8,22.9,5.9c8.3,0.2,16.7-0.1,24.9-0.8c7.6-0.6,15-1,22.2-3.4s14-6.5,18.5-12.6
					C145.2,170.3,145.6,157,140.4,146.7z"/>
			</defs>
			<clipPath id="SVGID_16_">
				<use xlink:href="#SVGID_15_"  style="overflow:visible;"/>
			</clipPath>
			<g class="st21">
				<path class="st10" d="M87.2,131.1c-4,3-8.7,4.9-13.6,5.3c-4.9,0.5-9.9,0.1-14.7-1c-2.5-0.4-5-1.3-7.1-2.7l2.4-2.7l23.7-0.1
					l7.2-0.3L87.2,131.1z"/>
			</g>
		</g>
		<path class="st22" d="M93.8,104.9c-3.9-1.8-7.3-3.2-11-5.3s-10.2-4.1-14.4-3.6c-4.3-0.5-10.8,1.5-14.4,3.6s-7.2,3.5-11,5.3
			c-1.5,0.6-3,1.4-4.4,2.3c-0.3,0.2-0.3,0.6-0.1,0.9c0,0,0,0,0.1,0.1c1.4,1.2,4.2,0.5,5.9,1.7c0.8,0.8,1.4,1.8,1.6,2.9
			c1.3,4.4,2.1,8.9,2.4,13.5c0,0.7,0.1,1.3,0.4,1.9c0.4,0.6,0.9,1.2,1.5,1.6c4.3,3,9.3,4.6,14.5,4.8h6.8c5.3-0.1,10.5-1.7,14.8-4.8
			c0.6-0.4,1.1-0.9,1.5-1.6c0.2-0.6,0.4-1.3,0.4-1.9c0.3-4.6,1.1-9.1,2.4-13.5c0.2-1.1,0.8-2.1,1.6-2.9c1.7-1.2,4.5-0.5,5.9-1.7
			c0.3-0.2,0.3-0.6,0.1-0.9c0,0-0.1-0.1-0.1-0.1C96.8,106.3,95.4,105.5,93.8,104.9z"/>
		<g>
			<defs>
				<path id="SVGID_17_" d="M93.8,104.9c-3.9-1.8-7.3-4.6-11-6.7s-10.2-4.1-14.4-3.6c-4.3-0.5-10.8,1.5-14.4,3.6s-7.2,4.8-11,6.7
					c-1.5,0.6-3,1.4-4.4,2.3c-0.3,0.2-0.3,0.6-0.1,0.9c0,0,0,0,0.1,0.1c1.4,1.2,4.2,0.5,5.9,1.7c0.8,0.8,1.4,1.8,1.6,2.9
					c1.3,4.4,2.1,8.9,2.4,13.5c0,0.7,0.1,1.3,0.4,1.9c0.4,0.6,0.9,1.2,1.5,1.6c4.3,3,9.3,4.6,14.5,4.8h6.8
					c5.3-0.1,10.5-1.7,14.8-4.8c0.6-0.4,1.1-0.9,1.5-1.6c0.2-0.6,0.4-1.3,0.4-1.9c0.3-4.6,1.1-9.1,2.4-13.5c0.2-1.1,0.8-2.1,1.6-2.9
					c1.7-1.2,4.5-0.5,5.9-1.7c0.3-0.2,0.3-0.6,0.1-0.9c0,0-0.1-0.1-0.1-0.1C96.8,106.3,95.4,105.5,93.8,104.9z"/>
			</defs>
			<clipPath id="SVGID_18_">
				<use xlink:href="#SVGID_17_"  style="overflow:visible;"/>
			</clipPath>
			<g class="st23">
				<path class="st24" d="M90.2,104.5l-0.5-0.3c-1.9-1-3.6-2.2-5.5-3.1c-3.1-1.6-6.4-1.6-9.9-2c-4.6-0.6-9.3-0.7-13.9-0.3
					c-1.9,0.1-3.8,0.4-5.6,1.1c-1.8,0.8-3.4,1.8-5.1,2.7c-1.8,1-3.6,1.8-5.5,2.5c-0.9,0.3-4.6,1.2-2.2,2c3.8,1.3,8.6,1.1,12.6,0.7
					c4.3-0.4,8.7-1.1,13-1.3H68h0.5c4.4,0.3,8.7,1,13,1.3c2.4,0.2,4.8,0.3,7.3,0.1c0.8-0.1,6-0.3,5.9-1.3c0-0.3-0.3-0.4-0.6-0.6
					C92.8,105.7,91.5,105.2,90.2,104.5z"/>
			</g>
		</g>
		<path class="st25" d="M76.4,100.4C76.4,100.4,76.4,100.4,76.4,100.4c0-0.1,0-0.1,0-0.1v-4.3H59.8v4.5l0,0c0.2,2.1,3.8,3.8,8.3,3.8
			S76.3,102.6,76.4,100.4L76.4,100.4L76.4,100.4z"/>
		<path class="st13" d="M108.9,35.2c-1-1.4-2.3-2.5-3.9-3.2c-0.3-0.2-0.7-0.2-1-0.1c-0.7,0.2-0.8,1.2-0.8,1.9l-0.2,4.6
			c0,0.7-0.1,1.4-0.2,2.1c-0.3,1.3-1.3,2.8-4,2.7c-0.7-0.1-1.4-0.2-2-0.5c-2.3-0.8-4.4-2.2-6.2-3.8c-2.5-2.3-4.8-4.9-7-7.5
			c-0.5-0.7-1-1.4-1.4-2.2c-2.3-3.7-4.8-7.3-7.6-10.7c-0.7-0.8-1.5-1.6-2.3-2.3C71,15.5,69.5,15,68,14.9h-0.1
			c-1.4,0-2.7,0.5-3.8,1.4c-0.9,0.7-1.6,1.4-2.3,2.3c-2.8,3.4-5.3,6.9-7.6,10.7L53,31c-2.3,2.8-4.7,5.5-7.3,8
			c-1.8,1.7-3.9,3-6.2,3.9c-0.6,0.2-1.3,0.4-2,0.5c-2.7,0.1-3.6-1.4-4-2.7c-0.1-0.7-0.2-1.4-0.2-2.1l-0.1-4.7c0-0.8-0.2-1.7-0.8-1.9
			c-0.3-0.1-0.7,0-1,0.1c-1.5,0.7-2.9,1.9-3.9,3.3c-7,9-9.7,20.6-7.4,31.8c0.5,2.2,1.1,4.3,1.9,6.4c0.8,2.4,1.9,4.8,3.1,7
			c4.6,8.1,12.2,14.1,21.1,16.8c3.2,1,6.4,1.6,9.7,1.8c4,0.5,8,0.7,12,0.7c3.8,0,7.6-0.2,11.3-0.6c3.8-0.1,7.5-0.8,11.2-1.9
			c8.9-2.7,16.4-8.7,21.1-16.7c1.2-2.2,2.2-4.6,3.1-7c0.8-2.1,1.4-4.3,1.9-6.5C118.6,55.8,115.9,44.2,108.9,35.2z"/>
		<g>
			<defs>
				<path id="SVGID_19_" d="M108.9,35.2c-1-1.4-2.3-2.5-3.9-3.2c-0.3-0.2-0.7-0.2-1-0.1c-0.7,0.2-0.8,1.2-0.8,1.9l-0.2,4.6
					c0,0.7-0.1,1.4-0.2,2.1c-0.3,1.3-1.3,2.8-4,2.7c-0.7-0.1-1.4-0.2-2-0.5c-2.3-0.8-4.4-2.2-6.2-3.8c-2.5-2.3-4.8-4.9-7-7.5
					c-0.5-0.7-1-1.4-1.4-2.2c-2.3-3.7-4.8-7.3-7.6-10.7c-0.7-0.8-1.5-1.6-2.3-2.3C71,15.5,69.5,15,68,14.9h-0.1
					c-1.4,0-2.7,0.5-3.8,1.4c-0.9,0.7-1.6,1.4-2.3,2.3c-2.8,3.4-5.3,6.9-7.6,10.7L53,31c-2.3,2.8-4.7,5.5-7.3,8
					c-1.8,1.7-3.9,3-6.2,3.9c-0.6,0.2-1.3,0.4-2,0.5c-2.7,0.1-3.6-1.4-4-2.7c-0.1-0.7-0.2-1.4-0.2-2.1l-0.1-4.7
					c0-0.8-0.2-1.7-0.8-1.9c-0.3-0.1-0.7,0-1,0.1c-1.5,0.7-2.9,1.9-3.9,3.3c-7,9-9.7,20.6-7.4,31.8c0.5,2.2,1.1,4.3,1.9,6.4
					c0.8,2.4,1.9,4.8,3.1,7c4.6,8.1,12.2,14.1,21.1,16.8c3.2,1,6.4,1.6,9.7,1.8c4,0.5,8,0.7,12,0.7c3.8,0,7.6-0.2,11.3-0.6
					c3.8-0.1,7.5-0.8,11.2-1.9c8.9-2.7,16.4-8.7,21.1-16.7c1.2-2.2,2.2-4.6,3.1-7c0.8-2.1,1.4-4.3,1.9-6.5
					C118.6,55.8,115.9,44.2,108.9,35.2z"/>
			</defs>
			<clipPath id="SVGID_20_">
				<use xlink:href="#SVGID_19_"  style="overflow:visible;"/>
			</clipPath>
			<g class="st26">
				<path class="st27" d="M112.7,78.6c-14.6,14.8-37.3,21.8-58.1,17.7c-3.4-0.6-6.8-1.6-10-3c-7.3-3.2-13.5-8.6-17.5-15.4l-3.4,8.2
					l16.8,12.5l11.6,3.2l18.8,1.2l26.7-2.2l10.7-8.8L112.7,78.6z"/>
			</g>
		</g>
		<path class="st28" d="M47.9,71.3c1.5,8.7-3.5,16.4-11.1,16.8S22.7,81.4,22,72.9c-0.6-8,4.3-14.6,11-15.1S46.5,63.2,47.9,71.3z"/>
		<path class="st29" d="M45.8,71c1.5,8.7-3.5,16.4-11.1,16.8S20.6,81.1,20,72.6c-0.6-8,4.3-14.6,11-15.1S44.4,62.8,45.8,71z"/>
		<circle class="st30" cx="36.3" cy="73.4" r="5.3"/>
		<path class="st28" d="M86.6,71.8c-1.2,8.7,4,16.3,11.6,16.4s13.9-7.1,14.3-15.6c0.4-8-4.7-14.4-11.4-14.7S87.8,63.6,86.6,71.8z"/>
		<path class="st29" d="M88.7,71.3c-1.2,8.7,4,16.3,11.6,16.4s13.9-7.1,14.3-15.6c0.4-8-4.7-14.4-11.4-14.7S89.8,63.2,88.7,71.3z"/>
		<path class="st31" d="M62.2,86c2.2,3.6,7,4.7,10.6,2.5c0.5-0.3,0.9-0.7,1.4-1.1"/>
		<circle class="st30" cx="98.3" cy="73.4" r="5.3"/>
		<circle class="st28" cx="68.1" cy="49.8" r="8.1"/>
		<circle class="st32" cx="68.1" cy="48.3" r="8.1"/>
		<path class="st30" d="M68.1,53c-3.8,0-7.1-2.7-7.9-6.4c-1,4.4,1.8,8.7,6.2,9.7c4.4,1,8.7-1.8,9.7-6.2c0.3-1.2,0.3-2.3,0-3.5
			C75.3,50.3,72,53,68.1,53z"/>
		<circle class="st33" cx="68.2" cy="45" r="4"/>
		<path class="st34" d="M58,31.9c0.2,0.1,0.3,0.3,0.4,0.5c0.8,1.4,0.6,3.2,0.3,4.7c-1.3,6.1-3.2,12.1-5.5,17.9
			c-0.1,0.4-0.3,0.7-0.5,1c-0.8,0.7-2.7,0.4-3.6,0.1c-4.1-1.1-8-3.1-11.2-5.9c-0.7-0.7-1.4-1.6-1.1-2.5c0.3-0.7,0.9-1.1,1.7-1.3
			c1.7-0.7,3.5-1.3,5.1-2.1c1.8-1,3.4-2.3,4.9-3.7c1.9-1.8,3.7-3.7,5.4-5.8c0.9-1,1.7-1.9,2.7-2.8c0.2-0.2,0.4-0.3,0.6-0.4
			C57.4,31.6,57.7,31.7,58,31.9z"/>
		<path class="st35" d="M84.6,41.7c0.7,1,1.4,2,2.2,3c0.8,0.9,1.8,1.4,3,1.5c0.5,0,1,0,1.4-0.1c0.6-0.1,1.1-0.2,1.7-0.3
			c0.3,0,0.6-0.2,0.9-0.3c0.9-0.7,0.1-1.2-0.5-1.6c-4.4-3-8.2-6.8-11.2-11.1c-0.4-0.6-0.8-1.2-1.3-1.8c-0.1-0.1-0.2-0.2-0.4-0.3
			c-1-0.1,0,2.1,0.1,2.5c0.3,1,0.8,2,1.2,3C82.5,38.1,83.4,39.9,84.6,41.7z"/>
		<g>
			<defs>
				<path id="SVGID_21_" d="M140.4,146.7c-2.4-4.8-6.5-6.8-11.8-6.7c-6.7,0.1-13.1,2.7-19.1,5.6c-4.1,2-8.1,4.2-12.3,6.1
					c-1.9,0.9-4,1.6-5.9,2.4c-1.7,0.7-2.5-0.2-3.7-1.6c-0.9-1.1-1.7-2.3-2.3-3.6c-1-2.4-1.6-5-1.8-7.6c-0.4-4.1-0.4-8.1,0-12.2
					c-8.5,1-17.1,1.3-25.6,0.8c-5.3,6.1-8.5,13.7-11.3,21.3c-2.4,6.6-4.4,13.4-4.4,20.4s2.4,14.2,7.7,18.9
					c6.1,5.3,14.8,6.2,22.9,6.4c8.3,0.2,16.5-0.2,24.8-0.8c7.6-0.6,15.2-1.4,22.3-3.8s14-6.5,18.5-12.6
					C145.2,170.3,145.6,157,140.4,146.7z"/>
			</defs>
			<clipPath id="SVGID_22_">
				<use xlink:href="#SVGID_21_"  style="overflow:visible;"/>
			</clipPath>
			<g class="st36">
				<path class="st37" d="M52.1,174.6c-1.6-7.6-0.7-15.6,2.6-22.6c1.4-3.3,3.9-6,7-7.7c4.1-2.1,11.2-2.7,14.9,0.3
					c1.4,1.2,2.6,2.6,3.4,4.3c1.5,2.9,2.2,6.1,3.6,9.1c1.4,2.8,3.5,5.2,6.1,7c3.9,2.7,8.5,4.1,13.2,4.1c5.6,0.1,10.8-1.7,15.8-4
					c4.6-1.9,8.5-5.1,11.3-9.2c3-4.5,3.8-10.1,2.2-15.3c-0.5-1.5-1.3-2.8-2.4-3.9c-1-0.8-2.1-1.5-3.2-2c1-1.8,7.8,0.3,9.4,0.8
					c3.2,1.1,6,2.8,8.3,5.2c5.1,5.5,6.2,13.5,5.9,21c-0.3,8.8-2.2,17.9-7.8,24.8c-4.2,4.9-9.6,8.6-15.7,10.6
					c-6.1,2.1-12.4,3.4-18.9,3.9c-7.6,0.8-15.3,1.1-23,0.9c-4.9-0.2-9.8-0.4-14.4-2.2c-4.9-2-9-5.3-12-9.6
					C55.3,185.4,53.1,180.2,52.1,174.6z"/>
				<path class="st38" d="M98.1,157.6c0.9,0.2,1.8,0.4,2.7,0.6c4.9,0.9,10.1,1.3,14.4,3.9c5.5,3.4,8.5,10.5,8.7,16.8
					c0,5.4-1.3,10.8-3.7,15.6c-1,2-1.9,4-2.4,6.2c-0.5,2.4,0,7.7,3.6,7.6c1,0,2.3-1.1,3.3-1.5c1.8-0.6,3.6-1,5.4-1.6
					c6.8-2.4,13-6.2,18.2-11.2c7.6-7.3,12.2-17.1,12.9-27.6c0.1-4.6-0.3-9.3-1.3-13.8c-0.9-4.6-2.2-9.4-5.4-13s-8-5.5-12.8-5.9
					c-4.8-0.3-9.6,0.3-14.3,1.7c-8.7,2.4-17,6-25.2,9.6l-7.6,3.4c-2.4,1.1-8.7,2.1-4.9,5.3C92.1,155.6,95,157,98.1,157.6z"/>
			</g>
		</g>
		<g id="Layer_2">
			<defs>
				<path id="SVGID_23_" d="M83.5,129c-0.4,4.1-0.4,8.1,0,12.2c0.2,2.6,0.8,5.2,1.8,7.6c1.1,2.4,3.5,6,6.3,5.2
					c5.1-1.6,9.5-5.5,14-8.3c4.7-3,9.8-5.4,15.1-7.1c3.6-1,7.9-1.8,11.5-0.4s6.3,4.8,8.1,8.4c5.2,10.4,4.8,23.6-2.1,33
					c-4.5,6.1-11.3,10.2-18.5,12.6s-14.8,3.2-22.3,3.8c-8.2,0.6-16.5,1-24.8,0.8c-8.1-0.2-16.8-1.1-22.8-6.4
					c-5.3-4.6-7.7-11.9-7.7-18.9s2-13.8,4.4-20.4c2.7-7.6,6-15.2,11.3-21.3C66.4,130.3,75,130,83.5,129z"/>
			</defs>
			<clipPath id="SVGID_24_">
				<use xlink:href="#SVGID_23_"  style="overflow:visible;"/>
			</clipPath>
			<g id="Layer_1-2" class="st39">
				<g>
					<defs>
						<path id="SVGID_25_" d="M52.1,174.6c-1.6-7.6-0.7-15.6,2.6-22.6c1.4-3.3,3.9-6,7-7.7c4.1-2.1,11.2-2.7,14.9,0.3
							c1.4,1.2,2.6,2.6,3.4,4.3c1.5,2.9,2.2,6.1,3.6,9.1c1.4,2.8,3.5,5.2,6.1,7c3.9,2.7,8.5,4.1,13.2,4.1c5.6,0.1,10.8-1.7,15.8-4
							c4.6-1.9,8.5-5.1,11.3-9.2c3-4.5,3.8-10.1,2.2-15.3c-0.5-1.5-1.3-2.8-2.4-3.9c-1-0.8-2.1-1.5-3.2-2c1-1.8,7.8,0.3,9.4,0.8
							c3.2,1.1,6,2.8,8.3,5.2c5.1,5.5,6.2,13.5,5.9,21c-0.3,8.8-2.2,17.9-7.8,24.8c-4.2,4.9-9.6,8.6-15.7,10.6
							c-6.1,2.1-12.4,3.4-18.9,3.9c-7.6,0.8-15.3,1.1-23,0.9c-4.9-0.2-9.8-0.4-14.4-2.2c-4.9-2-9-5.3-12-9.6
							C55.3,185.4,53.1,180.2,52.1,174.6z"/>
					</defs>
					<clipPath id="SVGID_26_">
						<use xlink:href="#SVGID_25_"  style="overflow:visible;"/>
					</clipPath>
					<g class="st40">
						<path class="st41" d="M52.9,151.7c9.9,1.9,20.1,0.8,29.5-3"/>
						<path class="st41" d="M48.3,165.1c2.4,0.8,4.9,1.2,7.4,1c6.4,0.1,12.8-0.9,18.9-2.8c6.1-2.1,11.7-5.7,15.4-10.9"/>
						<path class="st41" d="M49.2,179.2c2.2,1,4.5,1.4,6.9,1.2c5.9-0.1,11.8-1.1,17.5-3.1c2.7-0.9,5.3-2.1,7.7-3.6
							c5-3.2,8.8-8.1,11.8-13.3"/>
						<path class="st41" d="M57.3,194c3,1.2,6.3,1.5,9.4,1c15.6-1.9,28.3-13.3,32-28.5"/>
						<path class="st41" d="M105.7,165.9c1.2,6.6,0.3,13.3-2.7,19.3c-2.9,6-7,11.3-12,15.7"/>
						<path class="st41" d="M115.4,164.8c4.2,5.2,5.6,12.2,4.7,18.8s-4,12.7-8.1,18"/>
						<path class="st41" d="M122.4,158.4c10.2,5.2,15,17.3,11,28.1"/>
						<path class="st41" d="M127.4,152.2c7.7-1.6,15.5,2.1,19.1,9.1"/>
						<path class="st41" d="M129.3,143.3c3.3-0.2,6.6,0.2,9.7,1.4c3.1,1.2,5.8,3.3,7.6,6.1"/>
					</g>
				</g>
				<path class="st42" d="M67.8,108.7c-0.6,0.8-0.4,1.7-0.4,2.7c0,0.8,0,1.6,0.1,2.4c0.1,3.4,0.2,6.8,0.3,10.3
					c0.1,3.2,0.2,6.3,0.3,9.5c0,0.2,0.2,0.2,0.3,0v-0.7l0.3-6.3l0.5-9l0.2-4.1c0.2-1.4,0.2-2.7,0.1-4.1c0-0.2-0.1-0.4-0.2-0.7
					c-0.1-0.2-0.3-0.3-0.5-0.4C68.3,108.2,68,108.3,67.8,108.7L67.8,108.7z"/>
				<path class="st43" d="M48.9,127c0.1,0.6,0.3,1.2,0.5,1.7c0.4,0.5,0.8,0.9,1.4,1.3c2.5,1.7,5.3,3,8.2,3.8c0.3,0.1,0.7,0.1,1,0
					c0.1-0.1,0.3-0.3,0.3-0.4c0.4-1.1-0.4-2.3-1.1-3.3c-3.2-4-6.2-8.6-9.8-12.2c-1.6-1.6-1.5,0.4-1.4,1.8
					C48.1,122.2,48.4,124.6,48.9,127z"/>
				<path class="st10" d="M126.1,149.8c-0.3-0.1-0.6-0.2-0.9-0.1c-1.7,0.4-3.4,1.2-4.7,2.4c-2,1.5-4.2,2.8-6.5,3.8
					c-6.1,2.6-13,2.2-19.3,0.2c-0.9-0.3-1.8-0.6-2.6-1l-1.1,0.3l0.3,0.3c3,2.2,6.8,3.3,10.3,4.2c3,0.8,6.1,1,9.2,0.5
					c1.9-0.3,3.7-0.9,5.5-1.6c2.1-0.7,4.1-1.7,6-2.9c1.5-1,3.9-2.7,4.3-4.7C126.8,150.8,126.6,150.1,126.1,149.8z"/>
				<path class="st44" d="M53.5,167.4c-0.1-7.6,2.2-15.7,8.2-20.4c0.3-0.3,0.6-0.4,1-0.5c1.1-0.1,1.5,1.5,1.4,2.6
					c-0.7,12.4,1.6,24.8,6.6,36.1c0.7,1.6,1.7,3.1,2.5,4.7c0.5,1,1.1,2,1.6,3.1c0.4,0.8,1.2,2-0.3,1.9c-2.5,0-5-0.3-7.5-0.9
					c-5.3-1.5-8.1-6.2-10.1-11.1C54.7,178.1,53.6,172.8,53.5,167.4z"/>
				
					<linearGradient id="SVGID_27_" gradientUnits="userSpaceOnUse" x1="29.8377" y1="183.1273" x2="106.9377" y2="117.8873" gradientTransform="matrix(1 0 0 -1 0 210)">
					<stop  offset="0" style="stop-color:#FFFFFF;stop-opacity:0.7"/>
					<stop  offset="0.64" style="stop-color:#FFFFFF;stop-opacity:0"/>
				</linearGradient>
				<ellipse class="st45" cx="67.1" cy="58.4" rx="51.4" ry="48.4"/>
				
					<ellipse transform="matrix(0.7809 -0.6247 0.6247 0.7809 -8.931 37.5804)" class="st46" cx="49.1" cy="31.5" rx="13.2" ry="13.2"/>
				<ellipse transform="matrix(0.866 -0.5 0.5 0.866 -20.0356 23.0506)" class="st46" cx="33" cy="48.9" rx="5.6" ry="5.6"/>
				<path class="st9" d="M13.3,130.1l0.4,0.5c2.2,2.3,5.3,3.6,8.4,4.6c2.3,0.9,4.8,1.3,7.3,1c2.2-0.4,0.7,1.7-0.2,2.3
					c-2.2,1.4-4.7,2.1-7.3,2.1c-2.6,0-5.1-0.6-7.4-1.7c-2.9-1.4-5.5-3.6-6.5-6.6c-0.4-1.2-0.4-2.6,0.1-3.8c0.6-1.1,2.3-0.8,3.2-0.2
					C12.1,128.7,12.8,129.4,13.3,130.1z"/>
			</g>
		</g>
	</g>
</g>
</svg>
