<svg xmlns="http://www.w3.org/2000/svg" xmlns:xlink="http://www.w3.org/1999/xlink" viewBox="0 0 138.3 201.59"><defs><style>.cls-1,.cls-24{fill:none;}.cls-2{opacity:0.08;}.cls-3{fill:#96d2e2;}.cls-15,.cls-4{fill:#9090bf;}.cls-5{clip-path:url(#clip-path);}.cls-6{fill:#57579b;opacity:0.28;}.cls-7{fill:#dddded;}.cls-8{clip-path:url(#clip-path-2);}.cls-9{fill:#c1c1db;}.cls-10{opacity:0.1;}.cls-11{fill:#ededf9;}.cls-12{fill:#c7c6db;}.cls-13{fill:#d64386;}.cls-14{clip-path:url(#clip-path-3);}.cls-15{opacity:0.45;}.cls-16{fill:#e95291;}.cls-17{opacity:0.47;}.cls-18{clip-path:url(#clip-path-4);}.cls-19{fill:#d84186;}.cls-20{fill:#6e49a9;}.cls-21{fill:#5c3c99;}.cls-22{fill:#7054e2;}.cls-23,.cls-29,.cls-30{fill:#fff;}.cls-24{stroke:#2a2a77;stroke-linecap:round;stroke-miterlimit:10;stroke-width:3px;}.cls-25,.cls-29{opacity:0.13;}.cls-26{clip-path:url(#clip-path-5);}.cls-27{fill:#d4d4e8;}.cls-28{opacity:0.65;fill:url(#linear-gradient);}.cls-30{opacity:0.62;}.cls-31{fill:#5f408e;opacity:0.38;}</style><clipPath id="clip-path"><path class="cls-1" d="M51,108.11c-2.64,2.42-6.88,6.62-9.24,9.32A19.85,19.85,0,0,1,39,120.24c-1.71,1.32-3.82,2-5.8,2.84-4.06,1.79-7.81,4.81-9.35,9a12,12,0,0,0,7.11,15.44,8.26,8.26,0,0,0,3.42.57,8.43,8.43,0,0,0,5.45-2.94,25,25,0,0,0,3.41-5.34L50,126.92a17.36,17.36,0,0,1,3.5-5.07,1.23,1.23,0,0,0,.3-.34,1.17,1.17,0,0,0,0-.83,52.79,52.79,0,0,1-1.6-8.27c-.09-.83,1.91-5,1.43-5.63S51.53,107.59,51,108.11Z"/></clipPath><clipPath id="clip-path-2"><path class="cls-1" d="M26,136.68c1.38,0,2.58-.59,2.46-2.46a4.36,4.36,0,0,0-.57-1.64l-1.38-2.72a13.51,13.51,0,0,1-1.63-4.44c-.21-1.77.29-3.54.38-5.33s-.4-3.8-1.94-4.7c-1.75-1-4.13,0-5.24,1.67-2.4,3.65-1.24,9.92.5,13.56a12.24,12.24,0,0,0,4.47,5.18A6.22,6.22,0,0,0,26,136.68Z"/></clipPath><clipPath id="clip-path-3"><path class="cls-1" d="M59.59,137.36a15.16,15.16,0,0,0,4.79,4.81c2,1.12,6,1.78,8,.68a19.58,19.58,0,0,0,3.35-2.48c9.18-9.63,11.34-23.1,9.4-36.17-9.77.53-20,.41-29.79.91-4.42.23-3.6,3.69-3.45,7.37a52.88,52.88,0,0,0,1.94,12.38A42.8,42.8,0,0,0,59.59,137.36Z"/></clipPath><clipPath id="clip-path-4"><path class="cls-1" d="M123.47,54.91C115,39.05,102.62,24.84,87.72,16.18c-.81-.47-2.72-1.34-3.34-.11a2.88,2.88,0,0,0,.17,2.11,14.61,14.61,0,0,0,1,2.06,59.24,59.24,0,0,1,2.77,5.84c2.7,6.85-1.11,15.2-7,19a25.24,25.24,0,0,1-25.7,0c-5.87-3.81-9.67-12.16-7-19a59.2,59.2,0,0,1,2.77-5.84,14.62,14.62,0,0,0,1-2.06,2.88,2.88,0,0,0,.17-2.11c-.62-1.23-2.53-.36-3.34.11C34.3,24.84,21.9,39.05,13.46,54.91a32.81,32.81,0,0,0-3.62,17c.47,7.06,4,14.25,9.73,17.51,1.86,1.05,3.9,1.7,5.69,2.89a16.59,16.59,0,0,1,2.59,2.2H28c7.67,8.82,23,14.85,40.59,14.85,18.14,0,33.81-6.37,41.24-15.62h.07a14.6,14.6,0,0,1,1.79-1.43c1.79-1.19,3.83-1.84,5.69-2.89,5.76-3.25,9.26-10.45,9.73-17.51A32.8,32.8,0,0,0,123.47,54.91Z"/></clipPath><clipPath id="clip-path-5"><path class="cls-1" d="M32.82,145.32a3,3,0,0,0-1-2.7,18.62,18.62,0,0,0-2.43-1.76,11.23,11.23,0,0,1-2.85-3c-1-1.51-1.63-3.27-2.83-4.63a2.68,2.68,0,0,0-1.06-.81,2.67,2.67,0,0,0-1.65.07,5.46,5.46,0,0,0-2.53,1.55c-1.65,1.86-1.45,4.79-.38,7a11.46,11.46,0,0,0,6.69,5.78C26.9,147.62,32.09,148.44,32.82,145.32Z"/></clipPath><linearGradient id="linear-gradient" x1="45.11" y1="14.4" x2="88.43" y2="90.81" gradientUnits="userSpaceOnUse"><stop offset="0" stop-color="#fff" stop-opacity="0.7"/><stop offset="0.64" stop-color="#fff" stop-opacity="0"/></linearGradient></defs><title>ziggy_11</title><g id="Layer_2" data-name="Layer 2"><g id="Layer_1-2" data-name="Layer 1"><ellipse class="cls-2" cx="69.15" cy="194.09" rx="50.5" ry="7.5"/><path class="cls-3" d="M138,50.61c3.34,32.23-26.89,61.66-68.27,62.74C27.91,114.45-3.26,86,.27,53,3.48,23,34.66.37,69.86,0,104.72-.35,135,21.27,138,50.61Z"/><path class="cls-4" d="M51,108.11c-2.64,2.42-6.88,6.62-9.24,9.32A19.85,19.85,0,0,1,39,120.24c-1.71,1.32-3.82,2-5.8,2.84-4.06,1.79-7.81,4.81-9.35,9a12,12,0,0,0,7.11,15.44,8.26,8.26,0,0,0,3.42.57,8.43,8.43,0,0,0,5.45-2.94,25,25,0,0,0,3.41-5.34L50,126.92a17.36,17.36,0,0,1,3.5-5.07,1.23,1.23,0,0,0,.3-.34,1.17,1.17,0,0,0,0-.83,52.79,52.79,0,0,1-1.6-8.27c-.09-.83,1.91-5,1.43-5.63S51.53,107.59,51,108.11Z"/><g class="cls-5"><path class="cls-6" d="M23.52,136.34a7.28,7.28,0,0,0,5.6,6.68,10.32,10.32,0,0,0,8.77-2.28c3.77-3.07,5.5-7.92,8.22-12a27.57,27.57,0,0,1,10-9l.18,3.44-5.42,5.42L45.63,143l-7.92,7-5.75.58-5.42-2.75-5.41-6.27Z"/></g><path class="cls-4" d="M88.18,107.71a96.08,96.08,0,0,1,7.5,7.7,19.85,19.85,0,0,0,2.75,2.81,56.86,56.86,0,0,0,8.24,4.47c4.06,1.79,7.81,4.81,9.35,9a12,12,0,0,1-7.11,15.44,8.26,8.26,0,0,1-3.42.57,8.43,8.43,0,0,1-5.45-2.94,25,25,0,0,1-3.41-5.34c-2.25-4.29-7-10.21-9.21-14.5a17.36,17.36,0,0,0-3.5-5.07,1.23,1.23,0,0,1-.3-.34,1.17,1.17,0,0,1,0-.83,52.79,52.79,0,0,0,1.6-8.27c.09-.83-.17-3.4.31-4S87.62,107.19,88.18,107.71Z"/><path class="cls-7" d="M26,136.68c1.38,0,2.58-.59,2.46-2.46a4.36,4.36,0,0,0-.57-1.64l-1.38-2.72a13.51,13.51,0,0,1-1.63-4.44c-.21-1.77.29-3.54.38-5.33s-.4-3.8-1.94-4.7c-1.75-1-4.13,0-5.24,1.67-2.4,3.65-1.24,9.92.5,13.56a12.24,12.24,0,0,0,4.47,5.18A6.22,6.22,0,0,0,26,136.68Z"/><g class="cls-8"><path class="cls-9" d="M22.45,131.8a5.82,5.82,0,0,0,2.33,1.6,2.56,2.56,0,0,0,2.64-.58,4.69,4.69,0,0,0,.78-1.69,8.69,8.69,0,0,1,1.59,2.29,2.94,2.94,0,0,1-.1,2.69,4,4,0,0,1-1.43,1.18,6.63,6.63,0,0,1-3.46,1.09,5.8,5.8,0,0,1-2.72-.94,15.28,15.28,0,0,1-6.27-8.71,16.19,16.19,0,0,1-.1-10.23c.38-1,1.13-2.61,2.32-2.89.22,1.23-.42,3-.41,4.29a17.55,17.55,0,0,0,.58,4.31A17,17,0,0,0,22.45,131.8Z"/></g><path class="cls-7" d="M30.95,129.94a2.19,2.19,0,0,0,1.43-1.26,6.11,6.11,0,0,0,.44-1.92,18.41,18.41,0,0,1,1.24-5.84c.45-1,1.1-1.83,1.47-2.83a3.16,3.16,0,0,0-.23-3,2.74,2.74,0,0,0-3-.68,5.61,5.61,0,0,0-2.5,2.1,12.4,12.4,0,0,0-2.27,8.17C27.63,126.4,28.18,130.55,30.95,129.94Z"/><path class="cls-11" d="M32.82,145.32a3,3,0,0,0-1-2.7,18.62,18.62,0,0,0-2.43-1.76,11.23,11.23,0,0,1-2.85-3c-1-1.51-1.63-3.27-2.83-4.63a2.68,2.68,0,0,0-1.06-.81,2.67,2.67,0,0,0-1.65.07,5.46,5.46,0,0,0-2.53,1.55c-1.65,1.86-1.45,4.79-.38,7a11.46,11.46,0,0,0,6.69,5.78C26.9,147.62,32.09,148.44,32.82,145.32Z"/><path class="cls-7" d="M112,137.61c-1.37-.2-2.45-1-2-2.83a4.36,4.36,0,0,1,.83-1.53l1.8-2.46a13.51,13.51,0,0,0,2.32-4.12c.49-1.72.28-3.54.48-5.32s1-3.69,2.67-4.33c1.89-.72,4.08.64,4.91,2.49,1.79,4-.37,10-2.67,13.31a12.24,12.24,0,0,1-5.24,4.4A6.22,6.22,0,0,1,112,137.61Z"/><path class="cls-7" d="M108.48,128.19a2.14,2.14,0,0,1-.89-1.64,6,6,0,0,1,.24-1.91,18,18,0,0,0,.82-5.78c-.09-1-.39-2.05-.4-3.09a3.09,3.09,0,0,1,1.24-2.72,2.68,2.68,0,0,1,3,.39,5.48,5.48,0,0,1,1.59,2.77,12.12,12.12,0,0,1-.66,8.26C112.71,126,110.81,129.67,108.48,128.19Z"/><path class="cls-11" d="M104.13,146.61a3.61,3.61,0,0,1,1.15-2.83,21.18,21.18,0,0,1,2.45-1.92,13.35,13.35,0,0,0,2.94-3.17c1.07-1.6,1.8-3.44,3-4.9a3.06,3.06,0,0,1,1.08-.88,2.34,2.34,0,0,1,1.57,0,4.41,4.41,0,0,1,2.29,1.49c1.43,1.86,1,4.88-.16,7.25a13.26,13.26,0,0,1-6.81,6.26C109.6,148.73,104.59,149.8,104.13,146.61Z"/><path class="cls-12" d="M111.29,165.91a43,43,0,0,0-30.05-1.22c-6.83,2.27-13,6.24-19.91,8.27a37.62,37.62,0,0,1-8.39,1.47c-3.66.22-7.56-.18-10.52-2.35-4.09-3-5.33-8.81-4.11-13.74s4.46-9.09,8-12.75a61,61,0,0,1,16.68-12.65,1.73,1.73,0,0,0,.51.81c2.49,3,5,6.08,8.33,8.18a3.08,3.08,0,0,0,2.82-.11c-5.75,2.63-10.36,2.5-16.48,9.34-2.26,2.53-5.56,4-7.46,6.85a4.8,4.8,0,0,0-1,3.5,4,4,0,0,0,2,2.5c3.24,1.87,7.32.68,10.88-.48,7.07-2.3,14.11-5.09,21.47-6.18a44.36,44.36,0,0,1,13.18.11A22.3,22.3,0,0,1,109,163.28,8.83,8.83,0,0,1,111.29,165.91Z"/><path class="cls-13" d="M51.74,143.18a18.5,18.5,0,0,0,.54,13c1.36,3,3.62,5.47,5.35,8.27a26.2,26.2,0,0,1,2.94,20.39,3.91,3.91,0,0,1-.82,1.72,1.48,1.48,0,0,1-1.74.38,2.3,2.3,0,0,1-.72-.84c-.94-1.52-2.24-3.07-4-3.25A3.27,3.27,0,0,0,50,187.48a3.11,3.11,0,0,0-1.21-2.57,10,10,0,0,0-2.7-1.64,7.15,7.15,0,0,0-4.4-.35c-1.48.4-2.71,2.1-2,3.48a4.51,4.51,0,0,0-4.26-1.74,1.81,1.81,0,0,0-.85.32,1.89,1.89,0,0,0-.47.63,5.5,5.5,0,0,0,7,7.6,6.47,6.47,0,0,1,2.13-.78,5.25,5.25,0,0,1,1.82.42,8.23,8.23,0,0,0,4.2.26,17.22,17.22,0,0,1,4.28-.5,31.39,31.39,0,0,0,4.62,0c1.45-.17,3.6-.68,4.56-1.84a9.25,9.25,0,0,0,1.88-6.18c0-1.53-.18-3-.26-4.57-.51-10.16-.83-20.44,1.14-30.43.66-3.33,1.51-7-.22-9.94A15.4,15.4,0,0,0,61.57,136c-.7-.59-2.92-3.53-3.47-3.41s-1.61,1.87-2,2.34a30.32,30.32,0,0,0-1.74,2.52A24.88,24.88,0,0,0,51.74,143.18Z"/><path class="cls-13" d="M86.92,144.27c1.3,4.23,1.4,11.64-.43,15.67-1.36,3-2.26,4.82-3.46,7.88-2.09,5.37-1.76,10.5.1,17.31a3.91,3.91,0,0,0,.82,1.72,1.48,1.48,0,0,0,1.74.38,2.3,2.3,0,0,0,.72-.84c.94-1.52,2.24-3.07,4-3.25a3.27,3.27,0,0,1,3.27,4.67,3.11,3.11,0,0,1,1.21-2.57,8.52,8.52,0,0,1,2.6-1.6,7.08,7.08,0,0,1,4.51-.39c1.48.4,2.71,2.1,2,3.48A4.51,4.51,0,0,1,108.3,185a1.81,1.81,0,0,1,.85.32,1.89,1.89,0,0,1,.47.63,5.5,5.5,0,0,1-7,7.6,6.47,6.47,0,0,0-2.13-.78,5.25,5.25,0,0,0-1.82.42,8.23,8.23,0,0,1-4.2.26,17.22,17.22,0,0,0-4.28-.5,31.39,31.39,0,0,1-4.62,0c-1.45-.17-3.6-.68-4.56-1.84a9.25,9.25,0,0,1-1.88-6.18,43.54,43.54,0,0,0-.19-4.91c-1.2-11.36-2.37-19.7-4.34-29.68-.66-3.33-1.51-7,.22-9.94a15.4,15.4,0,0,1,3.67-3.67c.7-.59,1.53-3.17,2.08-3.05s1.61,1.87,2,2.34a30.32,30.32,0,0,1,1.74,2.52A24.88,24.88,0,0,1,86.92,144.27Z"/><path class="cls-12" d="M59.59,137.36a15.16,15.16,0,0,0,4.79,4.81c2,1.12,6,1.78,8,.68a19.58,19.58,0,0,0,3.35-2.48c9.18-9.63,11.34-23.1,9.4-36.17-9.77.53-20,.41-29.79.91-4.42.23-3.6,3.69-3.45,7.37a52.88,52.88,0,0,0,1.94,12.38A42.8,42.8,0,0,0,59.59,137.36Z"/><g class="cls-14"><path class="cls-15" d="M52.45,106.34a35,35,0,0,0,6.76,25.22,18,18,0,0,0,5.13,4.86,9.36,9.36,0,0,0,6.88,1.2c3.55-.89,5.86-4.19,7.57-7.38a67,67,0,0,0,7.81-26.92l4.88,7.12-1,17.13-6.87,17.13-21.37,6.13L47.11,135.69Z"/></g><path class="cls-11" d="M71.39,130.07a2.47,2.47,0,0,0-1.55,1.08,13.7,13.7,0,0,0-1.95,4.79,32.22,32.22,0,0,1-1.71,5.25,8.13,8.13,0,0,0-.55,1.34,3.38,3.38,0,0,0,.61,2.71,4.29,4.29,0,0,0,1.84,1.29,6.88,6.88,0,0,0,4.26.39,4.89,4.89,0,0,0,3.27-2.64,8.4,8.4,0,0,0,.48-3.45,27,27,0,0,0-.33-5.11C75.4,133.9,73.94,129.75,71.39,130.07Z"/><path class="cls-16" d="M123.47,54.91C115,39.05,102.62,24.84,87.72,16.18c-.81-.47-2.72-1.34-3.34-.11a2.88,2.88,0,0,0,.17,2.11,14.61,14.61,0,0,0,1,2.06,59.24,59.24,0,0,1,2.77,5.84c2.7,6.85-1.11,15.2-7,19a25.24,25.24,0,0,1-25.7,0c-5.87-3.81-9.67-12.16-7-19a59.2,59.2,0,0,1,2.77-5.84,14.62,14.62,0,0,0,1-2.06,2.88,2.88,0,0,0,.17-2.11c-.62-1.23-2.53-.36-3.34.11C34.3,24.84,21.9,39.05,13.46,54.91a32.81,32.81,0,0,0-3.62,17c.47,7.06,4,14.25,9.73,17.51,1.86,1.05,3.9,1.7,5.69,2.89a16.59,16.59,0,0,1,2.59,2.2H28c7.67,8.82,23,14.85,40.59,14.85,18.14,0,33.81-6.37,41.24-15.62h.07a14.6,14.6,0,0,1,1.79-1.43c1.79-1.19,3.83-1.84,5.69-2.89,5.76-3.25,9.26-10.45,9.73-17.51A32.8,32.8,0,0,0,123.47,54.91Z"/><g class="cls-17"><g class="cls-18"><path class="cls-19" d="M28.58,83.87c3.79,7.28,10.51,12.82,18.09,16A64.56,64.56,0,0,0,71,104.28a46.5,46.5,0,0,0,26.25-8.67c5.44-4.12,9.6-9.7,12.92-15.66l12.42-2.67s4,6.17-10.67,15.5c-3.45,2.19-6.8,11.26-13.83,13.67C77,113.65,43.75,114,43.75,114L20.92,90.28s-9.5-6.67-8.33-17.83C13.26,66,28.58,83.87,28.58,83.87Z"/></g></g><circle class="cls-20" cx="68.46" cy="60.69" r="7.12"/><path class="cls-21" d="M68.46,64.77a7.12,7.12,0,0,1-6.95-5.6,7.12,7.12,0,1,0,13.9,0A7.12,7.12,0,0,1,68.46,64.77Z"/><circle class="cls-22" cx="68.56" cy="57.77" r="3.51"/><path class="cls-19" d="M47.24,72.32c.9,10.28-6.12,18.79-15.59,18.4S15,81.45,15.09,71.46C15.22,62.06,22,54.93,30.36,55S46.4,62.67,47.24,72.32Z"/><path class="cls-23" d="M43.9,71.08C44.77,81,38,89.18,28.75,88.81S12.53,79.87,12.67,70.24c.13-9.06,6.72-15.93,14.83-15.81S43.08,61.77,43.9,71.08Z"/><circle class="cls-21" cx="32.33" cy="72.61" r="6.16" transform="translate(-40.9 41.71) rotate(-43.12)"/><path class="cls-24" d="M60.36,89.34A8.84,8.84,0,0,0,75,91.7"/><path class="cls-16" d="M54.6,148.05a21.12,21.12,0,0,0,5,15.26,1.12,1.12,0,0,0,.82.49c.38,0,.63-.37.8-.69,1.54-2.95,1.67-6.36,1.61-9.64a23.86,23.86,0,0,0-.84-6.78c-.51-1.62-2.08-5.44-4.42-5.15C55.06,141.85,54.72,146.26,54.6,148.05Z"/><path class="cls-25" d="M62.69,190.79a7.49,7.49,0,0,0,1.18-2,8.82,8.82,0,0,1-5.35,3.47A12.11,12.11,0,0,1,50.66,191c-.18-.09-.4-.18-.57-.07a.72.72,0,0,0-.19.25c-.49.8-2.36,1.21-3.29,1.12a10,10,0,0,1-6-2.27,4.69,4.69,0,0,1-.66,2.1,2.93,2.93,0,0,1-3.09,1,3.88,3.88,0,0,1-.71-.27,5.65,5.65,0,0,0,4.92.33,6.47,6.47,0,0,1,2.13-.78,5.25,5.25,0,0,1,1.82.42,8.23,8.23,0,0,0,4.2.26,17.22,17.22,0,0,1,4.28-.5,31.39,31.39,0,0,0,4.62,0C59.58,192.46,61.73,192,62.69,190.79Z"/><path class="cls-25" d="M41.35,183c-1.32.54-2.32,2.09-1.7,3.36a4.52,4.52,0,0,0-3.48-1.78c.25.07.53.1.69.15a4.89,4.89,0,0,1,1.56.86,12.08,12.08,0,0,1,1.9,2.12,4.12,4.12,0,0,1-.22-3.06A3.47,3.47,0,0,1,41.35,183Z"/><path class="cls-25" d="M50.39,185a2.88,2.88,0,0,1,1.84-2.14,3.33,3.33,0,0,0-2,1.3,3.3,3.3,0,0,0-.57,1.84,3.7,3.7,0,0,0-.91-1.12,10,10,0,0,0-2.7-1.64c-.26-.1-.52-.18-.78-.25a6.74,6.74,0,0,1,2.85,2A9,9,0,0,1,50,188.85,9.41,9.41,0,0,1,50.39,185Z"/><path class="cls-25" d="M81.09,191.12a7.49,7.49,0,0,1-1.18-2,8.82,8.82,0,0,0,5.35,3.47,12.11,12.11,0,0,0,7.87-1.21c.18-.09.4-.18.57-.07a.72.72,0,0,1,.19.25c.49.8,2.36,1.21,3.29,1.12a10,10,0,0,0,6-2.27,4.69,4.69,0,0,0,.66,2.1,2.93,2.93,0,0,0,3.09,1,3.88,3.88,0,0,0,.71-.27,5.65,5.65,0,0,1-4.92.33,6.47,6.47,0,0,0-2.13-.78,5.25,5.25,0,0,0-1.82.42,8.23,8.23,0,0,1-4.2.26,17.22,17.22,0,0,0-4.28-.5,31.39,31.39,0,0,1-4.62,0C84.21,192.79,82.06,192.27,81.09,191.12Z"/><path class="cls-25" d="M102.44,183.36c1.32.54,2.32,2.09,1.7,3.36a4.52,4.52,0,0,1,3.48-1.78c-.25.07-.53.1-.69.15a4.89,4.89,0,0,0-1.56.86,12.08,12.08,0,0,0-1.9,2.12,4.12,4.12,0,0,0,.22-3.06A3.47,3.47,0,0,0,102.44,183.36Z"/><path class="cls-25" d="M93.4,185.35a2.88,2.88,0,0,0-1.84-2.14,3.33,3.33,0,0,1,2,1.3,3.3,3.3,0,0,1,.57,1.84,3.7,3.7,0,0,1,.91-1.12,10,10,0,0,1,2.7-1.64c.26-.1.52-.18.78-.25a6.74,6.74,0,0,0-2.85,2,9,9,0,0,0-1.84,3.83A9.41,9.41,0,0,0,93.4,185.35Z"/><path class="cls-25" d="M64.21,180.69c0-.28.08-.56.1-.84q-.06-1.28-.12-2.57a17,17,0,0,0-1-3.64,14.21,14.21,0,0,0-3.64-5.47,26.24,26.24,0,0,1,1,16.65,3.91,3.91,0,0,1-.82,1.72,1.67,1.67,0,0,1-1.2.52,2.4,2.4,0,0,0,2.16,0,5.32,5.32,0,0,0,2.17-2.59A13.78,13.78,0,0,0,64.21,180.69Z"/><path class="cls-25" d="M84.2,187.12v0a1.72,1.72,0,0,1-.27-.22,3.91,3.91,0,0,1-.82-1.72c-1.86-6.81-2.19-11.94-.1-17.31.19-.49.37-.93.55-1.36a20.27,20.27,0,0,0-4.76,12.47s0,.1,0,.15l.1,1c0,.39.08.81.1,1.23a8.62,8.62,0,0,0,.93,2.69A6.33,6.33,0,0,0,84.2,187.12Z"/><path class="cls-16" d="M77.27,150.22c-.44,3.7-.33,7.61,1.37,10.92.37.73.93,1.5,1.75,1.57,1,.09,1.76-.91,2.23-1.81A21.74,21.74,0,0,0,85.13,153,14.48,14.48,0,0,0,83.74,145c-.76-1.47-2.91-3.41-4.43-1.65S77.52,148.17,77.27,150.22Z"/><path class="cls-16" d="M43.18,182.91A2,2,0,0,0,41.3,184a2.89,2.89,0,0,0,.05,2.86,3.61,3.61,0,0,0,2.37,1.64A2.88,2.88,0,0,0,47,187.48a2.92,2.92,0,0,0-.17-3.12A4.71,4.71,0,0,0,44.45,183a2.6,2.6,0,0,0-1.27-.12"/><path class="cls-16" d="M39.32,186.88a3.91,3.91,0,0,0-2.65-1.69,1.28,1.28,0,0,0-.56,0,1,1,0,0,0-.64.88,2.22,2.22,0,0,0,.23,1.11c.57,1.31,2.23,3.29,3.81,3.37S39.76,187.51,39.32,186.88Z"/><path class="cls-16" d="M54.7,184.31a3.93,3.93,0,0,0-1.11-.46,1.33,1.33,0,0,0-1.14.26,1.68,1.68,0,0,0-.27,1.69,5,5,0,0,0,2.62,3.15c1.17.57,3.6.26,2.84-1.53A6,6,0,0,0,54.7,184.31Z"/><g class="cls-26"><path class="cls-27" d="M39,143.88a12.55,12.55,0,0,1-9.48,2.92,11.61,11.61,0,0,1-8.37-5.23,15.65,15.65,0,0,1-1.27-2.6,10,10,0,0,1-.74-6.39l-5.43,2.91,1,10,9,4.75,9.11-1.27,4.95-2.44Z"/></g><path class="cls-28" d="M132.26,51.12c3.06,29.52-24.63,56.48-62.53,57.47-38.35,1-66.9-25-63.67-55.26C9,25.86,37.56,5.1,69.8,4.76,101.73,4.44,129.47,24.25,132.26,51.12Z"/><path class="cls-19" d="M89.74,72.32c-.9,10.28,6.12,18.79,15.59,18.4S122,81.45,121.89,71.46c-.13-9.4-6.92-16.53-15.27-16.41S90.59,62.67,89.74,72.32Z"/><path class="cls-23" d="M93.09,71.08C92.22,81,99,89.18,108.23,88.81s16.22-8.93,16.08-18.56c-.13-9.06-6.72-15.93-14.83-15.81S93.91,61.77,93.09,71.08Z"/><circle class="cls-21" cx="104.83" cy="72.45" r="6.16" transform="translate(-21.2 91.23) rotate(-43.12)"/><path class="cls-11" d="M39.83,163.08c.1,3.39,1.45,6.86,4.72,8.35,1.17.53,2.85.56,3.41-.6s-.39-2.33-1.14-3.31a14.16,14.16,0,0,1-2.64-6.16,15,15,0,0,1-.15-3.42c0-.65.64-2.83.09-3.32-.95-.86-1.94.2-2.42,1a14.16,14.16,0,0,0-1.87,7.43Z"/><path class="cls-11" d="M91.48,158.85a22.42,22.42,0,0,1,10.07.64,3.46,3.46,0,0,1,2.3,1.54,2.36,2.36,0,0,1-2,.13c-3.22-.69-6.54-.48-9.83-.57a2.25,2.25,0,0,1-1-.18.79.79,0,0,1-.45-.83,1,1,0,0,1,.82-.71Z"/><path class="cls-29" d="M39.46,29.32a2.91,2.91,0,0,1,2.33-.64c1.08.34,1.4,1.67,1.61,2.78a29.94,29.94,0,0,0,4.35,10.74c1.69,2.59,3.79,4.91,5.3,7.6a2.73,2.73,0,0,1,.44,2.32,2.7,2.7,0,0,1-1.88,1.27A18.38,18.38,0,0,1,35.83,50.3c-4.06-3-8.18-8.86-4.57-13.57A32.61,32.61,0,0,1,39.46,29.32Z"/><path class="cls-29" d="M90.26,27.57a1.38,1.38,0,0,1-.09-.73c.13-.5.78-.67,1.27-.54,1,.28,1.6,1.38,2,2.38a17.82,17.82,0,0,1,1.42,7.76,9.24,9.24,0,0,1-3.55,6.83c-1.2.85-3.06.47-2.76-1.3.2-1.15,1.41-2.36,1.77-3.57A19.14,19.14,0,0,0,90.26,27.57Z"/><circle class="cls-30" cx="29.11" cy="33.32" r="12.07" transform="translate(-14.43 25.49) rotate(-38.66)"/><circle class="cls-30" cx="15.19" cy="47.47" r="4.79" transform="translate(-21.7 13.96) rotate(-30)"/><ellipse class="cls-31" cx="34.41" cy="135.54" rx="3.94" ry="4.32" transform="matrix(0.94, -0.35, 0.35, 0.94, -44.76, 20.27)"/><ellipse class="cls-31" cx="103.75" cy="135.04" rx="4.32" ry="3.94" transform="translate(-58.84 185.67) rotate(-69.76)"/></g></g></svg>