<?xml version="1.0" encoding="utf-8"?>
<!-- Generator: Adobe Illustrator 21.0.0, SVG Export Plug-In . SVG Version: 6.00 Build 0)  -->
<svg version="1.1" id="Layer_1" xmlns="http://www.w3.org/2000/svg" xmlns:xlink="http://www.w3.org/1999/xlink" x="0px" y="0px"
	 viewBox="0 0 157.3 210.5" style="enable-background:new 0 0 157.3 210.5;" xml:space="preserve">
<style type="text/css">
	.st0{opacity:8.000000e-02;enable-background:new    ;}
	.st1{opacity:0.24;fill:url(#SVGID_1_);enable-background:new    ;}
	.st2{opacity:0.54;fill:url(#SVGID_2_);enable-background:new    ;}
	.st3{opacity:0.54;fill:url(#SVGID_3_);enable-background:new    ;}
	.st4{opacity:0.54;fill:url(#SVGID_4_);enable-background:new    ;}
	.st5{fill:#96D2E2;}
	.st6{fill:#79BCCC;}
	.st7{fill:#E95291;}
	.st8{clip-path:url(#SVGID_6_);}
	.st9{fill:#D84186;}
	.st10{fill:#6850A5;}
	.st11{opacity:0.9;fill:#D84186;enable-background:new    ;}
	.st12{fill:#FFFFFF;}
	.st13{fill:#5C3C99;}
	.st14{fill:none;stroke:#2A2A77;stroke-width:2.39;stroke-linecap:round;stroke-miterlimit:10;}
	.st15{fill:#9191BA;}
	.st16{clip-path:url(#SVGID_8_);}
	.st17{fill:#7D7DAA;}
	.st18{clip-path:url(#SVGID_10_);}
	.st19{clip-path:url(#SVGID_12_);}
	.st20{fill:none;stroke:#9090BF;stroke-width:6.93;stroke-linecap:round;stroke-miterlimit:10;}
	.st21{fill:none;stroke:#6F6FA8;stroke-width:0.99;stroke-linecap:round;stroke-miterlimit:10;}
	.st22{fill:#674CA8;}
	.st23{clip-path:url(#SVGID_14_);}
	.st24{opacity:0.5;fill:#4D328E;enable-background:new    ;}
	.st25{fill:#E0C34B;}
	.st26{fill:#CCB140;}
	.st27{fill:none;stroke:#7262B7;stroke-width:2.8;stroke-linecap:round;stroke-miterlimit:10;}
	.st28{fill:#C7C7DD;}
	.st29{fill:#DDDDED;}
	.st30{fill:#F5F5FC;}
	.st31{clip-path:url(#SVGID_16_);}
	.st32{opacity:0.9;fill:#CACAE0;enable-background:new    ;}
	.st33{fill:#EDEDF9;}
	.st34{opacity:0.9;fill:#FFFFFF;enable-background:new    ;}
	.st35{fill:#7D6AB7;}
	.st36{fill:#9E96CC;}
	.st37{fill:#664CA5;}
	.st38{fill:none;stroke:#9090BF;stroke-width:9.97;stroke-linecap:round;stroke-miterlimit:10;}
	.st39{clip-path:url(#SVGID_18_);}
	.st40{fill:none;stroke:#6F6FA8;stroke-width:1.5;stroke-linecap:round;stroke-miterlimit:10;}
	.st41{fill:none;stroke:#6F6FA8;stroke-width:1.43;stroke-linecap:round;stroke-miterlimit:10;}
	.st42{fill:none;stroke:#6F6FA8;stroke-width:1.42;stroke-linecap:round;stroke-miterlimit:10;}
	.st43{clip-path:url(#SVGID_20_);}
	.st44{fill:none;stroke:#7262B7;stroke-width:3.5;stroke-linecap:round;stroke-miterlimit:10;}
	.st45{opacity:0.1;fill:#9E96CC;enable-background:new    ;}
	.st46{opacity:0.37;fill:#9E96CC;enable-background:new    ;}
	.st47{opacity:0.13;fill:#9E96CC;enable-background:new    ;}
	.st48{opacity:0.25;fill:#9E96CC;enable-background:new    ;}
	.st49{clip-path:url(#SVGID_22_);}
	.st50{clip-path:url(#SVGID_24_);}
	.st51{clip-path:url(#SVGID_26_);}
	.st52{clip-path:url(#SVGID_28_);}
	.st53{opacity:0.51;}
	.st54{clip-path:url(#SVGID_30_);}
	.st55{opacity:0.65;fill:url(#SVGID_31_);enable-background:new    ;}
	.st56{opacity:0.62;fill:#FFFFFF;enable-background:new    ;}
</style>
<title>ziggy_15</title>
<g id="Layer_2">
	<g id="Layer_1-2">
		<ellipse class="st0" cx="79.6" cy="203" rx="50.5" ry="7.5"/>
		
			<linearGradient id="SVGID_1_" gradientUnits="userSpaceOnUse" x1="75.353" y1="92.8894" x2="79.973" y2="43.1993" gradientTransform="matrix(1 0 0 -1 0 212)">
			<stop  offset="0" style="stop-color:#FDD959"/>
			<stop  offset="0.99" style="stop-color:#FDD959;stop-opacity:0"/>
		</linearGradient>
		<polygon class="st1" points="56.6,115.1 63.6,178.9 87.2,179.5 93.4,115.8 		"/>
		
			<linearGradient id="SVGID_2_" gradientUnits="userSpaceOnUse" x1="63.1172" y1="89.0998" x2="65.7672" y2="56.2898" gradientTransform="matrix(1 0 0 -1 0 212)">
			<stop  offset="0" style="stop-color:#FDD959"/>
			<stop  offset="0.99" style="stop-color:#FDD959;stop-opacity:0"/>
		</linearGradient>
		<polygon class="st2" points="60.4,122.2 64.1,166.1 68.5,165.8 65.8,123.7 		"/>
		
			<linearGradient id="SVGID_3_" gradientUnits="userSpaceOnUse" x1="75.3201" y1="85.97" x2="75.2" y2="49.67" gradientTransform="matrix(1 0 0 -1 0 212)">
			<stop  offset="0" style="stop-color:#FDD959"/>
			<stop  offset="0.99" style="stop-color:#FDD959;stop-opacity:0"/>
		</linearGradient>
		<polygon class="st3" points="72.6,122.3 73.2,166.7 77.2,167 78,123.7 		"/>
		
			<linearGradient id="SVGID_4_" gradientUnits="userSpaceOnUse" x1="117.9715" y1="86.4201" x2="120.7215" y2="56.8701" gradientTransform="matrix(-1 0 0 -1 205.16 212)">
			<stop  offset="0" style="stop-color:#FDD959"/>
			<stop  offset="1" style="stop-color:#FDD959;stop-opacity:0"/>
		</linearGradient>
		<polygon class="st4" points="90.2,122.1 86,166.1 81.6,165.8 84.7,123.5 		"/>
		<polygon class="st5" points="50.5,22.5 27.7,31.8 17.6,41.3 9.7,58.3 9,72.1 15.3,90.7 23.5,99.1 34.7,106.6 56.8,110.3 
			70.3,105.6 80.8,99.6 92.2,77.7 91.3,60.2 86.4,43.4 76.8,33.6 63.6,27.6 		"/>
		<path class="st6" d="M22.4,64.5c-1.1,4.9-1.5,9.8-1.2,14.8c1.2,13.1,10.6,24.4,22,30.9c0.6,0.4,1.2,0.7,1.9,0.8
			c0.7,0,1.4-0.1,2-0.4c9.2-3.3,18.1-7.4,26.7-12.1c1.7-0.7,3-2.1,3.7-3.8c2.2-3.9,4-8,5.2-12.2c1.1-4.1,1.5-8.3,1.1-12.5
			c-0.7-7.8-4-15.1-9.3-20.8C69,43.5,61.8,40,54,39.3c-4.6-0.2-9.2,0.1-13.7,1c-3.2,0.5-7.4,0.8-9.9,3.2
			C25.4,48.2,23.6,58.1,22.4,64.5z"/>
		<path class="st7" d="M29.4,47.3l0.8-0.8l3.1-3.3l1.8-1.9c1.7-1.8,3.4-3.5,5.1-5.3c4.5-4.5,9.2-8.9,14.8-11.9s12.3-4.5,18.5-3
			c3.5,1,6.8,2.5,9.9,4.4c11,6.1,18.3,18.8,20.3,31c0.9,4.5,0.8,9.2-0.3,13.6c-1.4,4.6-3.8,8.9-7.1,12.4c-7.5,8.5-15.7,18-26.8,20.2
			c-8.7,1.7-19,1.7-27.4-1.4c-7.6-2.7-14.4-7.5-19.6-13.7c-1.5-1.7-2.7-3.8-3.2-6c-0.8-3.6,0.5-8.2,2.6-11.2c1.4-2,3-3.3,3.5-5.8
			c0.9-4.4-1.4-9,0.7-13C27,50.1,28.1,48.6,29.4,47.3z"/>
		<g>
			<defs>
				<path id="SVGID_5_" d="M29.4,47.3l0.8-0.8l3.1-3.3l1.8-1.9c1.7-1.8,3.4-3.5,5.1-5.3c4.5-4.5,9.2-8.9,14.8-11.9s12.3-4.5,18.5-3
					c3.5,1,6.8,2.5,9.9,4.4c11,6.1,18.3,18.8,20.3,31c0.9,4.5,0.8,9.2-0.3,13.6c-1.4,4.6-3.8,8.9-7.1,12.4
					c-7.5,8.5-15.7,18-26.8,20.2c-8.7,1.7-19,1.7-27.4-1.4c-7.6-2.7-14.4-7.5-19.6-13.7c-1.5-1.7-2.7-3.8-3.2-6
					c-0.8-3.6,0.5-8.2,2.6-11.2c1.4-2,3-3.3,3.5-5.8c0.9-4.4-1.4-9,0.7-13C27,50.1,28.1,48.6,29.4,47.3z"/>
			</defs>
			<clipPath id="SVGID_6_">
				<use xlink:href="#SVGID_5_"  style="overflow:visible;"/>
			</clipPath>
			<g class="st8">
				<path class="st9" d="M22.6,83.2c2.6,6.2,7.9,11,14,13.8s12.9,3.8,19.6,4c4.2,0.2,8.3-0.2,12.4-1.2c6.9-1.8,13-6.1,17.8-11.3
					S95.2,77.2,98.6,71c-0.3,12.3-6.9,23.6-17.4,30c-5.7,3.2-12,5.1-18.5,5.5c-13,0.9-25.8-2.9-36.2-10.7c-2.7-1.9-5-4.3-6.7-7.2
					c-2.8-4.9-2.5-10.9-0.4-16c0.3-0.8,0.8-2.8,1.9-2.2c1.1,0.6,0,2.8,0,3.7C20.9,77.2,21.4,80.3,22.6,83.2z"/>
				<path class="st9" d="M41.4,40.1c6.7-2.1,13.8-2.6,20.7-1.6c8,1,15.6,4.2,22,9.1C90.5,52.7,94.7,60,96,68
					c3.5-8.3,5.5-17.8,3-26.5c-1.9-6.6-6.1-12.4-11.8-16.4c-5.7-3.9-12.4-6-19.3-6.1c-6.5-0.1-12.9,1.4-18.6,4.3
					c-4.4,2.4-8.4,5.3-12,8.8c-2.6,2.3-4.9,4.8-7.1,7.5c-1.4,1.8-5.2,6.7-4.6,9.2c0.5,2,1.5,0.3,2.4-0.6c1.2-1.2,2.6-2.3,4-3.3
					C34.9,42.8,38,41.2,41.4,40.1z"/>
			</g>
		</g>
		<path class="st10" d="M50.2,52.9c-0.8-3,1-6.1,4-6.9c0,0,0,0,0,0c3-0.8,6.2,1,7,4c0.8,3-1,6.1-4,6.9c0,0,0,0,0,0
			C54.2,57.7,51.1,55.9,50.2,52.9z"/>
		<path class="st10" d="M50.9,66.6c-0.4-1.4,0.4-2.8,1.8-3.2c0,0,0,0,0,0c1.4-0.4,2.8,0.5,3.2,1.8c0.4,1.4-0.4,2.8-1.8,3.2
			c0,0,0,0,0,0C52.7,68.8,51.3,67.9,50.9,66.6z"/>
		<path class="st10" d="M58.4,39.5c-0.4-1.4,0.4-2.8,1.8-3.2c0,0,0,0,0,0c1.4-0.4,2.9,0.4,3.2,1.8c0.4,1.4-0.4,2.8-1.8,3.2
			c0,0,0,0,0,0C60.3,41.7,58.8,40.9,58.4,39.5z"/>
		<path class="st10" d="M65.6,31.2c-0.4-1.4,0.4-2.8,1.8-3.2c0,0,0,0,0,0c1.4-0.4,2.9,0.4,3.2,1.9c0.4,1.4-0.4,2.8-1.8,3.2
			c0,0,0,0,0,0C67.5,33.5,66,32.6,65.6,31.2z"/>
		<path class="st11" d="M44.3,66.7c0,8.4-6.4,14.8-14.1,13.7s-12.9-8.7-12.1-16.8C19,56.1,25,50.8,31.8,51.5S44.3,58.8,44.3,66.7z"
			/>
		<path class="st12" d="M42.9,65c0,8.1-6.2,14.2-13.6,13.2S16.7,69.8,17.5,62c0.8-7.3,6.6-12.4,13.2-11.7S42.9,57.4,42.9,65z"/>
		<path class="st13" d="M38,61.9c1.7,2.2,1.3,5.3-0.9,7c-2.2,1.7-5.4,1.4-7.1-0.8c0,0,0,0,0,0c-1.7-2.2-1.3-5.3,0.9-7
			C33.1,59.3,36.3,59.7,38,61.9C38,61.9,38,61.9,38,61.9z"/>
		<path class="st11" d="M64.6,66.8c-2.8,8.4,1.5,16.9,9.8,18.5s16.4-4.4,18.3-12.8c1.8-7.9-2.7-15.2-9.9-16.8S67.3,58.9,64.6,66.8z"
			/>
		<path class="st12" d="M66.5,65.5c-2.7,8.1,1.4,16.3,9.2,17.8s15.5-4.3,17.4-12.4c1.7-7.6-2.5-14.6-9.4-16.1S69.1,57.9,66.5,65.5z"
			/>
		<path class="st13" d="M71.2,64.4c-2.4,1.5-3.2,4.7-1.6,7.1c0,0.1,0.1,0.1,0.1,0.2c1.7,2.5,5.1,3.1,7.6,1.5
			c2.4-1.5,3.2-4.7,1.6-7.1c0-0.1-0.1-0.1-0.1-0.2C77,63.5,73.7,62.8,71.2,64.4z"/>
		<path class="st14" d="M43.9,86.8c-0.1,0.7,0.3,1.4,1,1.8c0.6,0.3,1.4,0.5,2.1,0.5c3.9,0.2,7.6-1.1,10.6-3.6"/>
		<path class="st7" d="M124.6,35.2c3.1,3.2,5.5,7,7,11.2c1.4,3.5,2.4,7.4,5,10.1c1.8,1.8,4.8,2.9,6.9,1.5c1.7-1.2,2.1-3.6,2.2-5.7
			c0.4-4.1,0.7-8.2-0.1-12.2c-0.6-3.2-2-6.2-2.6-9.5c-0.5-3.2-0.2-6.5,1-9.6c0.3-1,0.9-1.8,1.6-2.4c0.8-0.6,2-0.4,2.6,0.4
			c0.5,0.9,0.1,1.9-0.3,2.9c-2,5.3-0.4,11.2,1.9,16.3s5.3,10.1,6.3,15.6c0.9,5.4-0.4,10.9-3.8,15.2c-4.2,4.8-10.5,7.3-16.9,6.4
			c-6.3-0.9-11.9-4.3-15.8-9.3c-0.3-0.4-0.6-0.8-0.7-1.3c-0.1-0.7,0-1.4,0.2-2c2-7.5,1.7-15.5-0.9-22.8c-0.5-1.6-4.6-7.8-3.3-9.2
			C116.9,28.8,123.3,34,124.6,35.2z"/>
		<path class="st15" d="M108.5,101.2l-30.9,9.1v-0.1H76l-3.2-0.1v0.1L46,110.8l7.8,16.9c0.9,3.1,10.2,5.5,21.4,5.5
			c10.7,0,19.6-2.2,21.2-5.1l0,0L108.5,101.2z"/>
		<g>
			<defs>
				<path id="SVGID_7_" d="M108.5,101.2l-30.9,9.1v-0.1H76l-3.2-0.1v0.1L46,110.8l7.8,16.9c0.9,3.1,10.2,5.5,21.4,5.5
					c10.7,0,19.6-2.2,21.2-5.1l0,0L108.5,101.2z"/>
			</defs>
			<clipPath id="SVGID_8_">
				<use xlink:href="#SVGID_7_"  style="overflow:visible;"/>
			</clipPath>
			<g class="st16">
				<ellipse class="st17" cx="73.2" cy="103.6" rx="36.8" ry="16.2"/>
			</g>
		</g>
		<g>
			<defs>
				<path id="SVGID_9_" d="M124.6,35.2c3.1,3.2,5.5,7,7,11.2c1.4,3.5,2.4,7.4,5,10.1c1.8,1.8,4.8,2.9,6.9,1.5
					c1.7-1.2,2.1-3.6,2.2-5.7c0.4-4.1,0.7-8.2-0.1-12.2c-0.6-3.2-2-6.2-2.6-9.5c-0.5-3.2-0.2-6.5,1-9.6c0.3-1,0.9-1.8,1.6-2.4
					c0.8-0.6,2-0.4,2.6,0.4c0.5,0.9,0.1,1.9-0.3,2.9c-2,5.3-0.4,11.2,1.9,16.3s5.3,10.1,6.3,15.6c0.9,5.4-0.4,10.9-3.8,15.2
					c-4.2,4.8-10.5,7.3-16.9,6.4c-6.3-0.9-11.9-4.3-15.8-9.3c-0.3-0.4-0.6-0.8-0.7-1.3c-0.1-0.7,0-1.4,0.2-2
					c2-7.5,1.7-15.5-0.9-22.8c-0.5-1.6-4.6-7.8-3.3-9.2C116.9,28.8,123.3,34,124.6,35.2z"/>
			</defs>
			<clipPath id="SVGID_10_">
				<use xlink:href="#SVGID_9_"  style="overflow:visible;"/>
			</clipPath>
			<g class="st18">
				<path class="st9" d="M139.1,70c6.7-0.2,13.1-5,14.6-11.5c1.1-4.7-0.3-9.6-2.1-14s-4.1-8.8-4.8-13.6c-0.3-1.5-0.2-3,0.4-4.4
					c1.2-2.5,4.5-3.3,7.1-2.4s4.5,3,6.1,5.3c7.5,10.8,8.2,25.3,4.2,37.8c-1.4,4.9-3.9,9.4-7.3,13.2c-3.5,3.7-8.3,6.3-13.4,6.3
					c-4.9,0-9.6-2.4-13.3-5.7c-3.2-2.8-14.2-13.2-8.6-17.4c2.4-1.8,5.7,2.5,7.7,3.7C132.6,69.2,135.8,70.1,139.1,70z"/>
			</g>
		</g>
		<g>
			<defs>
				<path id="SVGID_11_" d="M23.8,119.4c-1.9,0-3.5-1.6-3.5-3.5c0-0.5,0.1-1.1,0.4-1.5c3.2-6.4,8.5-11.4,15.1-14.2
					c1.8-0.8,3.8,0,4.6,1.8c0.8,1.8,0,3.8-1.8,4.6c0,0-0.1,0-0.1,0.1c-5,2.2-9.1,6-11.5,10.9C26.3,118.7,25.1,119.4,23.8,119.4z"/>
			</defs>
			<clipPath id="SVGID_12_">
				<use xlink:href="#SVGID_11_"  style="overflow:visible;"/>
			</clipPath>
			<g class="st19">
				<path class="st20" d="M23.8,115.9c1.8-3.6,4.4-6.7,7.5-9.2"/>
				<path class="st21" d="M21.6,111.7c2.2-1.3,5-0.9,6.8,0.9c0.6,0.6,0.9,1.3,1,2.1"/>
				<path class="st21" d="M24.3,108.2c1.4-0.4,2.9-0.2,4.2,0.5c0.6,0.3,1.2,0.6,1.7,1.1c0.7,0.7,1.1,1.5,1.2,2.4"/>
			</g>
		</g>
		<path class="st22" d="M51.3,162.6L51.3,162.6c-0.1,0-7.2-42.9-26.1-48.9c-0.2-0.1-0.5-0.1-0.7-0.2c-1.4-0.3-2.9,0.1-4,0.9
			c-15.3,11.8-7.6,53.4-7.6,53.4h-0.1c0.8,1.5,2,2.8,3.4,3.9l13.5,0.5v0.2l2.8,0.1h0.2l0.5-0.1h0.2h0.2l2.7-0.8v-0.1l13.1-4.1
			C50.3,165.9,51,164.3,51.3,162.6z"/>
		<g>
			<defs>
				<path id="SVGID_13_" d="M51.3,162.6L51.3,162.6c-0.1,0-7.2-42.9-26.1-48.9c-0.2-0.1-0.5-0.1-0.7-0.2c-1.4-0.3-2.9,0.1-4,0.9
					c-15.3,11.8-7.6,53.4-7.6,53.4h-0.1c0.8,1.5,2,2.8,3.4,3.9l13.5,0.5v0.2l2.8,0.1h0.2l0.5-0.1h0.2h0.2l2.7-0.8v-0.1l13.1-4.1
					C50.3,165.9,51,164.3,51.3,162.6z"/>
			</defs>
			<clipPath id="SVGID_14_">
				<use xlink:href="#SVGID_13_"  style="overflow:visible;"/>
			</clipPath>
			<g class="st23">
				<path class="st24" d="M15.7,117.3c1.9-2.5,5.9-2.8,8.6-1.2s4.6,4.3,6,7.2c6.5,12.7,9,27.4,10.1,41.7l14.8-0.8l-4.9-19.9
					l-8.8-19.7l-8.6-10.9l-9.4-4.1L15.7,117.3z"/>
			</g>
		</g>
		<path class="st25" d="M51.4,163c0.9,5.1-7.2,10.3-18,11.6c-10.5,1.3-19.7-1.7-20.5-6.6s6.9-10.1,17.4-11.5
			C41,155,50.5,157.9,51.4,163z"/>
		<path class="st26" d="M45,163.7c0.5,2.9-5,6-12.2,7s-13.2-0.6-13.7-3.4s4.8-5.9,11.9-6.9S44.5,160.8,45,163.7z"/>
		<line class="st27" x1="44.5" y1="163.5" x2="50.7" y2="162"/>
		<line class="st27" x1="16.3" y1="170.9" x2="21" y2="168.1"/>
		<path class="st28" d="M16.6,168.6c-0.5-0.2-1-0.3-1.5-0.4c-2.4-0.1-4.1,2.3-5,4.3c-1.3,2.8-2.3,5.7-3.1,8.7c-0.7,2.8-0.1,5,1,7.6
			c1.2,2.9,2.7,5.6,4.6,8.1c0.8,1.2,2.4,3.6,4.1,3.6c1.9,0,0.8-4.2,0.5-5.3c-1-4.7-2.7-8.9-1.1-13.6c0.6-1.8,1.5-3.5,2.2-5.2
			c0.7-1.4,1-3,0.8-4.6C18.8,170.3,17.9,169.2,16.6,168.6z"/>
		<path class="st28" d="M50.3,160c0.4-0.3,0.9-0.6,1.4-0.7c2.3-0.6,4.5,1.3,5.8,3c1.9,2.4,3.6,5,5,7.8c1.3,2.5,1.2,4.8,0.8,7.6
			c-0.5,3.1-1.4,6-2.6,8.9c-0.5,1.4-1.5,4-3.2,4.4c-1.9,0.5-1.7-3.9-1.7-5.1c-0.1-4.8,0.6-9.2-2.1-13.5c-1-1.6-2.2-3-3.3-4.6
			c-1-1.2-1.6-2.7-1.8-4.2C48.5,162.2,49.2,160.8,50.3,160z"/>
		<line class="st27" x1="31" y1="162.4" x2="30.3" y2="159.9"/>
		<path class="st28" d="M33.6,186.4c1.2,2.9,2.6,5.9,5.1,7.8c0.3,0.3,0.6,0.4,1,0.3c0.4-0.1,0.6-0.6,0.6-1.1
			c1.5-9.1-0.8-18.4-4.2-26.9c-0.5-1.8-1.6-3.4-3-4.6c-0.7-0.6-1.6-0.8-2.5-0.7c-3.5,0.8-1.7,9.3-1.3,11.6
			C30.2,177.5,31.7,182,33.6,186.4z"/>
		<path class="st24" d="M61.2,50c-0.3-1-0.8-1.9-1.5-2.6c1.4,2.8,0.2,6.2-2.5,7.5c-0.3,0.2-0.7,0.3-1.1,0.4c-1.9,0.5-4,0-5.5-1.4
			c1.2,2.4,4,3.7,6.6,3C60.2,56.1,62,53,61.2,50C61.2,50,61.2,50,61.2,50z"/>
		<path class="st24" d="M63.6,38.1c-0.1-0.2-0.2-0.4-0.3-0.6c0.2,1.3-0.6,2.7-1.9,3c-1.2,0.3-2.4-0.2-3-1.2c0,0.1,0,0.2,0,0.3
			c0.4,1.4,1.8,2.2,3.2,1.8C63,41,63.9,39.6,63.6,38.1C63.6,38.2,63.6,38.1,63.6,38.1z"/>
		<path class="st24" d="M56,65.2c-0.1-0.2-0.2-0.5-0.3-0.7c0.1,1.4-0.9,2.6-2.2,2.7c-1.2,0.1-2.3-0.6-2.6-1.7c0,0.3,0,0.7,0.1,1
			c0.4,1.4,1.8,2.2,3.2,1.8C55.5,67.9,56.3,66.6,56,65.2z"/>
		<path class="st29" d="M56.2,113.7c3.2,0.3,6.3,0.5,9.5,0.5c9.8,0,19.5-1.6,28.8-4.8c12.2-4.2,20.5-11.3,25.5-23.3
			c5.1-12.4,7.2-25.9,6.1-39.2c-1-11.9-3.8-27.1-13.4-35.3c-4.2-3.6-9.6-5.6-15.1-5.5c-4-0.2-8-0.1-12,0.3
			c-12.5,1.1-25,3.5-36.6,8.2c-10.9,4.2-20.7,10.9-28.6,19.4C2.1,52.2,2.2,81.8,20.5,100c5.1,5.1,11.3,8.9,18.2,11.2
			C44.4,112.6,50.3,113.4,56.2,113.7z M50.2,106.7c-21.8,0-39.4-17.6-39.4-39.4s17.6-39.4,39.4-39.4s39.4,17.6,39.4,39.4v0
			C89.6,89.1,71.9,106.7,50.2,106.7C50.2,106.7,50.2,106.7,50.2,106.7L50.2,106.7z"/>
		<path class="st30" d="M50.8,23.2C26.8,23.2,7.4,43,7.4,67.4s19.4,44.2,43.3,44.2s43.4-19.8,43.4-44.2S74.7,23.2,50.8,23.2z
			 M50.8,107.2c-21.5,0-39-17.8-39-39.8s17.5-39.8,39-39.8s39,17.8,39,39.8S72.3,107.2,50.8,107.2L50.8,107.2z"/>
		<g>
			<defs>
				<path id="SVGID_15_" d="M56.2,113.7c3.2,0.3,6.3,0.5,9.5,0.5c9.8,0,19.5-1.6,28.8-4.8c12.2-4.2,20.5-11.3,25.5-23.3
					c5.1-12.4,7.2-25.9,6.1-39.2c-1-11.9-3.8-27.1-13.4-35.3c-4.2-3.6-9.6-5.6-15.1-5.5c-4-0.2-8-0.1-12,0.3
					c-12.5,1.1-25,3.5-36.6,8.2c-10.9,4.2-20.7,10.9-28.6,19.4C2.1,52.2,2.2,81.8,20.5,100c5.1,5.1,11.3,8.9,18.2,11.2
					C44.4,112.6,50.3,113.4,56.2,113.7z M50.2,106.7c-21.8,0-39.4-17.6-39.4-39.4s17.6-39.4,39.4-39.4s39.4,17.6,39.4,39.4v0
					C89.6,89.1,71.9,106.7,50.2,106.7C50.2,106.7,50.2,106.7,50.2,106.7L50.2,106.7z"/>
			</defs>
			<clipPath id="SVGID_16_">
				<use xlink:href="#SVGID_15_"  style="overflow:visible;"/>
			</clipPath>
			<g class="st31">
				<path class="st32" d="M80.7,125.8c7.4-7.9,14.4-16.3,19.8-25.7s9.1-19.9,9.9-30.7c0.8-11.5-2-23-7.9-32.8
					c-6-9.8-15.2-17.4-26-21.4c-14.3-5.3-30.3-3.6-45.1,0L70.5,0.9L101,0l17.9,5.4l12.4,16.8l2.8,22.4l-0.9,33.3l-3,17.7l-25.7,16.5
					L80.7,125.8z"/>
				<path class="st33" d="M79.7,6.2C87,5,94.4,6.6,100.5,10.8c6,4.2,10.5,11.1,10.5,19.2c-4.7,3.3-9.1,5.1-14.3,7.1
					C90.4,27.6,81.6,20.5,71.9,17c-9.7-3.5-20.4-3.4-30.1,0.3c1.9-3.2,5.2-5.1,8.6-6.7c4.1-1.9,8.3-3.5,12.7-4.7
					c2.7-0.8,5.5-1.3,8.4-1.5C74.3,4.5,77.1,5.1,79.7,6.2z"/>
				<path class="st34" d="M77.6,12.2C67.9,8.7,56.9,9.3,47.2,13c0.2-0.3,2.4-1.9,2.7-2.2c-3.2,1.5-6.2,3.4-8,6.4
					c9.7-3.7,20.3-3.9,30.1-0.3c9.7,3.5,18.5,10.6,24.9,20.2c2.1-0.7,4.2-1.5,6.2-2.4C97.5,24.8,87.1,15.6,77.6,12.2z"/>
			</g>
		</g>
		<path class="st35" d="M124.5,94.7c-4.2,9.3-13.6,14.1-20.9,10.7S93.8,91.6,98,82.2s13.6-14.1,20.9-10.7S128.7,85.4,124.5,94.7z"/>
		<path class="st36" d="M112.4,91.7l10.7-16.8c-1.1-1.4-2.6-2.5-4.2-3.3c-6-2.8-13.5-0.1-18.2,6.2L112.4,91.7z"/>
		<path class="st37" d="M124.8,94.8c-3.8,8.4-12.2,12.7-18.8,9.6s-8.8-12.4-5-20.8s12.2-12.7,18.8-9.6S128.6,86.4,124.8,94.8z"/>
		<path class="st38" d="M114.4,93.6c2.9,4.7,9.9,16.7,12.2,29.2"/>
		<g>
			<defs>
				<path id="SVGID_17_" d="M127.1,127.9c-2.6,0.2-4.9-1.6-5.4-4.1c-2-11-8-21.9-11.5-27.5c-1.5-2.3-0.8-5.4,1.5-6.9
					c2.3-1.5,5.3-0.8,6.8,1.5c0,0,0,0.1,0.1,0.1c3.8,6.2,10.6,18.4,12.9,31c0.5,2.7-1.3,5.3-4,5.8c0,0,0,0,0,0L127.1,127.9z"/>
			</defs>
			<clipPath id="SVGID_18_">
				<use xlink:href="#SVGID_17_"  style="overflow:visible;"/>
			</clipPath>
			<g class="st39">
				<path class="st40" d="M111.1,99.2c0-2,1.6-3.9,3.4-5.1c0.9-0.6,2-1.1,3.1-1.3c1.1-0.2,2.3,0,3.3,0.5"/>
				<path class="st40" d="M113.5,104.3c0-2,1.6-3.9,3.4-5.1c0.9-0.6,2-1.1,3.1-1.3c1.1-0.2,2.3,0,3.3,0.5"/>
				<path class="st40" d="M116.1,109c0.2-2,1.8-3.7,3.7-4.8c1-0.6,2.1-0.9,3.2-1.1c1.1-0.1,2.3,0.1,3.3,0.8"/>
				<path class="st41" d="M118.1,113.9c0.3-1.8,2-3.3,3.9-4.2c1-0.5,2.1-0.8,3.3-0.8c1.1-0.1,2.3,0.2,3.2,0.8"/>
				<path class="st42" d="M120.1,118.3c0.4-1.6,2.2-2.8,4.2-3.4c1.1-0.3,2.2-0.5,3.3-0.5c1.1,0,2.2,0.4,3.2,1"/>
			</g>
		</g>
		<path class="st22" d="M124.8,174.9L124.8,174.9c-0.1-0.1,19-45.5,6.6-61.8c-0.2-0.2-0.3-0.4-0.5-0.6c-1-1.1-2.5-1.6-3.9-1.3
			c-19.6,2.9-37.4,47.4-37.4,47.4h-0.1c-0.2,1.9,0,3.8,0.6,5.6l11,7.9l-0.1,0.2l2.3,1.7l0.2,0.1l0.5,0.1l0.2,0.1l0.2,0.1l2.7,0.7
			v-0.1l13.3,3.3C122,177.6,123.5,176.4,124.8,174.9z"/>
		<g>
			<defs>
				<path id="SVGID_19_" d="M124.8,174.9L124.8,174.9c-0.1-0.1,19-45.5,6.6-61.8c-0.2-0.2-0.3-0.4-0.5-0.6c-1-1.1-2.5-1.6-3.9-1.3
					c-19.6,2.9-37.4,47.4-37.4,47.4h-0.1c-0.2,1.9,0,3.8,0.6,5.6l11,7.9l-0.1,0.2l2.3,1.7l0.2,0.1l0.5,0.1l0.2,0.1l0.2,0.1l2.7,0.7
					v-0.1l13.3,3.3C122,177.6,123.5,176.4,124.8,174.9z"/>
			</defs>
			<clipPath id="SVGID_20_">
				<use xlink:href="#SVGID_19_"  style="overflow:visible;"/>
			</clipPath>
			<g class="st43">
				<path class="st24" d="M121.8,112.3c3-0.5,6,1.5,7.5,4.1s1.8,5.8,1.8,8.9c-0.2,8-1.7,15.9-4.4,23.4c-2.8,7.5-6,14.8-9.7,21.8
					l7.4,10.1l18.8-36.2l-3.1-18.8l-3-13.5l-6.5-4.5L121.8,112.3z"/>
			</g>
		</g>
		<path class="st25" d="M124.4,175.9c-1.9,4.5-11.4,4.4-21.2-0.2c-9.6-4.5-15.9-11.7-14.1-16.1s11-4.5,20.7-0.1
			C119.7,164.1,126.2,171.4,124.4,175.9z"/>
		<path class="st26" d="M119.8,173.7c-1.2,2.9-8.1,2.5-15.3-0.9s-11.9-8.2-10.8-11s7.8-2.5,15,0.7S121,170.9,119.8,173.7z"/>
		<line class="st27" x1="86.3" y1="162.5" x2="95.9" y2="161.4"/>
		<line class="st27" x1="123.2" y1="174.8" x2="126.8" y2="183.1"/>
		<line class="st44" x1="112.4" y1="164.5" x2="113" y2="168"/>
		<path class="st28" d="M111.8,166c1.2-0.4,2.6-0.3,3.7,0.3c0.9,0.8,1.4,1.8,1.6,3c0.7,4.5-0.2,9.1-2.6,12.9
			c-2.4,3.8-5.4,7.2-8.9,10c-2,1.7-4.2,3.4-6.7,3.9c-0.4,0.1-0.8,0.1-1.2,0c-0.6-0.3-1-0.8-1.1-1.5c0-0.7,0.1-1.3,0.3-1.9
			c1.2-3.5,3.3-6.6,5.3-9.7s3.7-6.6,3.8-10.3c0-1.5-0.1-3.4,1.3-4.4C108.5,167.2,110.1,166.4,111.8,166z"/>
		<path class="st28" d="M88.1,161c-0.4-0.3-0.8-0.6-1.3-0.8c-2.1-0.8-4.3,0.9-5.7,2.4c-1.9,2.1-3.7,4.5-5.2,6.9
			c-1.4,2.3-1.5,4.4-1.3,7.1c0.2,2.9,0.8,5.8,1.8,8.5c0.4,1.3,1.1,3.9,2.6,4.4c1.7,0.6,1.9-3.5,2-4.6c0.4-4.5,0.1-8.7,3-12.5
			c1.1-1.4,2.3-2.7,3.5-4c1-1.1,1.7-2.4,2-3.8C89.7,163.2,89.2,161.9,88.1,161z"/>
		<path class="st28" d="M127.5,182.2c0.5,0.1,0.9,0.4,1.3,0.7c1.8,1.4,1.5,4.1,1,6.1c-0.8,2.8-1.8,5.5-3.1,8.1
			c-1.2,2.4-2.9,3.6-5.3,4.9c-2.6,1.3-5.3,2.3-8.1,3c-1.3,0.4-3.9,1.1-5.1,0.1c-1.4-1.1,2-3.4,2.9-4.1c3.6-2.8,7.3-4.7,9-9.2
			c0.6-1.7,1-3.4,1.6-5.1c0.4-1.4,1.1-2.7,2.2-3.8C124.8,182,126.2,181.8,127.5,182.2z"/>
		<path class="st45" d="M18,123.3c0,0-5.4,11.3-2.5,35.1c1.7-1.3,3.7-1.9,5.8-1.8C21.3,156.6,17.1,144.9,18,123.3z"/>
		<path class="st45" d="M117.7,120c0,0-12,10.4-21.5,32.4c0,0,4.4-0.4,7,1.5C103.2,154,106,138.2,117.7,120z"/>
		<ellipse transform="matrix(0.1411 -0.99 0.99 0.1411 -105.3296 128.2625)" class="st46" cx="21.3" cy="124.8" rx="5.1" ry="5.1"/>
		<ellipse transform="matrix(0.7998 -0.6003 0.6003 0.7998 -76.8342 36.9498)" class="st47" cx="17" cy="133.7" rx="3.1" ry="3.1"/>
		<path class="st47" d="M114.3,132c-0.2,1.4-1.5,2.4-2.9,2.2c0,0,0,0,0,0c-1.4-0.2-2.4-1.6-2.2-3c0,0,0,0,0,0
			c0.2-1.4,1.5-2.4,2.9-2.2c0,0,0,0,0,0C113.6,129.2,114.6,130.6,114.3,132C114.3,132,114.3,132,114.3,132z"/>
		<path class="st48" d="M123.8,126.6c-1.3,2.7-4.6,3.8-7.3,2.4c0,0-0.1,0-0.1-0.1c-2.7-1.5-3.7-4.8-2.3-7.6c1.3-2.7,4.6-3.8,7.3-2.4
			c0,0,0.1,0,0.1,0.1C124.2,120.5,125.2,123.9,123.8,126.6z"/>
		<g>
			<defs>
				<path id="SVGID_21_" d="M16.6,168.6c-0.5-0.2-1-0.3-1.5-0.4c-2.4-0.1-4.1,2.3-5,4.3c-1.3,2.8-2.3,5.7-3.1,8.7
					c-0.7,2.8-0.1,5,1,7.6c1.2,2.9,2.7,5.6,4.6,8.1c0.8,1.2,2.4,3.6,4.1,3.6c1.9,0,0.8-4.2,0.5-5.3c-1-4.7-2.7-8.9-1.1-13.6
					c0.6-1.8,1.5-3.5,2.2-5.2c0.7-1.4,1-3,0.8-4.6C18.8,170.3,17.9,169.2,16.6,168.6z"/>
			</defs>
			<clipPath id="SVGID_22_">
				<use xlink:href="#SVGID_21_"  style="overflow:visible;"/>
			</clipPath>
			<g class="st49">
				<path class="st29" d="M6.3,184.1l0.1,0.3c0.1,0.3,0.2,0.5,0.3,0.8c0.6,0.6,1.5,0.7,2.2,0.3c3.4-1.4,4.9-6.4,5.9-9.6
					c0.8-2,1-4.1,0.7-6.3c0-0.3-0.2-0.6-0.3-0.8c-0.3-0.4-0.9-0.6-1.4-0.6c-0.5,0.1-1,0.3-1.4,0.6c-0.9,0.7-1.7,1.6-2.2,2.5
					C7.7,175.1,5.1,179.5,6.3,184.1z"/>
			</g>
		</g>
		<g>
			<defs>
				<path id="SVGID_23_" d="M33.6,186.4c1.2,2.9,2.6,5.9,5.1,7.8c0.3,0.3,0.6,0.4,1,0.3c0.4-0.1,0.6-0.6,0.6-1.1
					c1.5-9.1-0.8-18.4-4.2-26.9c-0.5-1.8-1.6-3.4-3-4.6c-0.7-0.6-1.6-0.8-2.5-0.7c-3.5,0.8-1.7,9.3-1.3,11.6
					C30.2,177.5,31.7,182,33.6,186.4z"/>
			</defs>
			<clipPath id="SVGID_24_">
				<use xlink:href="#SVGID_23_"  style="overflow:visible;"/>
			</clipPath>
			<g class="st50">
				<path class="st29" d="M29.4,176.9c0.3,0.8,1,1.5,1.8,1.8c1.1,0.2,2.2-0.3,2.8-1.3c0.5-1,0.7-2.1,0.6-3.2c0-3.3-0.5-7-2.1-10
					c-0.4-0.9-1.2-1.6-2.2-1.9c-0.9-0.1-1.7,0.2-2.3,0.8c-0.6,0.6-0.9,1.5-1,2.3C26.2,169.2,27.5,173.6,29.4,176.9z"/>
			</g>
		</g>
		<g>
			<defs>
				<path id="SVGID_25_" d="M88.1,161c-0.4-0.3-0.8-0.6-1.3-0.8c-2.1-0.8-4.3,0.9-5.7,2.4c-1.9,2.1-3.7,4.5-5.2,6.9
					c-1.4,2.3-1.5,4.4-1.3,7.1c0.2,2.9,0.8,5.8,1.8,8.5c0.4,1.3,1.1,3.9,2.6,4.4c1.7,0.6,1.9-3.5,2-4.6c0.4-4.5,0.1-8.7,3-12.5
					c1.1-1.4,2.3-2.7,3.5-4c1-1.1,1.7-2.4,2-3.8C89.7,163.2,89.2,161.9,88.1,161z"/>
			</defs>
			<clipPath id="SVGID_26_">
				<use xlink:href="#SVGID_25_"  style="overflow:visible;"/>
			</clipPath>
			<g class="st51">
				<path class="st29" d="M75,172.8c0.8-0.1,1.5-0.4,2-1c2.9-2.5,5.5-5.3,7.9-8.3c1.3-1.8,2.2-4.9-1.1-4.7c-2.6,0.1-4.5,2.3-6,4.4
					c-0.9,1.3-1.9,2.6-2.8,4c-0.7,1.2-1.7,2.6-1.5,4c0.1,0.6,0.4,1.1,1,1.4C74.7,172.8,74.8,172.8,75,172.8z"/>
			</g>
		</g>
		<g>
			<defs>
				<path id="SVGID_27_" d="M111.8,166c1.2-0.4,2.6-0.3,3.7,0.3c0.9,0.8,1.4,1.8,1.6,3c0.7,4.5-0.2,9.1-2.6,12.9
					c-2.4,3.8-5.4,7.2-8.9,10c-2,1.7-4.2,3.4-6.7,3.9c-0.4,0.1-0.8,0.1-1.2,0c-0.6-0.3-1-0.8-1.1-1.5c0-0.7,0.1-1.3,0.3-1.9
					c1.2-3.5,3.3-6.6,5.3-9.7s3.7-6.6,3.8-10.3c0-1.5-0.1-3.4,1.3-4.4C108.5,167.2,110.1,166.4,111.8,166z"/>
			</defs>
			<clipPath id="SVGID_28_">
				<use xlink:href="#SVGID_27_"  style="overflow:visible;"/>
			</clipPath>
			<g class="st52">
				<path class="st29" d="M105.3,171.6c0,0.2,0,0.4-0.1,0.6c-0.2,1.9-0.8,3.7-1.8,5.3c-0.9,1.3-1.7,2.7-2.3,4.1
					c-0.2,0.5-0.2,1,0,1.5c0.3,0.4,0.8,0.6,1.3,0.5c1-0.2,2-0.7,2.7-1.4c2.3-2,4.1-4.4,5.4-7.2c0.7-1.7,1.1-3.5,1.3-5.4
					c0.1-1.3,0.3-3.9-1.5-4.1c-0.4,0-0.8,0-1.2,0.1c-0.9,0.3-1.7,0.6-2.4,1.1c-0.5,0.3-0.9,0.8-1.2,1.3c-0.1,0.3-0.1,0.6-0.2,0.9
					C105.3,169.9,105.3,170.8,105.3,171.6z"/>
			</g>
		</g>
		<g class="st53">
			<g>
				<defs>
					<path id="SVGID_29_" d="M75,122.8c-12.3,0-22.7-1.9-25.6-4.5l4.4,9.5c0.9,3.1,10.2,5.5,21.4,5.5c10.7,0,19.6-2.2,21.2-5.1l0,0
						l4.7-10.4C99,120.6,88.1,122.8,75,122.8z"/>
				</defs>
				<clipPath id="SVGID_30_">
					<use xlink:href="#SVGID_29_"  style="overflow:visible;"/>
				</clipPath>
				<g class="st54">
					<polygon class="st17" points="57.1,132.8 54.6,119.5 57.7,120.2 59.5,132.8 					"/>
					<polygon class="st17" points="62.7,121.5 63.2,134 65.6,134.3 65.7,121.8 					"/>
					<polygon class="st17" points="93,133.3 95.5,120 92.4,120.7 90.6,133.3 					"/>
					<polygon class="st17" points="87.3,121.3 86.9,133.8 84.5,134.2 84.4,121.7 					"/>
					<rect x="70.1" y="122" class="st17" width="2.7" height="12.6"/>
					<rect x="77.3" y="122.1" class="st17" width="2.7" height="12.6"/>
				</g>
			</g>
		</g>
		<path class="st10" d="M132.2,42.7c1.1,1.8,0.8,4-0.6,4.9c-1.4,0.9-3.4,0.2-4.5-1.6c-1.1-1.8-0.8-4,0.6-4.9S131.1,40.9,132.2,42.7z
			"/>
		<path class="st10" d="M137.1,54.3c1.1,1.1,1.2,2.9,0.1,4c-1.1,1-2.8,1-3.8-0.1c0,0,0,0-0.1-0.1c-1.1-1.1-1.2-2.9-0.1-4
			C134.3,53.1,136,53.2,137.1,54.3C137,54.3,137,54.3,137.1,54.3z"/>
		<path class="st10" d="M146.6,54.6c0.9,0.9,0.9,2.3,0,3.2c-0.7,1-2.1,1.3-3.1,0.7c-0.9-0.9-0.9-2.3,0-3.2
			C144.2,54.2,145.6,53.9,146.6,54.6z"/>
		<path class="st10" d="M146.6,45.6c0.9,0.2,1.6,1.1,1.4,2c0.1,1-0.7,1.8-1.6,1.8c-0.9-0.2-1.6-1.1-1.4-2
			C144.9,46.5,145.6,45.6,146.6,45.6z"/>
		<path class="st10" d="M145.6,38.2c0.7,0,1.2,0.5,1.3,1.2c0.2,0.6-0.2,1.3-0.9,1.5c-0.7,0-1.2-0.5-1.3-1.2
			C144.6,39.1,144.9,38.4,145.6,38.2z"/>
		<path class="st24" d="M132.8,44.2c0,0.8-0.4,1.5-1,2c-1.2,0.8-2.8,0.2-3.7-1.3c-0.9-1.2-0.7-3,0.4-4c-0.3,0.1-0.5,0.2-0.8,0.3
			c-1.4,0.9-1.7,3.1-0.6,4.9c1.1,1.8,3.1,2.5,4.5,1.6C132.7,46.8,133.1,45.4,132.8,44.2z"/>
		<path class="st24" d="M137.7,57.1c-1,0.9-2.6,0.9-3.5-0.1c0,0,0,0-0.1-0.1c-0.8-0.8-1-2.1-0.5-3.1c-0.2,0.1-0.3,0.2-0.4,0.3
			c-1.1,1.1-1,2.9,0.1,4c1,1.1,2.7,1.2,3.8,0.2c0,0,0,0,0.1-0.1c0.4-0.4,0.6-0.9,0.7-1.5C137.8,56.9,137.7,57,137.7,57.1z"/>
		<path class="st24" d="M146.6,54.6c-0.2-0.2-0.4-0.3-0.6-0.3c0.6,0.7,0.6,1.8-0.1,2.5c-0.6,0.9-1.7,1.1-2.6,0.5
			c-0.2-0.2-0.4-0.4-0.4-0.7c-0.1,0.7,0.1,1.3,0.6,1.8c1,0.7,2.4,0.4,3.1-0.7C147.5,56.9,147.5,55.5,146.6,54.6z"/>
		<path class="st24" d="M146.6,45.6L146.6,45.6c0.5,0.4,0.8,1,0.8,1.6c0.1,0.8-0.6,1.6-1.4,1.6c-0.3,0-0.5-0.1-0.7-0.3
			c0.2,0.5,0.7,0.8,1.2,0.9c0.9-0.1,1.6-0.9,1.6-1.8C148.1,46.6,147.5,45.7,146.6,45.6z"/>
		<path class="st24" d="M146.9,39.4c0-0.7-0.6-1.2-1.3-1.2c-0.1,0-0.3,0.1-0.4,0.2c0.5,0,0.9,0.4,0.9,0.8c0.1,0.5-0.1,1-0.6,1.1
			c-0.3,0-0.6-0.1-0.7-0.3c0.1,0.6,0.6,1,1.2,0.9C146.7,40.7,147,40,146.9,39.4z"/>
		
			<linearGradient id="SVGID_31_" gradientUnits="userSpaceOnUse" x1="17.1126" y1="171.7533" x2="78.059" y2="122.8562" gradientTransform="matrix(1 0 0 -1 0 212)">
			<stop  offset="0" style="stop-color:#FFFFFF;stop-opacity:0.7"/>
			<stop  offset="0.64" style="stop-color:#FFFFFF;stop-opacity:0"/>
		</linearGradient>
		<ellipse class="st55" cx="50.8" cy="67.3" rx="38.8" ry="39.5"/>
		<path class="st56" d="M40,32.3c5-1.9,10.6,0.7,12.4,5.7c0,0.1,0,0.1,0.1,0.2c1.9,5.1-0.7,10.8-5.9,12.8c-5,1.9-10.6-0.7-12.4-5.7
			c0-0.1,0-0.1-0.1-0.2C32.3,40,34.9,34.3,40,32.3z"/>
		<path class="st56" d="M30.8,52.4c-1.3,2-3.9,2.6-5.9,1.3c0,0-0.1,0-0.1-0.1c-2-1.4-2.5-4.1-1.2-6.1c1.3-2,3.9-2.6,5.9-1.3
			c0,0,0.1,0,0.1,0.1C31.6,47.7,32.1,50.4,30.8,52.4z"/>
	</g>
</g>
</svg>
