<?xml version="1.0" encoding="utf-8"?>
<!-- Generator: Adobe Illustrator 21.0.0, SVG Export Plug-In . SVG Version: 6.00 Build 0)  -->
<svg version="1.1" id="Layer_1" xmlns="http://www.w3.org/2000/svg" xmlns:xlink="http://www.w3.org/1999/xlink" x="0px" y="0px"
	 viewBox="0 0 228 202" style="enable-background:new 0 0 228 202;" xml:space="preserve">
<style type="text/css">
	.st0{opacity:8.000000e-02;enable-background:new    ;}
	.st1{fill:#6850A5;}
	.st2{fill:#A3D8E5;}
	.st3{fill:#E0C34B;}
	.st4{opacity:0.64;}
	.st5{clip-path:url(#SVGID_2_);}
	.st6{fill:#C9AC31;}
	.st7{fill:#C1A327;}
	.st8{fill:#64B546;}
	.st9{opacity:0.51;fill:#7ABC5B;enable-background:new    ;}
	.st10{clip-path:url(#SVGID_4_);}
	.st11{opacity:0.83;fill:#5CA83D;enable-background:new    ;}
	.st12{fill:#674CA8;}
	.st13{fill:none;stroke:#7B7BAD;stroke-width:7;stroke-linecap:round;stroke-miterlimit:10;}
	.st14{fill:#503C8E;}
	.st15{fill:#664CA5;}
	.st16{opacity:0.77;fill:#549934;enable-background:new    ;}
	.st17{fill:#1F7C5A;}
	.st18{fill:#539933;}
	.st19{opacity:9.000000e-02;fill:#FFFFFF;enable-background:new    ;}
	.st20{clip-path:url(#SVGID_6_);}
	.st21{fill:#F4D760;}
	.st22{fill:#D5D5E0;}
	.st23{clip-path:url(#SVGID_8_);}
	.st24{opacity:0.61;fill:#B0B0D1;enable-background:new    ;}
	.st25{fill:none;stroke:#5C3C99;stroke-width:2;stroke-linecap:round;stroke-miterlimit:10;}
	.st26{opacity:0.12;fill:#5C3C99;enable-background:new    ;}
	.st27{fill:#FFFFFF;}
	.st28{fill:#5C3C99;}
	.st29{fill:#428225;}
	.st30{clip-path:url(#SVGID_10_);}
	.st31{opacity:0.3;fill:#FFFFFF;enable-background:new    ;}
	.st32{fill:#61A840;}
	.st33{fill:none;}
	.st34{clip-path:url(#SVGID_12_);}
	.st35{clip-path:url(#SVGID_14_);}
	.st36{clip-path:url(#SVGID_16_);}
	.st37{opacity:0.4;fill:#FFFFFF;enable-background:new    ;}
	.st38{clip-path:url(#SVGID_18_);}
	.st39{opacity:0.24;fill:#4D328E;enable-background:new    ;}
	.st40{opacity:0.6;fill:#EDECEB;enable-background:new    ;}
	.st41{clip-path:url(#SVGID_20_);}
	.st42{opacity:0.36;fill:#7262B7;enable-background:new    ;}
	.st43{opacity:0.23;fill:#FFFFFF;enable-background:new    ;}
	.st44{clip-path:url(#SVGID_22_);}
	.st45{clip-path:url(#SVGID_24_);}
	.st46{opacity:0.65;fill:url(#SVGID_25_);enable-background:new    ;}
	.st47{clip-path:url(#SVGID_27_);}
	.st48{clip-path:url(#SVGID_29_);}
	.st49{opacity:0.62;fill:#FFFFFF;enable-background:new    ;}
	.st50{fill:#DDDDED;}
	.st51{fill:#8B8BB7;}
	.st52{fill:none;stroke:#6D6DA0;stroke-width:1.87;stroke-linecap:round;stroke-miterlimit:10;}
	.st53{fill:none;stroke:#6D6DA0;stroke-width:1.7;stroke-linecap:round;stroke-miterlimit:10;}
</style>
<title>ziggy_7</title>
<g id="Layer_2">
	<g id="Layer_1-2">
		<ellipse class="st0" cx="113.5" cy="194.1" rx="50.5" ry="7.5"/>
		<path class="st1" d="M68.4,132.6c0.3-1.4,1.1-2.5,2.2-3.4c1-0.5,2.2-0.5,3.2,0c1,0.4,2,1,2.8,1.8c3.1,2.7,5.9,5.9,9.2,8.4
			c2.8,2.4,6.3,4,10,4.6c0.6,0.1,1.6-0.1,1,0.7c-0.4,0.4-0.8,0.8-1.3,1c-0.9,0.5-1.8,0.9-2.7,1.2c-3.8,1.2-7.9,1-11.6-0.4
			c-2.2-0.8-4.4-1.9-5.6-3.8c-0.2,11.3,1.6,22.6,5.1,33.3c0.1,0.2-0.1,0.5-0.3,0.5c-0.2,0-0.3,0-0.4-0.1
			c-4.4-5.6-7.9-11.7-10.6-18.3C65.9,150,65.6,141,68.4,132.6z"/>
		<path class="st2" d="M189.3,146.5c5.6-12.7,8.4-26.4,8.4-40.3c0-50.2-36.3-90.9-81-90.9s-81,40.7-81,90.9
			c0,12.8,2.4,25.6,7.1,37.5L189.3,146.5z"/>
		<path class="st3" d="M142.3,14.2c0.3-0.2,0.8-0.2,1.1,0c0.2,0.2,0.3,0.4,0.3,0.7l1.9,8.8c0.1,0.1,0.1,0.3,0,0.5
			c-0.1,0.3-0.6,0.2-0.8,0.1c-1-0.5-1.9-1.1-2.8-1.7c-1.2-0.8-2.5-1.4-3.9-1.8c-1.1-0.4-2.9-0.3-1.9-1.9
			C137.7,16.7,139.8,15,142.3,14.2z"/>
		<path class="st3" d="M157.9,29.2c0.1,0,0.3,0,0.4,0c0.1,0.1,0.2,0.2,0.2,0.4c0.7,1.9,0.4,4,0.1,6c-1.4-1.3-2.9-2.5-4.5-3.5
			c-1.3-0.8-1.5-1.4,0-2C155.3,29.7,156.6,29.4,157.9,29.2z"/>
		<path class="st3" d="M39.4,137.4l3.4,10.1c0,3.6,33.4,6.4,74.6,6.4s74.6-2.9,74.6-6.4l3.4-10.1L39.4,137.4z"/>
		<g class="st4">
			<g>
				<defs>
					<path id="SVGID_1_" d="M39.4,137.4l3.4,10.1c0,3.6,33.4,6.4,74.6,6.4s74.6-2.9,74.6-6.4l3.4-10.1L39.4,137.4z"/>
				</defs>
				<clipPath id="SVGID_2_">
					<use xlink:href="#SVGID_1_"  style="overflow:visible;"/>
				</clipPath>
				<g class="st5">
					<rect x="67.2" y="140.5" class="st6" width="2.2" height="15.6"/>
					<rect x="75.7" y="140.7" class="st6" width="2.2" height="15.6"/>
					<rect x="84.2" y="140.7" class="st6" width="2.2" height="15.6"/>
					<rect x="160" y="139" class="st6" width="2.2" height="15.6"/>
					<rect x="168.5" y="139.2" class="st6" width="2.2" height="15.6"/>
					<rect x="187.1" y="138.4" class="st6" width="2.2" height="15.6"/>
				</g>
			</g>
		</g>
		<ellipse class="st7" cx="117.4" cy="137.4" rx="78" ry="6.4"/>
		<path class="st8" d="M187,116.6c-0.4-1-1.1-2.2-2.2-2.3c-0.7,0.1-1.3,0.4-1.7,0.9c-1.4,1.4-2.5,3.2-4.1,4.4
			c-1.8,1.3-4.1,1.7-6.3,1.3c-1.6-3.2-3.6-8.7-3.1-12.8c0.6-4.8,2.4-9.3,3.8-13.9c3.1-10.6,3.9-22,0.7-32.6c-1-3.2-2.3-6.3-3.8-9.3
			c-8.8-17.9-24-31.8-42.6-39c-4.8-1.8-10.1-2.5-15-1.1c-3,1-5.9,2.5-8.4,4.5C92.8,25.7,86,39.7,83.3,54s-1.5,29,0.4,43.4
			c0.9,7.8,2.5,15.5,4.7,23.1c1.8,5.7,2.7,8.9,9,7.5c6.4-1.4,13-2.3,19.6-2.6c2.5-0.1,5-0.1,7.5,0c-0.3,1.7-0.3,3.4,0,5.2
			c0,0.8,0.3,1.5,0.7,2.2c0.9,1.2,2.7,1.3,4.2,1.3c4.3-0.1,8.8,1.8,13.1,1.7c10.8-0.3,22.6-0.3,33.3-2.1c2.8-0.3,5.5-1.1,8-2.4
			c2.5-1.3,4.3-3.6,5-6.3C189.3,122.1,188.2,119.3,187,116.6z"/>
		<path class="st9" d="M103.2,54.9c0.4-2.8,1.8-5.8,2.8-8c1.7-3.7,3.8-7.2,6.4-10.4c4.5-5.4,10.2-9.7,16.8-12.3
			c3.9-1.6,6.7-0.6,10.2,1.6c1.3,0.8,2.6,1.8,3.9,2.7c4.2,3.1,8.2,6.3,12,9.9c1,1,10.2,10.6,8.6,11.6c-0.1,0.1-0.3,0.1-0.5,0
			c-5.8-2.2-12.1-2.4-18-0.5c-6.4,2.1-11.9,6.5-16.1,11.9c-1.6,2.1-3.1,4.3-4.4,6.6c-1,1.7-1.8,4.1-3.9,4.6c-1.5,0.4-3-0.4-4.2-1.2
			c-4.2-2.7-8-6-11.3-9.8c-0.9-1-1.6-2.1-2.1-3.3C103,57.2,103,56,103.2,54.9z"/>
		<g>
			<defs>
				<path id="SVGID_3_" d="M187,116.6c-0.4-1-1.1-2.2-2.2-2.3c-0.7,0.1-1.3,0.4-1.7,0.9c-1.4,1.4-2.5,3.2-4.1,4.4
					c-1.8,1.3-4.1,1.7-6.3,1.3c-1.6-3.2-3.6-8.7-3.1-12.8c0.6-4.8,2.4-9.3,3.8-13.9c3.1-10.6,3.9-22,0.7-32.6
					c-1-3.2-2.3-6.3-3.8-9.3c-8.8-17.9-24-31.8-42.6-39c-4.8-1.8-10.1-2.5-15-1.1c-3,1-5.9,2.5-8.4,4.5C92.8,25.7,86,39.7,83.3,54
					s-1.5,29,0.4,43.4c0.9,7.8,2.5,15.5,4.7,23.1c1.8,5.7,2.7,8.9,9,7.5c6.4-1.4,13-2.3,19.6-2.6c2.5-0.1,5-0.1,7.5,0
					c-0.3,1.7-0.3,3.4,0,5.2c0,0.8,0.3,1.5,0.7,2.2c0.9,1.2,2.7,1.3,4.2,1.3c4.3-0.1,8.8,1.8,13.1,1.7c10.8-0.3,22.6-0.3,33.3-2.1
					c2.8-0.3,5.5-1.1,8-2.4c2.5-1.3,4.3-3.6,5-6.3C189.3,122.1,188.2,119.3,187,116.6z"/>
			</defs>
			<clipPath id="SVGID_4_">
				<use xlink:href="#SVGID_3_"  style="overflow:visible;"/>
			</clipPath>
			<g class="st10">
				<path class="st11" d="M173.4,94c2.2-6.7,2.2-13.9,0-20.7c-2.2-6.7-7.1-12.3-13.5-15.4c-7.4-3.4-15.8-1.9-22,3.2
					c-4.8,4.1-8.5,9.3-10.8,15.2c-4,9.8-4.7,20.7-2,30.9c2.4,8.9,6.1,17.8,12.7,24.2c1.8,1.9,4,3.3,6.5,4.1c2.6,0.8,5.3,0.6,8,0.6
					c6.8-0.1,13.7,0.9,20.5,0.8s13.9-1.4,19.4-5.4c5.5-4,9.1-11.3,7.2-17.9c-1.2-4-4.1-7.3-5.5-11.2c-1.8-5.1-0.8-11-3.3-15.7
					c-1.7-3.2-4.8-5.5-7.8-7.6c-0.3-0.3-0.7-0.4-1.1-0.4c-0.3,0.1-0.6,0.4-0.7,0.7c-2.2,3.6-4.2,7.3-6,11.2"/>
			</g>
		</g>
		<path class="st12" d="M179.2,144.8c1.3,0.8,2.8,1.2,4.3,1.1c6.1,0.1,12-2,16.7-5.8c1.3-1,2.7-2.3,4.4-2c1,0.2,1.9,0.9,2.4,1.8
			c0.5,0.9,0.7,1.9,0.9,2.9c1.1,8.5-0.3,17-4,24.7c-3.3,6.8-7.8,13-13.2,18.2c-0.2,0.2-0.4,0.1-0.6,0c-0.1-0.1-0.1-0.3-0.1-0.5
			c3.7-6.9,6.9-14.1,9.4-21.6c1.2-3.4,2-6.8,2.4-10.4c0.3-1.5,0.1-3.1-0.4-4.6c-1.1,1.1-3,1.2-4.5,1.4c-3.4,0.5-7,0.4-10.4-0.4
			c-1.1-0.2-2.2-0.6-3.2-1.1C181.6,148,180.3,146.3,179.2,144.8z"/>
		<path class="st13" d="M60.8,113.6c-1.6-1.1-3.7-1.2-5.4-0.3c-1.7,1-3,2.5-3.7,4.2c-0.7,1.8-1.2,3.6-1.5,5.5"/>
		<path class="st14" d="M39.4,169.4c0.3-1.7,0.7-3.4,1.3-5.1c0.6-1.7,1.7-3.1,3.2-4.1c0.9-0.5,1.8-0.8,2.8-1c2.9-0.5,5.9,0.2,8.3,2
			c2.4,1.8,4.1,4.3,4.9,7.1l0.5-14.2l-2.6-9.8l-10.8-2.9l-8.7,3.2l-3.1,5.8l0.6,10.4l2.5,8.1L39.4,169.4z"/>
		<path class="st15" d="M40.7,167.6c-1.1-4.7-1.4-9.5-0.7-14.2c0.6-3.6,1.9-7.7,5.6-9h0.1c2.8-0.9,6.1,0.3,8.1,2.5
			c3.7,3.9,4.3,9.8,5,14.9c0.3,1.8,0.2,3.5,0.5,5.3c0.1,0.6,0.3,1.3,0.9,1.5c0.4,0.1,0.9-0.1,1.2-0.4c0.3-0.4,0.4-0.8,0.5-1.2
			c1.2-5.8,1.5-11.7,0.8-17.6c-2.3-21-15.1-36.1-32.1-36.1c-7.7,0-15,3.7-19.7,9.9c-5.4,7-8.3,17-7,28.1c2.3,21,18,38,35,37.9
			c3.3,0,6.5-0.7,9.4-2.2c0.9-0.5,1.2-1.6,0.8-2.5c-0.1-0.2-0.2-0.4-0.4-0.5C45.4,180.8,42.3,174.8,40.7,167.6z"/>
		<path class="st16" d="M162.5,88.8c-0.1-5-2.3-9.8-6.1-13.2c-1.3-1.3-3-2.1-4.9-2.2c-2.9,0.1-5.1,2.9-6.1,5.6
			c-2.4,6.4-1.3,13.7,1.7,19.8s7.8,11.2,12.8,15.8c3.8,3.4,8.3,6.8,13.5,6.8l-6.9-1.3l-6.3-2.6l-9.4-7.6l-9.8-12.4l-2.5-6
			c-0.5-1.2-1.1-2.4-1.5-3.7c-0.8-2.1-0.7-4.7-0.5-6.9c0.1-1.2,0.3-2.4,0.7-3.5c0.4-0.9,0.9-1.8,1.4-2.6c2.3-3.3,5.7-5.7,9.6-6.8
			c1.9-0.5,3.6,0.3,5.4,0.8l3.9,4.6l3.8,6.2l1.5,7L162.5,88.8z"/>
		
			<ellipse transform="matrix(0.9856 -0.1693 0.1693 0.9856 -3.5978 24.9446)" class="st17" cx="144.4" cy="33.6" rx="3.6" ry="3.6"/>
		<ellipse transform="matrix(0.5771 -0.8166 0.8166 0.5771 21.9772 129.2485)" class="st17" cx="135.8" cy="43.4" rx="2.1" ry="2"/>
		
			<ellipse transform="matrix(0.9992 -3.996804e-02 3.996804e-02 0.9992 -1.153 5.1294)" class="st17" cx="127.7" cy="31.4" rx="2.7" ry="2.7"/>
		<path class="st18" d="M88.6,43.7c0.9,1.4,2.9,2.8,4.9,2l3.6-9.5l-2.7-6.1L91,32.5c-1.5,2.6-2.7,5.2-3.8,7.9
			C87.5,41.6,87.9,42.7,88.6,43.7z"/>
		<path class="st18" d="M112.8,12.3c-1.3,0.4-2.7,1-3.9,1.6c0.2,1.3,0.9,2.5,1.9,3.3c0.5,0.3,1,0.5,1.6,0.6c0.7-0.1,1.4-0.3,2-0.8
			c2-1.3,4-2.7,5.8-4.3l-1.3-1.1C116.8,11.5,114.7,11.8,112.8,12.3z"/>
		<path class="st19" d="M118.3,67.7c-1.7,0.1-3.3,1.1-3.9,2.8c-0.6,1.6-0.6,3.4,0.1,4.9c0.7,1.9,2,3.4,3.8,4.2
			c0.6,0.3,1.3,0.4,2,0.2c0.8-0.3,1.4-1,1.7-1.7C123.9,74.5,123.6,67.7,118.3,67.7z"/>
		<g>
			<defs>
				<path id="SVGID_5_" d="M187,116.6c-0.4-1-1.1-2.2-2.2-2.3c-0.7,0.1-1.3,0.4-1.7,0.9c-1.4,1.4-2.5,3.2-4.1,4.4
					c-1.8,1.3-4.1,1.7-6.3,1.3c-1.6-3.2-3.6-8.7-3.1-12.8c0.6-4.8,2.4-9.3,3.8-13.9c3.1-10.6,3.9-22,0.7-32.6
					c-1-3.2-2.3-6.3-3.8-9.3c-8.8-17.9-24-31.8-42.6-39c-4.8-1.8-10.1-2.5-15-1.1c-3,1-5.9,2.5-8.4,4.5C92.8,25.7,86,39.7,83.3,54
					s-1.5,29,0.4,43.4c0.9,7.8,2.5,15.5,4.7,23.1c1.8,5.7,2.7,8.9,9,7.5c6.4-1.4,13-2.3,19.6-2.6c2.5-0.1,5-0.1,7.5,0
					c-0.3,1.7-0.3,3.4,0,5.2c0,0.8,0.3,1.5,0.7,2.2c0.9,1.2,2.7,1.3,4.2,1.3c4.3-0.1,8.8,1.8,13.1,1.7c10.8-0.3,22.6-0.3,33.3-2.1
					c2.8-0.3,5.5-1.1,8-2.4c2.5-1.3,4.3-3.6,5-6.3C189.3,122.1,188.2,119.3,187,116.6z"/>
			</defs>
			<clipPath id="SVGID_6_">
				<use xlink:href="#SVGID_5_"  style="overflow:visible;"/>
			</clipPath>
			<g class="st20">
				<path class="st16" d="M165.6,44.2c9.9,12.1,12.4,29.7,6.5,44.2c-2.1,5.1-5.1,9.8-6.8,15s-1.9,11.4,1.5,15.8
					c0.2,0.3,0.4,0.5,0.6,0.7c0.5,0.3,1.1,0.6,1.7,0.7c1.5,0.3,3.1,0.6,4.4,0c1.3-0.8,2.2-2.1,2.3-3.6c0.1-1.5,0-3-0.2-4.4
					c-0.3-2.6-0.2-5.3,0.1-7.9c0.9-7.3,4.2-14.3,4.3-21.7c0-3.3-0.4-6.7-1.3-9.9c-1.7-7.5-4.6-14.8-8.6-21.4"/>
				<path class="st16" d="M186.1,122c-1.1,2.8-3.2,5.1-5.9,6.4c-6.1,3.2-15.3,3.2-22.1,2.8c-8.3-0.7-16.5-2.4-24.3-5.2
					c-0.7,2.7,0.9,5.6,3.2,7.3c5.2,3.8,13.7,3.8,19.8,4c7.7,0.4,15.4-0.3,22.8-2.1c3.1-0.7,6.2-1.7,8.6-3.7
					c4.1-3.5,5.4-9.4,3.2-14.3c-0.8-1.6-3.8-5.5-5.5-3C184.8,115.9,186.8,119.7,186.1,122z"/>
				<path class="st18" d="M89.6,39.2l0.4-0.8c1.9-3.7,4.2-7.3,6.9-10.5c2.2-3.1,4.7-6,7.4-8.6c0.6-0.5,7.8-5.7,7.8-5.7
					c-1.2-1.6-3-2.6-5-2.6c-2,0-3.9,0.5-5.7,1.4c-12,5.2-20.2,16.9-24.8,29.2c-2.1,5.2-3.2,10.6-3.5,16.2c-0.1,3.1,0.3,6.3,2.1,8.8
					c1,1.5,2.3,2.7,3.8,3.7c0.7,0.6,1.5,0.9,2.3,1c1.5-0.1,1-1.1,0.9-2.4C82,62.5,83,56.2,85.2,50.2C86.4,46.5,87.9,42.8,89.6,39.2z
					"/>
				<path class="st16" d="M129.2,135.1c-7.7-5.8-12.2-15.2-14.1-24.7c-1.1-5.5-1.4-11.1-3.4-16.3c-1.5-4-4-7.6-7.2-10.4
					c-1.7-1.7-3.9-2.8-6.3-3.2c-2,0-3.9,0.5-5.7,1.5c-7.1,3.5-13.1,8.9-17.1,15.7c1.4,8.4,3.5,17.1,7.9,24.4c2.6,4,5.7,7.5,9.3,10.6
					c6.8,5.9,15.4,10.7,24.3,9.4C121.7,141.3,126,138.8,129.2,135.1z"/>
			</g>
		</g>
		<path class="st21" d="M89.6,34.2c-0.1-1.8,0-3.6,0.2-5.4c0.3-3.4,1.4-6.7,3.2-9.6c0.7-1.1,1.6-2,2.7-2.6c0.1-0.1,0.2-0.1,0.4-0.1
			c0.2,0,0.4,0.1,0.5,0.2c1.5,1.5,2.8,3.2,3.8,5.1l5.2,9c1.3,2.3-1.8,5.6-3.2,7.3s-2.7,3-4.1,4.4c-1.3,1.2-5.3,4.9-7,2.7
			c-0.3-0.4-0.4-0.9-0.5-1.4c-0.1-0.5-0.2-0.9-0.3-1.4c-0.2-1.1-0.4-2.2-0.5-3.3C89.8,37.5,89.7,35.8,89.6,34.2z"/>
		<path class="st21" d="M112,6.2c0.3-0.7,0.8-1.4,1.3-2c2-2.2,4.5-3.9,7.5-4c0.4,0,0.9,0,1.3,0.2c0.8,0.5,1,1.5,1.1,2.4
			c0.5,3.5,1.5,6.9,2.9,10.1c0.1,0.1,0.1,0.3,0,0.4c-0.1,0.2-0.5,0.1-0.7,0c-2-0.9-4.3-0.4-6.3,0.6c-1.3,0.7-2.6,1.5-3.9,2.2
			c-0.8,0.5-2.8,1.8-3.5,0.9s-0.9-3.2-1-4.3C110.6,10.5,111.1,8.3,112,6.2z"/>
		<path class="st22" d="M133.8,135.6c-1.9,1.2-4,1.9-6.2,2.1c-12.5,2.1-25.2,3.2-37.8,3.2c-9.5,0.1-19-7.9-24.4-15.2
			c-6.9-9.3-10.2-20.7-9.5-32.2c0.8-12.1,6.6-21.3,15-29.8c3.1-3,7.3-4.5,11.6-4.2c5.2,0.5,9.5,4.4,11.9,8.9S97.7,78,98.5,83l2,11.8
			c1,6,2.1,12,4.2,17.7s5.5,11.1,10.3,14.8c2.6,1.9,5.4,3.5,8.4,4.8c3,1.6,6.3,2.8,9.8,3.4"/>
		<g>
			<defs>
				<path id="SVGID_7_" d="M133.8,135.6c-1.9,1.2-4,1.9-6.2,2.1c-12.5,2.1-25.2,3.2-37.8,3.2c-9.5,0.1-19-7.9-24.4-15.2
					c-6.9-9.3-10.2-20.7-9.5-32.2c0.8-12.1,6.6-21.3,15-29.8c3.1-3,7.3-4.5,11.6-4.2c5.2,0.5,9.5,4.4,11.9,8.9S97.7,78,98.5,83
					l2,11.8c1,6,2.1,12,4.2,17.7s5.5,11.1,10.3,14.8c2.6,1.9,5.4,3.5,8.4,4.8c3,1.6,6.3,2.8,9.8,3.4"/>
			</defs>
			<clipPath id="SVGID_8_">
				<use xlink:href="#SVGID_7_"  style="overflow:visible;"/>
			</clipPath>
			<g class="st23">
				<path class="st24" d="M104.7,87.8c0.9,10.4,0.3,21.7-5.9,30.1c-5.3,7.2-14.1,10.3-22.5,7c-15.7-6-18.8-25-16.5-39.8
					C60.4,81,61.5,77,63,73.1c0.5-1.2,2.1-2.8,2.3-3.9c0.4-2.1-1.5-0.8-2.3,0.1c-3.9,4.1-6.8,9.2-8.3,14.6
					c-1.1,3.8-4.4,7.1-6.8,10.3l5.7,31.7l12,14.1l19.9,4l22.5-0.2l17.4-10.8l0.7-24.8L104.7,87.8z"/>
			</g>
		</g>
		<path class="st25" d="M71.1,81.5c1.4,2.5,4.5,3.4,7,2c0.6-0.3,1-0.7,1.5-1.2"/>
		<path class="st26" d="M87.2,58.2c-0.3,2.4-1,4.8-2.2,6.9c-1.8,2.9-5.1,4.7-8.5,4.4c-3.5-0.3-6.3-3-6.8-6.4c0-0.1,0.1-0.3,0.2-0.2
			L87.2,58.2z"/>
		<path class="st26" d="M90.8,63.7c-3.1,3.1-3.1,8.1-0.1,11.2c1.9,1.9,4.6,2.7,7.2,2.2c1.1-0.2,2.1-0.8,2.9-1.6L90.8,63.7z"/>
		<path class="st26" d="M67.4,66.2"/>
		<path class="st26" d="M60.3,77.6c0,0,1.4-2.6,2.1-3.8s5.2-6.5,5.2-6.5c0.6,2.6-0.1,5.4-1.9,7.4c-0.7,0.7-1.4,1.3-2.3,1.8
			C62.5,77,61.4,77.4,60.3,77.6"/>
		<ellipse class="st27" cx="77.2" cy="54.7" rx="10.6" ry="13.2"/>
		<ellipse transform="matrix(0.2521 -0.9677 0.9677 0.2521 5.9003 145.6496)" class="st27" cx="97.2" cy="69" rx="8.3" ry="7.3"/>
		
			<ellipse transform="matrix(0.9659 -0.2589 0.2589 0.9659 -15.4633 17.9854)" class="st27" cx="60.6" cy="67.7" rx="7.4" ry="8.4"/>
		<path class="st28" d="M81,54.7c-0.5,2.4-2.7,3.9-5.1,3.4c-2.4-0.5-3.9-2.7-3.4-5.1c0.5-2.3,2.7-3.9,5.1-3.4
			C79.9,50,81.4,52.3,81,54.7C81,54.6,81,54.7,81,54.7z"/>
		<path class="st28" d="M63.9,67c-0.3,1.7-1.9,2.8-3.6,2.4c-1.7-0.3-2.8-1.9-2.4-3.6c0.3-1.7,1.9-2.7,3.6-2.4
			C63.1,63.7,64.2,65.3,63.9,67C63.9,67,63.9,67,63.9,67z"/>
		<path class="st28" d="M99.2,68.1c-0.3,1.7-1.9,2.8-3.6,2.4s-2.8-1.9-2.4-3.6c0.3-1.7,1.9-2.7,3.6-2.4
			C98.4,64.8,99.5,66.4,99.2,68.1C99.2,68.1,99.2,68.1,99.2,68.1z"/>
		<path class="st29" d="M164.2,118.5c-2.6-1.2-5-2.7-7.2-4.5c-8.1-6.2-15.6-14.5-17.6-24.9c-0.9-4.7-0.5-9.6,1.3-14.1
			c0.6-1.9,1.9-3.6,3.6-4.8c1.9-1.2,4.1-2.1,6.3-1.3c2.4,0.9,4.6,2.4,6.2,4.4c0.7,0.8,1.2,1.7,1.8,2.6c1.9,3.1,3.2,6.6,3.9,10.2
			c0.4,2.5,0.4,5.1-0.2,7.6c-0.3,1.2-0.7,2.4-1.2,3.6c-0.4,1-1.3,1.9-1.6,2.9c0,0,1.5-0.9,1.7-1.2c0.5-0.6,0.9-1.2,1.3-1.9
			c0.8-1.6,1.5-3.3,2-5c0.8-2.3,1-4.8,0.8-7.2c-0.2-1.6-0.7-3.2-1.3-4.7c-1.3-3.3-3.2-6.3-5.8-8.8c-2.5-2.3-5.6-4.5-9.2-3.8
			c-4.5,0.9-8.4,3.6-10.8,7.4c-5.1,8.1-1.7,18.1,2.9,25.6c3.1,5.1,7.3,9.5,12.1,12.9c5.6,4,11.8,7.4,18.8,8.1
			c0.5,0.1,1.1,0.1,1.6,0.1C167.9,120.4,165.3,119.1,164.2,118.5z"/>
		<ellipse transform="matrix(0.978 -0.2086 0.2086 0.978 -15.6862 35.209)" class="st28" cx="159.1" cy="92" rx="10.3" ry="10.5"/>
		<g>
			<defs>
				
					<ellipse id="SVGID_9_" transform="matrix(0.978 -0.2086 0.2086 0.978 -15.6862 35.209)" cx="159.1" cy="92" rx="10.3" ry="10.5"/>
			</defs>
			<clipPath id="SVGID_10_">
				<use xlink:href="#SVGID_9_"  style="overflow:visible;"/>
			</clipPath>
			<g class="st30">
				
					<ellipse transform="matrix(0.978 -0.2086 0.2086 0.978 -15.0481 35.4796)" class="st1" cx="160.7" cy="89.1" rx="8.2" ry="8.4"/>
			</g>
		</g>
		<ellipse transform="matrix(0.7676 -0.6409 0.6409 0.7676 -18.9382 125.7593)" class="st31" cx="164" cy="89" rx="4" ry="4.2"/>
		<path class="st32" d="M163.8,112.7c-0.3-3.6,0.6-7.2,2.6-10.3c0.5-0.8,2-2.7,1.1-3.7c-0.1-0.1-0.2-0.1-0.3-0.1
			c-0.1,0-0.2,0.1-0.3,0.1c-1.9,1.4-4.2,1.9-6.5,1.6c-2.2-0.3-4.2-1.2-5.9-2.6c-3.2-2.7-4.7-6.9-3.9-11c0.2-0.8,0.6-1.6,1.1-2.3
			c-0.5-0.1-1,0.1-1.3,0.4c-0.6,0.6-0.6,1.5-1,2.3l-1,2.3l-1.3,3.1l2.8,7.2l5.9,3.3c0.3,0.1,0.6,0.1,0.9,0h2c1.5,0,3,0.2,4.4-0.6
			c0.7-0.3,1.4-0.7,2-1.2l0.1-0.1c0.5-0.5,0.9-1.1,1.1-1.8l-0.4,0.2c-0.5,0.2-1,0.4-1.6,0.6"/>
		<path class="st33" d="M89.6,34.2c-0.1-1.8,0-3.6,0.2-5.4c0.3-3.4,1.4-6.7,3.2-9.6c0.7-1.1,1.6-2,2.7-2.6c0.1-0.1,0.2-0.1,0.4-0.1
			c0.2,0,0.4,0.1,0.5,0.2c1.5,1.5,2.8,3.2,3.8,5.1l5.2,9c0.3,0.4,0.4,0.8,0.4,1.2c0,0.9-1.2,1.9-1.7,2.5c-0.7,0.8-1.4,1.7-2.1,2.5
			c-1.5,1.7-3,3.3-4.5,4.9c-0.8,0.9-1.7,1.7-2.5,2.6s-2.8,2.2-3.9,0.7c-0.3-0.4-0.4-0.9-0.5-1.4c-0.1-0.5-0.2-0.9-0.3-1.4
			c-0.2-1.1-0.4-2.2-0.5-3.3C89.8,37.5,89.7,35.8,89.6,34.2z"/>
		<g>
			<defs>
				<path id="SVGID_11_" d="M89.6,34.2c-0.1-1.8,0-3.6,0.2-5.4c0.3-3.4,1.4-6.7,3.2-9.6c0.7-1.1,1.6-2,2.7-2.6
					c0.1-0.1,0.2-0.1,0.4-0.1c0.2,0,0.4,0.1,0.5,0.2c1.5,1.5,2.8,3.2,3.8,5.1l5.2,9c1.3,2.3-1.8,5.6-3.2,7.3s-2.7,3-4.1,4.4
					c-1.3,1.2-5.3,4.9-7,2.7c-0.3-0.4-0.4-0.9-0.5-1.4c-0.1-0.5-0.2-0.9-0.3-1.4c-0.2-1.1-0.4-2.2-0.5-3.3
					C89.8,37.5,89.7,35.8,89.6,34.2z"/>
			</defs>
			<clipPath id="SVGID_12_">
				<use xlink:href="#SVGID_11_"  style="overflow:visible;"/>
			</clipPath>
			<g class="st34">
				<path class="st3" d="M97.4,18.6c-0.3,0.2-0.6,0.4-0.8,0.6c-1.3,1.6-2.1,3.5-2.4,5.5c-0.6,3-0.8,6.1,0.2,9c0.3,1,1,1.9,1.9,2.5
					c1.1,0.6,2.5,0.6,3.6,0c2.1-1,3.9-2.6,5-4.7c0.4-0.7,0.8-1.4,1.1-2.1c0.2-0.5,0.3-1.9,1-1.5s0.9,1.7,1.1,2.3
					c0.2,0.8,0.3,1.7,0.3,2.6c0,0.8-0.2,1.6-0.4,2.4c-0.8,2.6-2.3,4.9-4.2,6.8c-2.1,2.4-4.8,4.2-7.7,5.4c-1.3,0.6-2.7,0.6-4.1,0.2
					c-1.4-0.7-2.5-1.9-3.1-3.3c-5.2-10-2.4-22.4,6.6-29.2c1-0.8,2.5-0.9,3.2,0.4c0.2,0.4,0.8,2.3,0.1,2.6c-0.1,0-0.2,0-0.4,0
					C98,18.3,97.7,18.4,97.4,18.6z"/>
			</g>
		</g>
		<g>
			<defs>
				<path id="SVGID_13_" d="M142.3,14.2c0.3-0.2,0.8-0.2,1.1,0c0.2,0.2,0.3,0.4,0.3,0.7l1.9,8.8c0.1,0.1,0.1,0.3,0,0.5
					c-0.1,0.3-0.6,0.2-0.8,0.1c-1-0.5-1.9-1.1-2.8-1.7c-1.2-0.8-2.5-1.4-3.9-1.8c-1.1-0.4-2.9-0.3-1.9-1.9
					C137.7,16.7,139.8,15,142.3,14.2z"/>
			</defs>
			<clipPath id="SVGID_14_">
				<use xlink:href="#SVGID_13_"  style="overflow:visible;"/>
			</clipPath>
			<g class="st35">
				<path class="st21" d="M146.2,19.3c-0.9,0.6-2,0.7-3,0.5c-0.8-0.4-1.4-1.2-1.5-2.1c-0.2-0.8-0.3-1.7-0.2-2.5
					c0-0.7,0.4-1.3,0.9-1.8l3.1,0.3L146.2,19.3z"/>
			</g>
		</g>
		<g>
			<defs>
				<path id="SVGID_15_" d="M112,6.2c0.3-0.7,0.8-1.4,1.3-2c2-2.2,4.5-3.9,7.5-4c0.4,0,0.9,0,1.3,0.2c0.8,0.5,1,1.5,1.1,2.4
					c0.5,3.5,1.5,6.9,2.9,10.1c0.1,0.1,0.1,0.3,0,0.4c-0.1,0.2-0.5,0.1-0.7,0c-2-0.9-4.3-0.4-6.3,0.6c-1.3,0.7-2.6,1.5-3.9,2.2
					c-0.8,0.5-2.8,1.8-3.5,0.9s-0.9-3.2-1-4.3C110.6,10.5,111.1,8.3,112,6.2z"/>
			</defs>
			<clipPath id="SVGID_16_">
				<use xlink:href="#SVGID_15_"  style="overflow:visible;"/>
			</clipPath>
			<g class="st36">
				<path class="st3" d="M126.5,4.4c-1.2,3.6-4,6.5-8.1,6.3c-0.9,0-1.7-0.3-2.4-0.7c-1-0.8-1.6-2.1-1.4-3.5c0.1-1.2,0.6-2.3,1.4-3.1
					c0.7-0.9,1.6-1.7,2.5-2.4c0.7-0.5,2-1.6,2.9-1.5l-6.8-0.8L107,3.9l0.3,7.2l2.7,6.4l3.4,1.3l6.1-1.9l5-2.2l3.5,0.2l0.4-4.6
					l-1-4.8L126.5,4.4z"/>
			</g>
		</g>
		<circle class="st37" cx="38.5" cy="129.1" r="2.9"/>
		<g>
			<defs>
				<path id="SVGID_17_" d="M40.7,167.6c-1.1-4.7-1.4-9.5-0.7-14.2c0.6-3.6,1.9-7.7,5.6-9h0.1c2.8-0.9,6.1,0.3,8.1,2.5
					c3.7,3.9,4.3,9.8,5,14.9c0.3,1.8,0.2,3.5,0.5,5.3c0.1,0.6,0.3,1.3,0.9,1.5c0.4,0.1,0.9-0.1,1.2-0.4c0.3-0.4,0.4-0.8,0.5-1.2
					c1.2-5.8,1.5-11.7,0.8-17.6c-2.3-21-15.1-36.1-32.1-36.1c-7.7,0-15,3.7-19.7,9.9c-5.4,7-8.3,17-7,28.1c2.3,21,18,38,35,37.9
					c3.3,0,6.5-0.7,9.4-2.2c0.9-0.5,1.2-1.6,0.8-2.5c-0.1-0.2-0.2-0.4-0.4-0.5C45.4,180.8,42.3,174.8,40.7,167.6z"/>
			</defs>
			<clipPath id="SVGID_18_">
				<use xlink:href="#SVGID_17_"  style="overflow:visible;"/>
			</clipPath>
			<g class="st38">
				<path class="st39" d="M0,163.2c5.3,7.8,13.7,13,23,14.4c9.3,1.3,18.8-1,26.5-6.5c2.4-1.7,4.5-3.7,6.3-6c3-4,4.8-8.8,5.4-13.7
					c0.6-4.9,0.5-9.9-0.3-14.9l3.9,3.6l1.5,19.9l-2.7,10.1l-8.4,9.9l-2.5,8.4L40.4,195l-18.6-5.4l-9-11.6l-8.7-7.1L0,163.2z"/>
			</g>
		</g>
		<path class="st40" d="M77.2,65.2c-5.5,0-10-5.2-10.5-11.9c0,0.4-0.1,0.9-0.1,1.3c0,7.3,4.7,13.2,10.6,13.2S87.8,62,87.8,54.7
			c0-0.5,0-0.9-0.1-1.3C87.2,60,82.7,65.2,77.2,65.2z"/>
		<path class="st40" d="M67.1,65.9c-0.3-1-0.7-2-1.3-2.9c0.2,0.4,0.4,0.9,0.5,1.4c1.2,4.4-1,8.9-5,9.9c-3.1,0.7-6.2-0.6-7.9-3.3
			c1.6,3.7,5.3,5.7,8.8,4.8C66.1,74.8,68.3,70.3,67.1,65.9z"/>
		<path class="st40" d="M96.3,75.9c-3.9-1-6.2-5.5-5-9.9c0.4-1.4,1-2.7,2-3.8c-1.6,1.2-2.8,3-3.3,4.9c-1.2,4.4,1.1,8.9,5,9.9
			c2.7,0.6,5.4-0.3,7.2-2.4C100.6,76,98.4,76.4,96.3,75.9z"/>
		<g>
			<defs>
				<path id="SVGID_19_" d="M40.7,167.6c-1.1-4.7-1.4-9.5-0.7-14.2c0.6-3.6,1.9-7.7,5.6-9h0.1c2.8-0.9,6.1,0.3,8.1,2.5
					c3.7,3.9,4.3,9.8,5,14.9c0.3,1.8,0.2,3.5,0.5,5.3c0.1,0.6,0.3,1.3,0.9,1.5c0.4,0.1,0.9-0.1,1.2-0.4c0.3-0.4,0.4-0.8,0.5-1.2
					c1.2-5.8,1.5-11.7,0.8-17.6c-2.3-21-15.1-36.1-32.1-36.1c-7.7,0-15,3.7-19.7,9.9c-5.4,7-8.3,17-7,28.1c2.3,21,18,38,35,37.9
					c3.3,0,6.5-0.7,9.4-2.2c0.9-0.5,1.2-1.6,0.8-2.5c-0.1-0.2-0.2-0.4-0.4-0.5C45.4,180.8,42.3,174.8,40.7,167.6z"/>
			</defs>
			<clipPath id="SVGID_20_">
				<use xlink:href="#SVGID_19_"  style="overflow:visible;"/>
			</clipPath>
			<g class="st41">
				<circle class="st42" cx="32.7" cy="137.4" r="20.7"/>
			</g>
		</g>
		<path class="st43" d="M15.5,124.9c-0.7,3,0.1,6.2,2.2,8.6c1.4,1.6,1.4,1.3,2.3-0.3c0.8-1.5,2-2.6,3.5-3.3c1.8-0.8,3.7-1.2,5.6-1.3
			c1.5-0.1,3.2-0.2,4.1-1.4c2.9-3.8-3.3-8.6-6.4-9.3C21.9,116.6,16.7,119.8,15.5,124.9z"/>
		<g>
			<defs>
				<path id="SVGID_21_" d="M179.2,144.8c1.3,0.8,2.8,1.2,4.3,1.1c6.1,0.1,12-2,16.7-5.8c1.3-1,2.7-2.3,4.4-2c1,0.2,1.9,0.9,2.4,1.8
					c0.5,0.9,0.7,1.9,0.9,2.9c1.1,8.5-0.3,17-4,24.7c-3.3,6.8-7.8,13-13.2,18.2c-0.2,0.2-0.4,0.1-0.6,0c-0.1-0.1-0.1-0.3-0.1-0.5
					c3.7-6.9,6.9-14.1,9.4-21.6c1.2-3.4,2-6.8,2.4-10.4c0.3-1.5,0.1-3.1-0.4-4.6c-1.1,1.1-3,1.2-4.5,1.4c-3.4,0.5-7,0.4-10.4-0.4
					c-1.1-0.2-2.2-0.6-3.2-1.1C181.6,148,180.3,146.3,179.2,144.8z"/>
			</defs>
			<clipPath id="SVGID_22_">
				<use xlink:href="#SVGID_21_"  style="overflow:visible;"/>
			</clipPath>
			<g class="st44">
				<path class="st12" d="M195.6,148c1.7,0.3,3.5,0.3,5.2-0.1c1.1-0.2,2.6-1.5,3.6-0.4c0.3,0.4,0.5,0.8,0.6,1.3
					c0.8,3.2-0.2,6.5-1.2,9.7c-0.9,3-2,6-3.3,8.8c-1,1.7-1.7,3.5-2.3,5.4c-0.2,0.7-0.2,1.4-0.1,2.1c0.1,0.6,0.4,1.1,0.9,1.4
					c0.5,0.3,1.1,0.2,1.5,0.6s0.3,1.4-0.1,2.1c-1.6,3.3-3.9,6.2-6.7,8.6c-0.8,0.7-1.7,1.3-2.6,1.7c-1,0.4-2.2,0.2-3-0.5
					c-0.6-0.6-0.9-1.3-1-2.1c-0.1-1.4,0-2.8,0.4-4.1c1.8-8.1,5-15.8,6.9-23.9c0.3-0.7,0.3-1.5,0-2.2c-0.5-0.7-1.3-1.2-2.1-1.2
					c-1.5-0.3-3.1-0.4-4.6-0.6c-1.5-0.2-3-0.7-4.3-1.6c-1.3-0.9-1.9-2.5-1.7-4.1c0.4-1.9,2.3-3,4.1-3.7s3.2-0.9,4.6,0.3
					C191.9,146.7,193.7,147.6,195.6,148z"/>
			</g>
		</g>
		<path class="st12" d="M178.2,140c-3.1,2.7-5.9,5.9-9.2,8.4c-2.8,2.4-6.3,4-10,4.6c-0.6,0.1-1.6-0.1-1,0.7c0.4,0.4,0.8,0.8,1.4,1
			c0.9,0.5,1.8,0.9,2.7,1.2c3.8,1.2,7.9,1,11.6-0.4c2.2-0.8,4.4-1.9,5.6-3.8c0.2,11.3-1.6,22.6-5.1,33.3c-0.1,0.2,0.1,0.5,0.3,0.5
			c0.2,0,0.3,0,0.4-0.1c4.4-5.6,7.9-11.7,10.6-18.3c3.4-8.1,3.8-17.1,1-25.5"/>
		<g>
			<defs>
				<path id="SVGID_23_" d="M186.4,141.6c-0.3-1.4-1.1-2.5-2.2-3.4c-1-0.5-2.2-0.5-3.2,0c-1,0.4-2,1-2.8,1.8
					c-3.1,2.7-5.9,5.9-9.2,8.4c-2.8,2.4-6.3,4-10,4.6c-0.6,0.1-1.6-0.1-1,0.7c0.4,0.4,0.8,0.8,1.4,1c0.9,0.5,1.8,0.9,2.7,1.2
					c3.8,1.2,7.9,1,11.6-0.4c2.2-0.8,4.4-1.9,5.6-3.8c0.2,11.3-1.6,22.6-5.1,33.3c-0.1,0.2,0.1,0.5,0.3,0.5c0.2,0,0.3,0,0.4-0.1
					c4.4-5.6,7.9-11.7,10.6-18.3C188.8,159,189.2,149.9,186.4,141.6z"/>
			</defs>
			<clipPath id="SVGID_24_">
				<use xlink:href="#SVGID_23_"  style="overflow:visible;"/>
			</clipPath>
			<g class="st45">
				<path class="st12" d="M178.2,141.4c-1.1,1.5-2,3.3-2.6,5.1c-0.1,0.4-0.1,0.8,0.1,1.1c0.5,0.8,1.9,0.8,3.1,0.6s1.6-1.1,2.1,0.4
					c0.4,1.4,0.7,2.8,0.7,4.2c0.2,2.8,0,5.6-0.5,8.4c-0.8,4.8-2.1,9.5-2.1,14.4c0,0.4,0,1,0.4,1.2s1-0.1,1.4-0.5l1.8-1.6
					c-0.1,0.5-0.1,1-0.2,1.5c-0.2,0.6-0.4,1.3-0.7,1.9c-0.6,1.2-1.3,2.3-2.2,3.4c-1.3,1.7-3.2,2.8-4.9,4.1c-0.7,0.5-1.3,1-1.9,1.6
					c-0.5,0.7-1,1.3-1.6,1.8c-0.2,0.2-0.5,0.3-0.8,0.3c-0.6-0.1-1.1-0.4-1.4-0.9c-2.1-2.9-2.3-6.7-2.5-10.3l-0.4-8.8
					c-0.1-2.1-0.2-4.3-1.6-5.8c-1.1-1-2.4-1.9-3.8-2.5c-2.4-1.4-4.2-3.5-5.4-5.9c-0.4-0.6-0.5-1.4-0.5-2.1c0.2-1.5,1.9-2.3,3.3-2.9
					c4.6-2,8.9-4.5,12.8-7.6c1.7-1.4,3.5-3.1,5.5-3.9"/>
			</g>
		</g>
		
			<linearGradient id="SVGID_25_" gradientUnits="userSpaceOnUse" x1="193.2864" y1="206.5877" x2="118.4464" y2="114.6777" gradientTransform="matrix(1 0 0 -1 0 213.3333)">
			<stop  offset="7.000000e-02" style="stop-color:#FFFFFF"/>
			<stop  offset="1" style="stop-color:#FFFFFF;stop-opacity:0"/>
		</linearGradient>
		<path class="st46" d="M178.8,141c2.4-0.3,4.5-1.9,5.4-4.1c4.1-10.5,6.1-21.7,6.1-33c0-45.7-33-82.7-73.7-82.7S43,58.2,43,103.9
			c0,11.7,2.2,23.2,6.5,34.1c22.4,3.6,45,5.6,67.7,6C137.8,144.3,158.4,143.3,178.8,141z"/>
		<path class="st14" d="M95.3,175.5c2.3-1.8,4.7-3.6,7.6-4.3c2.8-0.7,5.7-0.3,8.2,1.1c2.5,1.4,4.4,3.6,5.5,6.3l9.5-24.1l-17-10.6
			l-7.3,7L96,164.5l-1.3,9.2L95.3,175.5z"/>
		<path class="st13" d="M105.1,116.7l1.1-0.6c3.2-1.6,6.6-3,10-4c2-0.7,4-1,6.1-1c2.1,0.1,4,1.1,5.3,2.9c2.1,3.1,1.2,7.7,0.2,11.6"
			/>
		<path class="st15" d="M126,119.3c-18.5,0-34.7,16.4-36,36.6c-0.2,3.3,0,6.7,0.6,10c0.3,1.6,0.7,3.2,1.2,4.7c0.4,1.5,1,2.9,1.8,4.2
			c0.2,0.3,0.4,0.5,0.7,0.6c0.3,0.2,0.6,0.2,0.9,0.2c0.5-0.1,0.8-0.6,1-1c0.3-0.7,0.6-1.5,0.8-2.3c0.3-0.9,0.6-1.7,1-2.6
			c2.1-5.1,4.9-9.8,8.4-14c1.4-1.7,2.9-3.3,4.5-4.8c0.8-0.8,1.9-1.4,3-1.6c3.8-0.8,5.4,2.7,5.1,5.8c-0.4,4-1.5,8-3.1,11.6
			c-0.7,1.6-1,3.1-1.8,4.7c-0.9,1.7-1.8,3.4-2.9,5c-2,3.1-4.4,6-7,8.6c-0.5,0.5-0.5,1.4,0,1.9c0.1,0.1,0.1,0.1,0.2,0.2
			c5,3.4,10.9,5.3,16.9,5.2c18.5,0,34.7-16.4,36-36.6S144.6,119.3,126,119.3z"/>
		<g>
			<defs>
				<path id="SVGID_26_" d="M126,119.3c-18.5,0-34.7,16.4-36,36.6c-0.2,3.3,0,6.7,0.6,10c0.3,1.6,0.7,3.2,1.2,4.7
					c0.4,1.5,1,2.9,1.8,4.2c0.2,0.3,0.4,0.5,0.7,0.6c0.3,0.2,0.6,0.2,0.9,0.2c0.5-0.1,0.8-0.6,1-1c0.3-0.7,0.6-1.5,0.8-2.3
					c0.3-0.9,0.6-1.7,1-2.6c2.1-5.1,4.9-9.8,8.4-14c1.4-1.7,2.9-3.3,4.5-4.8c0.8-0.8,1.9-1.4,3-1.6c3.8-0.8,5.4,2.7,5.1,5.8
					c-0.4,4-1.5,8-3.1,11.6c-0.7,1.6-1,3.1-1.8,4.7c-0.9,1.7-1.8,3.4-2.9,5c-2,3.1-4.4,6-7,8.6c-0.5,0.5-0.5,1.4,0,1.9
					c0.1,0.1,0.1,0.1,0.2,0.2c5,3.4,10.9,5.3,16.9,5.2c18.5,0,34.7-16.4,36-36.6S144.6,119.3,126,119.3z"/>
			</defs>
			<clipPath id="SVGID_27_">
				<use xlink:href="#SVGID_26_"  style="overflow:visible;"/>
			</clipPath>
			<g class="st47">
				<circle class="st42" cx="130.3" cy="144.4" r="20.7"/>
			</g>
		</g>
		<path class="st43" d="M148.5,136.4c0,3.1-1.6,6-4.1,7.8c-1.7,1.2-1.7,0.9-2.2-0.9c-0.4-1.6-1.4-3-2.7-4.1c-1.5-1.2-3.3-2-5.2-2.6
			c-1.4-0.4-3.1-0.9-3.7-2.3c-2-4.3,5.2-7.6,8.4-7.6C144.2,126.9,148.5,131.2,148.5,136.4C148.5,136.4,148.5,136.4,148.5,136.4z"/>
		<circle class="st37" cx="125.4" cy="134.4" r="2.9"/>
		<g>
			<defs>
				<path id="SVGID_28_" d="M126,119.3c-18.5,0-34.7,16.4-36,36.6c-0.2,3.3,0,6.7,0.6,10c0.3,1.6,0.7,3.2,1.2,4.7
					c0.4,1.5,1,2.9,1.8,4.2c0.2,0.3,0.4,0.5,0.7,0.6c0.3,0.2,0.6,0.2,0.9,0.2c0.5-0.1,0.8-0.6,1-1c0.3-0.7,0.6-1.5,0.8-2.3
					c0.3-0.9,0.6-1.7,1-2.6c2.1-5.1,4.9-9.8,8.4-14c1.4-1.7,2.9-3.3,4.5-4.8c0.8-0.8,1.9-1.4,3-1.6c3.8-0.8,5.4,2.7,5.1,5.8
					c-0.4,4-1.5,8-3.1,11.6c-0.7,1.6-1,3.1-1.8,4.7c-0.9,1.7-1.8,3.4-2.9,5c-2,3.1-4.4,6-7,8.6c-0.5,0.5-0.5,1.4,0,1.9
					c0.1,0.1,0.1,0.1,0.2,0.2c5,3.4,10.9,5.3,16.9,5.2c18.5,0,34.7-16.4,36-36.6S144.6,119.3,126,119.3z"/>
			</defs>
			<clipPath id="SVGID_29_">
				<use xlink:href="#SVGID_28_"  style="overflow:visible;"/>
			</clipPath>
			<g class="st48">
				<path class="st39" d="M98.7,121.7c-4.6,4.3-7.2,10.3-8.3,16.4c-2.2,13,2.2,26.1,11.6,35.2c0.6,0.6,1.8,1.2,2.1,2.1
					s-0.4,2.9-0.7,3.8c-0.3,0.6-0.4,1.2-0.5,1.9c0,0.9,0.3,1.8,0.7,2.6c0.1,0.2,0.2,0.4,0.4,0.5c0.3,0.1,0.8-3.2,1.1-3.4
					c1.3-1.1-0.9-5.4,0.6-4.5c3.2,2,6.5,3.7,9.9,5.2c2.4,0.9,4.8,1.6,7.3,1.9c5,0.8,10.1,0.6,15-0.6c12.7-3.2,23.1-12.5,27.6-24.8
					l4.8,19.4l-17.9,33.6l-42.6,2L85.5,197L76,178.4l-1.1-24.3l5-22L98.7,121.7z"/>
			</g>
		</g>
		
			<ellipse transform="matrix(0.7809 -0.6247 0.6247 0.7809 -2.7298 107.0827)" class="st49" cx="151.3" cy="57.4" rx="13.6" ry="13.6"/>
		<ellipse transform="matrix(0.866 -0.5 0.5 0.866 -19.3522 76.4367)" class="st49" cx="133" cy="74.3" rx="5.4" ry="5.4"/>
		<path class="st50" d="M179.4,138.9l-1.2,0.3c-2.3,0.5-4.3,1.9-5.6,3.9c-1.2,1.9-1.6,4.2-1.1,6.4c0.5,2.1,1.8,4,3.6,5.2
			c0.9,0.6,1.9,1,2.9,1.2c1.1,0.3,2.2,0.3,3.3,0c1.3-0.3,2.6-0.7,3.8-1.3c1-0.5,1.8-1.2,2.5-2.1c1.6-2,2.3-4.7,1.7-7.2
			c-0.9-4.5-5.3-7.4-9.8-6.4C179.5,138.9,179.4,138.9,179.4,138.9z"/>
		<path class="st51" d="M183,146.2c1.4,3.2,0.2,6.8-2.6,8s-6.2-0.3-7.6-3.5s-0.2-6.8,2.6-8S181.7,143,183,146.2z"/>
		<line class="st52" x1="175.4" y1="151.8" x2="180.5" y2="145.1"/>
		<path class="st50" d="M204.1,136.2l-1.1,0.1c-2.1,0.2-4,1.3-5.4,2.9c-1.2,1.6-1.8,3.7-1.5,5.7c0.3,2,1.3,3.8,2.8,5.1
			c0.8,0.6,1.6,1.1,2.6,1.4c1,0.3,2,0.4,3,0.3c1.2-0.2,2.4-0.4,3.5-0.8c0.9-0.4,1.7-0.9,2.4-1.6c1.4-1.4,2.2-3.3,2.2-5.3
			c0-0.3,0-0.7-0.1-1C212.1,138.8,208.3,135.8,204.1,136.2z"/>
		
			<ellipse transform="matrix(0.9519 -0.3064 0.3064 0.9519 -34.6132 68.8254)" class="st51" cx="201.9" cy="144.7" rx="5.1" ry="5.7"/>
		<line class="st53" x1="199.2" y1="142.1" x2="204.7" y2="147.3"/>
	</g>
</g>
</svg>
