<?xml version="1.0" encoding="utf-8"?>
<!-- Generator: Adobe Illustrator 21.0.0, SVG Export Plug-In . SVG Version: 6.00 Build 0)  -->
<svg version="1.1" id="Layer_1" xmlns="http://www.w3.org/2000/svg" xmlns:xlink="http://www.w3.org/1999/xlink" x="0px" y="0px"
	 viewBox="0 0 163.1 215" style="enable-background:new 0 0 163.1 215;" xml:space="preserve">
<style type="text/css">
	.st0{opacity:8.000000e-02;enable-background:new    ;}
	.st1{fill:#664CA5;}
	.st2{opacity:0.79;fill:#B0B0D1;enable-background:new    ;}
	.st3{opacity:0.49;fill:#8484AF;enable-background:new    ;}
	.st4{clip-path:url(#SVGID_2_);}
	.st5{opacity:0.18;fill:#5C3C99;enable-background:new    ;}
	.st6{opacity:0.69;fill:#B0B0D1;enable-background:new    ;}
	.st7{clip-path:url(#SVGID_4_);}
	.st8{opacity:0.6;fill:#4D328E;enable-background:new    ;}
	.st9{clip-path:url(#SVGID_6_);}
	.st10{opacity:0.1;fill:#5C3C99;enable-background:new    ;}
	.st11{fill:#96D2E2;}
	.st12{fill:#F58A1F;}
	.st13{clip-path:url(#SVGID_8_);}
	.st14{fill:#DD700E;}
	.st15{clip-path:url(#SVGID_10_);}
	.st16{clip-path:url(#SVGID_12_);}
	.st17{fill:none;stroke:#5C3C99;stroke-width:6.36;stroke-linecap:round;stroke-miterlimit:10;}
	.st18{clip-path:url(#SVGID_14_);}
	.st19{clip-path:url(#SVGID_16_);}
	.st20{fill:#B0B0D1;}
	.st21{clip-path:url(#SVGID_18_);}
	.st22{opacity:0.2;fill:#5C3C99;enable-background:new    ;}
	.st23{clip-path:url(#SVGID_20_);}
	.st24{fill:#E27614;}
	.st25{opacity:0.47;fill:#504175;enable-background:new    ;}
	.st26{clip-path:url(#SVGID_22_);}
	.st27{opacity:0.12;fill:#5C3C99;enable-background:new    ;}
	.st28{fill:#FFFFFF;}
	.st29{fill:#5C3C99;}
	.st30{fill:none;stroke:#462D84;stroke-width:1.94;stroke-linecap:round;stroke-miterlimit:10;}
	.st31{fill:#DB4589;}
	.st32{fill:#CE4188;}
	.st33{opacity:0.15;fill:#FFFFFF;enable-background:new    ;}
	.st34{fill:#DDDDED;}
	.st35{clip-path:url(#SVGID_24_);}
	.st36{opacity:0.21;fill:#FFFFFF;enable-background:new    ;}
	.st37{opacity:0.11;fill:#FFFFFF;enable-background:new    ;}
	.st38{opacity:0.16;fill:#FFFFFF;enable-background:new    ;}
	.st39{clip-path:url(#SVGID_26_);}
	.st40{opacity:0.31;fill:#5C3C99;enable-background:new    ;}
	.st41{opacity:0.48;fill:#FFFFFF;enable-background:new    ;}
	.st42{opacity:0.48;fill:#5C3C99;enable-background:new    ;}
	.st43{opacity:0.17;fill:#FFFFFF;enable-background:new    ;}
	.st44{clip-path:url(#SVGID_28_);}
	.st45{opacity:0.36;fill:#7262B7;enable-background:new    ;}
	.st46{opacity:7.000000e-02;fill:#FFFFFF;enable-background:new    ;}
	.st47{opacity:0.26;fill:#FFFFFF;enable-background:new    ;}
	.st48{opacity:5.000000e-02;fill:#FFFFFF;enable-background:new    ;}
	.st49{clip-path:url(#SVGID_30_);}
	.st50{clip-path:url(#SVGID_32_);}
	.st51{clip-path:url(#SVGID_34_);}
	.st52{opacity:0.65;fill:url(#SVGID_35_);enable-background:new    ;}
	.st53{opacity:0.62;fill:#FFFFFF;enable-background:new    ;}
	.st54{clip-path:url(#SVGID_37_);}
	.st55{opacity:0.21;fill:#5C3C99;enable-background:new    ;}
</style>
<title>ziggy_9</title>
<g id="Layer_2">
	<g id="Layer_1-2">
		<ellipse class="st0" cx="81.7" cy="203.8" rx="50.5" ry="7.5"/>
		<polygon class="st1" points="127.3,113.9 135.9,124.3 105.4,111.5 		"/>
		<path class="st2" d="M105.7,95l48,14.7c0,0-42.6,14-56.7-1.1l-8.5-9.2L105.7,95z"/>
		<path class="st3" d="M71.5,103.3l61.6-62.7c0.9,12.9-1.5,26.6-9,37.1c-4.9,7.3-11.6,13.3-19.5,17.2c-6.7,3.7-14,6.4-21.5,8
			c-7.5,1.5-18.5,2.6-25.8,0.3"/>
		<g>
			<defs>
				<path id="SVGID_1_" d="M70.8,104.1l62.3-63.5c0.9,12.9-1.5,26.5-9,37.1c-4.9,7.3-11.6,13.3-19.5,17.2c-6.7,3.7-14,6.4-21.5,8
					c-7.5,1.5-18.5,2.6-25.8,0.3"/>
			</defs>
			<clipPath id="SVGID_2_">
				<use xlink:href="#SVGID_1_"  style="overflow:visible;"/>
			</clipPath>
			<g class="st4">
				<polygon class="st5" points="118.1,53.3 90,103.9 64.4,109.3 55,104.2 111.8,58.5 				"/>
			</g>
		</g>
		<path class="st6" d="M86.8,100.9l76.3-51.4c-0.8,12.9-4.9,26.1-13.7,35.7c-5.8,6.6-13.2,11.6-21.5,14.5
			c-7.2,2.8-14.7,4.6-22.3,5.2c-7.7,0.5-18.7,0.2-25.6-3"/>
		<path class="st1" d="M82.8,100.7l43.8-34.8c1.6,7.1-0.6,14.3-5,20.2c-4.6,5.7-10.8,9.9-17.9,11.8C96.9,99.8,89.9,100.8,82.8,100.7
			z"/>
		<g>
			<defs>
				<path id="SVGID_3_" d="M82.8,100.7l43.8-34.8c1.6,7.1-0.6,14.3-5,20.2c-4.6,5.7-10.8,9.9-17.9,11.8
					C96.9,99.8,89.9,100.8,82.8,100.7z"/>
			</defs>
			<clipPath id="SVGID_4_">
				<use xlink:href="#SVGID_3_"  style="overflow:visible;"/>
			</clipPath>
			<g class="st7">
				<path class="st8" d="M126.6,64.4l-23.3,27.2c0,0,11.7,0.9,20.5-6.4l-6.5,12.4L99.4,103l-11-2l-4.3-5l9.7-7.4L126.6,64.4z"/>
			</g>
		</g>
		<g>
			<defs>
				<path id="SVGID_5_" d="M128,99.7c8.3-2.9,15.8-7.9,21.5-14.5c8.8-9.5,12.9-22.7,13.7-35.7l-74,49.8l-0.5,0.1l0.1,0.1l-1.9,1.3
					l-6.9,1c3.8,1.8,8.7,2.6,13.7,3l3.4,3.7c14.1,15,56.7,1.1,56.7,1.1l-29.1-8.9C125.8,100.4,126.9,100.1,128,99.7z"/>
			</defs>
			<clipPath id="SVGID_6_">
				<use xlink:href="#SVGID_5_"  style="overflow:visible;"/>
			</clipPath>
			<g class="st9">
				<path class="st10" d="M103.9,102.1c6.6,5.2,15,7.6,23.2,9.2c8.9,1.8,18.2,2.8,26.8-0.1c-3.5,3.7-8.3,5.7-13,7.5
					c-3.8,1.6-7.8,2.7-12,3.1c-3.8,0.3-7.7-0.3-11.5-0.8s-7.5-0.6-11-1.7c-8.1-2.5-14.1-9.3-19.5-15.9c-0.5-0.5-0.8-1.1-0.7-1.8
					c0.2-0.6,0.9-1,1.5-1.2c12.5-5.1,23.7-12.7,33.1-22.3c1.6-1.6,3.1-3.3,4.8-4.9c3.9-3.6,8.1-6.9,12.5-9.8
					c5.7-4,11.4-8.1,17.8-11.1c0.8-0.4,3.4-2,4.2-1c0.7,0.9-1.3,2.8-1.9,3.5c-2,2.7-4.1,5.2-6.2,7.7c-8.8,10-18.7,19-29.4,26.9
					C116.6,93.9,110.3,98.2,103.9,102.1z"/>
			</g>
		</g>
		<circle class="st11" cx="60.3" cy="56.6" r="51.1"/>
		<path class="st12" d="M145.7,171.2c0.4,0.1,9.2,9.8,9.2,9.8s-4.1,6.1-14.2,3.8L145.7,171.2z"/>
		<g>
			<defs>
				<path id="SVGID_7_" d="M145.7,171.2c0.4,0.1,9.2,9.8,9.2,9.8s-4.1,6.1-14.2,3.8L145.7,171.2z"/>
			</defs>
			<clipPath id="SVGID_8_">
				<use xlink:href="#SVGID_7_"  style="overflow:visible;"/>
			</clipPath>
			<g class="st13">
				<path class="st14" d="M146.3,174.7c0.1,4.4-1.4,8.7-4.2,12.1c-0.6-0.7-1.3-1.2-2.1-1.5c0.2,0.1,1.7-2.1,1.9-2.4
					c0.6-0.9,1.2-1.8,1.8-2.7s1-1.9,1.5-2.8c0.2-0.5,0.6-2.3,1.1-2.4c0.3,2.1,0.2,4.2-0.3,6.2c-0.5,2.1-1.3,4-2.4,5.8
					c-0.5,0-1-0.1-1.5-0.2"/>
			</g>
		</g>
		<path class="st12" d="M145.8,167.1c0.4,0.2,0.7,0.6,0.9,0.9c0.2,0.4,0.3,0.8,0.3,1.2c0.1,1.6,0,3.3-0.4,4.9
			c-0.6,3.6-1.5,7.3-4,9.9c-0.8,0.8-1.6,1.5-2.5,2.1c-0.3,0.2-0.6,0.4-0.9,0.5c-0.3,0.1-0.5,0.1-0.8,0l-5.5-0.9
			c3.1-4.4,5-9.5,5.5-14.9c0.1-1.3,0.1-2.6,0-3.8c0-0.7-1.4-1.6-0.6-1.9c1.6-0.1,3.3,0.1,4.9,0.5
			C143.8,165.9,144.9,166.4,145.8,167.1z"/>
		<g>
			<defs>
				<path id="SVGID_9_" d="M145.8,167.1c0.4,0.2,0.7,0.6,0.9,0.9c0.2,0.4,0.3,0.8,0.3,1.2c0.1,1.6,0,3.3-0.4,4.9
					c-0.6,3.6-1.5,7.3-4,9.9c-0.8,0.8-1.6,1.5-2.5,2.1c-0.3,0.2-0.6,0.4-0.9,0.5c-0.3,0.1-0.5,0.1-0.8,0l-5.5-0.9
					c3.1-4.4,5-9.5,5.5-14.9c0.1-1.3,0.1-2.6,0-3.8c0-0.7-1.4-1.6-0.6-1.9c1.6-0.1,3.3,0.1,4.9,0.5
					C143.8,165.9,144.9,166.4,145.8,167.1z"/>
			</defs>
			<clipPath id="SVGID_10_">
				<use xlink:href="#SVGID_9_"  style="overflow:visible;"/>
			</clipPath>
			<g class="st15">
				<path class="st14" d="M136,187.1L136,187.1c-0.4,0-2.5-1.1-2.6-0.8c2.4-4.4,4.2-9.1,5.4-13.9c0.1-0.3,0.3-1.3,0.7-1.4
					c0.7-0.1,0.6,3.3,0.6,3.8c-0.1,1.6-0.3,3.3-0.8,4.8c-0.5,1.9-1.2,3.7-2,5.4C137,185.4,136.6,186.9,136,187.1z"/>
			</g>
		</g>
		<path class="st12" d="M134.2,160.4c1.5,0,3.1,0.2,4.1,1.3c0.5,0.6,0.8,1.3,1,2.1c1,3.3,1.1,6.7,0.5,10.1
			c-0.9,4.7-3.2,9.8-6.6,13.2c-1.1,1.1-1.9,0.6-3.2,0.4s-2.4-0.2-3.7-0.4c0.6,0.1,2.3-5.2,2.4-5.8c0.6-2,0.9-4.2,1.1-6.3
			c0.2-4.3-0.6-8.5-2.2-12.4c-0.3-0.8-0.5-0.8,0.3-1.1c0.6-0.2,1.3-0.4,2-0.5C131.3,160.6,132.8,160.5,134.2,160.4z"/>
		<g>
			<defs>
				<path id="SVGID_11_" d="M134.2,160.4c1.5,0,3.1,0.2,4.1,1.3c0.5,0.6,0.8,1.3,1,2.1c1,3.3,1.1,6.7,0.5,10.1
					c-0.9,4.7-3.2,9.8-6.6,13.2c-1.1,1.1-1.9,0.6-3.2,0.4s-2.4-0.2-3.7-0.4c0.6,0.1,2.3-5.2,2.4-5.8c0.6-2,0.9-4.2,1.1-6.3
					c0.2-4.3-0.6-8.5-2.2-12.4c-0.3-0.8-0.5-0.8,0.3-1.1c0.6-0.2,1.3-0.4,2-0.5C131.3,160.6,132.8,160.5,134.2,160.4z"/>
			</defs>
			<clipPath id="SVGID_12_">
				<use xlink:href="#SVGID_11_"  style="overflow:visible;"/>
			</clipPath>
			<g class="st16">
				<path class="st14" d="M134.3,172.1c0.3,2.2,0.2,4.3-0.1,6.5c-0.5,3-1.5,6-2.9,8.7c-0.4,0.7-0.5,1.3-1.3,1.1c-1-0.2-2-0.5-3-0.8
					c1.4-2.2,2.5-4.7,3.3-7.3c1.1-3.5,2.3-7,2.4-10.6c0-0.3-0.2-1.8,0.2-1.9s0.9,1.6,1,1.9C134,170.4,134.2,171.2,134.3,172.1z"/>
			</g>
		</g>
		<path class="st12" d="M129.3,156.3c0.5-0.1,1,0.2,1.2,0.7c4.8,9.8,3.9,21.4-2.4,30.3c-0.4,0.6-0.9,1.1-1.5,1.5
			c-0.8,0.4-1.7,0.6-2.6,0.6c-3.2,0.1-7.6-0.6-10.3-2.4c1.6-7.2,1.6-15.4-2.2-21.8c-0.9-1.5,0.6-2.4,1.8-3.2c1.7-1.1,3.5-2,5.4-2.8
			C122.1,157.7,125.7,156.7,129.3,156.3z"/>
		<ellipse class="st14" cx="114.6" cy="174.5" rx="6.3" ry="12.7"/>
		<line class="st17" x1="100.7" y1="179" x2="112.2" y2="173.8"/>
		<path class="st12" d="M103.7,170.6c-0.1-2.2-1-4.3-2.3-6c-0.3-0.3-0.6-0.5-1-0.6c-0.3,0-0.6,0-0.9,0.1l-4.3,1.3
			c-0.3-3.3-0.9-6.5-1.8-9.6c-2-7.3-6.4-14.6-13.6-17.6c-6.9-3-15.3-1-21.2,3.7s-9.5,11.8-11.5,19c-2.3,8.5-2.5,17.4-2.4,26.1
			c1.1,1.7,2.5,2.5,4.1,3.8l6.9,5.6c0.9,0.8,1.8,1.4,2.9,1.9c1.2,0.4,2.5,0.7,3.8,0.7c7.4,0.5,14.9,0.6,22.3,0.2
			c2.4-0.1,5.7,0.4,7.6-1.6C100.6,191.3,104.9,181,103.7,170.6L103.7,170.6z"/>
		<g>
			<defs>
				<path id="SVGID_13_" d="M103.7,170.6c-0.1-2.2-1-4.3-2.3-6c-0.3-0.3-0.6-0.5-1-0.6c-0.3,0-0.6,0-0.9,0.1l-4.3,1.3
					c-0.3-3.3-0.9-6.5-1.8-9.6c-2-7.3-6.4-14.6-13.6-17.6c-6.9-3-15.3-1-21.2,3.7s-9.5,11.8-11.5,19c-2.3,8.5-2.5,17.4-2.4,26.1
					c1.1,1.7,2.5,2.5,4.1,3.8l6.9,5.6c0.9,0.8,1.8,1.4,2.9,1.9c1.2,0.4,2.5,0.7,3.8,0.7c7.4,0.5,14.9,0.6,22.3,0.2
					c2.4-0.1,5.7,0.4,7.6-1.6C100.6,191.3,104.9,181,103.7,170.6L103.7,170.6z"/>
			</defs>
			<clipPath id="SVGID_14_">
				<use xlink:href="#SVGID_13_"  style="overflow:visible;"/>
			</clipPath>
			<g class="st18">
				<path class="st14" d="M46,182.1c0.1,0.8,0.3,1.6,0.8,2.3c0.5,0.7,1.1,1.3,1.8,1.7l7.7,5.4c1.1,0.8,2.2,1.5,3.4,2
					c1.6,0.5,3.2,0.8,4.8,0.9c9,0.6,18.1,0,27.1-0.6c1.1,0,2.2-0.2,3.3-0.5c2.6-0.9,4.3-3.4,6.8-4.3c-2.2,6.8-6.9,13.2-13.7,15.4
					c-3,0.8-6,1.2-9.1,1c-7.6-0.1-15.1-1.2-22.4-3.2c-2.7-0.7-5.3-1.8-7.7-3.3c-3.4-2.6-5.7-6.4-6.6-10.6c-0.9-4.2-1-8.5-0.4-12.7
					c0.3-3.2,0.7-9,3-11.4c1.2,1.6,0.1,6.4,0.2,8.4C45.1,175.8,45.4,179,46,182.1z"/>
				<path class="st14" d="M94.5,138.4c0.3,4.7-1.6,9.3-4.3,13c-2.9,3.7-6.3,6.9-10.2,9.6c-1.7,1.2-3.6,2.5-5.6,2.3
					c-1.2-0.2-2.3-0.7-3.3-1.5c-0.7-0.4-1.3-1.1-1.6-1.8c-0.6-1.5,0.6-3.1,1.8-4.3c3.3-3.2,7.5-5.4,10.8-8.6
					c1.7-1.7,3.2-3.7,5.4-4.8s5.2-1,6.5,1"/>
			</g>
		</g>
		<path class="st1" d="M80.7,132h-18v10.2l0,0c0.1,1.6,4.1,2.8,9,2.8c4.9,0,8.9-1.3,9-2.8l0,0V132z"/>
		<g>
			<defs>
				<path id="SVGID_15_" d="M80.7,132h-18v10.2l0,0c0.1,1.6,4.1,2.8,9,2.8c4.9,0,8.9-1.3,9-2.8l0,0V132z"/>
			</defs>
			<clipPath id="SVGID_16_">
				<use xlink:href="#SVGID_15_"  style="overflow:visible;"/>
			</clipPath>
			<g class="st19">
				<path class="st8" d="M84.6,134.6c-4.4,3-9.9,3.9-15.2,4c-3.2,0-6.6-0.2-9.5-1.8l2.5-3.2l18.8-1L84.6,134.6z"/>
			</g>
		</g>
		<path class="st20" d="M30.2,117.7c-1,0.5-1.8,1.1-2.5,1.9c-0.6,1.2-0.7,2.6-0.2,3.8c0.5,1.3,1.2,2.5,2.1,3.4
			c2,2.3,4.8,3.8,7.8,4.4c1.2,0.2,2.4,0.1,3.6-0.3c1.1-0.5,2-1.4,2.5-2.5c0.8-1.2,1.7-2.3,2.6-3.4c1.9-2.3,4-4.5,6.2-6.6
			c0.3-0.2-2.8-5.4-3.1-5.9c-1.1-2-2.5-3.8-4.1-5.5c-0.5-0.5-1.6-1.9-2.4-1.7s-1.4,1.8-1.8,2.4c-1.3,1.9-2.8,3.7-4.4,5.3
			C34.6,114.8,32.5,116.4,30.2,117.7z"/>
		<g>
			<defs>
				<path id="SVGID_17_" d="M30.2,117.7c-1,0.5-1.8,1.1-2.5,1.9c-0.6,1.2-0.7,2.6-0.2,3.8c0.5,1.3,1.2,2.5,2.1,3.4
					c2,2.3,4.8,3.8,7.8,4.4c1.2,0.2,2.4,0.1,3.6-0.3c1.1-0.5,2-1.4,2.5-2.5c0.8-1.2,1.7-2.3,2.6-3.4c1.9-2.3,4-4.5,6.2-6.6
					c0.3-0.2-2.8-5.4-3.1-5.9c-1.1-2-2.5-3.8-4.1-5.5c-0.5-0.5-1.6-1.9-2.4-1.7s-1.4,1.8-1.8,2.4c-1.3,1.9-2.8,3.7-4.4,5.3
					C34.6,114.8,32.5,116.4,30.2,117.7z"/>
			</defs>
			<clipPath id="SVGID_18_">
				<use xlink:href="#SVGID_17_"  style="overflow:visible;"/>
			</clipPath>
			<g class="st21">
				<path class="st22" d="M30.7,120c1.8-0.2,3.6,0.2,5.2,1.1c1.2,0.5,2.2,1.2,3.2,2c0.9,0.9,1.6,1.9,2.1,3.1
					c0.2,0.6,0.4,1.3,0.3,1.9c-0.2,1.5-1.2,2.8-2.7,3.3c-1.4,0.5-3,0.5-4.4,0.1c-1.9-0.5-3.6-1.4-5-2.8c-1.4-1.4-2.3-3.3-2.5-5.3
					C27,121.6,29.1,120.2,30.7,120z"/>
				<path class="st10" d="M27.3,122.4c-0.4-1.1-0.2-2.2,0.5-3.1c0.8-1.1,2.2-1.5,3.5-1.9c4.3-1.5,8-4.2,10.8-7.7
					c0.1-0.1,0.2-0.3,0.2-0.5c0-0.2,0-0.4-0.2-0.6c-0.3-0.5-0.7-0.9-1.1-1.2c-0.1-0.1-0.1-0.1-0.2-0.1c-0.1,0-0.2,0.1-0.3,0.2
					c-2.6,2.9-5.5,5.4-8.8,7.6c-1.1,0.7-2.2,1.5-3.1,2.3c-1,0.9-1.6,2.1-1.8,3.4c0,0.2,0,0.4,0.2,0.6"/>
			</g>
		</g>
		<path class="st12" d="M37.6,105.7c-0.2-0.8,0.6-1.4,1.3-1.8c14.1-8.7,30.3-12.8,46.3-7.2c5.8,2,9.9,6,14.6,9.8
			c0.3,0.2,0.6,0.5,0.6,0.9c0,0.2-0.1,0.5-0.3,0.7c-3.4,4.6-6.7,9.4-10.1,14.1c-2.5,3.5-1.6,7.6-4.8,10.5c-1.8,1.6-3.9,2.6-6.2,3.1
			c-3.3,0.5-6.7,0.8-10.1,0.9c-3.3,0.2-6.6,0-9.8-0.7c-2.3-0.6-4.5-1.7-6.3-3.4c-0.8-0.8-1.5-1.7-2.2-2.5c-0.9-0.9-1.6-1.9-2.2-3
			c-0.7-1.7-1.2-3.6-1.4-5.4c-0.7-3.3-2-6.5-3.7-9.4c-0.6-1.1-1.4-2.1-2.2-3C40.4,108.2,37.8,106.8,37.6,105.7z"/>
		<g>
			<defs>
				<path id="SVGID_19_" d="M37.6,105.7c-0.2-0.8,0.6-1.4,1.3-1.8c5.3-3.3,11-6,16.8-8.2c2.5-1,5.1-1.7,7.8-2.2
					c3.2-0.4,6.4-0.5,9.5-0.3c3.6,0.1,7.2,0.3,10.6,1.6c3.7,1.4,6.8,3.9,9.8,6.4l6.5,5.4c0.3,0.2,0.6,0.5,0.6,0.9
					c0,0.2-0.1,0.5-0.3,0.7c-3.4,4.6-6.7,9.4-10.1,14.1c-2.5,3.5-4.7,7.7-7.9,10.6c-1.8,1.6-3.9,2.6-6.2,3.1c-2.3,0.5-4.6,0.7-7,0.7
					c-3.3,0.2-6.6,0-9.8-0.7c-2.3-0.6-4.5-1.7-6.3-3.4c-0.8-0.8-1.5-1.7-2.2-2.5c-0.9-0.9-1.6-1.9-2.2-3c-0.7-1.7-1.2-3.5-1.5-5.4
					c-0.7-3.3-2-6.5-3.7-9.4c-0.6-1.1-1.4-2.1-2.2-3C40.4,108.2,37.8,106.8,37.6,105.7z"/>
			</defs>
			<clipPath id="SVGID_20_">
				<use xlink:href="#SVGID_19_"  style="overflow:visible;"/>
			</clipPath>
			<g class="st23">
				<path class="st24" d="M44.5,104.4c1.2,0.1,2.3,0.4,3.4,0.7c3.3,1,6.6,1.8,10,2.4c3.4,0.4,6.8,0.4,10.1-0.1
					c2.1-0.3,4.2-0.8,6.2-1.4c2.1-0.7,4.1-1.6,6.2-2.1c3.1-0.8,6.4-0.7,9.6,0.2c2.6,0.8,5.1,1.7,7.6,2.8c1.1,0,1.5,0.3,0.7-0.8
					c-0.8-0.8-1.6-1.6-2.5-2.2c-2.9-2.8-6.2-5.1-9.9-6.8c-4-1.5-8.2-2.6-12.4-3.2c-1.7-0.3-3.5-0.6-5.3-0.7c-5-0.2-9.7,1.5-14.2,3.3
					c-4.3,1.8-8.4,3.5-12.1,6.4c-0.7,0.5-1.2,1.1-1.7,1.8c0.6,0.4,2.2-0.1,2.9-0.2C43.5,104.4,44,104.4,44.5,104.4z"/>
				<path class="st22" d="M97,111.4c-0.3-3.6-3.3-6.4-6.9-6.3c-6.4-0.3-11.8,4.6-12.1,10.9c0,0.6,0,1.2,0,1.7c0,1.2,0.5,2.3,1.3,3.1
					c1.2,0.8,2.6,1.2,4,0.9c3.8-0.2,7.4-1.1,10.9-2.6c1.2-0.6,2.4-0.9,2.8-2.3C97.3,115.1,97.3,113.2,97,111.4z"/>
				<path class="st25" d="M80,117.4c0.7,1.1,1.8,1.9,3.1,2.1c1.3,0.2,2.6-0.3,3.5-1.3c1.3-1.5,1.1-3.8-0.4-5.1
					c-0.4-0.3-0.8-0.5-1.2-0.7c-1.4-0.3-2.8-0.2-4.1,0.4c-0.9,0.3-1.4,0.7-1.5,1.7C79.3,115.5,79.5,116.6,80,117.4z"/>
			</g>
		</g>
		<path class="st1" d="M56.7,96.2c0.4,1.4,0.7,3.7,1.8,4.6c1.4,1,3.2,1.6,4.9,1.6c1.7,0.2,3.4,0.1,5-0.3c1.3-0.2,2.6-0.8,3.6-1.8
			c0.6-0.7,0.3-1.8,0.3-2.7c0-1.2,0-2.4-0.1-3.5c0-0.9-0.1-1.9-0.1-2.8c0-0.6,0.2-1.8-0.6-1.9c-3.9-0.3-7.7-0.3-11.6,0.2
			c-1,0.1-4.8,0-4.7,1.2C55.6,92.7,56.1,94.5,56.7,96.2z"/>
		<g>
			<defs>
				<path id="SVGID_21_" d="M56.7,96.2c0.4,1.4,0.7,3.7,1.8,4.6c1.4,1,3.2,1.6,4.9,1.6c1.7,0.2,3.4,0.1,5-0.3
					c1.3-0.2,2.6-0.8,3.6-1.8c0.6-0.7,0.3-1.8,0.3-2.7c0-1.2,0-2.4-0.1-3.5c0-0.9-0.1-1.9-0.1-2.8c0-0.6,0.2-1.8-0.6-1.9
					c-3.9-0.3-7.7-0.3-11.6,0.2c-1,0.1-4.8,0-4.7,1.2C55.6,92.7,56.1,94.5,56.7,96.2z"/>
			</defs>
			<clipPath id="SVGID_22_">
				<use xlink:href="#SVGID_21_"  style="overflow:visible;"/>
			</clipPath>
			<g class="st26">
				<path class="st8" d="M76.8,92.5l-0.2,0.2c-1.8,2-4.1,3.4-6.7,4.1c-2.7,0.7-5.4,0.8-8.1,0.5c-3.3-0.3-7-1.2-8.8-4l3.3-3.5h18.4"
					/>
			</g>
		</g>
		<path class="st12" d="M45.2,31.9c-1-0.7-2.4-0.8-3.5-0.2c-1.1,0.6-2,1.5-2.7,2.5C32.8,42,28,50.9,25,60.4
			c-1.1,3.3-1.9,6.8-3.9,9.7c-0.9,1.1-1.7,2.3-2.4,3.6c-1.5,3.3-0.1,7.3,2.5,9.8s6.1,3.8,9.5,4.9c3,0.9,6.1,1.7,9.2,2.4
			c9.7,2.1,19.6,3,29.5,2.7c4.6-0.2,9.6-0.2,14-1.6c4.5-1.4,8.8-3.4,12.7-6c2.9-1.9,5-4,4.4-7.6c-0.8-4.3-1.3-8.6-1.7-13
			c-0.5-5.3-1-10.6-1.8-15.9c-0.6-3.7-0.8-11.6-5.4-13c-1.8-0.5-3.6,0.4-5.3,1.3l-3.8,2.1c-0.4,0.3-0.9,0.4-1.3,0.5
			c-4.1,0.2,0-10.1,0.7-11.6l9.6-20.1C92.2,6.8,93,4.7,92,3.1c-1.4-2.2-4.8-1.4-7.2-0.2C71.2,9.7,60,20.4,52.3,33.5
			c-0.7,1.2-1.5,2.3-3.1,2.3C46.6,35.8,46.8,33.2,45.2,31.9z"/>
		<path class="st27" d="M47,61.1c1.1,7.7-3.2,14.5-9.7,14.7S25.5,69.6,25,62c-0.4-7.1,3.9-12.8,9.6-13.2S46,53.8,47,61.1z"/>
		<path class="st28" d="M45,60.1c1.1,7.7-3.1,14.5-9.4,14.7s-11.5-6.2-12-13.8c-0.4-7.1,3.7-12.8,9.3-13.1S43.9,52.8,45,60.1z"/>
		
			<ellipse transform="matrix(1.588189e-02 -0.9999 0.9999 1.588189e-02 -25.8933 100.2917)" class="st29" cx="38" cy="63.3" rx="4.5" ry="4.5"/>
		<path class="st27" d="M67.2,60.6c-4.2,7.2-2.2,15.7,4.5,18.6s14.9-1.1,18.3-8.4c3.2-6.9,0.9-14.3-5-17.1S71.1,53.8,67.2,60.6z"/>
		<path class="st28" d="M69.5,59.4c-4.2,7.2-2.4,15.7,4.2,18.5s14.6-1.3,17.9-8.6c3.2-6.9,1-14.3-4.7-16.9S73.4,52.7,69.5,59.4z"/>
		
			<ellipse transform="matrix(0.2707 -0.9627 0.9627 0.2707 -9.1055 120.9471)" class="st29" cx="75.3" cy="66.5" rx="4.5" ry="4.5"/>
		<path class="st30" d="M47,81c0.6,1.1,1.6,1.9,2.8,2.2c2.8,1.1,6,1.1,8.8,0.1"/>
		<path class="st20" d="M83.1,108.6c1.7-1.5,3.8-2.4,6-2.7c1.7-0.2,3.7,0.1,4.7,1.6c1.1,1.8,2.1,3.7,2.9,5.7
			c1.5,3.9,2.5,8.1,2.8,12.3c0.1,1.8,0.2,3.7,0.2,5.5v0.1c0,1.1,0.1,2.2,0.2,3.3c0.2,0.9,0.3,1.8,0.2,2.8c-0.6,1.5-1.9,2.6-3.6,2.7
			c-1.7,0.1-3.3-0.3-4.8-1.1c-1.8-0.9-3.5-2-5.2-3.1c-0.5-0.3-1-0.8-1.3-1.3c-0.6-1.1,0.4-2,0.6-3.1c0.3-1.2,0.3-2.5,0.2-3.7
			c-0.3-2.5-1.1-4.9-2.4-7.1c-0.6-1.2-1.4-2.3-2.3-3.1c-0.7-0.6-1.7-1-1.8-2c-0.3-2.3,1.6-4.8,3.1-6.3
			C82.8,109,82.9,108.8,83.1,108.6z"/>
		<path class="st27" d="M62.1,38.7c1.2-4.2,7.9-24.5,25.1-36.6c0,0-19.1,10.1-26.4,35.7c-0.1,0.2-0.1,0.5-0.2,0.7l-0.1,0.2
			c-0.2,0.7-0.5,1.3-1,1.7C59,41,58.5,41.5,58,42c-1.1,1.2-1.5,3.6-1.8,5.2c-0.7,3.5-1.2,7-1.6,10.5c-0.8,6-1.2,12-1.3,18
			c0,0.1,0,0.3,0.1,0.4c0.4,0.7,0.5-1.6,0.5-1.8c0.1-0.9,0.2-1.8,0.2-2.8c0.3-3.2,0.7-6.4,1.1-9.6c0.6-3.8,1.2-7.6,2.1-11.4
			c0.4-1.9,0.8-3.8,1.3-5.6c0.3-1.3,0.9-2.5,1.7-3.5c0.4-0.4,0.8-0.9,1.2-1.4c0.1-0.2,0.2-0.4,0.3-0.6L62.1,38.7z"/>
		<path class="st27" d="M61.9,39.2"/>
		
			<ellipse transform="matrix(0.9999 -1.448573e-02 1.448573e-02 0.9999 -1.6848 0.9454)" class="st22" cx="64.4" cy="116.8" rx="6.1" ry="6.1"/>
		
			<ellipse transform="matrix(0.5676 -0.8233 0.8233 0.5676 -68.2965 102.6564)" class="st31" cx="63.6" cy="116.3" rx="6.1" ry="6.1"/>
		<path class="st32" d="M61.6,119.2c-2.4-1.6-3.3-4.7-2.2-7.4c-2.5,2.3-2.6,6.2-0.3,8.7s6.2,2.6,8.7,0.3c0.7-0.6,1.2-1.4,1.5-2.2
			C67.1,120.6,64,120.9,61.6,119.2z"/>
		<ellipse transform="matrix(0.5676 -0.8233 0.8233 0.5676 -65.9832 103.0065)" class="st33" cx="65.1" cy="114.3" rx="3" ry="3"/>
		<path class="st34" d="M26.5,123.8c1.4-1.1,3.4-2.8,5.2-2.7c0.9,0.2,1.8,0.5,2.6,1c0.9,0.5,1.8,1.1,2.6,1.7c1,0.6,1.8,1.6,2.2,2.7
			c0.1,0.2,0.1,0.5,0,0.8c-0.1,0.2-0.4,0.3-0.5,0.5c-0.5,0.5-1,0.9-1.5,1.4c-3.3,3.1-6,6.7-8.1,10.8c0.1-0.3-4.7-2.1-5.2-2.2
			c-1.9-0.5-3.9-0.8-5.9-0.9c-1.3-0.1-0.8-0.6-0.3-1.6c0.4-0.8,0.8-1.6,1.3-2.4c0.9-1.6,2-3.1,3.1-4.6
			C23.4,126.6,24.9,125.1,26.5,123.8z"/>
		<path class="st1" d="M21,200.9c-0.2,0.5-0.7,0.7-1.2,0.5c-0.2-0.1-0.4-0.2-0.5-0.4c-5-8.2-8.5-17.3-10.5-26.7
			c-2.1-10.1-1.8-20.5,0.8-30.4c1.1-4.1,2.9-8.3,6.5-10.5c1.7-1,3.6-1.6,5.6-1.7c1.6-0.2,3.1-0.1,4.7,0.3c3.1,0.9,5.4,3.8,6.9,6.7
			c5.5,10.8,3.9,23.8-4,32.9c-0.3,0.3-0.8,0.4-1.1,0.1c-0.1-0.1-0.2-0.3-0.3-0.4l-4.8-20.1c-1.6,2.9-2.1,6.3-1.3,9.5
			c0.7,3.8,2.1,7.5,2.8,11.3c0.8,3.9,0.9,7.8,0.4,11.7C24.4,189.6,23,195.3,21,200.9z"/>
		<g>
			<defs>
				<path id="SVGID_23_" d="M83.1,108.6c1.7-1.5,3.8-2.4,6-2.7c1.7-0.2,3.7,0.1,4.7,1.6c1.1,1.8,2.1,3.7,2.9,5.7
					c1.5,3.9,2.5,8.1,2.8,12.3c0.1,1.8,0.2,3.7,0.2,5.5v0.1c0,1.1,0.1,2.2,0.2,3.3c0.2,0.9,0.3,1.8,0.2,2.8
					c-0.6,1.5-1.9,2.6-3.6,2.7c-1.7,0.1-3.3-0.3-4.8-1.1c-1.8-0.9-3.5-2-5.2-3.1c-0.5-0.3-1-0.8-1.3-1.3c-0.6-1.1,0.4-2,0.6-3.1
					c0.3-1.2,0.3-2.5,0.2-3.7c-0.3-2.5-1.1-4.9-2.4-7.1c-0.6-1.2-1.4-2.3-2.3-3.1c-0.7-0.6-1.7-1-1.8-2c-0.3-2.3,1.6-4.8,3.1-6.3
					C82.8,109,82.9,108.8,83.1,108.6z"/>
			</defs>
			<clipPath id="SVGID_24_">
				<use xlink:href="#SVGID_23_"  style="overflow:visible;"/>
			</clipPath>
			<g class="st35">
				<path class="st22" d="M86.4,132.3c0.3-0.2,0.6-0.4,1-0.5c0.9-0.1,1.9-0.1,2.7,0.3c2.7,0.8,5.1,2,7.3,3.7c0.4,0.3,0.7,0.6,1,1
					c0.3,0.4,0.3,0.9,0.2,1.3c-0.4,0.8-1,1.5-1.8,1.8c-0.8,0.4-1.8,0.5-2.7,0.4c-0.7-0.1-1.5-0.3-2.2-0.5c-0.8-0.2-1.6-0.5-2.3-0.8
					c-1.3-0.6-2.5-1.5-3.4-2.6C85.2,135.2,85.3,133.4,86.4,132.3z"/>
				<path class="st10" d="M86.5,107.2c1.5-0.5,3.1-0.3,4.5,0.4c1.3,0.9,2.2,2.1,2.9,3.5c1,1.8,1.9,3.6,2.7,5.5
					c2.9,7.3,2.5,15.4,4,23c0,0.1,0.1,0.2,0.1,0.3c0.2,0.2,0.6,0.1,0.8,0c1.1-0.6,2-1.5,2.5-2.7c0.5-1.3,0.7-2.6,0.6-4
					c0.1-7.4-0.8-15-4.2-21.6c-1-2.3-2.6-4.2-4.6-5.8c-2.2-1.6-5-2.2-7.6-1.7c-1.3,0.3-2.5,0.8-3.5,1.6c-0.7,0.6-2.5,2-2.3,3
					C83.7,108.8,85.1,107.6,86.5,107.2z"/>
				<path class="st10" d="M83.7,108.3c-0.9,0.6-1.7,1.3-2.4,2.1c-1.7,2.1-1.1,4.5,0.9,6c0.9,0.7,1.9,1.2,2.7,2
					c1.2,1.2,2,2.7,2.3,4.3c0.3,1.6,0.3,3.3,0,4.9c-0.2,1.3-0.7,2.5-1.3,3.7c-0.4,0.7-2.1,3-2.8,1.6c-0.3-0.7-0.5-1.4-0.5-2.1
					c-0.5-3.7-1.3-7.6-3.3-10.7c-0.8-1.2-1.8-2.4-2-3.8c-0.1-1.3,0.3-2.7,1.2-3.7c0.9-1,1.9-1.9,3-2.6"/>
			</g>
		</g>
		<path class="st34" d="M86.6,134.6l0.2-0.3c0.3-0.8,1-1.3,1.8-1.4c0.7,0,1.3,0.1,1.9,0.4c1.9,0.6,3.7,1.6,5.3,2.8
			c0.4,0.3,0.8,0.7,1,1.1c0.4,1.1-1.2,2.8-1.7,3.6c-0.9,1.3-1.8,2.6-2.8,3.8c-2,2.5-4.2,4.7-6.6,6.8c-0.8,0.7-1.7,1.3-2.5,1.9
			c-1.6,1.1-3.2,2.1-4.9,3c-1.7-1.6-3.3-3.2-4.8-4.8c-0.5-0.5-0.9-1-1.4-1.5s-1.1-1-1.3-1.5s0.5-0.8,0.9-1c0.6-0.3,1.3-0.6,1.9-1
			c2.7-1.5,5.1-3.3,7.4-5.3C83.2,139.2,85.1,137,86.6,134.6z"/>
		<path class="st1" d="M84.1,161.1c-0.5-4.2-1.6-8.7-4.9-11.7c-3-2.9-7.5-3.6-11.3-1.9c-8,3.1-12.4,11-12.4,19.2
			c0,5.7,1.6,11.3,4.6,16.2c0.2,0.4,0.7,0.5,1.1,0.3c0.2-0.1,0.3-0.2,0.3-0.4l5.4-12.5c0,2.2-0.2,4.5-0.8,6.6
			c-0.7,2.7-2,5.2-2.8,7.9c-1,4-1.3,8-1,12.1c-0.1,5.4,0.4,10.7,1.4,16c0.1,0.5,0.6,0.9,1.2,0.8c0.2,0,0.4-0.2,0.6-0.3
			c6.2-6.7,11.2-14.5,14.5-23C83.8,181.2,85.1,171.1,84.1,161.1z"/>
		<path class="st36" d="M95.6,166.6c0.2,0.2,3.4-1.1,3.8-1.3c0.4-0.1,0.9,0,1.1,0.3c1.2,1.5,3.9,6.5,0.3,18.3c0,0.1-0.1,0.1-0.1,0.1
			c0,0-0.1,0-0.1-0.1c0.5-3.9,0.1-7.9-1.4-11.5C98.3,170.3,97.1,168.3,95.6,166.6z"/>
		<path class="st36" d="M122.3,160.2c0,0,0-0.1,0-0.1c0-0.1,0.1-0.2,0.2-0.2c1.2-1.1,3.4-1.3,4.9-1.8c0.9-0.3,1.9,0.2,2.3,1.1
			c1.1,2.6,3,8.5,1.4,17c0,0.2-0.2,0.3-0.3,0.2c-0.1,0-0.2-0.1-0.2-0.2c-1-4.8-3.2-9.2-6.4-12.9c-0.9-0.8-1.5-1.7-2-2.8
			C122.3,160.4,122.3,160.3,122.3,160.2z"/>
		<path class="st36" d="M136.6,162.6c0.6,0.1,1.2,0.4,1.6,0.8c0.8,0.8,0.6,2.1,0.7,3.4c0,0.5,0.1,1,0.1,1.6c0,1.2,0,2.3-0.1,3.5
			c0,0.2,0,0.3-0.1,0.5c-0.1,0.2-0.4,0.3-0.5,0c-0.1-0.3-0.1-0.7-0.1-1c-0.2-2.5-1.2-4.8-2.8-6.7c-0.4-0.4-1.3-1.4-1-2.1
			S136,162.4,136.6,162.6z"/>
		<path class="st37" d="M61,47.4c-0.1,1,0.1,2.1,0.7,3c1.2,1.7,3.7,1.9,5.8,1.5c3.4-0.7,6.5-2.6,8.7-5.4c0.9-1.1,1.5-2.8,0.7-3.9
			c-0.4-0.4-0.8-0.7-1.4-0.9C70.3,39.7,61.7,40.4,61,47.4z"/>
		<path class="st38" d="M82.3,8.3c1-0.9,3.2-3.5,4.7-3.4c0.1,0.5,0,1.1-0.3,1.5c-1.3,2.9-2.8,5.3-4.3,8.1c-1.6,3.2-3.5,6.3-5.6,9.2
			c-1.1,1.4-4,4.7-6.1,3.4c-2.3-1.5,4.4-10.5,5.6-12.1C78.2,12.6,80.1,10.4,82.3,8.3z"/>
		<g>
			<defs>
				<path id="SVGID_25_" d="M26.5,123.8c1.4-1.1,3.4-2.8,5.2-2.7c0.9,0.2,1.8,0.5,2.6,1c0.9,0.5,1.8,1.1,2.6,1.7
					c1,0.6,1.8,1.6,2.2,2.7c0.1,0.2,0.1,0.5,0,0.8c-0.1,0.2-0.4,0.3-0.5,0.5c-0.5,0.5-1,0.9-1.5,1.4c-3.3,3.1-6,6.7-8.1,10.8
					c0.1-0.3-4.7-2.1-5.2-2.2c-1.9-0.5-3.9-0.8-5.9-0.9c-1.3-0.1-0.8-0.6-0.3-1.6c0.4-0.8,0.8-1.6,1.3-2.4c0.9-1.6,2-3.1,3.1-4.6
					C23.4,126.6,24.9,125.1,26.5,123.8z"/>
			</defs>
			<clipPath id="SVGID_26_">
				<use xlink:href="#SVGID_25_"  style="overflow:visible;"/>
			</clipPath>
			<g class="st39">
				<path class="st10" d="M26.1,126.1c1.8-2.1,3.9-3.9,6.1-5.4c-1.8-0.1-3.5,0.4-5,1.4c-1.8,1.1-3.5,2.5-5,4
					c-2.2,2.1-4.4,4.3-5.3,7.1c-0.1,0.2,3.1,0,3.4,0c0.6-0.1,1.1,0,1.7,0s0.6-0.1,0.8-0.8C23.5,130,24.6,127.9,26.1,126.1z"/>
				<path class="st10" d="M29.8,136.8c0.7,0.6,1.5,1.1,2.3,1.4c0.1,0.1,0.2,0.1,0.3,0.1c0.1,0,0.2-0.1,0.3-0.3c1.8-3,3.5-6,5.9-8.6
					c0.4-0.4,2.1-1.8,1.1-2c-0.8-0.2-2.1,1-2.7,1.4c-1.9,1.3-3.6,2.9-5.1,4.7C31.7,133.8,29.6,136.6,29.8,136.8z"/>
			</g>
		</g>
		<circle class="st40" cx="144.2" cy="74.6" r="3.1"/>
		
			<ellipse transform="matrix(0.9162 -0.4008 0.4008 0.9162 -31.3886 60.7789)" class="st40" cx="129.6" cy="105.4" rx="2.3" ry="2.3"/>
		<circle class="st41" cx="157.3" cy="63.3" r="1.8"/>
		<circle class="st41" cx="120.2" cy="108.3" r="1.7"/>
		<circle class="st42" cx="136.5" cy="110" r="0.9"/>
		<circle class="st42" cx="139.7" cy="84.8" r="0.8"/>
		<path class="st43" d="M92.6,130.1c-0.2,0.3-0.5,0.6-0.3,1c0.1,0.1,0.2,0.3,0.3,0.4c0.9,0.6,1.8,1,2.8,1.4c0.4,0.2,2.2,1.3,2.6,0.9
			c0.1-0.1,0.1-0.2,0.1-0.3c0.2-1.3,0.3-2.6,0.1-3.9c-0.1-1.6-0.3-3.2-0.6-4.8c-0.1-1-0.5-1.9-1-2.7c-0.1-0.2-0.3-0.3-0.5-0.4
			c-0.2-0.1-0.5-0.1-0.7,0.1c-0.5,0.5-0.6,2-0.7,2.7s-0.3,1.3-0.4,2c-0.2,0.9-0.6,1.7-0.9,2.6C93.1,129.3,92.9,129.7,92.6,130.1
			L92.6,130.1z"/>
		<g>
			<defs>
				<path id="SVGID_27_" d="M86.6,134.6l0.2-0.3c0.3-0.8,1-1.3,1.8-1.4c0.7,0,1.3,0.1,1.9,0.4c1.9,0.6,3.7,1.6,5.3,2.8
					c0.4,0.3,0.8,0.7,1,1.1c0.4,1.1-1.2,2.8-1.7,3.6c-0.9,1.3-1.8,2.6-2.8,3.8c-2,2.5-4.2,4.7-6.6,6.8c-0.8,0.7-1.7,1.3-2.5,1.9
					c-1.6,1.1-3.2,2.1-4.9,3c-1.7-1.6-3.3-3.2-4.8-4.8c-0.5-0.5-0.9-1-1.4-1.5s-1.1-1-1.3-1.5s0.5-0.8,0.9-1c0.6-0.3,1.3-0.6,1.9-1
					c2.7-1.5,5.1-3.3,7.4-5.3C83.2,139.2,85.1,137,86.6,134.6z"/>
			</defs>
			<clipPath id="SVGID_28_">
				<use xlink:href="#SVGID_27_"  style="overflow:visible;"/>
			</clipPath>
			<g class="st44">
				<path class="st10" d="M96.4,135.7c-0.1-0.1-0.3-0.1-0.4,0c0,0.1,0,0.1,0,0.2c0,0.7-0.1,1.5-0.2,2.2c-0.1,0.3-0.2,0.6-0.2,0.8
					c-0.5,1.3-1.2,2.5-2.3,3.5c-1.1,1-2.2,2-3.3,3c-2.4,2.1-5.1,3.8-8,5.1l0,0c-0.5-0.8-1.2-1.6-1.9-2.1c-1.8-1.3-3.9-1.9-6.1-1.7
					c-0.8,0.1-1.9,0-1.5,1.1c0.5,0.9,1.1,1.7,1.8,2.3c0.9,1,1.6,2.3,2,3.6c0.2,1,0.6,2,1.4,2.8c0.4,0.3,0.9,0.5,1.5,0.5
					c1.3,0,2.5-0.7,3.1-1.9l0,0c0.4,0.4,1,0.7,1.6,0.6c0.5-0.1,0.9-0.4,1.3-0.8c3.3-2.8,6.4-5.9,9.2-9.2c1.4-1.5,2.5-3.3,3.1-5.2
					C97.7,138.9,97.9,136.7,96.4,135.7z"/>
			</g>
		</g>
		<ellipse transform="matrix(0.4983 -0.867 0.867 0.4983 -97.2803 142.7384)" class="st45" cx="74.7" cy="155.4" rx="7" ry="8.5"/>
		<path class="st45" d="M13.8,144.9c-2-2.9-0.8-7.5,2.8-10.1s8-2.4,10,0.5s0.8,7.5-2.8,10.1S15.8,147.9,13.8,144.9z"/>
		<circle class="st46" cx="77.6" cy="160.8" r="3.4"/>
		
			<ellipse transform="matrix(0.7071 -0.7071 0.7071 0.7071 -88.2743 96.7771)" class="st47" cx="72.7" cy="154.9" rx="1.2" ry="1.2"/>
		
			<ellipse transform="matrix(0.3854 -0.9227 0.9227 0.3854 -115.3957 111.4224)" class="st38" cx="25.9" cy="142.3" rx="3.1" ry="3.1"/>
		
			<ellipse transform="matrix(0.3854 -0.9227 0.9227 0.3854 -114.6332 103.5269)" class="st48" cx="20.4" cy="137.8" rx="1.7" ry="1.7"/>
		<g>
			<defs>
				<path id="SVGID_29_" d="M84.1,161.1c-0.5-4.2-1.6-8.7-4.9-11.7c-3-2.9-7.5-3.6-11.3-1.9c-8,3.1-12.4,11-12.4,19.2
					c0,5.7,1.6,11.3,4.6,16.2c0.2,0.4,0.7,0.5,1.1,0.3c0.2-0.1,0.3-0.2,0.3-0.4l5.4-12.5c0,2.2-0.2,4.5-0.8,6.6
					c-0.7,2.7-2,5.2-2.8,7.9c-1,4-1.3,8-1,12.1c-0.1,5.4,0.4,10.7,1.4,16c0.1,0.5,0.6,0.9,1.2,0.8c0.2,0,0.4-0.2,0.6-0.3
					c6.2-6.7,11.2-14.5,14.5-23C83.8,181.2,85.1,171.1,84.1,161.1z"/>
			</defs>
			<clipPath id="SVGID_30_">
				<use xlink:href="#SVGID_29_"  style="overflow:visible;"/>
			</clipPath>
			<g class="st49">
				<path class="st8" d="M64.3,179.2c-3.5-3.1-6.1-7.1-7.6-11.5c-1.4-4.4-1-9.5,1.6-13.4l-4.9,6l-1,16.3l5.3,8.8l4.1-0.1L64.3,179.2
					z"/>
				<path class="st8" d="M60.7,200.8c2,1,4.4,1.3,6.6,0.7c5.4-1.2,10-4.6,12.9-9.3c2.7-4.6,4.1-9.9,4.2-15.2l1.7,9l-13.5,27.6
					l-7.1,5.3l-4.2-3.4l-0.8-9.7L60.7,200.8z"/>
			</g>
		</g>
		<g>
			<defs>
				<path id="SVGID_31_" d="M21,200.9c-0.2,0.5-0.7,0.7-1.2,0.5c-0.2-0.1-0.4-0.2-0.5-0.4c-5-8.2-8.5-17.3-10.5-26.7
					c-2.1-10.1-1.8-20.5,0.8-30.4c1.1-4.1,2.9-8.3,6.5-10.5c1.7-1,3.6-1.6,5.6-1.7c1.6-0.2,3.1-0.1,4.7,0.3c3.1,0.9,5.4,3.8,6.9,6.7
					c5.5,10.8,3.9,23.8-4,32.9c-0.3,0.3-0.8,0.4-1.1,0.1c-0.1-0.1-0.2-0.3-0.3-0.4l-4.8-20.1c-1.6,2.9-2.1,6.3-1.3,9.5
					c0.7,3.8,2.1,7.5,2.8,11.3c0.8,3.9,0.9,7.8,0.4,11.7C24.4,189.6,23,195.3,21,200.9z"/>
			</defs>
			<clipPath id="SVGID_32_">
				<use xlink:href="#SVGID_31_"  style="overflow:visible;"/>
			</clipPath>
			<g class="st50">
				<path class="st8" d="M38.6,148.6c0.3,7-3.8,13.5-10.3,16.2c-1.4,0.5-3,0.9-4.3,0.1l4.5,11.1l6.4-5.8l3.9-15.4L38.6,148.6z"/>
				<path class="st8" d="M34.3,183.2c-5.8,2.4-12.8,1.2-17.9-2.5s-8.4-9.5-9.8-15.6c-0.5-1.9-0.6-3.8-0.3-5.7L4,164.1l6.9,30.5
					l8,9.9l5.5-0.5L34.3,183.2z"/>
			</g>
		</g>
		<g>
			<defs>
				<path id="SVGID_33_" d="M45.2,31.9c-1-0.7-2.4-0.8-3.5-0.2c-1.1,0.6-2,1.5-2.7,2.5C32.8,42,28,50.9,25,60.4
					c-1.1,3.3-1.9,6.8-3.9,9.7c-0.9,1.1-1.7,2.3-2.4,3.6c-1.5,3.3-0.1,7.3,2.5,9.8s6.1,3.8,9.5,4.9c3,0.9,6.1,1.7,9.2,2.4
					c9.7,2.1,19.6,3,29.5,2.7c4.6-0.2,9.6-0.2,14-1.6c4.5-1.4,8.8-3.4,12.7-6c2.9-1.9,5-4,4.4-7.6c-0.8-4.3-1.3-8.6-1.7-13
					c-0.5-5.3-1-10.6-1.8-15.9c-0.6-3.7-0.8-11.6-5.4-13c-1.8-0.5-3.6,0.4-5.3,1.3l-3.8,2.1c-0.4,0.3-0.9,0.4-1.3,0.5
					c-4.1,0.2,0-10.1,0.7-11.6l9.6-20.1C92.2,6.8,93,4.7,92,3.1c-1.4-2.2-4.8-1.4-7.2-0.2C71.2,9.7,60,20.4,52.3,33.5
					c-0.7,1.2-1.5,2.3-3.1,2.3C46.6,35.8,46.8,33.2,45.2,31.9z"/>
			</defs>
			<clipPath id="SVGID_34_">
				<use xlink:href="#SVGID_33_"  style="overflow:visible;"/>
			</clipPath>
			<g class="st51">
				<path class="st27" d="M105.7,70c-2.6,6.1-7.8,10.8-13.7,13.8s-12.4,4.5-19,5.4c-15.3,2.2-31.5,1.3-45.3-5.6
					c-2.5-1.1-4.8-2.7-6.7-4.7c-1.9-2-2.9-4.7-2.8-7.5l-3.8,11l11.4,9.3l18.8,2.9l17.5,0.4L81.2,96l13.6-4.4l7.6-7.3l2.3-8.3
					l0.8-6.4"/>
				<path class="st27" d="M45.1,31.8c1.8,1.5,1.9,4.7,4,5.8c1.4,0.6,3,0.3,4.2-0.7c1.1-1,2-2.2,2.7-3.5C62,22.7,68.4,11.8,78.6,4.9
					c1.7-1.1,3.4-2.1,5.1-3.1c0.2-0.1,0.3-0.2,0.4-0.4c0-0.2-0.1-0.5-0.3-0.6C82.4-0.5,80,0,78.2,0.6C66.6,4.7,57.5,13.5,48.7,22
					c-1.7,1.7-3.4,3.3-5,5.1c-1.4,1.4-2.5,3-3.3,4.7C41.8,30.8,43.7,30.7,45.1,31.8z"/>
			</g>
		</g>
		
			<linearGradient id="SVGID_35_" gradientUnits="userSpaceOnUse" x1="91.4155" y1="195.6943" x2="26.6756" y2="128.6743" gradientTransform="matrix(1 0 0 -1 0 220)">
			<stop  offset="0" style="stop-color:#FFFFFF;stop-opacity:0.7"/>
			<stop  offset="0.64" style="stop-color:#FFFFFF;stop-opacity:0"/>
		</linearGradient>
		<path class="st52" d="M87,18c-1.1,0.3-2.2,0.4-3.3,0.5c-5.2,0.1-10.3-2.4-11.5-5.5c-0.2-0.6-0.3-1.2-0.2-1.8
			c-25-6.4-50.4,8.7-56.8,33.7s8.7,50.4,33.7,56.8s50.4-8.7,56.8-33.7C110.5,49,103,29.1,87,18z"/>
		<ellipse transform="matrix(0.8266 -0.5628 0.5628 0.8266 -5.4805 49.9737)" class="st53" cx="78.4" cy="33.9" rx="11.1" ry="11"/>
		<ellipse transform="matrix(0.866 -0.5 0.5 0.866 -8.7331 54.3224)" class="st53" cx="97" cy="43.5" rx="4.4" ry="4.4"/>
		<g>
			<defs>
				<path id="SVGID_36_" d="M86.8,100.9l76.3-51.4c-0.8,12.9-4.9,26.1-13.7,35.7c-5.8,6.6-13.2,11.6-21.5,14.5
					c-7.2,2.8-14.7,4.6-22.3,5.2c-7.7,0.5-18.7,0.2-25.6-3"/>
			</defs>
			<clipPath id="SVGID_37_">
				<use xlink:href="#SVGID_36_"  style="overflow:visible;"/>
			</clipPath>
			<g class="st54">
				<circle class="st41" cx="151.8" cy="81.1" r="1.7"/>
				<circle class="st55" cx="159.1" cy="71.5" r="1.6"/>
			</g>
		</g>
	</g>
</g>
</svg>
