<?xml version="1.0" encoding="utf-8"?>
<!-- Generator: Adobe Illustrator 21.0.0, SVG Export Plug-In . SVG Version: 6.00 Build 0)  -->
<svg version="1.1" id="Layer_1" xmlns="http://www.w3.org/2000/svg" xmlns:xlink="http://www.w3.org/1999/xlink" x="0px" y="0px"
	 viewBox="0 0 159.6 217.1" style="enable-background:new 0 0 159.6 217.1;" xml:space="preserve">
<style type="text/css">
	.st0{opacity:8.000000e-02;enable-background:new    ;}
	.st1{opacity:0.61;}
	.st2{fill:#22E1FB;}
	.st3{fill:#96D2E2;}
	.st4{fill:#E95291;}
	.st5{fill:#DB4589;}
	.st6{fill:#ED64A3;}
	.st7{opacity:0.11;fill:#FFFFFF;enable-background:new    ;}
	.st8{fill:none;stroke:#8484AF;stroke-width:9.37;stroke-linecap:round;stroke-miterlimit:10;}
	.st9{fill:#B0B0D1;}
	.st10{fill:#9595BF;}
	.st11{opacity:0.4;fill:#FFFFFF;enable-background:new    ;}
	.st12{opacity:0.23;fill:#FFFFFF;enable-background:new    ;}
	.st13{clip-path:url(#SVGID_2_);}
	.st14{opacity:0.1;fill:#5C3C99;enable-background:new    ;}
	.st15{clip-path:url(#SVGID_4_);}
	.st16{opacity:0.1;fill:#FFFFFF;enable-background:new    ;}
	.st17{fill:#C7C6DB;}
	.st18{fill:none;stroke:#5C3C99;stroke-width:1.67;stroke-linecap:round;stroke-miterlimit:10;}
	.st19{opacity:0.2;fill:#5C3C99;enable-background:new    ;}
	.st20{opacity:0.12;fill:#5C3C99;enable-background:new    ;}
	.st21{fill:#FFFFFF;}
	.st22{fill:#5C3C99;}
	.st23{fill:#6850A5;}
	.st24{clip-path:url(#SVGID_6_);}
	.st25{opacity:0.65;fill:url(#SVGID_7_);enable-background:new    ;}
	.st26{opacity:0.62;fill:#FFFFFF;enable-background:new    ;}
	.st27{opacity:0.5;fill:#FFFFFF;enable-background:new    ;}
</style>
<title>ziggy_5</title>
<g id="Layer_2">
	<g id="Layer_1-2">
		<ellipse class="st0" cx="80" cy="209.6" rx="50.5" ry="7.5"/>
		<g class="st1">
			<path class="st2" d="M46.3,20.6L43.8,22C44.7,21.6,45.5,21.2,46.3,20.6z"/>
		</g>
		<path class="st2" d="M142.4,48.1l2.4,2.8C144,50.1,143.2,49.1,142.4,48.1z"/>
		<path class="st3" d="M157.4,23.6c-2-1.8-5-2.1-7.4-0.7c-2.5,1.6-3.6,4.7-2.6,7.5c0.2,0.5,0,1.1-0.4,1.5l-3.1,3
			c-1.7,1.6-3.9,2.7-6.3,3.2c-0.2,0-0.4,0.1-0.6,0.1c-11.6-12-28-20.7-46.6-23.6c-17-2.8-34.4-0.4-50,6.8c-0.6,0.3-1.4,0.3-2.1,0
			l0,0c-2.4-1.7-4.4-4-5.6-6.7c-0.4-0.7-0.7-1.4-1.1-2.1c-0.4-0.5-0.4-1.3,0-1.8c1.7-2.3,1.7-5.4,0-7.7c-1.6-2.1-4.3-3-6.9-2.3
			c-3.4,1.1-5.2,4.7-4.1,8.1c0.1,0.4,0.3,0.8,0.5,1.1c1.2,2.2,3.7,3.5,6.2,3.2c0.6-0.1,1.1,0.2,1.4,0.7c1,1.6,1.9,3.3,2.7,5.1
			c0.9,1.7,1.3,3.7,1.2,5.6c-0.1,0.7-0.5,1.2-1,1.6c-12.3,8-21.5,19.3-25.3,33.2c-9.7,35.1,18.5,71.6,63.6,78
			c44.5,6.4,82.2-20,84.4-55.6c0.8-13.2-3.5-25.9-11.4-36.6c-0.8-1.1-1-2.5-0.4-3.7c0.6-1.2,1.4-2.3,2.4-3.3
			c1.3-1.4,2.7-2.7,4.2-3.9c0.4-0.4,1.1-0.4,1.6-0.2c2.3,1.1,5,0.7,6.8-1c2.6-2.4,2.8-6.4,0.4-9.1C157.7,23.9,157.6,23.7,157.4,23.6
			z"/>
		<path class="st2" d="M130.5,34.7l2,2.2C131.7,36.3,131,35.5,130.5,34.7z"/>
		<path class="st4" d="M88,26.8c-0.8-0.1-1.5-0.3-2.3-0.3c-1.1-0.1-2.2-0.2-3.4-0.2c-15.2,0.5-30.4,7-43.5,14.7
			c-15.3,9-33.8,27-28.4,46.5c1.6,5.8,4.8,11,9.2,15.1c7.8,7.3,18.1,11.1,28.2,14c7.3,2.1,14.8,3.9,22.3,5.3l0.4,0.1
			c0.1,0,0.3,0.1,0.4,0.1c7.5,1.2,15.1,2,22.8,2.5c10.6,0.7,21.5,0.6,31.3-3.7c5.5-2.4,10.2-6.2,13.7-11.1
			c11.7-16.6,0.4-39.8-11-53.4c-9.7-11.6-21.8-22.9-36-28.5c-0.7-0.3-1.5-0.5-2.3-0.7C89.1,27.1,88.5,26.9,88,26.8z"/>
		<path class="st5" d="M117.9,113.9c1.4-1.2,2.7-2.6,2.9-4.4c0.4-4.5-5.1-8.4-8-10.5c-5.2-3.6-10.7-6.7-16.5-9.3
			c-6-2.8-12.4-4.8-18.9-5.8l-0.5,2.4l0.2-2.5c-6.6-1-13.3-1.1-19.9-0.2c-6.3,0.7-12.5,1.9-18.6,3.8c-3.4,1.2-9.9,3.2-10.8,7.6
			c-0.4,1.8,0.5,3.6,1.4,5.1c4.6,7.4,12,12.5,19.7,16c1.8,0.8,3.7,1.6,5.6,2.3c5.2,1.3,10.4,2.5,15.6,3.5l0.4,0.1
			c0.1,0,0.3,0.1,0.4,0.1c4.4,0.7,8.7,1.2,13.1,1.7c3.4,0,6.8-0.2,10.2-0.6C102.8,122.1,111.3,119.5,117.9,113.9z"/>
		<path class="st6" d="M25.5,56.7c2.8-3.9,6.7-6.8,10.6-9.6c12-8.5,25.6-15.8,40.3-17.1c4.5-0.4,10.4-0.2,10.4,5.7
			c-0.1,2-0.7,3.9-1.7,5.6c-4.7,8.9-14.1,16.5-22.6,21.6c-5.4,3.2-11.2,5.7-17.2,7.4c-6.2,1.9-15.1,4.3-21.3,1.4
			C18.5,69.1,23.1,60,25.5,56.7z"/>
		<path class="st5" d="M127.9,56.4c-9.5-11.4-21.4-22.4-35.1-28.1c5.5,2.9,10.5,6.7,14.7,11.3c12.4,13.1,22,29.3,24.9,47.1
			c1.2,7.7,1.1,15.9-2.6,22.7s-10.8,11.5-18.3,14c-1.7,0.6-3.5,1-5.2,1.4c6.5-0.1,12.9-1.4,18.8-3.9c5.5-2.4,10.2-6.2,13.7-11.1
			C150.5,93.2,139.2,70.1,127.9,56.4z"/>
		<path class="st5" d="M52.1,117.7V114c-13.4-4.3-25.4-9.7-35.1-19.9c-3-3-5.5-6.4-7.3-10.3c0.2,1.2,0.4,2.5,0.7,3.7
			c1.6,5.8,4.8,11,9.2,15.1c7.8,7.3,18.1,11.1,28.2,14C49.3,117,50.7,117.3,52.1,117.7z"/>
		<path class="st7" d="M58.2,35.1c-2.3,0.8-4.5,1.8-6.6,3c-1.6,0.9-3.1,2-4.5,3.2c-1.5,1.2-2.8,2.4-3.4,4.4
			c-0.5,1.5-0.2,3.2,0.8,4.5c0.8,0.8,1.8,1.3,2.9,1.4c4.1,0.7,8.1-1.5,11.2-3.4c2.8-1.7,5.4-3.9,7.5-6.4c0.7-0.7,1.2-1.5,1.5-2.4
			c0.3-1,0.2-2.1-0.3-3.1c-0.6-1.2-1.8-2.1-3.1-2.4c-1.3-0.2-2.6,0-3.8,0.4C59.8,34.6,59,34.9,58.2,35.1z"/>
		<path class="st8" d="M56.6,165.9c-4.1-7.4-6.4-15.7-6.8-24.2c-0.2-2.8,0-5.7,0.5-8.5c1.5-6.7,5.9-12.3,10.3-17.7"/>
		<path class="st8" d="M66.7,117.5c-2.1,3.6-2,8.2-0.7,12.2c1.3,4,3.6,7.6,5.6,11.2c3.7,6.5,6.7,13.5,7.3,20.9
			c0.8,9.2-2,18.3-7.8,25.5"/>
		<path class="st8" d="M81.7,114.5c-2.3,2.7-1.6,6.8-0.2,10c2.9,6.6,8,11.9,11.9,17.9s6.6,13.7,4,20.4"/>
		<path class="st9" d="M89.2,131.2c3.5,4.6,7.7,8.6,10.7,13.4c1.8,2.9,3.2,6,4.3,9.2c1.2,3,1.9,6.1,2.2,9.3c0.3,4-0.5,8-2.2,11.7
			c-1.3,2.6-3.3,5.2-6.2,5.6c-2.3,0.4-4.6-0.8-6.9-1.2c-5.5-1-10.8,2.1-15.1,5.7c-3.3,2.7-6,6.1-7.8,9.9c-1.8,3.9-2.1,8.3-0.7,12.4
			c1.7-1.6,4.2-1.7,6.6-1.5c4.9,0.5,9.8,2,14.7,2.1c5.7,0,11.2-2,15.5-5.7c3-2.7,5.4-5.9,7.2-9.5c6.7-13.4,6.5-29.2-0.5-42.3
			c-3.4-6.2-8.2-11.5-12.6-17.1s-8.4-11.6-10-18.5c-3.8,1.8-5.7,1.3-4.5,6.3C85,124.6,86.8,128.1,89.2,131.2z"/>
		<path class="st10" d="M116.4,174.2c-1.7,8.7-6,17-12.7,22.7s-16.2,8.7-25,6.8c-3.4-0.8-6.7-2.3-8.6-5.2c-0.8-1.3-1.3-2.9-1.4-4.5
			c-0.1,0.3-0.3,0.5-0.4,0.8c-1.8,3.9-2.1,8.3-0.7,12.4c1.7-1.6,4.2-1.7,6.5-1.5c4.9,0.5,9.8,2,14.8,2.1c5.7,0,11.2-2,15.5-5.7
			c3-2.7,5.4-5.9,7.2-9.5C114.4,186.9,116.1,180.6,116.4,174.2z"/>
		<path class="st11" d="M81.6,184.4c-0.7,0.6-1.1,1.4-1.4,2.3c-0.3,0.9,0,1.8,0.6,2.5c1,1,2.6,0.8,3.9,0.3c1.4-0.6,2.6-1.6,3.6-2.8
			c0.8-0.9,1.1-2,1.1-3.1C88.9,179.1,83.2,182.8,81.6,184.4z"/>
		<path class="st9" d="M47.6,120.2c-3,2.5-6.5,4.4-9.7,6.7c-3.7,2.8-7.1,6-10.1,9.4c-3.2,3.4-6.1,7.2-8.5,11.3
			c-4.4,8-6,17.7-3.4,26.4s9.7,16.2,18.5,18.4c8.5,2.1,17.8-0.6,26.1,2.2c-0.2-6-2.1-11.7-5.5-16.7c-2.7-4.1-6.5-7.4-11-9.6
			c-5.1-2.3-11.3-3.1-14.6-7.6c-3.1-4.1-2.4-9.9-0.6-14.7c2.6-6.7,7.1-12.5,13-16.6c3.3-2.3,7.1-4,10.5-6.2s6.6-5.1,8.1-8.9
			c-0.4,1.1-5.6-3.6-6.6-2.9c-0.8,0.5-1.3,3.1-2.9,4.9C50,117.8,48.9,119,47.6,120.2z"/>
		<path class="st10" d="M55.2,178c-1.9-2.9-4.4-5.4-7.2-7.4c0.5,0.7,0.9,1.4,1.3,2.1c1.3,2.2,1.9,4.6,2,7.1c0,2.5-0.9,4.9-2.7,6.7
			c-2.8,2.7-7.1,3-11,2.4c-10.3-1.7-18.8-8.8-22.4-18.5c0.2,1.2,0.5,2.5,0.8,3.7c2.6,8.7,9.7,16.2,18.5,18.4
			c8.5,2.1,17.8-0.6,26.1,2.2C60.4,188.7,58.5,182.9,55.2,178z"/>
		<path class="st11" d="M42.4,169.7c-0.7-0.2-1.4-0.1-2,0.3c-0.5,0.4-0.8,1.1-0.7,1.8c0,2.1,1.2,4,3.1,4.9c0.6,0.3,1.3,0.4,2,0.4
			c0.8-0.1,1.5-0.8,1.5-1.7c0.1-1.3-0.3-2.5-0.9-3.6C44.7,171,43.5,169.7,42.4,169.7z"/>
		<path class="st12" d="M35.5,167.4c-0.5-0.1-1-0.1-1.4,0.2c-0.3,0.3-0.5,0.8-0.5,1.3c0,1.5,0.8,2.9,2.1,3.6
			c0.4,0.2,0.9,0.3,1.4,0.3c0.6-0.1,1-0.6,1-1.2c0.1-0.9-0.2-1.8-0.7-2.6C37.1,168.3,36.2,167.4,35.5,167.4z"/>
		<g>
			<defs>
				<path id="SVGID_1_" d="M47.6,120.2c-3,2.5-6.5,4.4-9.7,6.7c-3.7,2.8-7.1,6-10.1,9.4c-3.2,3.4-6.1,7.2-8.5,11.3
					c-4.4,8-6,17.7-3.4,26.4s9.7,16.2,18.5,18.4c8.5,2.1,17.8-0.6,26.1,2.2c-0.2-6-2.1-11.7-5.5-16.7c-2.7-4.1-6.5-7.4-11-9.6
					c-5.1-2.3-11.3-3.1-14.6-7.6c-3.1-4.1-2.4-9.9-0.6-14.7c2.6-6.7,7.1-12.5,13-16.6c3.3-2.3,7.1-4,10.5-6.2s6.6-5.1,8.1-8.9
					c-0.4,1.1-5.6-3.6-6.6-2.9c-0.8,0.5-1.3,3.1-2.9,4.9C50,117.8,48.9,119,47.6,120.2z"/>
			</defs>
			<clipPath id="SVGID_2_">
				<use xlink:href="#SVGID_1_"  style="overflow:visible;"/>
			</clipPath>
			<g class="st13">
				<path class="st14" d="M30,144.2c1.4-2.8,2.8-5.5,4.5-8.1c1.1-1.9,2.4-3.7,3.9-5.3c3.1-3.4,7.2-5.7,10.8-8.6
					c1.4-1,2.6-2.3,3.5-3.8c1.4-2.4,1.5-5.4,0.3-7.9l7.9-3.7l3.7,9.4l-0.5,7L49,134.8L34.8,145L30,144.2z"/>
			</g>
		</g>
		<g>
			<defs>
				<path id="SVGID_3_" d="M89.2,131.2c3.5,4.6,7.7,8.6,10.7,13.4c1.8,2.9,3.2,6,4.3,9.2c1.2,3,1.9,6.1,2.2,9.3
					c0.3,4-0.5,8-2.2,11.7c-1.3,2.6-3.3,5.2-6.2,5.6c-2.3,0.4-4.6-0.8-6.9-1.2c-5.5-1-10.8,2.1-15.1,5.7c-3.3,2.7-6,6.1-7.8,9.9
					c-1.8,3.9-2.1,8.3-0.7,12.4c1.7-1.6,4.2-1.7,6.6-1.5c4.9,0.5,9.8,2,14.7,2.1c5.7,0,11.2-2,15.5-5.7c3-2.7,5.4-5.9,7.2-9.5
					c6.7-13.4,6.5-29.2-0.5-42.3c-3.4-6.2-8.2-11.5-12.6-17.1s-8.4-11.6-10-18.5c-3.8,1.8-5.7,1.3-4.5,6.3
					C85,124.6,86.8,128.1,89.2,131.2z"/>
			</defs>
			<clipPath id="SVGID_4_">
				<use xlink:href="#SVGID_3_"  style="overflow:visible;"/>
			</clipPath>
			<g class="st15">
				<path class="st14" d="M92.3,146.8c0.7-4,1-8.1-0.2-12c-0.6-1.7-1.4-3.3-2.2-5c-0.8-1.6-1.3-3.4-1.3-5.2c0-1.8,0.8-3.6,2.3-4.7
					l-1.2-2.5l-6.1,1.3l-1.7,3.3l4.9,12.9L92.3,146.8z"/>
			</g>
		</g>
		<path class="st16" d="M86.2,180.1c-1.8,0.3-3.6,1-5.1,2.1c-2,1.2-3.9,2.6-5.7,4.2c-1.5,1.3-3.6,2.8-4.3,4.8
			c-0.7,2-0.3,4.1,0.9,5.8c1.2,1.6,2.9,2.8,4.9,3.5c8.4,3.1,20.7-2.4,22.1-11.9c0.3-1.6,0-3.3-0.7-4.8c-1.3-2.3-3.6-3.8-6.2-4.1
			c-2.6-0.3-5.1,0-7.6,0.9"/>
		<path class="st16" d="M48,182.1c-1,1.5-2.5,2.7-4.2,3.4c-7.2,3-17.9-2.4-19.1-11.4c-0.2-1.6,0-3.2,0.6-4.6c0.4-1.1,1.3-2,2.5-2.4
			c1.2-0.4,2.5-0.7,3.8-0.7c7.3-0.2,15.2,3.4,17.2,10.9C49.2,178.9,48.9,180.7,48,182.1z"/>
		<path class="st17" d="M76.9,85.7c-12-1.9-24.4,0.1-35.2,5.6c-2.1,1.1-3,3.7-1.9,5.8c0,0.1,0.1,0.1,0.1,0.2
			c12.6,21.4,40.1,28.6,61.5,16c2.6-1.5,5-3.3,7.3-5.3c1.8-1.6,1.9-4.4,0.3-6.1c-0.1-0.1-0.1-0.1-0.2-0.2
			C100.1,93.1,88.9,87.5,76.9,85.7z"/>
		<path class="st18" d="M67.9,110.4c1.4,3.1,5,4.4,8.1,3c0.8-0.3,1.5-0.9,2-1.5"/>
		<path class="st19" d="M40.2,96.1c6.6-6.6,20.7-9.8,36.2-7.4s27.9,9.7,32.3,18l0.7,0.4c1.1-1.7,0.9-4-0.6-5.4
			C91,84.2,63.9,80,41.7,91.3c-1.8,0.9-2.7,3-2.2,5C39.5,96.5,39.4,97.1,40.2,96.1z"/>
		
			<ellipse transform="matrix(0.1498 -0.9887 0.9887 0.1498 -22.1894 150.4529)" class="st20" cx="76.4" cy="88.1" rx="12.2" ry="10.8"/>
		<ellipse transform="matrix(0.153 -0.9882 0.9882 0.153 -21.3404 149.6684)" class="st21" cx="76.6" cy="87.3" rx="11.4" ry="10"/>
		
			<ellipse transform="matrix(0.1853 -0.9827 0.9827 0.1853 -21.5972 145.3856)" class="st22" cx="76.9" cy="85.7" rx="4.2" ry="4.2"/>
		<path class="st20" d="M60.4,101.2c0.2,4.6-3.3,8.6-8,8.8c-0.1,0-0.1,0-0.2,0c-5-0.1-9.2-3.7-10-8.7c-0.9-5.4,2.8-10.3,8.2-10.2
			S60.2,95.8,60.4,101.2z"/>
		<path class="st21" d="M59.5,99.9c0.3,4.5-3.2,8.3-7.7,8.6c-0.1,0-0.1,0-0.2,0c-4.8-0.1-8.9-3.6-9.7-8.4c-0.9-5.3,2.7-10,8-10
			C55.3,90.4,59.4,94.7,59.5,99.9z"/>
		
			<ellipse transform="matrix(0.8259 -0.5638 0.5638 0.8259 -46.0836 46.4508)" class="st22" cx="52.2" cy="97.8" rx="4.2" ry="4.2"/>
		<path class="st20" d="M88,105.4c-1.7,4.4,0.5,9.2,4.9,10.9c0.1,0,0.1,0.1,0.2,0.1c4.8,1.4,9.9-0.8,12.2-5.3
			c2.5-5,0.5-10.7-4.7-12.3S89.7,100.3,88,105.4z"/>
		<path class="st21" d="M89.1,104.5c-1.6,4.2,0.5,8.9,4.7,10.5c0.1,0,0.1,0,0.2,0.1c4.6,1.4,9.6-0.8,11.7-5.1
			c2.4-4.8,0.4-10.3-4.6-11.9C96.1,96.7,90.8,99.5,89.1,104.5z"/>
		
			<ellipse transform="matrix(0.7872 -0.6168 0.6168 0.7872 -43.9997 81.9796)" class="st22" cx="96.8" cy="104.7" rx="4.2" ry="4.2"/>
		<ellipse transform="matrix(0.153 -0.9882 0.9882 0.153 6.9023 131.3353)" class="st22" cx="80.1" cy="61.6" rx="3.8" ry="3.8"/>
		<ellipse transform="matrix(0.153 -0.9882 0.9882 0.153 45.7025 106.042)" class="st22" cx="84.7" cy="26.4" rx="3.6" ry="3.3"/>
		<ellipse transform="matrix(0.153 -0.9882 0.9882 0.153 28.1067 118.1858)" class="st22" cx="83" cy="42.7" rx="3.9" ry="4"/>
		
			<ellipse transform="matrix(6.104854e-02 -0.9981 0.9981 6.104854e-02 14.8006 137.0217)" class="st23" cx="80.2" cy="60.6" rx="2.2" ry="2.2"/>
		
			<ellipse transform="matrix(6.104854e-02 -0.9981 0.9981 6.104854e-02 36.4592 122.2264)" class="st23" cx="83.2" cy="41.7" rx="2.1" ry="2.1"/>
		<g>
			<defs>
				
					<ellipse id="SVGID_5_" transform="matrix(0.153 -0.9882 0.9882 0.153 45.7025 106.042)" cx="84.7" cy="26.4" rx="3.6" ry="3.3"/>
			</defs>
			<clipPath id="SVGID_6_">
				<use xlink:href="#SVGID_5_"  style="overflow:visible;"/>
			</clipPath>
			<g class="st24">
				
					<ellipse transform="matrix(0.9556 -0.2945 0.2945 0.9556 -3.5362 26.0922)" class="st23" cx="84.9" cy="24.8" rx="2.6" ry="2.5"/>
			</g>
		</g>
		
			<linearGradient id="SVGID_7_" gradientUnits="userSpaceOnUse" x1="25.8804" y1="203.1384" x2="108.2504" y2="116.2484" gradientTransform="matrix(1 0 0 -1 0 220)">
			<stop  offset="0" style="stop-color:#FFFFFF;stop-opacity:0.7"/>
			<stop  offset="0.64" style="stop-color:#FFFFFF;stop-opacity:0"/>
		</linearGradient>
		<path class="st25" d="M147.4,78.3c-2,32.4-36.3,56.4-76.9,50.6c-41-5.9-66.8-39.1-57.9-71.1c8-29.1,42.2-46.3,76.6-40.8
			C123.2,22.5,149.2,48.8,147.4,78.3z"/>
		<ellipse transform="matrix(0.7809 -0.6247 0.6247 0.7809 -17.18 36.741)" class="st26" cx="43.8" cy="42.9" rx="13.6" ry="13.6"/>
		<ellipse transform="matrix(0.866 -0.5 0.5 0.866 -25.6117 21.9412)" class="st26" cx="28.1" cy="58.8" rx="5.4" ry="5.4"/>
		<circle class="st27" cx="26.6" cy="3.7" r="3.7"/>
		<circle class="st27" cx="153.4" cy="25.5" r="3.7"/>
	</g>
</g>
</svg>
