<svg xmlns="http://www.w3.org/2000/svg" xmlns:xlink="http://www.w3.org/1999/xlink" viewBox="0 0 161.92 218.36"><defs><style>.cls-1,.cls-24,.cls-40,.cls-41,.cls-8,.cls-9{fill:none;}.cls-2{fill:#f58a1f;}.cls-3{opacity:0.08;}.cls-4{fill:#664ca5;}.cls-5{clip-path:url(#clip-path);}.cls-6{fill:#4d328e;opacity:0.5;}.cls-7{opacity:0.8;}.cls-40,.cls-41,.cls-8,.cls-9{stroke:#3d297c;}.cls-24,.cls-40,.cls-41,.cls-8,.cls-9{stroke-linecap:round;stroke-miterlimit:10;}.cls-8{stroke-width:1.75px;}.cls-9{stroke-width:1.71px;}.cls-10,.cls-35{fill:#dddded;}.cls-11{fill:#7262b7;opacity:0.36;}.cls-12{clip-path:url(#clip-path-2);}.cls-13{fill:#ededf9;}.cls-14{clip-path:url(#clip-path-3);}.cls-15{clip-path:url(#clip-path-4);}.cls-16{fill:#96d2e2;}.cls-17{clip-path:url(#clip-path-5);}.cls-18,.cls-19{fill:#dd700e;}.cls-18{opacity:0.67;}.cls-20{clip-path:url(#clip-path-6);}.cls-21,.cls-23{fill:#5c3c99;}.cls-21{opacity:0.12;}.cls-22,.cls-42,.cls-43,.cls-44{fill:#fff;}.cls-24{stroke:#2a2a77;stroke-width:2.44px;}.cls-25{fill:#ce4188;}.cls-26,.cls-32{fill:#c7c7e2;}.cls-27{opacity:0.6;}.cls-28{clip-path:url(#clip-path-7);}.cls-29{clip-path:url(#clip-path-8);}.cls-30{fill:#babadd;}.cls-31{clip-path:url(#clip-path-9);}.cls-32{opacity:0.7;}.cls-33{fill:#e95291;}.cls-34{fill:#8484bc;}.cls-35{opacity:0.54;}.cls-36{clip-path:url(#clip-path-10);}.cls-37{clip-path:url(#clip-path-11);}.cls-38{clip-path:url(#clip-path-12);}.cls-39{clip-path:url(#clip-path-13);}.cls-40{stroke-width:1.68px;}.cls-41{stroke-width:1.49px;}.cls-42{opacity:0.62;}.cls-43{opacity:0.11;}.cls-44{opacity:0.14;}.cls-45{opacity:0.65;fill:url(#linear-gradient);}</style><clipPath id="clip-path"><path class="cls-1" d="M37.26,132.21a9.16,9.16,0,0,1-1.09,2,29,29,0,0,0-4,12.6c-.3,6.77,1.09,13.61,1.4,20.38a75.48,75.48,0,0,1-1.67,21.44c-.7,2.86-2.64,1.55-4.83,1.3a57.28,57.28,0,0,1-11.83-2.42,31.75,31.75,0,0,1-5.89-2.66c-2.53-1.49-4.94-3.53-5.84-6.33s-.13-6,.71-8.9c4.65-16.15,10.36-32.33,20.36-45.83.38-.52,7.37,3.8,8.07,4.26a43.38,43.38,0,0,1,3.82,2.71C37.17,131.3,37.36,131.75,37.26,132.21Z"/></clipPath><clipPath id="clip-path-2"><path class="cls-1" d="M2.6,178.46l-.05.11a19.69,19.69,0,0,0-1.78,7.17,10.24,10.24,0,0,0,1.19,6,3.14,3.14,0,0,0,2.35,1.68,2.84,2.84,0,0,0,1.83-.7,8.25,8.25,0,0,0,2.24-3.33,38.09,38.09,0,0,0,2-6.7c.43-2,.74-4.13-.13-6a3.45,3.45,0,0,0-.7-1,3.29,3.29,0,0,0-2.69-.79A5.79,5.79,0,0,0,2.6,178.46Z"/></clipPath><clipPath id="clip-path-3"><path class="cls-1" d="M13.14,188v.12a19.69,19.69,0,0,0,1.26,7.28,10.24,10.24,0,0,0,3.49,5,3.14,3.14,0,0,0,2.83.59,2.84,2.84,0,0,0,1.4-1.38,8.25,8.25,0,0,0,.71-3.95,38.09,38.09,0,0,0-.89-6.93c-.4-2-1-4.08-2.52-5.41a3.45,3.45,0,0,0-1-.64,3.29,3.29,0,0,0-2.78.36A5.79,5.79,0,0,0,13.14,188Z"/></clipPath><clipPath id="clip-path-4"><path class="cls-1" d="M25.05,189.53a13.08,13.08,0,0,0,1.62,8.09A5.36,5.36,0,0,0,29.51,200a2.69,2.69,0,0,0,3.75-2A16.23,16.23,0,0,0,32,186.69a4,4,0,0,0-2.75-2.21,3.06,3.06,0,0,0-2.34.9,5.29,5.29,0,0,0-1.56,2.6A10.54,10.54,0,0,0,25.05,189.53Z"/></clipPath><clipPath id="clip-path-5"><path class="cls-2" d="M105.09,177.2c5.95-4.08,10.45-9.73,15.46-14.81a77.85,77.85,0,0,1,18.53-14.18,20,20,0,0,1,7.89-2.69c2.83-.2,5.92.75,7.61,3a6.84,6.84,0,0,1,1.33,3.75c.09,1.45-.46,2.52-.72,3.9a2.19,2.19,0,0,0,.28,1.71,1.47,1.47,0,0,0,1.31.57c1.05-.11,1.94-1.89,2.49-2.69a15.73,15.73,0,0,0,1.92-3.78c1.73-5,.35-11.21-4.05-14.61-4.07-3.14-9.74-3.43-14.85-2.8-13.13,1.62-25,8.32-34.43,17-3.1,2.85-6.13,6-10.19,7.43-3.71,1.3-7.94,1-11.57,2.48A11.52,11.52,0,0,0,79,170.69C77.43,186,96.94,182.8,105.09,177.2Z"/></clipPath><clipPath id="clip-path-6"><path class="cls-1" d="M117.19,48.35a5.36,5.36,0,0,0,.1-4.59,5.35,5.35,0,0,0-4.17-2.49,11.45,11.45,0,0,0-8,2.5,18.91,18.91,0,0,0-5.93,6.85C98,53.23,96.3,55.7,95.29,58.36a10.22,10.22,0,0,1-4.15,5.46,5.6,5.6,0,0,1-6.26-.14,6.62,6.62,0,0,1-2-3.67c-1.09-4.6.53-9,2.32-13.2a131.74,131.74,0,0,1,6.7-13.1c3.66-6.47,7.5-13,12.91-18.08,1.93-1.83,4.11-3.53,5.29-5.91a6.14,6.14,0,0,0-.24-6.18C106.62-.71,99.27,2.13,96,4.75,89.09,10.19,83.79,17.41,79.43,25c-3.81,6.66-6.95,13.67-10.23,20.6-2.29,4.83-3.84,12-9.92,13.44a5.72,5.72,0,0,1-4-.36,6.33,6.33,0,0,1-2.82-4,11.57,11.57,0,0,1-.13-5.57A33.61,33.61,0,0,1,55,42.58a12,12,0,0,0,1.4-6.82,4.34,4.34,0,0,0-1.54-2.84c-1.56-1.15-3.76-.6-5.53.19A27.57,27.57,0,0,0,34,51.7c-.75,3.2-.92,6.54-2,9.64a21.33,21.33,0,0,1-1,2.36c-.54,1-1.11,2-1.72,3l-.74,1.19c-.27.41-.54.83-.8,1.24C24,75,19.46,80.34,16.93,86.87A20.85,20.85,0,0,0,15.67,99c1.44,6.13,6.77,10.87,12,14.07,15.7,9.68,35.37,10.5,53.32,10.31q2.82,0,5.64-.11c7.61-.22,15.91-.94,21.43-6.18a26.18,26.18,0,0,0,5.66-8.89A33.88,33.88,0,0,0,116.79,95a29.11,29.11,0,0,0-3.71-17c-.67-1.12-1.44-2.18-2.08-3.32-4.19-7.5-.87-15.92,3.64-22.39A24.19,24.19,0,0,0,117.19,48.35Z"/></clipPath><clipPath id="clip-path-7"><path class="cls-1" d="M75.26,172.85s4.16,30,8.83,38.1c0,0,1.52,2.64,21.2,2L94.54,165.87Z"/></clipPath><clipPath id="clip-path-8"><path class="cls-1" d="M71.33,174.59,69,207.91a4.06,4.06,0,0,1-4.33,3.72L47,211.37s6.94-20,6.19-41.35Z"/></clipPath><clipPath id="clip-path-9"><path class="cls-1" d="M125.3,83.62a53.24,53.24,0,0,1-13.59,20.79c-13.85,13-31.79,18.85-51,19a109,109,0,0,1-12-.55h0c-15.18-1.54-25.34-5.69-32.15-10.63a16.9,16.9,0,0,1-2.3-1.7c-.61-.55-1.19-1.12-1.75-1.7a34.1,34.1,0,0,1-2.83-3.09,19.53,19.53,0,0,0,5,14.61c4.13,4.69,10,7.55,16.06,9.14,0,0,1.15,14.68,13.22,34.35,0,0,10.73,10.51,44.48.67L88,130.33S144.27,100.39,125.3,83.62Z"/></clipPath><clipPath id="clip-path-10"><path class="cls-1" d="M132.35,189.43l-.06.1a19.69,19.69,0,0,0-2.53,6.94,10.24,10.24,0,0,0,.54,6.07,3.14,3.14,0,0,0,2.16,1.92,2.84,2.84,0,0,0,1.9-.5,8.25,8.25,0,0,0,2.58-3.07,38.09,38.09,0,0,0,2.68-6.45c.64-1.92,1.17-4,.5-5.94a3.45,3.45,0,0,0-.59-1.08,3.29,3.29,0,0,0-2.59-1.07A5.79,5.79,0,0,0,132.35,189.43Z"/></clipPath><clipPath id="clip-path-11"><path class="cls-1" d="M121,186.54l-.09.09a19.69,19.69,0,0,0-4.1,6.15,10.24,10.24,0,0,0-.9,6,3.14,3.14,0,0,0,1.64,2.37,2.84,2.84,0,0,0,2,0,8.25,8.25,0,0,0,3.23-2.38,38.09,38.09,0,0,0,4.12-5.64c1.08-1.72,2.09-3.64,1.89-5.66a3.45,3.45,0,0,0-.32-1.19,3.29,3.29,0,0,0-2.27-1.65A5.79,5.79,0,0,0,121,186.54Z"/></clipPath><clipPath id="clip-path-12"><path class="cls-1" d="M143.16,183.41a14.77,14.77,0,0,0-1.24,8.11,5.7,5.7,0,0,0,1.54,3.25,2.15,2.15,0,0,0,3.65-.45,18,18,0,0,0,2.55-10.94,4.16,4.16,0,0,0-1.52-3.08,2.32,2.32,0,0,0-2.17,0,4.65,4.65,0,0,0-2.08,1.83A10.7,10.7,0,0,0,143.16,183.41Z"/></clipPath><clipPath id="clip-path-13"><path class="cls-1" d="M114,125.23a1.06,1.06,0,0,1,1.34.15c7.5,7.88,14.64,15.41,20.76,24.44s11,19.54,12.15,30.54a1.07,1.07,0,0,1-.19.73c-3.85,5.41-9.68,9.49-16.29,10.07a19.6,19.6,0,0,1-4.45-.13,20.16,20.16,0,0,1-7.58-2.69,18.59,18.59,0,0,1-3.2-2.44c-.88-.84-2.12-1.85-2.34-3.1a25.28,25.28,0,0,1,0-3.95q0-2-.09-4c-.09-2.61-.24-5.21-.48-7.81a96.69,96.69,0,0,0-3.24-17.83,76.24,76.24,0,0,0-3-8.55c-.24-.56-2.62-5.43-3.63-7.37a1,1,0,0,1,.33-1.34C107.48,129.56,110.5,127.55,114,125.23Z"/></clipPath><linearGradient id="linear-gradient" x1="12.44" y1="35.84" x2="112.35" y2="99.52" gradientUnits="userSpaceOnUse"><stop offset="0" stop-color="#fff" stop-opacity="0.7"/><stop offset="0.64" stop-color="#fff" stop-opacity="0"/></linearGradient></defs><title>ziggy_13</title><g id="Layer_2" data-name="Layer 2"><g id="Layer_1-2" data-name="Layer 1"><ellipse class="cls-3" cx="79.45" cy="210.86" rx="50.5" ry="7.5"/><path class="cls-4" d="M37.26,132.21a9.16,9.16,0,0,1-1.09,2,29,29,0,0,0-4,12.6c-.3,6.77,1.09,13.61,1.4,20.38a75.48,75.48,0,0,1-1.67,21.44c-.7,2.86-2.64,1.55-4.83,1.3a57.28,57.28,0,0,1-11.83-2.42,31.75,31.75,0,0,1-5.89-2.66c-2.53-1.49-4.94-3.53-5.84-6.33s-.13-6,.71-8.9c4.65-16.15,10.36-32.33,20.36-45.83.38-.52,7.37,3.8,8.07,4.26a43.38,43.38,0,0,1,3.82,2.71C37.17,131.3,37.36,131.75,37.26,132.21Z"/><g class="cls-5"><path class="cls-6" d="M26,143.3a42.13,42.13,0,0,0,.79,14.64c1,4.83,2.68,9.52,3.61,14.38s1.11,10-.72,14.61a9.62,9.62,0,0,1-4.6,5.43c4.19,1,8.68-1.39,11.06-5S39,179.24,38.55,175s-1.82-8.4-3-12.54a55.22,55.22,0,0,1-2.26-12.11,25.29,25.29,0,0,1,2.1-12c.56-1.18,1.23-2.31,1.9-3.43-.05.09-4-3.22-4.4-3.53-1.81-1.6-2.38-.14-3.42,1.6A28,28,0,0,0,26,143.3Z"/><path class="cls-6" d="M10.75,149a72.61,72.61,0,0,0-4.43,10.67c-1.64,5.07-2.7,10.68-.78,15.65,1.39,3.6,4.21,6.47,7.22,8.88a51,51,0,0,0,10.81,6.62c-7.67-1.93-15.56-4.6-21-10.35a7.47,7.47,0,0,1-1.54-2.16,8.76,8.76,0,0,1-.51-2.84,24.45,24.45,0,0,1,.19-6.63,24.62,24.62,0,0,1,2.74-6.52q1.8-3.32,3.64-6.63l2.67-4.82"/><g class="cls-7"><path class="cls-8" d="M.88,172.14c4.87-1.83,10.29-1.33,15.4-.4a33.55,33.55,0,0,1,10.11,3.17,14.53,14.53,0,0,1,7,7.69"/><path class="cls-9" d="M4.95,161.3a31.28,31.28,0,0,1,22.95,3.92c3.12,1.92,6,4.55,7.35,8.1"/><path class="cls-8" d="M7.36,152a27.53,27.53,0,0,1,14.33-1,18.91,18.91,0,0,1,11.84,7.79"/><path class="cls-8" d="M12.11,141.26a21.57,21.57,0,0,1,24.07,10"/></g></g><path class="cls-10" d="M2.6,178.46l-.05.11a19.69,19.69,0,0,0-1.78,7.17,10.24,10.24,0,0,0,1.19,6,3.14,3.14,0,0,0,2.35,1.68,2.84,2.84,0,0,0,1.83-.7,8.25,8.25,0,0,0,2.24-3.33,38.09,38.09,0,0,0,2-6.7c.43-2,.74-4.13-.13-6a3.45,3.45,0,0,0-.7-1,3.29,3.29,0,0,0-2.69-.79A5.79,5.79,0,0,0,2.6,178.46Z"/><path class="cls-10" d="M13.14,188v.12a19.69,19.69,0,0,0,1.26,7.28,10.24,10.24,0,0,0,3.49,5,3.14,3.14,0,0,0,2.83.59,2.84,2.84,0,0,0,1.4-1.38,8.25,8.25,0,0,0,.71-3.95,38.09,38.09,0,0,0-.89-6.93c-.4-2-1-4.08-2.52-5.41a3.45,3.45,0,0,0-1-.64,3.29,3.29,0,0,0-2.78.36A5.79,5.79,0,0,0,13.14,188Z"/><path class="cls-10" d="M25.05,189.53a13.08,13.08,0,0,0,1.62,8.09A5.36,5.36,0,0,0,29.51,200a2.69,2.69,0,0,0,3.75-2A16.23,16.23,0,0,0,32,186.69a4,4,0,0,0-2.75-2.21,3.06,3.06,0,0,0-2.34.9,5.29,5.29,0,0,0-1.56,2.6A10.54,10.54,0,0,0,25.05,189.53Z"/><path class="cls-11" d="M19.26,166.34a4.7,4.7,0,0,0,2.15,1.48,2.76,2.76,0,0,0,2,0,1.6,1.6,0,0,0,.77-1.34c.32-2.66-1.12-5.16-1.58-7.76a24.5,24.5,0,0,1,.3-8.55c.46-2.58,1.38-5.22,1.48-7.82a2.25,2.25,0,0,0-.13-1,1.38,1.38,0,0,0-.83-.76,2.53,2.53,0,0,0-1.13-.06c-2.48.34-3,1.95-3.78,3.45a24,24,0,0,0-1.84,5.28,22,22,0,0,0-.44,8.3,24,24,0,0,0,1.35,5.72A10.94,10.94,0,0,0,19.26,166.34Z"/><g class="cls-12"><path class="cls-13" d="M3.71,184.88a6.81,6.81,0,0,0,.79,3.91A3.11,3.11,0,0,0,8,190.25c1.2-.42,1.85-1.68,2.31-2.86a32.47,32.47,0,0,0,1.53-5.07,11,11,0,0,0,.31-3.19,9.56,9.56,0,0,0-.51-2.25,4.53,4.53,0,0,0-1.4-2.27C6.12,171.55,3.8,182.63,3.71,184.88Z"/></g><g class="cls-14"><path class="cls-13" d="M15.13,187.68a18.79,18.79,0,0,0,.58,3.47,11.77,11.77,0,0,0,3,5.4,2.79,2.79,0,0,0,3.59.56,2.63,2.63,0,0,0,1-1.66,7,7,0,0,0,.06-2q-.16-2.15-.52-4.27a13.18,13.18,0,0,0-1.54-4.74c-.81-1.32-3.07-3.48-4.83-2.63-1.22.59-1.38,2.59-1.44,3.76A17.62,17.62,0,0,0,15.13,187.68Z"/></g><g class="cls-15"><path class="cls-13" d="M27.08,185.46a5.82,5.82,0,0,0-.27,1.09A11.52,11.52,0,0,0,27.2,191a21,21,0,0,0,1.24,4.22A5.75,5.75,0,0,0,30,197.34a2.83,2.83,0,0,0,2.49.56c1.89-.58,2-3.32,1.85-4.88a22.6,22.6,0,0,0-1.76-7.64,4.83,4.83,0,0,0-1.48-2C29.18,182,27.7,183.7,27.08,185.46Z"/></g><path class="cls-16" d="M128.41,59.49a53.67,53.67,0,0,0-1.12-7,45.15,45.15,0,0,0-2.41-7.46c-7.61-20.24-23.17-27-34.3-29.18a39.51,39.51,0,0,0-9-1h0A34,34,0,0,0,77.9,15l0,0A81.5,81.5,0,0,0,32.34,32.8C20,42.69,9.38,56,4.84,70.9A44.36,44.36,0,0,0,2.91,87.24h0s-.77,11.54,9.64,21.6c.56.58,1.14,1.15,1.75,1.7a16.91,16.91,0,0,0,2.3,1.7c6.8,4.94,17,9.09,32.15,10.63h0a109,109,0,0,0,12,.55c19.18-.15,37.12-6,51-19a54.7,54.7,0,0,0,16.93-40.54A33.43,33.43,0,0,0,128.41,59.49Z"/><path class="cls-2" d="M105.09,177.2c5.95-4.08,10.45-9.73,15.46-14.81a77.85,77.85,0,0,1,18.53-14.18,20,20,0,0,1,7.89-2.69c2.83-.2,5.92.75,7.61,3a6.84,6.84,0,0,1,1.33,3.75c.09,1.45-.46,2.52-.72,3.9a2.19,2.19,0,0,0,.28,1.71,1.47,1.47,0,0,0,1.31.57c1.05-.11,1.94-1.89,2.49-2.69a15.73,15.73,0,0,0,1.92-3.78c1.73-5,.35-11.21-4.05-14.61-4.07-3.14-9.74-3.43-14.85-2.8-13.13,1.62-25,8.32-34.43,17-3.1,2.85-6.13,6-10.19,7.43-3.71,1.3-7.94,1-11.57,2.48A11.52,11.52,0,0,0,79,170.69C77.43,186,96.94,182.8,105.09,177.2Z"/><path class="cls-2" d="M105.09,177.2c5.95-4.08,10.45-9.73,15.46-14.81a77.85,77.85,0,0,1,18.53-14.18,20,20,0,0,1,7.89-2.69c2.83-.2,5.92.75,7.61,3a6.84,6.84,0,0,1,1.33,3.75c.09,1.45-.46,2.52-.72,3.9a2.19,2.19,0,0,0,.28,1.71,1.47,1.47,0,0,0,1.31.57c1.05-.11,1.94-1.89,2.49-2.69a15.73,15.73,0,0,0,1.92-3.78c1.73-5,.35-11.21-4.05-14.61-4.07-3.14-9.74-3.43-14.85-2.8-13.13,1.62-25,8.32-34.43,17-3.1,2.85-6.13,6-10.19,7.43-3.71,1.3-7.94,1-11.57,2.48A11.52,11.52,0,0,0,79,170.69C77.43,186,96.94,182.8,105.09,177.2Z"/><g class="cls-17"><path class="cls-18" d="M117.93,155.77c5.33-1.66,10-4.88,15.15-7.1s11.23-3.35,16.17-.74c-8.14.68-15.33,5.58-21.27,11.17s-11.09,12.06-17.53,17.08a51.76,51.76,0,0,1-21.9,9.95c-3.93.76-8.52.86-11.35-2-1.86-1.86-2.51-4.61-2.77-7.22a18.14,18.14,0,0,1,.76-8.08c1.45-3.9,4.73-6.81,8-9.35,4.86-3.74,10.63-7.21,16.72-6.46,3.25.4,5.36,2.73,8.66,3.38A19.26,19.26,0,0,0,117.93,155.77Z"/></g><circle class="cls-19" cx="59.91" cy="128.6" r="26.15"/><path class="cls-2" d="M117.19,48.35a5.36,5.36,0,0,0,.1-4.59,5.35,5.35,0,0,0-4.17-2.49,11.45,11.45,0,0,0-8,2.5,18.91,18.91,0,0,0-5.93,6.85C98,53.23,96.3,55.7,95.29,58.36a10.22,10.22,0,0,1-4.15,5.46,5.6,5.6,0,0,1-6.26-.14,6.62,6.62,0,0,1-2-3.67c-1.09-4.6.53-9,2.32-13.2a131.74,131.74,0,0,1,6.7-13.1c3.66-6.47,7.5-13,12.91-18.08,1.93-1.83,4.11-3.53,5.29-5.91a6.14,6.14,0,0,0-.24-6.18C106.62-.71,99.27,2.13,96,4.75,89.09,10.19,83.79,17.41,79.43,25c-3.81,6.66-6.95,13.67-10.23,20.6-2.29,4.83-3.84,12-9.92,13.44a5.72,5.72,0,0,1-4-.36,6.33,6.33,0,0,1-2.82-4,11.57,11.57,0,0,1-.13-5.57A33.61,33.61,0,0,1,55,42.58a12,12,0,0,0,1.4-6.82,4.34,4.34,0,0,0-1.54-2.84c-1.56-1.15-3.76-.6-5.53.19A27.57,27.57,0,0,0,34,51.7c-.75,3.2-.92,6.54-2,9.64a21.33,21.33,0,0,1-1,2.36c-.54,1-1.11,2-1.72,3l-.74,1.19c-.27.41-.54.83-.8,1.24C24,75,19.46,80.34,16.93,86.87A20.85,20.85,0,0,0,15.67,99c1.44,6.13,6.77,10.87,12,14.07,15.7,9.68,35.37,10.5,53.32,10.31q2.82,0,5.64-.11c7.61-.22,15.91-.94,21.43-6.18a26.18,26.18,0,0,0,5.66-8.89A33.88,33.88,0,0,0,116.79,95a29.11,29.11,0,0,0-3.71-17c-.67-1.12-1.44-2.18-2.08-3.32-4.19-7.5-.87-15.92,3.64-22.39A24.19,24.19,0,0,0,117.19,48.35Z"/><g class="cls-20"><path class="cls-21" d="M21.77,104.79c3.32,3,7.51,5,12.08,7a86,86,0,0,0,26.72,7.13c20.91,1.9,48.2-6.21,55.05-28.45A30.62,30.62,0,0,0,117,82.33a27.91,27.91,0,0,1,5,12.42,19,19,0,0,1-2.63,12.85c-2.1,3.2-5.29,5.53-8.58,7.49-7,4.17-14.72,7-22.54,9.26-10.44,3.05-21.37,5.23-32.17,3.9-9.05-1.12-17.66-4.67-25.59-9.19-6.11-3.48-12.07-7.75-15.59-13.83-2.5-4.32-4.88-13.5-.87-17.66,1.69.78,1.3,6.76,2,8.66A20.34,20.34,0,0,0,21.77,104.79Z"/><path class="cls-21" d="M107.64,8.66c-1.59,3.43-4.29,6.2-6.88,9C92,27,83.51,37.53,81.13,50.14c-.58,3.07-.76,6.34.42,9.23s4,5.28,7.13,5.13c-2.55-5.52-.85-12,1.24-17.7,1.86-5.07,4-10.11,7.43-14.31,2.55-3.15,5.7-5.73,8.62-8.53s5.68-5.92,7.13-9.7S114.48,5.91,112,2.67c-.83-1.11-5.13-4.47-5.28-1.43,0,.7,1.69,2.31,1.79,3.47A8.16,8.16,0,0,1,107.64,8.66Z"/><path class="cls-21" d="M115.19,43.65c.59,1.39,0,3-.69,4.32-2.15,4-5.55,7.42-7,11.75-2,5.84,0,12.57,4,17.23,1.91,2.19,4.35,4.21,4.92,7.06-.68-5.12-1.36-10.38-.11-15.39.92-3.66,2.83-7,4.26-10.49s2.37-7.43,1.26-11a10.7,10.7,0,0,0-8.4-7.12c-.8-.13-5.44-.35-3.48,1.21.73.58,2,.24,2.9.53A3.69,3.69,0,0,1,115.19,43.65Z"/><path class="cls-21" d="M53.33,33.77a3.49,3.49,0,0,1,.9,3.22A12.66,12.66,0,0,1,53,40.22,19.37,19.37,0,0,0,50.68,50.7c.41,3.6,2.59,7.15,6,8.41-.86-1.84-.47-4,.14-5.95,1.27-4,3.42-7.73,4.76-11.74,1-3.08,1.45-6.79-.63-9.28a7.85,7.85,0,0,0-3.72-2.31,10.64,10.64,0,0,0-9.42,1.42c-1.19.91-1.37,2.47.47,2.39S51.69,32.31,53.33,33.77Z"/></g><path class="cls-21" d="M50.11,82.39c0,9.43-7.1,16.6-15.7,15.47S20,88.06,20.92,79c.89-8.55,7.65-14.48,15.24-13.69S50.14,73.53,50.11,82.39Z"/><path class="cls-22" d="M48.54,80.47c0,9.09-6.89,16-15.23,14.9s-14-9.46-13.12-18.21C21,68.93,27.61,63.21,35,64S48.56,71.94,48.54,80.47Z"/><circle class="cls-23" cx="38.57" cy="80.47" r="5.63" transform="translate(-41.36 40.79) rotate(-37.99)"/><path class="cls-21" d="M75,85.32c-3.19,9.48,1.68,19.07,11,20.81s18.27-5,20.39-14.45c2-8.89-3-17.12-11.09-18.87S78,76.41,75,85.32Z"/><path class="cls-22" d="M77.11,83.83c-3.06,9.14,1.54,18.35,10.33,20s17.35-4.88,19.39-14c1.92-8.56-2.77-16.47-10.46-18.13S80,75.25,77.11,83.83Z"/><path class="cls-23" d="M82.31,82.64a5.86,5.86,0,0,0-1.69,8.27,6.25,6.25,0,0,0,8.5,1.68,5.86,5.86,0,0,0,1.69-8.27A6.25,6.25,0,0,0,82.31,82.64Z"/><path class="cls-24" d="M51.24,105.55a7.83,7.83,0,0,0,12.92,2.51"/><circle class="cls-25" cx="64.16" cy="77.36" r="5.82"/><circle class="cls-25" cx="69.97" cy="64.67" r="2.71"/><path class="cls-10" d="M71.33,174.59,69,207.91a4.06,4.06,0,0,1-4.33,3.72L47,211.37s6.94-20,6.19-41.35Z"/><path class="cls-10" d="M75.26,172.85s4.16,30,8.83,38.1c0,0,1.52,2.64,21.2,2L94.54,165.87Z"/><path class="cls-26" d="M40.86,211.14a.22.22,0,0,1-.22-.28,8.47,8.47,0,0,1,2.72-3.76,8.94,8.94,0,0,1,4.58-1.64,12.92,12.92,0,0,1,6.5,1.49c2,1,3.87,2.26,4.65,4.19A165.68,165.68,0,0,1,40.86,211.14Z"/><path class="cls-26" d="M109.19,212.71a.22.22,0,0,0,.22-.28,8.47,8.47,0,0,0-2.72-3.76A8.94,8.94,0,0,0,102.1,207a12.92,12.92,0,0,0-6.5,1.49c-2,1-3.87,2.26-4.65,4.19A165.68,165.68,0,0,0,109.19,212.71Z"/><g class="cls-27"><g class="cls-28"><path class="cls-26" d="M104.1,168.76c-11.48.05-22.66,5.13-28.89,13.12,0-2.86-.28-5.59-.27-8.46A.68.68,0,0,1,75,173a.89.89,0,0,1,.34-.25c8-4.13,17.45-6,26.68-7.77a.83.83,0,0,1,.49,0,.6.6,0,0,1,.29.41C103.16,166.54,103.75,167.64,104.1,168.76Z"/><path class="cls-26" d="M91.54,214.58a3.88,3.88,0,0,1-2.41-2c-.71-1-1.41-2.06-2-3.15a38.45,38.45,0,0,1-3.06-7.88,171.67,171.67,0,0,1-5.59-26.17l-2.3,2.74a5.58,5.58,0,0,0-1.45,5.94L77.82,202a28,28,0,0,0,1.39,5.64,9.39,9.39,0,0,0,3.5,4.53C85.29,213.86,88.66,213.53,91.54,214.58Z"/></g></g><g class="cls-27"><g class="cls-29"><path class="cls-26" d="M52.22,174.51A38.92,38.92,0,0,1,64,178.32a21.24,21.24,0,0,1,8.63,8L74,178,53.74,170l-1.53,4.19"/><path class="cls-26" d="M60.8,212.7a12.65,12.65,0,0,0,3.89-3.34A10.36,10.36,0,0,0,66,204.83c1.12-9.11,2.23-18.35.5-27.39a28.47,28.47,0,0,1,4.64,2.85,2.54,2.54,0,0,1,.73.77,2.2,2.2,0,0,1,.19.88,81.22,81.22,0,0,1-.4,12.32A93.17,93.17,0,0,1,69.82,208a7.48,7.48,0,0,1-1.88,3.91C66.22,213.52,63.35,212.58,60.8,212.7Z"/></g></g><path class="cls-4" d="M47.58,160.92q.15.42.33.84c.75,1.79.3,3.68.13,5.54a5.56,5.56,0,0,0,0,1.14c.06.56.7.87,1.28,1.21s1.37.83,2,1.23a34.41,34.41,0,0,0,5.24,2.64q5.31,2,10.75,3.66c1.37.41,3.64,1.57,5.08,1.38s3.5-2,4.82-2.7A141.4,141.4,0,0,1,90,169.64c2.18-.93,4.38-1.77,6.59-2.62,1.33-.51,1.37-.44,1.82-1.55a15.54,15.54,0,0,0,.49-3.51c1.29-9.54,2.76-19.06,4.59-28.52.47-2.48-1.84-4.48-3.32-6.52a16,16,0,0,0-7.93-5.48c-3.09-1-5.44,3.91-8.7,3.74A68.63,68.63,0,0,0,64.72,127c-5.91,1.42-11.86-1.69-16.45,2.28a13.63,13.63,0,0,0-2.43,2.6,12.91,12.91,0,0,0-1.81,4.8,32.48,32.48,0,0,0,.48,12.8c.45,2.15,1,4.28,1.6,6.39C46.57,157.55,47,159.27,47.58,160.92Z"/><path class="cls-6" d="M47.07,165.84a46.41,46.41,0,0,0,18.31,4.68,61.17,61.17,0,0,0,11.28-.66c5.77-.82,11.58-2.25,16.46-5.44l.44-15.88,7,1.45,3.46-20.34-20-2.35L48.85,157.6Z"/><polygon class="cls-30" points="19.68 119.82 11.52 130.78 37.56 146.65 40.47 134.24 40.24 127.09 19.68 119.82"/><path class="cls-10" d="M125.3,83.62a53.24,53.24,0,0,1-13.59,20.79c-13.85,13-31.79,18.85-51,19a109,109,0,0,1-12-.55h0c-15.18-1.54-25.34-5.69-32.15-10.63a16.9,16.9,0,0,1-2.3-1.7c-.61-.55-1.19-1.12-1.75-1.7a34.1,34.1,0,0,1-2.83-3.09,19.53,19.53,0,0,0,5,14.61c4.13,4.69,10,7.55,16.06,9.14,0,0,1.15,14.68,13.22,34.35,0,0,10.73,10.51,44.48.67L88,130.33S144.27,100.39,125.3,83.62Z"/><g class="cls-31"><path class="cls-32" d="M127.74,62.18a54.21,54.21,0,0,0-1.11-7,45.5,45.5,0,0,0-2.39-7.46c-7.53-20.24-22.93-27-33.94-29.18a38.69,38.69,0,0,0-8.9-1h0a33.32,33.32,0,0,0-3.59.09l0,0A80.15,80.15,0,0,0,32.7,35.48C20.48,45.37,10,58.73,5.49,73.59A44.81,44.81,0,0,0,3.58,89.93h0s-.76,11.54,9.54,21.6c.55.58,1.13,1.15,1.73,1.7a16.74,16.74,0,0,0,2.28,1.7c6.73,4.94,16.78,9.09,31.8,10.63h0a106.72,106.72,0,0,0,11.9.55c19-.15,36.72-6,50.43-19A55,55,0,0,0,128,66.55,33.79,33.79,0,0,0,127.74,62.18Z"/></g><path class="cls-33" d="M38.56,135.17c1.14,3.68,5.39,17.19,8.22,24.2a2.1,2.1,0,0,0,1.58,1.28,99,99,0,0,0,25.53.86,1.42,1.42,0,0,0,1.28-1.27l2.55-25.38a.87.87,0,0,0-.87-1l-37.59.31A.74.74,0,0,0,38.56,135.17Z"/><path class="cls-26" d="M88.41,164.53l1.06-1a2,2,0,0,0,.62-1.5V128.54L88,130.33Z"/><polygon class="cls-34" points="110.98 125.97 128.53 115.47 135.57 128.65 123.05 137.03 110.98 125.97"/><path class="cls-30" d="M129.23,112.91l-11.51-3.7a.85.85,0,0,0-.69.08L87.88,126.74a.82.82,0,0,0-.35,1l6.2,17a.77.77,0,0,0,.63.5l14.23,1.59a.78.78,0,0,0,.5-.12l27.37-17.38a.75.75,0,0,0,.28-1l-7.07-15.09A.73.73,0,0,0,129.23,112.91Zm-25.06,19,23.92-15.31,6,12.4L109,144.41Z"/><polygon class="cls-35" points="90.58 126.96 117.1 110.6 128.22 114.35 102.99 130.22 90.58 126.96"/><path class="cls-10" d="M132.35,189.43l-.06.1a19.69,19.69,0,0,0-2.53,6.94,10.24,10.24,0,0,0,.54,6.07,3.14,3.14,0,0,0,2.16,1.92,2.84,2.84,0,0,0,1.9-.5,8.25,8.25,0,0,0,2.58-3.07,38.09,38.09,0,0,0,2.68-6.45c.64-1.92,1.17-4,.5-5.94a3.45,3.45,0,0,0-.59-1.08,3.29,3.29,0,0,0-2.59-1.07A5.79,5.79,0,0,0,132.35,189.43Z"/><path class="cls-10" d="M143.16,183.41a14.77,14.77,0,0,0-1.24,8.11,5.7,5.7,0,0,0,1.54,3.25,2.15,2.15,0,0,0,3.65-.45,18,18,0,0,0,2.55-10.94,4.16,4.16,0,0,0-1.52-3.08,2.32,2.32,0,0,0-2.17,0,4.65,4.65,0,0,0-2.08,1.83A10.7,10.7,0,0,0,143.16,183.41Z"/><path class="cls-10" d="M121,186.54l-.09.09a19.69,19.69,0,0,0-4.1,6.15,10.24,10.24,0,0,0-.9,6,3.14,3.14,0,0,0,1.64,2.37,2.84,2.84,0,0,0,2,0,8.25,8.25,0,0,0,3.23-2.38,38.09,38.09,0,0,0,4.12-5.64c1.08-1.72,2.09-3.64,1.89-5.66a3.45,3.45,0,0,0-.32-1.19,3.29,3.29,0,0,0-2.27-1.65A5.79,5.79,0,0,0,121,186.54Z"/><g class="cls-36"><path class="cls-13" d="M132.62,194.62a10.46,10.46,0,0,0,.69,6,2.93,2.93,0,0,0,2.15,1.9,2.59,2.59,0,0,0,1.55-.45,6.66,6.66,0,0,0,2.61-3.48,19.81,19.81,0,0,0,.86-4.35l.38-3.1a6.15,6.15,0,0,0,0-2.14c-.59-2.52-4.05-3.09-5.77-1.36a5.91,5.91,0,0,0-1.16,2.4A28.58,28.58,0,0,0,132.62,194.62Z"/></g><g class="cls-37"><path class="cls-13" d="M119,193.38a7.2,7.2,0,0,0,.88,6.41,2.59,2.59,0,0,0,2,1.15,2.64,2.64,0,0,0,1.13-.33c2.48-1.26,3.84-4,5-6.47.77-1.64,1.55-3.52.86-5.19a3.75,3.75,0,0,0-2.9-2.17C122.29,186.22,119.93,190.37,119,193.38Z"/></g><g class="cls-38"><path class="cls-13" d="M144.05,190.94a5.19,5.19,0,0,0,1,2.1,2.41,2.41,0,0,0,2,.91c1.23-.15,2-1.42,2.41-2.58a19.66,19.66,0,0,0,1.16-8.64,3.64,3.64,0,0,0-1.26-2.85,2.62,2.62,0,0,0-3,.41,9.42,9.42,0,0,0-2.38,4.8A12.72,12.72,0,0,0,144.05,190.94Z"/></g><path class="cls-4" d="M114,125.23a1.06,1.06,0,0,1,1.34.15c7.5,7.88,14.64,15.41,20.76,24.44s11,19.54,12.15,30.54a1.07,1.07,0,0,1-.19.73c-3.85,5.41-9.68,9.49-16.29,10.07a19.6,19.6,0,0,1-4.45-.13,20.16,20.16,0,0,1-7.58-2.69,18.59,18.59,0,0,1-3.2-2.44c-.88-.84-2.12-1.85-2.34-3.1a25.28,25.28,0,0,1,0-3.95q0-2-.09-4c-.09-2.61-.24-5.21-.48-7.81a96.69,96.69,0,0,0-3.24-17.83,76.24,76.24,0,0,0-3-8.55c-.24-.56-2.62-5.43-3.63-7.37a1,1,0,0,1,.33-1.34C107.48,129.56,110.5,127.55,114,125.23Z"/><g class="cls-39"><path class="cls-6" d="M120.78,135.86a8.16,8.16,0,0,0-5,1.76A7.73,7.73,0,0,0,113,143.5a15.29,15.29,0,0,0,1.09,5,86.8,86.8,0,0,1,3.24,11.37c.87,4.51.56,9.16.16,13.74a36.57,36.57,0,0,0-.18,6.91,11.56,11.56,0,0,0,2.46,6.36A15.29,15.29,0,0,0,124,190c1.1.62,4.54,1.88,1.88,2.52-3.68.88-7.92-.84-11.15-2.45a19.62,19.62,0,0,1-7.4-5.68,17.13,17.13,0,0,1-2.78-9.9,101.06,101.06,0,0,1,.88-10.4c.61-6.52.26-13.27-2.21-19.34-1.14-2.8-2.72-5.44-3.55-8.35s-.79-6.3,1.09-8.67a10.86,10.86,0,0,1,5.34-3.24,42,42,0,0,1,7.41-1.56,11.19,11.19,0,0,1,5,.15c3,1,4.67,4.09,6.06,6.92,1.13,2.3,2.37,4.59,3.37,6.93s2.87,3.71,4.47,5.48a13.59,13.59,0,0,1,3.41,5.81c-2.62-2.69-5.25-5.37-8.1-7.81-1.65-1.41-3.64-3.63-5.72-4.37A4.17,4.17,0,0,0,120.78,135.86Z"/><path class="cls-6" d="M137.87,151.74a31.51,31.51,0,0,1,4,9c1.54,5.09,2.74,10.36,2.46,15.67s-2.19,10.69-6.08,14.31a8.17,8.17,0,0,0,4.47-.87,15.48,15.48,0,0,0,8.67-11.52,21.29,21.29,0,0,0-.76-8.79,35.28,35.28,0,0,0-9.35-15.85c-.53-.51-1.46-1-1.89-.4"/><path class="cls-40" d="M105.69,143.52A19.91,19.91,0,0,1,124.77,133"/><path class="cls-40" d="M110.09,153a20.4,20.4,0,0,1,25.54-8.53"/><path class="cls-40" d="M112.51,161.74a26.62,26.62,0,0,1,7.64-4.47,43,43,0,0,1,12.44-3.48,21.81,21.81,0,0,1,12.57,2.26"/><path class="cls-41" d="M113.87,172.3c8.81-6,21.24-8.31,32.15-6.06"/><path class="cls-8" d="M113.49,179.05A39.6,39.6,0,0,0,149,174.68"/></g><polyline class="cls-10" points="107.3 145.25 101.93 132.28 89.53 129.1"/><path class="cls-30" d="M107.58,146.7l1.22.06,0-.42-4.65-14.44,11.68-7.38L115,123l-12.85,8.21,5.7,14.42Z"/><path class="cls-11" d="M126.18,143.71c.12.23.23.46.33.69a39.21,39.21,0,0,1,2.93,13.47c.34,4.77.26,9.8-2.61,13.92a1.64,1.64,0,0,1-.68.63c-1.84.78-4.21-.58-5.1-1.94a6.73,6.73,0,0,1-1-2.87c-.68-5.1-.29-10-1.81-15.14-.73-2.46-1.72-4.92-1.66-7.4a5.3,5.3,0,0,1,1.37-3.66,4.72,4.72,0,0,1,4.26-1.25A6.1,6.1,0,0,1,126.18,143.71Z"/><circle class="cls-42" cx="63.44" cy="39.09" r="13.9" transform="translate(-8.57 19.91) rotate(-16.73)"/><circle class="cls-42" cx="38.09" cy="49.91" r="6.17" transform="translate(-24.69 50.36) rotate(-53.06)"/><path class="cls-43" d="M48,156.06l-6-17.19a2.31,2.31,0,0,1,2.18-3.07H68.93a.82.82,0,0,1,.56,1.41L49.32,156.39A.82.82,0,0,1,48,156.06Z"/><ellipse class="cls-44" cx="47.79" cy="140.61" rx="3.86" ry="3.8"/><path class="cls-45" d="M124.73,60.13a49.81,49.81,0,0,0-1.05-6.51,42,42,0,0,0-2.27-7C116.27,33.08,107.29,26,98.75,22.33a16.32,16.32,0,0,1-5.66,1c-5.18,0-9.38-2.09-9.52-4.7-1-.07-1.95-.12-2.93-.11h0a32.24,32.24,0,0,0-3.42.08l0,0A77.06,77.06,0,0,0,34.3,35.19C22.68,44.43,12.68,56.91,8.4,70.79A41.15,41.15,0,0,0,6.59,86.06h0s-.72,10.78,9.08,20.18c.53.54,1.07,1.07,1.65,1.59a15.89,15.89,0,0,0,2.17,1.59c6.4,4.62,16,8.49,30.26,9.93h0a103.4,103.4,0,0,0,11.32.51c18.05-.14,34.94-5.63,48-17.75a50.92,50.92,0,0,0,15.94-37.88A31.07,31.07,0,0,0,124.73,60.13Z"/></g></g></svg>